<?xml version="1.0" encoding="UTF-8"?>
<svg width="65px" height="65px" viewBox="0 0 65 65" version="1.1" xmlns="http://www.w3.org/2000/svg" xmlns:xlink="http://www.w3.org/1999/xlink">
    <!-- Generator: Sketch 55 (78076) - https://sketchapp.com -->
    <title>accountability</title>
    <desc>Created with Sketch.</desc>
    <g id="Page-1-Copy" stroke="none" stroke-width="1" fill="none" fill-rule="evenodd">
        <g id="Artboard" transform="translate(-2569.000000, -1614.000000)" fill="#000000" fill-rule="nonzero">
            <g id="accountability" transform="translate(2569.000000, 1614.000000)">
                <path d="M24.9166667,39 C18.9334716,39 14.0833333,43.8501383 14.0833333,49.8333333 C14.0833333,55.8165284 18.9334716,60.6666667 24.9166667,60.6666667 C30.8998617,60.6666667 35.75,55.8165284 35.75,49.8333333 C35.7436523,43.8527833 30.8972167,39.0063477 24.9166667,39 Z M24.9166667,58.5 C20.1300049,58.5 16.25,54.6199951 16.25,49.8333333 C16.25,45.0466716 20.1300049,41.1666667 24.9166667,41.1666667 C29.7033284,41.1666667 33.5833333,45.0466716 33.5833333,49.8333333 C33.5780437,54.6173503 29.7006836,58.4947104 24.9166667,58.5 Z" id="Shape"></path>
                <path d="M24.9166667,46.5833333 C26.239624,46.5833333 27.0833333,47.2244466 27.0833333,47.6666667 L29.25,47.6666667 C29.25,46.12736 27.8863119,44.8805745 26,44.5251058 L26,43.3333333 L23.8333333,43.3333333 L23.8333333,44.5251058 C21.9470214,44.8779297 20.5833333,46.1252442 20.5833333,47.6666667 C20.5833333,49.490031 22.4865723,50.9166667 24.9166667,50.9166667 C26.239624,50.9166667 27.0833333,51.5577799 27.0833333,52 C27.0833333,52.4422201 26.239624,53.0833333 24.9166667,53.0833333 C23.5937093,53.0833333 22.75,52.4422201 22.75,52 L20.5833333,52 C20.5833333,53.5393067 21.9470214,54.7860922 23.8333333,55.1415609 L23.8333333,56.3333333 L26,56.3333333 L26,55.1415609 C27.8863119,54.788737 29.25,53.5414225 29.25,52 C29.25,50.1766357 27.346761,48.75 24.9166667,48.75 C23.5937093,48.75 22.75,48.1088867 22.75,47.6666667 C22.75,47.2244466 23.5937093,46.5833333 24.9166667,46.5833333 Z" id="Path"></path>
                <path d="M55.25,62.8333333 L9.75,62.8333333 L9.75,36.8333333 L27.0833333,36.8333333 C28.8781331,36.8333333 30.3333333,35.3781331 30.3333333,33.5833333 L30.3333333,6.5 L42.25,6.5 L42.25,19.5 L55.25,19.5 L55.25,34.6666667 L57.4166667,34.6666667 L57.4166667,17.968099 L43.781901,4.33333333 L30.3333333,4.33333333 L30.3333333,3.25 C30.3333333,1.45520023 28.8781331,0 27.0833333,0 L3.25,0 C1.45520023,0 0,1.45520023 0,3.25 L0,33.5833333 C0,35.3781331 1.45520023,36.8333333 3.25,36.8333333 L7.58333333,36.8333333 L7.58333333,65 L57.4166667,65 L57.4166667,49.8333333 L55.25,49.8333333 L55.25,62.8333333 Z M44.4166667,8.03190104 L53.718099,17.3333333 L44.4166667,17.3333333 L44.4166667,8.03190104 Z M2.16666667,33.5833333 L2.16666667,3.25 C2.16666667,2.65173336 2.65173336,2.16666667 3.25,2.16666667 L27.0833333,2.16666667 C27.6816,2.16666667 28.1666667,2.65173336 28.1666667,3.25 L28.1666667,33.5833333 C28.1666667,34.1816 27.6816,34.6666667 27.0833333,34.6666667 L3.25,34.6666667 C2.65173336,34.6666667 2.16666667,34.1816 2.16666667,33.5833333 Z" id="Shape"></path>
                <polygon id="Path" points="34.6666667 27.0833333 36.8333333 27.0833333 36.8333333 29.25 34.6666667 29.25"></polygon>
                <polygon id="Path" points="39 27.0833333 52 27.0833333 52 29.25 39 29.25"></polygon>
                <polygon id="Path" points="34.6666667 22.75 36.8333333 22.75 36.8333333 24.9166667 34.6666667 24.9166667"></polygon>
                <polygon id="Path" points="39 22.75 52 22.75 52 24.9166667 39 24.9166667"></polygon>
                <polygon id="Path" points="34.6666667 31.4166667 36.8333333 31.4166667 36.8333333 33.5833333 34.6666667 33.5833333"></polygon>
                <polygon id="Path" points="39 31.4166667 52 31.4166667 52 33.5833333 39 33.5833333"></polygon>
                <polygon id="Path" points="34.6666667 35.75 36.8333333 35.75 36.8333333 37.9166667 34.6666667 37.9166667"></polygon>
                <polygon id="Path" points="39 35.75 52 35.75 52 37.9166667 39 37.9166667"></polygon>
                <path d="M27.0833333,3.25 L3.25,3.25 L3.25,10.8333333 L27.0833333,10.8333333 L27.0833333,3.25 Z M24.9166667,8.66666667 L5.41666667,8.66666667 L5.41666667,5.41666667 L24.9166667,5.41666667 L24.9166667,8.66666667 Z" id="Shape"></path>
                <path d="M8.66666667,11.9166667 L6.5,11.9166667 C5.30346673,11.9166667 4.33333333,12.8868001 4.33333333,14.0833333 L4.33333333,16.25 C4.33333333,17.4465333 5.30346673,18.4166667 6.5,18.4166667 L8.66666667,18.4166667 C9.86319994,18.4166667 10.8333333,17.4465333 10.8333333,16.25 L10.8333333,14.0833333 C10.8333333,12.8868001 9.86319994,11.9166667 8.66666667,11.9166667 Z M6.5,16.25 L6.5,14.0833333 L8.66666667,14.0833333 L8.66666667,16.25 L6.5,16.25 Z" id="Shape"></path>
                <path d="M16.25,11.9166667 L14.0833333,11.9166667 C12.8868001,11.9166667 11.9166667,12.8868001 11.9166667,14.0833333 L11.9166667,16.25 C11.9166667,17.4465333 12.8868001,18.4166667 14.0833333,18.4166667 L16.25,18.4166667 C17.4465333,18.4166667 18.4166667,17.4465333 18.4166667,16.25 L18.4166667,14.0833333 C18.4166667,12.8868001 17.4465333,11.9166667 16.25,11.9166667 Z M14.0833333,16.25 L14.0833333,14.0833333 L16.25,14.0833333 L16.25,16.25 L14.0833333,16.25 Z" id="Shape"></path>
                <path d="M23.8333333,11.9166667 L21.6666667,11.9166667 C20.4701334,11.9166667 19.5,12.8868001 19.5,14.0833333 L19.5,16.25 C19.5,17.4465333 20.4701334,18.4166667 21.6666667,18.4166667 L23.8333333,18.4166667 C25.0298666,18.4166667 26,17.4465333 26,16.25 L26,14.0833333 C26,12.8868001 25.0298666,11.9166667 23.8333333,11.9166667 Z M21.6666667,16.25 L21.6666667,14.0833333 L23.8333333,14.0833333 L23.8333333,16.25 L21.6666667,16.25 Z" id="Shape"></path>
                <path d="M8.66666667,19.5 L6.5,19.5 C5.30346673,19.5 4.33333333,20.4701334 4.33333333,21.6666667 L4.33333333,23.8333333 C4.33333333,25.0298666 5.30346673,26 6.5,26 L8.66666667,26 C9.86319994,26 10.8333333,25.0298666 10.8333333,23.8333333 L10.8333333,21.6666667 C10.8333333,20.4701334 9.86319994,19.5 8.66666667,19.5 Z M6.5,23.8333333 L6.5,21.6666667 L8.66666667,21.6666667 L8.66666667,23.8333333 L6.5,23.8333333 Z" id="Shape"></path>
                <path d="M16.25,19.5 L14.0833333,19.5 C12.8868001,19.5 11.9166667,20.4701334 11.9166667,21.6666667 L11.9166667,23.8333333 C11.9166667,25.0298666 12.8868001,26 14.0833333,26 L16.25,26 C17.4465333,26 18.4166667,25.0298666 18.4166667,23.8333333 L18.4166667,21.6666667 C18.4166667,20.4701334 17.4465333,19.5 16.25,19.5 Z M14.0833333,23.8333333 L14.0833333,21.6666667 L16.25,21.6666667 L16.25,23.8333333 L14.0833333,23.8333333 Z" id="Shape"></path>
                <path d="M23.8333333,19.5 L21.6666667,19.5 C20.4701334,19.5 19.5,20.4701334 19.5,21.6666667 L19.5,23.8333333 C19.5,25.0298666 20.4701334,26 21.6666667,26 L23.8333333,26 C25.0298666,26 26,25.0298666 26,23.8333333 L26,21.6666667 C26,20.4701334 25.0298666,19.5 23.8333333,19.5 Z M21.6666667,23.8333333 L21.6666667,21.6666667 L23.8333333,21.6666667 L23.8333333,23.8333333 L21.6666667,23.8333333 Z" id="Shape"></path>
                <path d="M8.66666667,27.0833333 L6.5,27.0833333 C5.30346673,27.0833333 4.33333333,28.0534667 4.33333333,29.25 L4.33333333,31.4166667 C4.33333333,32.6131999 5.30346673,33.5833333 6.5,33.5833333 L8.66666667,33.5833333 C9.86319994,33.5833333 10.8333333,32.6131999 10.8333333,31.4166667 L10.8333333,29.25 C10.8333333,28.0534667 9.86319994,27.0833333 8.66666667,27.0833333 Z M6.5,31.4166667 L6.5,29.25 L8.66666667,29.25 L8.66666667,31.4166667 L6.5,31.4166667 Z" id="Shape"></path>
                <path d="M16.25,27.0833333 L14.0833333,27.0833333 C12.8868001,27.0833333 11.9166667,28.0534667 11.9166667,29.25 L11.9166667,31.4166667 C11.9166667,32.6131999 12.8868001,33.5833333 14.0833333,33.5833333 L16.25,33.5833333 C17.4465333,33.5833333 18.4166667,32.6131999 18.4166667,31.4166667 L18.4166667,29.25 C18.4166667,28.0534667 17.4465333,27.0833333 16.25,27.0833333 Z M14.0833333,31.4166667 L14.0833333,29.25 L16.25,29.25 L16.25,31.4166667 L14.0833333,31.4166667 Z" id="Shape"></path>
                <path d="M23.8333333,27.0833333 L21.6666667,27.0833333 C20.4701334,27.0833333 19.5,28.0534667 19.5,29.25 L19.5,31.4166667 C19.5,32.6131999 20.4701334,33.5833333 21.6666667,33.5833333 L23.8333333,33.5833333 C25.0298666,33.5833333 26,32.6131999 26,31.4166667 L26,29.25 C26,28.0534667 25.0298666,27.0833333 23.8333333,27.0833333 Z M21.6666667,31.4166667 L21.6666667,29.25 L23.8333333,29.25 L23.8333333,31.4166667 L21.6666667,31.4166667 Z" id="Shape"></path>
                <path d="M64.0161133,34.5672201 C62.7301839,33.3394776 60.7068685,33.3394776 59.4209391,34.5672201 L40.8492839,53.1383464 C40.7593588,53.2293294 40.6858317,53.3351237 40.6324057,53.4514974 L38.0171713,59.1305339 C37.8283284,59.5420735 37.9156088,60.0281982 38.2361654,60.348226 C38.556193,60.6687826 39.0423177,60.7560628 39.4538574,60.5672201 L45.1328938,57.9519857 C45.2492676,57.8985596 45.3550619,57.8255615 45.4460449,57.7351074 L64.0161133,39.1634521 C65.2856445,37.8944499 65.2856445,35.8362224 64.0161133,34.5672201 Z M44.0495605,56.0646159 L41.2111003,57.3722331 L42.5187174,54.5337729 L56.3656006,40.6858317 L57.8975016,42.2177328 L44.0495605,56.0646159 Z M59.4325765,40.6810709 L57.9006755,39.1496989 L58.6592203,38.3911539 L60.1911214,39.923055 L59.4325765,40.6810709 Z M62.4879151,37.6262614 L61.7219646,38.3922119 L60.1900635,36.8603109 L60.9570719,36.0943604 C61.3850098,35.6849365 62.0594482,35.6849365 62.4879151,36.0943604 C62.9105631,36.5175375 62.9105631,37.2030843 62.4879151,37.6262614 Z" id="Shape"></path>
            </g>
        </g>
    </g>
</svg>