<?xml version="1.0" encoding="UTF-8"?>
<svg width="68px" height="64px" viewBox="0 0 68 64" version="1.1" xmlns="http://www.w3.org/2000/svg" xmlns:xlink="http://www.w3.org/1999/xlink">
    <!-- Generator: Sketch 55 (78076) - https://sketchapp.com -->
    <title>agile</title>
    <desc>Created with Sketch.</desc>
    <g id="Page-1-Copy" stroke="none" stroke-width="1" fill="none" fill-rule="evenodd">
        <g id="Artboard" transform="translate(-2461.000000, -1616.000000)" fill="#000000" fill-rule="nonzero">
            <g id="agile" transform="translate(2461.000000, 1616.000000)">
                <path d="M54.4745986,11.2167837 C54.4580665,11.1877099 54.4398241,11.1597763 54.4204417,11.1324127 C54.338921,11.0394906 54.2505594,10.9539795 54.1678987,10.8621975 C54.0516035,10.7339307 53.9347382,10.6096545 53.8144526,10.483098 C53.0448521,9.65877046 52.2285055,8.87947873 51.3694035,8.14807325 C51.2166235,8.01809629 51.0649837,7.88640907 50.9087834,7.7587124 C50.6727726,7.56545729 50.4316311,7.37847289 50.1893495,7.19262857 C50.009206,7.05467064 49.8273522,6.91842282 49.6437883,6.78388526 C49.5029799,6.68127187 49.3673023,6.57067752 49.2242136,6.47034442 C49.2025507,6.45552241 49.1763273,6.4498216 49.1540944,6.43613981 C40.2911478,0.238291023 28.73631,-0.57976562 19.0883709,4.30748211 C9.43986189,9.19415979 3.26367586,18.9937387 3.01626364,29.8063395 L3.00942275,30.0161269 C3.00429212,30.1797383 2.99916134,30.3433497 2.99916134,30.5081012 C2.99916134,30.9162744 3.01170305,31.3324287 3.03051547,31.7502933 C3.03849644,31.9355674 3.04761763,32.1208416 3.05901926,32.3055457 C3.0704206,32.4805586 3.08524261,32.6618423 3.10006462,32.8414156 C3.13882953,33.3390905 3.19070634,33.8339152 3.25512485,34.3247493 C3.25968545,34.3606638 3.26367586,34.3971486 3.26823645,34.4336334 L3.26823645,34.4438948 C3.5834877,36.791461 4.18434604,39.0911412 5.05712997,41.2927684 C5.06511094,41.3178519 5.06967153,41.342935 5.07936291,41.3680184 C5.11470745,41.4558098 5.15404254,41.5430311 5.18995726,41.6279723 C5.27261802,41.8292085 5.35755921,42.0298747 5.44421052,42.2288307 C5.55138436,42.4751028 5.66197886,42.7190946 5.77599374,42.9613762 C5.84554289,43.1090255 5.91509189,43.2566748 5.98692134,43.4031839 C6.14255161,43.719005 6.30274248,44.031406 6.46749394,44.3403862 C6.50682918,44.4133557 6.54445402,44.4868953 6.5843593,44.5592948 C7.66864072,46.5534151 8.98152208,48.4147079 10.4956397,50.1049785 C10.521293,50.1312018 10.5486565,50.155715 10.5771602,50.178518 C17.0971011,57.4110519 26.7798146,60.9369619 36.4237631,59.5915864 C46.0671415,58.2456408 54.4147409,52.2028522 58.7051207,43.4619016 C58.7176624,43.4402387 58.7353347,43.4231365 58.7473062,43.4003336 C58.9690651,42.9476944 59.174862,42.484224 59.373248,42.016763 C59.419424,41.9084488 59.4627496,41.7995647 59.5072154,41.6906804 C59.6240807,41.4096338 59.7352451,41.1274469 59.8429893,40.8418397 C59.9188092,40.6400333 59.9912085,40.4370868 60.0630379,40.2341403 C60.1291666,40.0437356 60.1941551,39.8533306 60.2568632,39.6617856 C60.3423743,39.4018317 60.424465,39.1407377 60.5031354,38.8779335 C60.5168172,38.8311873 60.5333493,38.7850113 60.5470311,38.7382651 C60.5504516,38.7268636 60.5498815,38.713752 60.5527319,38.7023504 C63.3552176,29.1034379 61.0629484,18.7383453 54.4745986,11.2167837 Z M48.5287228,8.49923907 C48.9123828,8.78142593 49.2886319,9.07330402 49.6580401,9.37487334 C49.833053,9.51967231 50.0080657,9.67074199 50.178518,9.8201014 C50.4470231,10.053832 50.7121077,10.2869924 50.9720616,10.5287039 C51.0632735,10.613645 51.151635,10.6997262 51.2417069,10.7863775 L31.6653521,10.7863775 C30.9875337,10.7863775 30.437982,10.2368258 30.437982,9.55843737 C30.437982,8.88061881 30.9875337,8.33106724 31.6653521,8.33106724 L48.2915719,8.33106724 C48.369672,8.38693446 48.4500525,8.4416616 48.5287228,8.49923907 Z M5.06511094,31.4059684 C5.05827004,31.2121431 5.05256937,31.0183178 5.05028908,30.8222122 L11.9105642,30.8222122 C12.5889528,30.8222122 13.1385045,31.3717639 13.1385045,32.0501524 C13.1385045,32.7279708 12.5889528,33.2780927 11.9105642,33.2780927 L5.18824701,33.2780927 C5.12268841,32.6481605 5.08677384,32.0222187 5.06511094,31.4059684 Z M11.3650031,47.9666294 C11.1894202,47.7591223 11.026379,47.5459146 10.8593471,47.3327067 C10.7111277,47.144012 10.5606281,46.9558875 10.4175394,46.7632024 C10.2419566,46.5266215 10.0732146,46.28491 9.9050426,46.0426284 C9.74941232,45.8202993 9.5983425,45.5951199 9.45297364,45.3682304 C9.31159519,45.1516021 9.16850648,44.9361139 9.03396893,44.714925 C8.774015,44.2867993 8.52546257,43.8529726 8.28831162,43.4134452 C8.20451065,43.2578149 8.12641049,43.097624 8.04545986,42.9402835 C7.85163456,42.5611841 7.66522035,42.1780941 7.48849721,41.7893033 C7.45258249,41.7094929 7.41552769,41.6296824 7.38018301,41.549302 C9.06076246,41.097233 10.8382543,41.8001347 11.7560742,43.2783376 C12.6738939,44.7565406 12.5148431,46.6617291 11.3650031,47.9671996 L11.3650031,47.9666294 Z M32.3648334,57.8323369 C24.9578569,57.8351872 17.8695518,54.8206338 12.7326116,49.4847375 C14.6281089,47.5162707 14.9456403,44.5119786 13.5033522,42.1912057 C12.0604938,39.8704329 9.226654,38.8249164 6.62255418,39.6532346 C6.12145875,38.2434406 5.73836876,36.7948816 5.47670472,35.3223794 L11.9105642,35.3223794 C13.7171301,35.3223794 15.1816512,33.8578583 15.1816512,32.0512926 C15.1816512,30.2447269 13.7171301,28.7802056 11.9105642,28.7802056 L5.10444603,28.7802056 C5.68250154,19.5558319 10.8884209,11.2509882 18.9384413,6.7103457 C26.9884619,2.16970321 36.7891809,2.01065242 44.9822899,6.28735043 L31.6653521,6.28735043 C29.8593564,6.28735043 28.3948354,7.75187166 28.3948354,9.55786733 C28.3948354,11.364433 29.8593564,12.8289541 31.6653521,12.8289541 L53.1702684,12.8289541 C58.9570936,19.6174 61.0578177,28.8064291 58.7957625,37.434505 L52.3653234,37.434505 C50.5593277,37.434505 49.0948066,38.8990262 49.0948066,40.7055919 C49.0948066,42.5121576 50.5593277,43.9761086 52.3653234,43.9761086 L56.124964,43.9761086 C51.2747711,52.5329253 42.2014671,57.8249258 32.3659736,57.8323369 L32.3648334,57.8323369 Z M58.1082529,39.6492441 C58.0312928,39.8664424 57.9492021,40.0807904 57.8665413,40.2957084 C57.7793199,40.5231681 57.6915285,40.7511978 57.5980363,40.9758072 C57.5398888,41.1131951 57.4817411,41.2483027 57.4230234,41.3845505 C57.343213,41.5681144 57.258842,41.7505382 57.1750411,41.9318219 L52.3653234,41.9318219 C51.687505,41.9318219 51.1379533,41.3822702 51.1379533,40.7044517 C51.1379533,40.0266332 51.687505,39.4765115 52.3653234,39.4765115 L58.1681107,39.4765115 C58.148158,39.5363693 58.1299156,39.5945169 58.109393,39.648674 L58.1082529,39.6492441 Z M29.4842476,38.4999741 C26.7758241,38.4999741 24.5804677,40.6953305 24.5804677,43.4037539 C24.5804677,46.1116074 26.7758241,48.3069638 29.4842476,48.3069638 C32.192101,48.3069638 34.3874574,46.1116074 34.3874574,43.4037539 C34.384607,40.6970407 32.1909608,38.5033945 29.4842476,38.4999741 Z M29.4842476,46.2638171 C27.9040013,46.2638171 26.6236143,44.9834301 26.6236143,43.4037539 C26.6236143,41.8240779 27.9040013,40.5431207 29.4842476,40.5431207 C31.0639237,40.5431207 32.3443107,41.8240779 32.3443107,43.4037539 C32.3426006,44.9828601 31.0633535,46.2626771 29.4842476,46.2643873 L29.4842476,46.2638171 Z M42.2681658,17.1814721 C37.8797332,17.180902 34.322469,20.7381662 34.3218989,25.1265989 C34.3218989,29.5150316 37.8797332,33.0722959 42.2675957,33.0722959 C46.6560283,33.0722959 50.2132925,29.5144615 50.2132925,25.1260289 C50.2075919,20.7421567 46.6548882,17.1888831 42.2704461,17.1826122 L42.2681658,17.1814721 Z M42.2681658,31.028579 C39.0084805,31.0291492 36.3656156,28.3862842 36.3650455,25.1265989 C36.3650455,21.8669136 39.0073402,19.2240486 42.2675957,19.2240486 C45.5272812,19.2240486 48.1701459,21.8663434 48.1701459,25.1260289 C48.1672956,28.3840041 45.5284212,31.0245886 42.2704461,31.0297193 L42.2681658,31.028579 Z M17.9841369,16.2801846 C15.2591813,16.2801846 13.050143,18.4892227 13.050143,21.2141783 C13.050143,23.9385639 15.2591813,26.1476022 17.9841369,26.1476022 C20.7090925,26.1476022 22.9181306,23.9385639 22.9181306,21.2141783 C22.9141402,18.4920732 20.7090925,16.2858852 17.9869872,16.2813246 L17.9841369,16.2801846 Z M17.9841369,24.1021753 C16.3873584,24.1021753 15.0932896,22.8081063 15.0932896,21.211328 C15.0932896,19.6151197 16.3873584,18.3210507 17.9841369,18.3210507 C19.5803452,18.3210507 20.874984,19.6151197 20.874984,21.211328 C20.874984,22.8075363 19.5826255,24.1021753 17.9869872,24.1055956 L17.9841369,24.1021753 Z M67.979091,5.47157409 C67.9066915,5.08962417 67.6233646,4.781784 67.2482556,4.67860057 L64.1276683,3.81436779 L63.0713205,0.75762883 C62.944764,0.389930884 62.6198216,0.125986404 62.2344513,0.0775301173 C61.8485109,0.0285036466 61.4682713,0.202946484 61.2539233,0.527318776 L59.4695905,3.22662106 L56.231568,3.28476857 C55.8427772,3.29217965 55.4921815,3.51963937 55.3262899,3.87137523 C55.1609682,4.2231111 55.2094246,4.63812525 55.4511362,4.94254505 L57.4680593,7.4759555 L56.5251562,10.5737398 C56.4117115,10.9454283 56.5194555,11.349611 56.8027825,11.6158358 C57.0861094,11.8820606 57.496563,11.9641513 57.8602705,11.8279035 L60.8959166,10.6923153 L63.550183,12.5467673 C63.8688546,12.7690963 64.286149,12.7918993 64.6270536,12.6043449 C64.967388,12.4173605 65.1726148,12.0530829 65.1555124,11.6648623 L65.013564,8.42969007 L67.5977111,6.47832539 C67.9049813,6.24345474 68.0543407,5.85523412 67.9819414,5.47499446 L67.979091,5.47157409 Z M63.3478065,7.12307956 C63.0793016,7.32545586 62.9282318,7.64754801 62.9430538,7.98332179 L63.0177336,9.68727411 L61.6227615,8.71415723 C61.3468455,8.52204205 60.9939694,8.4787164 60.6798584,8.59729187 L59.08251,9.19472983 L59.5796149,7.56374703 C59.6782377,7.24279511 59.6126791,6.89333955 59.404602,6.62996525 L58.3425535,5.29542099 L60.0476459,5.26406686 C60.3839899,5.25779615 60.6958206,5.08677384 60.8810947,4.80629724 L61.8211474,3.38339155 L62.37811,4.99556193 C62.4881345,5.31309333 62.7475182,5.55651514 63.0713205,5.64658682 L64.714845,6.10093622 L63.3478065,7.12307956 Z M9.9591997,56.8483884 L11.1597763,54.1912717 C11.3199672,53.8372555 11.26524,53.4228114 11.0183978,53.1223822 C10.7715557,52.8219529 10.375924,52.6874155 9.99682454,52.775777 L7.15785407,53.4382035 L5.00240283,51.4754373 C4.71451529,51.212633 4.30292151,51.1368132 3.9403542,51.2787617 C3.57778688,51.4212802 3.32752419,51.7570541 3.29502999,52.1452747 L3.04875785,55.0509439 L0.515917288,56.4943722 C0.17786321,56.6870575 -0.021092716,57.0547554 0.00171023047,57.442976 C0.0250832732,57.8311967 0.266794815,58.1721012 0.624801534,58.3231709 L3.30985199,59.4559087 L3.89987888,62.3108413 C3.97854922,62.691651 4.26643675,62.9949306 4.64268585,63.0929834 C5.01893495,63.1904661 5.41798702,63.0667599 5.67281031,62.7726015 L7.58027915,60.5681239 L10.4785374,60.8890757 C10.8650479,60.9312613 11.241867,60.7511178 11.4516544,60.423895 C11.6608717,60.0961022 11.6660024,59.6782377 11.4653362,59.3453142 L9.9591997,56.8483884 Z M7.2735792,58.4765209 C6.93951554,58.438896 6.60830235,58.568873 6.38882375,58.8236961 L5.48411565,59.8692126 L5.20420909,58.5152859 C5.1363702,58.185783 4.91062089,57.9110071 4.60107045,57.7804601 L3.32638411,57.2434501 L4.52810093,56.5587906 C4.81997902,56.3923289 5.01209405,56.0924698 5.0405977,55.7572661 L5.15689302,54.3793963 L6.17846633,55.3103278 C6.42758881,55.5366473 6.7713437,55.6261489 7.09856633,55.549759 L8.44622219,55.235078 L7.8761478,56.4955125 C7.73818987,56.8022124 7.76042266,57.1567988 7.9348655,57.4441163 L8.64973871,58.6275905 L7.2735792,58.4765209 Z" id="Shape"></path>
            </g>
        </g>
    </g>
</svg>