<?xml version="1.0" encoding="UTF-8"?>
<svg width="629px" height="159px" viewBox="0 0 629 159" version="1.1" xmlns="http://www.w3.org/2000/svg" xmlns:xlink="http://www.w3.org/1999/xlink">
    <!-- Generator: Sketch 52.5 (67469) - http://www.bohemiancoding.com/sketch -->
    <title>Logo</title>
    <desc>Created with Sketch.</desc>
    <g id="Logo" stroke="none" stroke-width="1" fill="none" fill-rule="evenodd">
        <path d="M134.8,41.7 C135.533337,41.566666 136.349996,41.466667 137.25,41.4 C138.150004,41.333333 138.966663,41.3 139.7,41.3 C140.433337,41.3 141.249996,41.333333 142.15,41.4 C143.050005,41.466667 143.866663,41.566666 144.6,41.7 L144.6,99.5 C144.6,101.366676 144.766665,102.833328 145.1,103.9 C145.433335,104.966672 145.88333,105.783331 146.45,106.35 C147.01667,106.916669 147.68333,107.283333 148.45,107.45 C149.21667,107.616668 150.033329,107.7 150.9,107.7 C151.500003,107.7 152.18333,107.666667 152.95,107.6 C153.71667,107.533333 154.366664,107.433334 154.9,107.3 C155.500003,109.633345 155.8,112.166653 155.8,114.9 C154.866662,115.233335 153.73334,115.449999 152.4,115.55 C151.06666,115.650001 149.833339,115.7 148.7,115.7 C146.766657,115.7 144.966675,115.466669 143.3,115 C141.633325,114.533331 140.166673,113.766672 138.9,112.7 C137.633327,111.633328 136.633337,110.200009 135.9,108.4 C135.166663,106.599991 134.8,104.36668 134.8,101.7 L134.8,41.7 Z M164.7,63.7 C165.36667,63.566666 166.049997,63.466667 166.75,63.4 C167.450003,63.333333 168.166663,63.3 168.9,63.3 C169.56667,63.3 170.266663,63.333333 171,63.4 C171.733337,63.466667 172.43333,63.566666 173.1,63.7 C173.166667,63.833334 173.25,64.2499965 173.35,64.95 C173.45,65.6500035 173.55,66.399996 173.65,67.2 C173.75,68.000004 173.849999,68.766663 173.95,69.5 C174.050001,70.233337 174.1,70.699999 174.1,70.9 C174.76667,69.833328 175.566662,68.800005 176.5,67.8 C177.433338,66.799995 178.549993,65.900004 179.85,65.1 C181.150007,64.299996 182.616658,63.666669 184.25,63.2 C185.883342,62.733331 187.69999,62.5 189.7,62.5 C192.700015,62.5 195.48332,62.999995 198.05,64 C200.61668,65.000005 202.816658,66.5499895 204.65,68.65 C206.483342,70.7500105 207.916662,73.4166505 208.95,76.65 C209.983339,79.8833495 210.5,83.699978 210.5,88.1 C210.5,96.900044 208.116691,103.783309 203.35,108.75 C198.583309,113.716691 191.833377,116.2 183.1,116.2 C181.633326,116.2 180.133341,116.100001 178.6,115.9 C177.066659,115.699999 175.733339,115.433335 174.6,115.1 L174.6,138.6 C173.799996,138.733334 172.950005,138.833333 172.05,138.9 C171.149995,138.966667 170.333337,139 169.6,139 C168.866663,139 168.050005,138.966667 167.15,138.9 C166.249996,138.833333 165.433337,138.733334 164.7,138.6 L164.7,63.7 Z M174.6,106.6 C175.866673,107.066669 177.16666,107.399999 178.5,107.6 C179.83334,107.800001 181.566656,107.9 183.7,107.9 C186.100012,107.9 188.29999,107.516671 190.3,106.75 C192.30001,105.983329 194.01666,104.800008 195.45,103.2 C196.883341,101.599992 198.016662,99.5833455 198.85,97.15 C199.683337,94.7166545 200.1,91.83335 200.1,88.5 C200.1,83.16664 199.116677,78.933349 197.15,75.8 C195.183324,72.666651 191.966689,71.1 187.5,71.1 C185.833325,71.1 184.233341,71.399997 182.7,72 C181.166659,72.600003 179.800006,73.499994 178.6,74.7 C177.399994,75.900006 176.433337,77.4166575 175.7,79.25 C174.966663,81.0833425 174.6,83.266654 174.6,85.8 L174.6,106.6 Z M223.7,41.7 C224.433337,41.566666 225.249995,41.466667 226.15,41.4 C227.050005,41.333333 227.866663,41.3 228.6,41.3 C229.333337,41.3 230.166662,41.333333 231.1,41.4 C232.033338,41.466667 232.866663,41.566666 233.6,41.7 L233.6,71.5 C234.200003,70.566662 234.949995,69.566672 235.85,68.5 C236.750004,67.433328 237.849994,66.4500045 239.15,65.55 C240.450007,64.6499955 241.949991,63.9166695 243.65,63.35 C245.350009,62.7833305 247.233323,62.5 249.3,62.5 C255.166696,62.5 259.516652,64.1833165 262.35,67.55 C265.183347,70.9166835 266.6,75.899967 266.6,82.5 L266.6,115 C265.866663,115.133334 265.050005,115.233333 264.15,115.3 C263.249996,115.366667 262.433337,115.4 261.7,115.4 C260.966663,115.4 260.150005,115.366667 259.25,115.3 C258.349995,115.233333 257.533337,115.133334 256.8,115 L256.8,85.2 C256.8,80.466643 256.016675,76.9833445 254.45,74.75 C252.883325,72.5166555 250.500016,71.4 247.3,71.4 C245.499991,71.4 243.766675,71.7166635 242.1,72.35 C240.433325,72.9833365 238.966673,73.9833265 237.7,75.35 C236.433327,76.7166735 235.433337,78.499989 234.7,80.7 C233.966663,82.900011 233.6,85.566651 233.6,88.7 L233.6,115 C232.866663,115.133334 232.033338,115.233333 231.1,115.3 C230.166662,115.366667 229.333337,115.4 228.6,115.4 C227.93333,115.4 227.133338,115.366667 226.2,115.3 C225.266662,115.233333 224.433337,115.133334 223.7,115 L223.7,41.7 Z M308.7,90.9 C307.699995,90.766666 306.433341,90.633334 304.9,90.5 C303.366659,90.366666 302.066672,90.3 301,90.3 C296.866646,90.3 293.716678,91.066659 291.55,92.6 C289.383322,94.133341 288.3,96.466651 288.3,99.6 C288.3,101.60001 288.666663,103.166661 289.4,104.3 C290.133337,105.433339 291.049995,106.299997 292.15,106.9 C293.250006,107.500003 294.46666,107.866666 295.8,108 C297.13334,108.133334 298.399994,108.2 299.6,108.2 C301.133341,108.2 302.716658,108.116668 304.35,107.95 C305.983341,107.783333 307.433327,107.533335 308.7,107.2 L308.7,90.9 Z M308.7,81.2 C308.7,77.266647 307.70001,74.533341 305.7,73 C303.69999,71.466659 300.800019,70.7 297,70.7 C294.666655,70.7 292.483343,70.8833315 290.45,71.25 C288.416656,71.6166685 286.433343,72.099997 284.5,72.7 C283.233327,70.499989 282.6,67.866682 282.6,64.8 C284.866678,64.066663 287.366653,63.500002 290.1,63.1 C292.833347,62.699998 295.466654,62.5 298,62.5 C304.6667,62.5 309.733316,64.0166515 313.2,67.05 C316.666684,70.0833485 318.4,74.9333 318.4,81.6 L318.4,113.7 C316.066655,114.233336 313.23335,114.783331 309.9,115.35 C306.56665,115.916669 303.166684,116.2 299.7,116.2 C296.433317,116.2 293.483347,115.900003 290.85,115.3 C288.216654,114.699997 285.983342,113.73334 284.15,112.4 C282.316658,111.06666 280.900005,109.366677 279.9,107.3 C278.899995,105.233323 278.4,102.733348 278.4,99.8 C278.4,96.933319 278.983327,94.4166775 280.15,92.25 C281.316672,90.0833225 282.89999,88.2833405 284.9,86.85 C286.90001,85.4166595 289.199987,84.3500035 291.8,83.65 C294.400013,82.9499965 297.133319,82.6 300,82.6 C302.133344,82.6 303.883326,82.6499995 305.25,82.75 C306.616674,82.8500005 307.766662,82.966666 308.7,83.1 L308.7,81.2 Z M332.3,104.1 C334.500011,104.900004 336.799988,105.599997 339.2,106.2 C341.600012,106.800003 344.533316,107.1 348,107.1 C353.466694,107.1 357.549987,105.983345 360.25,103.75 C362.950014,101.516655 364.3,98.500019 364.3,94.7 C364.3,92.833324 364.01667,91.23334 363.45,89.9 C362.88333,88.56666 362.033339,87.4166715 360.9,86.45 C359.766661,85.4833285 358.350009,84.600004 356.65,83.8 C354.949992,82.999996 352.966678,82.133338 350.7,81.2 L345,78.9 C343.066657,78.099996 341.300008,77.2166715 339.7,76.25 C338.099992,75.2833285 336.716673,74.100007 335.55,72.7 C334.383328,71.299993 333.46667,69.6833425 332.8,67.85 C332.13333,66.0166575 331.8,63.833346 331.8,61.3 C331.8,55.233303 333.866646,50.4833505 338,47.05 C342.133354,43.6166495 347.933296,41.9 355.4,41.9 C358.600016,41.9 361.633319,42.166664 364.5,42.7 C367.366681,43.233336 369.899989,43.899996 372.1,44.7 C371.766665,47.500014 371.033339,50.266653 369.9,53 C368.099991,52.33333 366.016679,51.733336 363.65,51.2 C361.283321,50.666664 358.600015,50.4 355.6,50.4 C351.399979,50.4 348.166678,51.2499915 345.9,52.95 C343.633322,54.6500085 342.5,57.199983 342.5,60.6 C342.5,62.000007 342.783331,63.2499945 343.35,64.35 C343.91667,65.4500055 344.666662,66.4166625 345.6,67.25 C346.533338,68.0833375 347.633327,68.83333 348.9,69.5 C350.166673,70.16667 351.499993,70.766664 352.9,71.3 L358.5,73.5 C361.16668,74.566672 363.533323,75.6833275 365.6,76.85 C367.666677,78.0166725 369.433326,79.3833255 370.9,80.95 C372.366674,82.5166745 373.48333,84.366656 374.25,86.5 C375.016671,88.633344 375.4,91.133319 375.4,94 C375.4,100.866701 373.033357,106.283313 368.3,110.25 C363.566643,114.216686 356.933376,116.2 348.4,116.2 C346.333323,116.2 344.466675,116.133334 342.8,116 C341.133325,115.866666 339.583341,115.666668 338.15,115.4 C336.716659,115.133332 335.33334,114.800002 334,114.4 C332.66666,113.999998 331.300007,113.566669 329.9,113.1 C330.033334,111.633326 330.333331,110.133341 330.8,108.6 C331.266669,107.066659 331.766664,105.566674 332.3,104.1 Z M420.6,115 C419.199993,115.333335 417.716675,115.599999 416.15,115.8 C414.583325,116.000001 412.833343,116.1 410.9,116.1 C407.433316,116.1 404.133349,115.683337 401,114.85 C397.866651,114.016662 395.116678,112.60001 392.75,110.6 C390.383321,108.59999 388.500007,105.98335 387.1,102.75 C385.699993,99.5166505 385,95.500024 385,90.7 C385,86.566646 385.649993,82.766684 386.95,79.3 C388.250007,75.833316 390.099988,72.8500125 392.5,70.35 C394.900012,67.8499875 397.816649,65.9166735 401.25,64.55 C404.683351,63.1833265 408.533312,62.5 412.8,62.5 C416.533352,62.5 419.73332,62.699998 422.4,63.1 C425.06668,63.500002 427.73332,64.066663 430.4,64.8 L430.4,138.6 C429.666663,138.733334 428.850005,138.833333 427.95,138.9 C427.049995,138.966667 426.233337,139 425.5,139 C424.766663,139 423.950005,138.966667 423.05,138.9 C422.149995,138.833333 421.333337,138.733334 420.6,138.6 L420.6,115 Z M420.6,71.6 C419.666662,71.399999 418.883337,71.2500005 418.25,71.15 C417.616664,71.0499995 417.01667,70.9833335 416.45,70.95 L414.75,70.85 C414.183331,70.8166665 413.533337,70.8 412.8,70.8 C409.866652,70.8 407.300011,71.299995 405.1,72.3 C402.899989,73.300005 401.083341,74.699991 399.65,76.5 C398.216659,78.300009 397.133337,80.433321 396.4,82.9 C395.666663,85.366679 395.3,88.099985 395.3,91.1 C395.3,94.100015 395.699996,96.666656 396.5,98.8 C397.300004,100.933344 398.41666,102.683326 399.85,104.05 C401.283341,105.416674 402.966657,106.399997 404.9,107 C406.833343,107.600003 408.966655,107.9 411.3,107.9 C413.033342,107.9 414.683326,107.766668 416.25,107.5 C417.816675,107.233332 419.26666,106.933335 420.6,106.6 L420.6,71.6 Z M445.7,63.7 C446.433337,63.566666 447.266662,63.466667 448.2,63.4 C449.133338,63.333333 449.93333,63.3 450.6,63.3 C451.333337,63.3 452.166662,63.333333 453.1,63.4 C454.033338,63.466667 454.866663,63.566666 455.6,63.7 L455.6,91.8 C455.6,95.000016 455.899997,97.6499895 456.5,99.75 C457.100003,101.85001 457.999994,103.499994 459.2,104.7 C460.400006,105.900006 461.866658,106.733331 463.6,107.2 C465.333342,107.666669 467.333322,107.9 469.6,107.9 C473.000017,107.9 475.899988,107.533337 478.3,106.8 L478.3,63.7 C479.033337,63.566666 479.849996,63.466667 480.75,63.4 C481.650005,63.333333 482.466663,63.3 483.2,63.3 C483.933337,63.3 484.749996,63.333333 485.65,63.4 C486.550005,63.466667 487.366663,63.566666 488.1,63.7 L488.1,113.4 C485.766655,114.06667 482.98335,114.699997 479.75,115.3 C476.516651,115.900003 473.166684,116.2 469.7,116.2 C466.433317,116.2 463.350015,115.916669 460.45,115.35 C457.549986,114.783331 455.000011,113.633342 452.8,111.9 C450.599989,110.166658 448.866673,107.733349 447.6,104.6 C446.333327,101.466651 445.7,97.333359 445.7,92.2 L445.7,63.7 Z M530.8,90.9 C529.799995,90.766666 528.533341,90.633334 527,90.5 C525.466659,90.366666 524.166672,90.3 523.1,90.3 C518.966646,90.3 515.816677,91.066659 513.65,92.6 C511.483322,94.133341 510.4,96.466651 510.4,99.6 C510.4,101.60001 510.766663,103.166661 511.5,104.3 C512.233337,105.433339 513.149995,106.299997 514.25,106.9 C515.350006,107.500003 516.56666,107.866666 517.9,108 C519.23334,108.133334 520.499994,108.2 521.7,108.2 C523.233341,108.2 524.816659,108.116668 526.45,107.95 C528.083342,107.783333 529.533327,107.533335 530.8,107.2 L530.8,90.9 Z M530.8,81.2 C530.8,77.266647 529.80001,74.533341 527.8,73 C525.79999,71.466659 522.900019,70.7 519.1,70.7 C516.766655,70.7 514.583344,70.8833315 512.55,71.25 C510.516657,71.6166685 508.533343,72.099997 506.6,72.7 C505.333327,70.499989 504.7,67.866682 504.7,64.8 C506.966678,64.066663 509.466653,63.500002 512.2,63.1 C514.933347,62.699998 517.566654,62.5 520.1,62.5 C526.7667,62.5 531.833316,64.0166515 535.3,67.05 C538.766684,70.0833485 540.5,74.9333 540.5,81.6 L540.5,113.7 C538.166655,114.233336 535.33335,114.783331 532,115.35 C528.66665,115.916669 525.266684,116.2 521.8,116.2 C518.533317,116.2 515.583347,115.900003 512.95,115.3 C510.316654,114.699997 508.083343,113.73334 506.25,112.4 C504.416658,111.06666 503.000005,109.366677 502,107.3 C500.999995,105.233323 500.5,102.733348 500.5,99.8 C500.5,96.933319 501.083328,94.4166775 502.25,92.25 C503.416673,90.0833225 504.99999,88.2833405 507,86.85 C509.00001,85.4166595 511.299987,84.3500035 513.9,83.65 C516.500013,82.9499965 519.233319,82.6 522.1,82.6 C524.233344,82.6 525.983326,82.6499995 527.35,82.75 C528.716674,82.8500005 529.866662,82.966666 530.8,83.1 L530.8,81.2 Z M588.3,41.7 C589.033337,41.566666 589.866662,41.466667 590.8,41.4 C591.733338,41.333333 592.53333,41.3 593.2,41.3 C593.933337,41.3 594.749996,41.333333 595.65,41.4 C596.550005,41.466667 597.366663,41.566666 598.1,41.7 L598.1,113.6 C595.566654,114.333337 592.733349,114.949997 589.6,115.45 C586.466651,115.950002 582.966686,116.2 579.1,116.2 C575.499982,116.2 572.08335,115.750005 568.85,114.85 C565.616651,113.949995 562.800012,112.466677 560.4,110.4 C557.999988,108.333323 556.100007,105.666683 554.7,102.4 C553.299993,99.133317 552.6,95.100024 552.6,90.3 C552.6,86.166646 553.21666,82.400017 554.45,79 C555.68334,75.599983 557.433322,72.6833455 559.7,70.25 C561.966678,67.8166545 564.683317,65.93334 567.85,64.6 C571.016683,63.26666 574.533314,62.6 578.4,62.6 C580.133342,62.6 581.883325,62.733332 583.65,63 C585.416676,63.266668 586.96666,63.599998 588.3,64 L588.3,41.7 Z M588.3,72.4 C586.96666,71.866664 585.533341,71.466668 584,71.2 C582.466659,70.933332 580.800009,70.8 579,70.8 C576.266653,70.8 573.90001,71.299995 571.9,72.3 C569.89999,73.300005 568.250007,74.666658 566.95,76.4 C565.649994,78.133342 564.683336,80.1833215 564.05,82.55 C563.416664,84.9166785 563.1,87.499986 563.1,90.3 C563.166667,96.633365 564.666652,101.166653 567.6,103.9 C570.533348,106.633347 574.533308,108 579.6,108 C581.333342,108 582.933326,107.916668 584.4,107.75 C585.866674,107.583332 587.166661,107.333335 588.3,107 L588.3,72.4 Z" id="lphaSquad" fill="#000000"></path>
        <path d="M75.5,52.6348232 L47.0229649,101.437866 L62.2628665,101.437866 L55.0282961,114 L25,114 L75,27.7254902 L75,26 L75.5,26.8627451 L76,26 L76,27.7254902 L126,114 L95.9717039,114 L88.7371335,101.437866 L103.977035,101.437866 L75.5,52.6348232 Z" id="Combined-Shape" fill="#000000"></path>
    </g>
</svg>