<svg viewBox="0 0 204 37" version="1.1" xmlns="http://www.w3.org/2000/svg" xmlns:xlink="http://www.w3.org/1999/xlink" id="el_qMxBAM4YS"><style>@-webkit-keyframes kf_el_X9yz4kQ0BA_an_3M_3OyTXH{0%{opacity: 1;}1.11%{opacity: 0;}48.52%{opacity: 0;}66.67%{opacity: 1;}73.33%{opacity: 0;}100%{opacity: 0;}}@keyframes kf_el_X9yz4kQ0BA_an_3M_3OyTXH{0%{opacity: 1;}1.11%{opacity: 0;}48.52%{opacity: 0;}66.67%{opacity: 1;}73.33%{opacity: 0;}100%{opacity: 0;}}@-webkit-keyframes kf_el_FCFzaDHpmj_an_SmuGPoigx-{43.33%{stroke-dasharray: 119.82;}45.93%{stroke-dasharray: 1;}47.04%{stroke-dasharray: 119.82;}70.37%{stroke-dasharray: 119.82;}0%{stroke-dasharray: 119.82;}100%{stroke-dasharray: 119.82;}}@keyframes kf_el_FCFzaDHpmj_an_SmuGPoigx-{43.33%{stroke-dasharray: 119.82;}45.93%{stroke-dasharray: 1;}47.04%{stroke-dasharray: 119.82;}70.37%{stroke-dasharray: 119.82;}0%{stroke-dasharray: 119.82;}100%{stroke-dasharray: 119.82;}}@-webkit-keyframes kf_el_FCFzaDHpmj_an_kTuXgMcX-{43.33%{stroke-dashoffset: 119.82;}47.04%{stroke-dashoffset: 0;}68.52%{stroke-dashoffset: 0;}70.37%{stroke-dashoffset: 119.82;}0%{stroke-dashoffset: 119.82;}100%{stroke-dashoffset: 119.82;}}@keyframes kf_el_FCFzaDHpmj_an_kTuXgMcX-{43.33%{stroke-dashoffset: 119.82;}47.04%{stroke-dashoffset: 0;}68.52%{stroke-dashoffset: 0;}70.37%{stroke-dashoffset: 119.82;}0%{stroke-dashoffset: 119.82;}100%{stroke-dashoffset: 119.82;}}@-webkit-keyframes kf_el_QztedABZc-_an_VirU5ZUBJE{39.26%{stroke-dasharray: 102.13;}42.22%{stroke-dasharray: 1;}43.33%{stroke-dasharray: 102.13;}73.33%{stroke-dasharray: 102.13;}0%{stroke-dasharray: 102.13;}100%{stroke-dasharray: 102.13;}}@keyframes kf_el_QztedABZc-_an_VirU5ZUBJE{39.26%{stroke-dasharray: 102.13;}42.22%{stroke-dasharray: 1;}43.33%{stroke-dasharray: 102.13;}73.33%{stroke-dasharray: 102.13;}0%{stroke-dasharray: 102.13;}100%{stroke-dasharray: 102.13;}}@-webkit-keyframes kf_el_QztedABZc-_an_C-OyaGiRH{39.26%{stroke-dashoffset: 102.13;}43.33%{stroke-dashoffset: 0;}70.37%{stroke-dashoffset: 0;}73.33%{stroke-dashoffset: 102.13;}0%{stroke-dashoffset: 102.13;}100%{stroke-dashoffset: 102.13;}}@keyframes kf_el_QztedABZc-_an_C-OyaGiRH{39.26%{stroke-dashoffset: 102.13;}43.33%{stroke-dashoffset: 0;}70.37%{stroke-dashoffset: 0;}73.33%{stroke-dashoffset: 102.13;}0%{stroke-dashoffset: 102.13;}100%{stroke-dashoffset: 102.13;}}@-webkit-keyframes kf_el_m7qVdarQ24_an_bT33D_Eh5h{35.19%{stroke-dasharray: 93.71;}37.78%{stroke-dasharray: 1;}39.26%{stroke-dasharray: 93.71;}76.30%{stroke-dasharray: 93.71;}0%{stroke-dasharray: 93.71;}}@keyframes kf_el_m7qVdarQ24_an_bT33D_Eh5h{35.19%{stroke-dasharray: 93.71;}37.78%{stroke-dasharray: 1;}39.26%{stroke-dasharray: 93.71;}76.30%{stroke-dasharray: 93.71;}0%{stroke-dasharray: 93.71;}}@-webkit-keyframes kf_el_m7qVdarQ24_an_8DGXx_oKm{35.19%{stroke-dashoffset: 93.71;}39.26%{stroke-dashoffset: 0;}73.33%{stroke-dashoffset: 0;}76.30%{stroke-dashoffset: 93.71;}0%{stroke-dashoffset: 93.71;}}@keyframes kf_el_m7qVdarQ24_an_8DGXx_oKm{35.19%{stroke-dashoffset: 93.71;}39.26%{stroke-dashoffset: 0;}73.33%{stroke-dashoffset: 0;}76.30%{stroke-dashoffset: 93.71;}0%{stroke-dashoffset: 93.71;}}@-webkit-keyframes kf_el_vRoXEV9eGP_an_XPuyPshidK{31.11%{stroke-dasharray: 116.8;}34.07%{stroke-dasharray: 1;}35.19%{stroke-dasharray: 116.8;}79.26%{stroke-dasharray: 116.8;}0%{stroke-dasharray: 116.8;}100%{stroke-dasharray: 116.8;}}@keyframes kf_el_vRoXEV9eGP_an_XPuyPshidK{31.11%{stroke-dasharray: 116.8;}34.07%{stroke-dasharray: 1;}35.19%{stroke-dasharray: 116.8;}79.26%{stroke-dasharray: 116.8;}0%{stroke-dasharray: 116.8;}100%{stroke-dasharray: 116.8;}}@-webkit-keyframes kf_el_vRoXEV9eGP_an_r4mEB5v9B{31.11%{stroke-dashoffset: 116.8;}35.19%{stroke-dashoffset: 0;}76.30%{stroke-dashoffset: 0;}79.26%{stroke-dashoffset: 116.8;}0%{stroke-dashoffset: 116.8;}100%{stroke-dashoffset: 116.8;}}@keyframes kf_el_vRoXEV9eGP_an_r4mEB5v9B{31.11%{stroke-dashoffset: 116.8;}35.19%{stroke-dashoffset: 0;}76.30%{stroke-dashoffset: 0;}79.26%{stroke-dashoffset: 116.8;}0%{stroke-dashoffset: 116.8;}100%{stroke-dashoffset: 116.8;}}@-webkit-keyframes kf_el_QPTtGJhNFy_an_tfC47sKSsW{25.93%{stroke-dasharray: 113.66;}29.63%{stroke-dasharray: 1;}31.11%{stroke-dasharray: 113.66;}81.48%{stroke-dasharray: 113.66;}0%{stroke-dasharray: 113.66;}100%{stroke-dasharray: 113.66;}}@keyframes kf_el_QPTtGJhNFy_an_tfC47sKSsW{25.93%{stroke-dasharray: 113.66;}29.63%{stroke-dasharray: 1;}31.11%{stroke-dasharray: 113.66;}81.48%{stroke-dasharray: 113.66;}0%{stroke-dasharray: 113.66;}100%{stroke-dasharray: 113.66;}}@-webkit-keyframes kf_el_QPTtGJhNFy_an_mudsnSN__{25.93%{stroke-dashoffset: 113.66;}31.11%{stroke-dashoffset: 0;}79.26%{stroke-dashoffset: 0;}81.48%{stroke-dashoffset: 113.66;}0%{stroke-dashoffset: 113.66;}100%{stroke-dashoffset: 113.66;}}@keyframes kf_el_QPTtGJhNFy_an_mudsnSN__{25.93%{stroke-dashoffset: 113.66;}31.11%{stroke-dashoffset: 0;}79.26%{stroke-dashoffset: 0;}81.48%{stroke-dashoffset: 113.66;}0%{stroke-dashoffset: 113.66;}100%{stroke-dashoffset: 113.66;}}@-webkit-keyframes kf_el_GOjPybAXPc_an_PiLWwg4eU_{20.74%{stroke-dasharray: 102.13;}24.44%{stroke-dasharray: 1;}26.30%{stroke-dasharray: 102.13;}83.33%{stroke-dasharray: 102.13;}0%{stroke-dasharray: 102.13;}100%{stroke-dasharray: 102.13;}}@keyframes kf_el_GOjPybAXPc_an_PiLWwg4eU_{20.74%{stroke-dasharray: 102.13;}24.44%{stroke-dasharray: 1;}26.30%{stroke-dasharray: 102.13;}83.33%{stroke-dasharray: 102.13;}0%{stroke-dasharray: 102.13;}100%{stroke-dasharray: 102.13;}}@-webkit-keyframes kf_el_GOjPybAXPc_an_mu_F3Pc5x{20.74%{stroke-dashoffset: 102.13;}26.30%{stroke-dashoffset: 0;}81.48%{stroke-dashoffset: 0;}83.33%{stroke-dashoffset: 102.13;}0%{stroke-dashoffset: 102.13;}100%{stroke-dashoffset: 102.13;}}@keyframes kf_el_GOjPybAXPc_an_mu_F3Pc5x{20.74%{stroke-dashoffset: 102.13;}26.30%{stroke-dashoffset: 0;}81.48%{stroke-dashoffset: 0;}83.33%{stroke-dashoffset: 102.13;}0%{stroke-dashoffset: 102.13;}100%{stroke-dashoffset: 102.13;}}@-webkit-keyframes kf_el_RN4m2SGzLT_an__QI9PdqTjW{14.44%{stroke-dasharray: 113.2;}18.52%{stroke-dasharray: 1;}20.74%{stroke-dasharray: 113.2;}85.19%{stroke-dasharray: 113.2;}0%{stroke-dasharray: 113.2;}100%{stroke-dasharray: 113.2;}}@keyframes kf_el_RN4m2SGzLT_an__QI9PdqTjW{14.44%{stroke-dasharray: 113.2;}18.52%{stroke-dasharray: 1;}20.74%{stroke-dasharray: 113.2;}85.19%{stroke-dasharray: 113.2;}0%{stroke-dasharray: 113.2;}100%{stroke-dasharray: 113.2;}}@-webkit-keyframes kf_el_RN4m2SGzLT_an_r0zYmxT1a{14.44%{stroke-dashoffset: 113.2;}20.74%{stroke-dashoffset: 0;}83.33%{stroke-dashoffset: 0;}85.19%{stroke-dashoffset: 113.2;}0%{stroke-dashoffset: 113.2;}100%{stroke-dashoffset: 113.2;}}@keyframes kf_el_RN4m2SGzLT_an_r0zYmxT1a{14.44%{stroke-dashoffset: 113.2;}20.74%{stroke-dashoffset: 0;}83.33%{stroke-dashoffset: 0;}85.19%{stroke-dashoffset: 113.2;}0%{stroke-dashoffset: 113.2;}100%{stroke-dashoffset: 113.2;}}@-webkit-keyframes kf_el_YIco8oJqfu_an_Z94XdBvZ8a{8.89%{stroke-dasharray: 116.8;}12.22%{stroke-dasharray: 1;}14.44%{stroke-dasharray: 116.8;}88.15%{stroke-dasharray: 116.8;}0%{stroke-dasharray: 116.8;}100%{stroke-dasharray: 116.8;}}@keyframes kf_el_YIco8oJqfu_an_Z94XdBvZ8a{8.89%{stroke-dasharray: 116.8;}12.22%{stroke-dasharray: 1;}14.44%{stroke-dasharray: 116.8;}88.15%{stroke-dasharray: 116.8;}0%{stroke-dasharray: 116.8;}100%{stroke-dasharray: 116.8;}}@-webkit-keyframes kf_el_YIco8oJqfu_an_33RX696Et{8.89%{stroke-dashoffset: 116.8;}14.44%{stroke-dashoffset: 0;}85.19%{stroke-dashoffset: 0;}88.15%{stroke-dashoffset: 116.8;}0%{stroke-dashoffset: 116.8;}100%{stroke-dashoffset: 116.8;}}@keyframes kf_el_YIco8oJqfu_an_33RX696Et{8.89%{stroke-dashoffset: 116.8;}14.44%{stroke-dashoffset: 0;}85.19%{stroke-dashoffset: 0;}88.15%{stroke-dashoffset: 116.8;}0%{stroke-dashoffset: 116.8;}100%{stroke-dashoffset: 116.8;}}@-webkit-keyframes kf_el_681USpsptb_an_i35lp_zcxU{4.07%{stroke-dasharray: 65.23;}7.04%{stroke-dasharray: 1;}8.89%{stroke-dasharray: 65.23;}91.11%{stroke-dasharray: 65.23;}0%{stroke-dasharray: 65.23;}100%{stroke-dasharray: 65.23;}}@keyframes kf_el_681USpsptb_an_i35lp_zcxU{4.07%{stroke-dasharray: 65.23;}7.04%{stroke-dasharray: 1;}8.89%{stroke-dasharray: 65.23;}91.11%{stroke-dasharray: 65.23;}0%{stroke-dasharray: 65.23;}100%{stroke-dasharray: 65.23;}}@-webkit-keyframes kf_el_681USpsptb_an_F4N9rXk8x{4.07%{stroke-dashoffset: 65.23;}8.89%{stroke-dashoffset: 0;}88.15%{stroke-dashoffset: 0;}91.11%{stroke-dashoffset: 65.23;}0%{stroke-dashoffset: 65.23;}100%{stroke-dashoffset: 65.23;}}@keyframes kf_el_681USpsptb_an_F4N9rXk8x{4.07%{stroke-dashoffset: 65.23;}8.89%{stroke-dashoffset: 0;}88.15%{stroke-dashoffset: 0;}91.11%{stroke-dashoffset: 65.23;}0%{stroke-dashoffset: 65.23;}100%{stroke-dashoffset: 65.23;}}@-webkit-keyframes kf_el_XvyQHV1p4e_an_geYopL8Wd4{0.37%{stroke-dasharray: 117.51;}4.07%{stroke-dasharray: 117.51;}94.07%{stroke-dasharray: 117.51;}0%{stroke-dasharray: 117.51;}100%{stroke-dasharray: 117.51;}}@keyframes kf_el_XvyQHV1p4e_an_geYopL8Wd4{0.37%{stroke-dasharray: 117.51;}4.07%{stroke-dasharray: 117.51;}94.07%{stroke-dasharray: 117.51;}0%{stroke-dasharray: 117.51;}100%{stroke-dasharray: 117.51;}}@-webkit-keyframes kf_el_XvyQHV1p4e_an_jmG4JKrJF{0.37%{stroke-dashoffset: 117.51;}4.07%{stroke-dashoffset: 0;}91.11%{stroke-dashoffset: 0;}94.07%{stroke-dashoffset: 117.51;}0%{stroke-dashoffset: 117.51;}100%{stroke-dashoffset: 117.51;}}@keyframes kf_el_XvyQHV1p4e_an_jmG4JKrJF{0.37%{stroke-dashoffset: 117.51;}4.07%{stroke-dashoffset: 0;}91.11%{stroke-dashoffset: 0;}94.07%{stroke-dashoffset: 117.51;}0%{stroke-dashoffset: 117.51;}100%{stroke-dashoffset: 117.51;}}#el_qMxBAM4YS *{-webkit-animation-duration: 9s;animation-duration: 9s;-webkit-animation-iteration-count: infinite;animation-iteration-count: infinite;-webkit-animation-play-state: paused;animation-play-state: paused;-webkit-animation-timing-function: cubic-bezier(0, 0, 1, 1);animation-timing-function: cubic-bezier(0, 0, 1, 1);}#el_Utef4XH8G0{stroke: none;stroke-width: 1;fill: none;}#el_yXJExLXXe0{-webkit-transform: translate(-334px, -54px);transform: translate(-334px, -54px);}#el_wkvMrxxgY3{-webkit-transform: translate(334px, 54px);transform: translate(334px, 54px);}#el_XvyQHV1p4e{stroke: #BEBEBE;-webkit-animation-fill-mode: backwards, backwards;animation-fill-mode: backwards, backwards;stroke-dashoffset: 117.51;-webkit-animation-name: kf_el_XvyQHV1p4e_an_jmG4JKrJF, kf_el_XvyQHV1p4e_an_geYopL8Wd4;animation-name: kf_el_XvyQHV1p4e_an_jmG4JKrJF, kf_el_XvyQHV1p4e_an_geYopL8Wd4;-webkit-animation-timing-function: cubic-bezier(0, 0, 1, 1), cubic-bezier(0, 0, 1, 1);animation-timing-function: cubic-bezier(0, 0, 1, 1), cubic-bezier(0, 0, 1, 1);stroke-dasharray: 117.51;}#el_681USpsptb{stroke: #BEBEBE;-webkit-animation-fill-mode: backwards, backwards;animation-fill-mode: backwards, backwards;stroke-dashoffset: 65.23;-webkit-animation-name: kf_el_681USpsptb_an_F4N9rXk8x, kf_el_681USpsptb_an_i35lp_zcxU;animation-name: kf_el_681USpsptb_an_F4N9rXk8x, kf_el_681USpsptb_an_i35lp_zcxU;-webkit-animation-timing-function: cubic-bezier(0, 0, 1, 1), cubic-bezier(0, 0, 1, 1);animation-timing-function: cubic-bezier(0, 0, 1, 1), cubic-bezier(0, 0, 1, 1);stroke-dasharray: 65.23;}#el_YIco8oJqfu{stroke: #BEBEBE;-webkit-animation-fill-mode: backwards, backwards;animation-fill-mode: backwards, backwards;stroke-dashoffset: 116.8;-webkit-animation-name: kf_el_YIco8oJqfu_an_33RX696Et, kf_el_YIco8oJqfu_an_Z94XdBvZ8a;animation-name: kf_el_YIco8oJqfu_an_33RX696Et, kf_el_YIco8oJqfu_an_Z94XdBvZ8a;-webkit-animation-timing-function: cubic-bezier(0, 0, 1, 1), cubic-bezier(0, 0, 1, 1);animation-timing-function: cubic-bezier(0, 0, 1, 1), cubic-bezier(0, 0, 1, 1);stroke-dasharray: 116.8;}#el_RN4m2SGzLT{stroke: #BEBEBE;-webkit-animation-fill-mode: backwards, backwards;animation-fill-mode: backwards, backwards;stroke-dashoffset: 113.2;-webkit-animation-name: kf_el_RN4m2SGzLT_an_r0zYmxT1a, kf_el_RN4m2SGzLT_an__QI9PdqTjW;animation-name: kf_el_RN4m2SGzLT_an_r0zYmxT1a, kf_el_RN4m2SGzLT_an__QI9PdqTjW;-webkit-animation-timing-function: cubic-bezier(0, 0, 0.58, 1), cubic-bezier(0, 0, 0.58, 1);animation-timing-function: cubic-bezier(0, 0, 0.58, 1), cubic-bezier(0, 0, 0.58, 1);stroke-dasharray: 113.2;}#el_GOjPybAXPc{stroke: #BEBEBE;-webkit-animation-fill-mode: backwards, backwards;animation-fill-mode: backwards, backwards;stroke-dashoffset: 102.13;-webkit-animation-name: kf_el_GOjPybAXPc_an_mu_F3Pc5x, kf_el_GOjPybAXPc_an_PiLWwg4eU_;animation-name: kf_el_GOjPybAXPc_an_mu_F3Pc5x, kf_el_GOjPybAXPc_an_PiLWwg4eU_;-webkit-animation-timing-function: cubic-bezier(0, 0, 1, 1), cubic-bezier(0, 0, 1, 1);animation-timing-function: cubic-bezier(0, 0, 1, 1), cubic-bezier(0, 0, 1, 1);stroke-dasharray: 102.13;}#el_QPTtGJhNFy{stroke: #BEBEBE;-webkit-animation-fill-mode: backwards, backwards;animation-fill-mode: backwards, backwards;-webkit-animation-name: kf_el_QPTtGJhNFy_an_mudsnSN__, kf_el_QPTtGJhNFy_an_tfC47sKSsW;animation-name: kf_el_QPTtGJhNFy_an_mudsnSN__, kf_el_QPTtGJhNFy_an_tfC47sKSsW;-webkit-animation-timing-function: cubic-bezier(0, 0, 1, 1), cubic-bezier(0, 0, 1, 1);animation-timing-function: cubic-bezier(0, 0, 1, 1), cubic-bezier(0, 0, 1, 1);stroke-dashoffset: 113.66;stroke-dasharray: 113.66;}#el_vRoXEV9eGP{stroke: #BEBEBE;-webkit-animation-fill-mode: backwards, backwards;animation-fill-mode: backwards, backwards;stroke-dashoffset: 116.8;-webkit-animation-name: kf_el_vRoXEV9eGP_an_r4mEB5v9B, kf_el_vRoXEV9eGP_an_XPuyPshidK;animation-name: kf_el_vRoXEV9eGP_an_r4mEB5v9B, kf_el_vRoXEV9eGP_an_XPuyPshidK;-webkit-animation-timing-function: cubic-bezier(0, 0, 1, 1), cubic-bezier(0, 0, 1, 1);animation-timing-function: cubic-bezier(0, 0, 1, 1), cubic-bezier(0, 0, 1, 1);stroke-dasharray: 116.8;}#el_m7qVdarQ24{stroke: #BEBEBE;-webkit-animation-fill-mode: backwards, backwards;animation-fill-mode: backwards, backwards;stroke-dashoffset: 93.71;-webkit-animation-name: kf_el_m7qVdarQ24_an_8DGXx_oKm, kf_el_m7qVdarQ24_an_bT33D_Eh5h;animation-name: kf_el_m7qVdarQ24_an_8DGXx_oKm, kf_el_m7qVdarQ24_an_bT33D_Eh5h;-webkit-animation-timing-function: cubic-bezier(0, 0, 1, 1), cubic-bezier(0, 0, 1, 1);animation-timing-function: cubic-bezier(0, 0, 1, 1), cubic-bezier(0, 0, 1, 1);stroke-dasharray: 93.71;}#el_QztedABZc-{stroke: #BEBEBE;-webkit-animation-fill-mode: backwards, backwards;animation-fill-mode: backwards, backwards;stroke-dashoffset: 102.13;-webkit-animation-name: kf_el_QztedABZc-_an_C-OyaGiRH, kf_el_QztedABZc-_an_VirU5ZUBJE;animation-name: kf_el_QztedABZc-_an_C-OyaGiRH, kf_el_QztedABZc-_an_VirU5ZUBJE;-webkit-animation-timing-function: cubic-bezier(0, 0, 1, 1), cubic-bezier(0, 0, 1, 1);animation-timing-function: cubic-bezier(0, 0, 1, 1), cubic-bezier(0, 0, 1, 1);stroke-dasharray: 102.13;}#el_FCFzaDHpmj{stroke: #BEBEBE;-webkit-animation-fill-mode: backwards, backwards;animation-fill-mode: backwards, backwards;stroke-dashoffset: 119.82;-webkit-animation-name: kf_el_FCFzaDHpmj_an_kTuXgMcX-, kf_el_FCFzaDHpmj_an_SmuGPoigx-;animation-name: kf_el_FCFzaDHpmj_an_kTuXgMcX-, kf_el_FCFzaDHpmj_an_SmuGPoigx-;-webkit-animation-timing-function: cubic-bezier(0, 0, 1, 1), cubic-bezier(0, 0, 1, 1);animation-timing-function: cubic-bezier(0, 0, 1, 1), cubic-bezier(0, 0, 1, 1);stroke-dasharray: 119.82;}#el_pFMFdnuZUJ{fill: #303031;}#el_LfzvPi8PxTY{fill: #2E2E2E;}#el_X9yz4kQ0BA{-webkit-animation-fill-mode: backwards;animation-fill-mode: backwards;opacity: 1;-webkit-animation-name: kf_el_X9yz4kQ0BA_an_3M_3OyTXH;animation-name: kf_el_X9yz4kQ0BA_an_3M_3OyTXH;-webkit-animation-timing-function: cubic-bezier(0, 0, 0.58, 1);animation-timing-function: cubic-bezier(0, 0, 0.58, 1);}#el_qMxBAM4YS:hover *{-webkit-animation-play-state: running;animation-play-state: running;}</style>

    <title>alpha</title>
    <desc>Created with Sketch.</desc>
    <defs>
        <path d="M11.98,2.512 L16.624,2.512 L27.712,28 L21.376,28 L19.18,22.6 L9.28,22.6 L7.156,28 L0.964,28 L11.98,2.512 Z M14.14,9.928 L11.044,17.848 L17.272,17.848 L14.14,9.928 Z M29.656,0.784 L35.056,0.784 L35.056,28 L29.656,28 L29.656,0.784 Z M39.448,10.504 L44.416,10.504 L44.416,12.808 L44.488,12.808 C44.7040011,12.4959984 44.9859983,12.1780016 45.334,11.854 C45.6820017,11.5299984 46.0899977,11.2360013 46.558,10.972 C47.0260023,10.7079987 47.5359972,10.4920008 48.088,10.324 C48.6400028,10.1559992 49.2279969,10.072 49.852,10.072 C51.1480065,10.072 52.3239947,10.2939978 53.38,10.738 C54.4360053,11.1820022 55.3419962,11.805996 56.098,12.61 C56.8540038,13.414004 57.435998,14.3679945 57.844,15.472 C58.252002,16.5760055 58.456,17.7879934 58.456,19.108 C58.456,20.3320061 58.2700019,21.5019944 57.898,22.618 C57.5259981,23.7340056 56.9980034,24.7239957 56.314,25.588 C55.6299966,26.4520043 54.7960049,27.1419974 53.812,27.658 C52.8279951,28.1740026 51.7120062,28.432 50.464,28.432 C49.3359944,28.432 48.2860049,28.2580017 47.314,27.91 C46.3419951,27.5619983 45.5440031,26.9680042 44.92,26.128 L44.848,26.128 L44.848,36.208 L39.448,36.208 L39.448,10.504 Z M44.416,19.252 C44.416,20.5720066 44.7939962,21.6399959 45.55,22.456 C46.3060038,23.2720041 47.3679932,23.68 48.736,23.68 C50.1040068,23.68 51.1659962,23.2720041 51.922,22.456 C52.6780038,21.6399959 53.056,20.5720066 53.056,19.252 C53.056,17.9319934 52.6780038,16.8640041 51.922,16.048 C51.1659962,15.2319959 50.1040068,14.824 48.736,14.824 C47.3679932,14.824 46.3060038,15.2319959 45.55,16.048 C44.7939962,16.8640041 44.416,17.9319934 44.416,19.252 Z M67.024,0.784 L67.024,12.88 L67.096,12.88 C67.2160006,12.5439983 67.4199986,12.2080017 67.708,11.872 C67.9960014,11.5359983 68.343998,11.2360013 68.752,10.972 C69.160002,10.7079987 69.6399972,10.4920008 70.192,10.324 C70.7440028,10.1559992 71.3439968,10.072 71.992,10.072 C73.3600068,10.072 74.4639958,10.2819979 75.304,10.702 C76.1440042,11.1220021 76.7979977,11.7039963 77.266,12.448 C77.7340023,13.1920037 78.0519992,14.067995 78.22,15.076 C78.3880008,16.084005 78.472,17.1759941 78.472,18.352 L78.472,28 L73.072,28 L73.072,19.432 C73.072,18.9279975 73.0540002,18.4060027 73.018,17.866 C72.9819998,17.3259973 72.8740009,16.8280023 72.694,16.372 C72.5139991,15.9159977 72.2380019,15.5440014 71.866,15.256 C71.4939981,14.9679986 70.9600035,14.824 70.264,14.824 C69.5679965,14.824 69.0040022,14.9499987 68.572,15.202 C68.1399978,15.4540013 67.8100011,15.7899979 67.582,16.21 C67.3539989,16.6300021 67.2040004,17.1039974 67.132,17.632 C67.0599996,18.1600026 67.024,18.7119971 67.024,19.288 L67.024,28 L61.624,28 L61.624,0.784 L67.024,0.784 Z M93.268,25.804 L93.196,25.804 C92.595997,26.7400047 91.798005,27.411998 90.802,27.82 C89.805995,28.228002 88.7560055,28.432 87.652,28.432 C86.8359959,28.432 86.0500038,28.3180011 85.294,28.09 C84.5379962,27.8619989 83.8720029,27.5200023 83.296,27.064 C82.7199971,26.6079977 82.2640017,26.0440034 81.928,25.372 C81.5919983,24.6999966 81.424,23.9200044 81.424,23.032 C81.424,22.023995 81.6099981,21.1720035 81.982,20.476 C82.3540019,19.7799965 82.8579968,19.2040023 83.494,18.748 C84.1300032,18.2919977 84.8559959,17.9380013 85.672,17.686 C86.4880041,17.4339987 87.3339956,17.2480006 88.21,17.128 C89.0860044,17.0079994 89.9619956,16.9360001 90.838,16.912 C91.7140044,16.8879999 92.5239963,16.876 93.268,16.876 C93.268,15.9159952 92.9260034,15.1540028 92.242,14.59 C91.5579966,14.0259972 90.7480047,13.744 89.812,13.744 C88.9239956,13.744 88.1140037,13.9299981 87.382,14.302 C86.6499963,14.6740019 85.9960029,15.1839968 85.42,15.832 L82.54,12.88 C83.548005,11.9439953 84.7239933,11.2420023 86.068,10.774 C87.4120067,10.3059977 88.8039928,10.072 90.244,10.072 C91.8280079,10.072 93.1299949,10.269998 94.15,10.666 C95.1700051,11.062002 95.9859969,11.6439962 96.598,12.412 C97.2100031,13.1800038 97.6359988,14.1219944 97.876,15.238 C98.1160012,16.3540056 98.236,17.6439927 98.236,19.108 L98.236,28 L93.268,28 L93.268,25.804 Z M91.936,20.332 C91.527998,20.332 91.0180031,20.3499998 90.406,20.386 C89.7939969,20.4220002 89.2060028,20.5239992 88.642,20.692 C88.0779972,20.8600008 87.598002,21.1119983 87.202,21.448 C86.805998,21.7840017 86.608,22.251997 86.608,22.852 C86.608,23.5000032 86.8839972,23.9799984 87.436,24.292 C87.9880028,24.6040016 88.563997,24.76 89.164,24.76 C89.6920026,24.76 90.2019975,24.6880007 90.694,24.544 C91.1860025,24.3999993 91.6239981,24.1960013 92.008,23.932 C92.3920019,23.6679987 92.6979989,23.332002 92.926,22.924 C93.1540011,22.515998 93.268,22.0360028 93.268,21.484 L93.268,20.332 L91.936,20.332 Z M114.904,8.74 C114.447998,8.16399712 113.830004,7.73800138 113.05,7.462 C112.269996,7.18599862 111.532003,7.048 110.836,7.048 C110.427998,7.048 110.008002,7.09599952 109.576,7.192 C109.143998,7.28800048 108.736002,7.43799898 108.352,7.642 C107.967998,7.84600102 107.656001,8.11599832 107.416,8.452 C107.175999,8.78800168 107.056,9.1959976 107.056,9.676 C107.056,10.4440038 107.343997,11.031998 107.92,11.44 C108.496003,11.848002 109.221996,12.1959986 110.098,12.484 C110.974004,12.7720014 111.915995,13.0599986 112.924,13.348 C113.932005,13.6360014 114.873996,14.0439974 115.75,14.572 C116.626004,15.1000026 117.351997,15.8079956 117.928,16.696 C118.504003,17.5840044 118.792,18.7719926 118.792,20.26 C118.792,21.6760071 118.528003,22.9119947 118,23.968 C117.471997,25.0240053 116.758005,25.8999965 115.858,26.596 C114.957996,27.2920035 113.914006,27.8079983 112.726,28.144 C111.537994,28.4800017 110.284007,28.648 108.964,28.648 C107.307992,28.648 105.772007,28.3960025 104.356,27.892 C102.939993,27.3879975 101.620006,26.5720056 100.396,25.444 L104.392,21.052 C104.968003,21.8200038 105.693996,22.4139979 106.57,22.834 C107.446004,23.2540021 108.351995,23.464 109.288,23.464 C109.744002,23.464 110.205998,23.4100005 110.674,23.302 C111.142002,23.1939995 111.561998,23.0320011 111.934,22.816 C112.306002,22.5999989 112.605999,22.3240017 112.834,21.988 C113.062001,21.6519983 113.176,21.2560023 113.176,20.8 C113.176,20.0319962 112.882003,19.4260022 112.294,18.982 C111.705997,18.5379978 110.968004,18.1600016 110.08,17.848 C109.191996,17.5359984 108.232005,17.2240016 107.2,16.912 C106.167995,16.5999984 105.208004,16.1800026 104.32,15.652 C103.431996,15.1239974 102.694003,14.4280043 102.106,13.564 C101.517997,12.6999957 101.224,11.5600071 101.224,10.144 C101.224,8.77599316 101.493997,7.57600516 102.034,6.544 C102.574003,5.51199484 103.293996,4.64800348 104.194,3.952 C105.094005,3.25599652 106.131994,2.73400174 107.308,2.386 C108.484006,2.03799826 109.695994,1.864 110.944,1.864 C112.384007,1.864 113.775993,2.06799796 115.12,2.476 C116.464007,2.88400204 117.675995,3.5679952 118.756,4.528 L114.904,8.74 Z M140.644,36.208 L135.244,36.208 L135.244,26.128 L135.172,26.128 C134.547997,26.9680042 133.750005,27.5619983 132.778,27.91 C131.805995,28.2580017 130.756006,28.432 129.628,28.432 C128.379994,28.432 127.264005,28.1740026 126.28,27.658 C125.295995,27.1419974 124.462003,26.4520043 123.778,25.588 C123.093997,24.7239957 122.566002,23.7340056 122.194,22.618 C121.821998,21.5019944 121.636,20.3320061 121.636,19.108 C121.636,17.7879934 121.839998,16.5760055 122.248,15.472 C122.656002,14.3679945 123.237996,13.414004 123.994,12.61 C124.750004,11.805996 125.655995,11.1820022 126.712,10.738 C127.768005,10.2939978 128.943994,10.072 130.24,10.072 C130.840003,10.072 131.421997,10.1559992 131.986,10.324 C132.550003,10.4920008 133.065998,10.7079987 133.534,10.972 C134.002002,11.2360013 134.409998,11.5299984 134.758,11.854 C135.106002,12.1780016 135.387999,12.4959984 135.604,12.808 L135.676,12.808 L135.676,10.504 L140.644,10.504 L140.644,36.208 Z M135.676,19.252 C135.676,17.9319934 135.298004,16.8640041 134.542,16.048 C133.785996,15.2319959 132.724007,14.824 131.356,14.824 C129.987993,14.824 128.926004,15.2319959 128.17,16.048 C127.413996,16.8640041 127.036,17.9319934 127.036,19.252 C127.036,20.5720066 127.413996,21.6399959 128.17,22.456 C128.926004,23.2720041 129.987993,23.68 131.356,23.68 C132.724007,23.68 133.785996,23.2720041 134.542,22.456 C135.298004,21.6399959 135.676,20.5720066 135.676,19.252 Z M161.812,28 L156.628,28 L156.628,25.624 L156.556,25.624 C156.363999,25.9600017 156.118002,26.2959983 155.818,26.632 C155.517999,26.9680017 155.152002,27.2679987 154.72,27.532 C154.287998,27.7960013 153.796003,28.0119992 153.244,28.18 C152.691997,28.3480008 152.092003,28.432 151.444,28.432 C150.075993,28.432 148.966004,28.2220021 148.114,27.802 C147.261996,27.3819979 146.602002,26.8000037 146.134,26.056 C145.665998,25.3119963 145.354001,24.436005 145.198,23.428 C145.041999,22.419995 144.964,21.3280059 144.964,20.152 L144.964,10.504 L150.364,10.504 L150.364,19.072 C150.364,19.5760025 150.382,20.0979973 150.418,20.638 C150.454,21.1780027 150.561999,21.6759977 150.742,22.132 C150.922001,22.5880023 151.197998,22.9599986 151.57,23.248 C151.942002,23.5360014 152.475997,23.68 153.172,23.68 C153.868003,23.68 154.431998,23.5540013 154.864,23.302 C155.296002,23.0499987 155.625999,22.7140021 155.854,22.294 C156.082001,21.8739979 156.232,21.4000026 156.304,20.872 C156.376,20.3439974 156.412,19.7920029 156.412,19.216 L156.412,10.504 L161.812,10.504 L161.812,28 Z M176.608,25.804 L176.536,25.804 C175.935997,26.7400047 175.138005,27.411998 174.142,27.82 C173.145995,28.228002 172.096006,28.432 170.992,28.432 C170.175996,28.432 169.390004,28.3180011 168.634,28.09 C167.877996,27.8619989 167.212003,27.5200023 166.636,27.064 C166.059997,26.6079977 165.604002,26.0440034 165.268,25.372 C164.931998,24.6999966 164.764,23.9200044 164.764,23.032 C164.764,22.023995 164.949998,21.1720035 165.322,20.476 C165.694002,19.7799965 166.197997,19.2040023 166.834,18.748 C167.470003,18.2919977 168.195996,17.9380013 169.012,17.686 C169.828004,17.4339987 170.673996,17.2480006 171.55,17.128 C172.426004,17.0079994 173.301996,16.9360001 174.178,16.912 C175.054004,16.8879999 175.863996,16.876 176.608,16.876 C176.608,15.9159952 176.266003,15.1540028 175.582,14.59 C174.897997,14.0259972 174.088005,13.744 173.152,13.744 C172.263996,13.744 171.454004,13.9299981 170.722,14.302 C169.989996,14.6740019 169.336003,15.1839968 168.76,15.832 L165.88,12.88 C166.888005,11.9439953 168.063993,11.2420023 169.408,10.774 C170.752007,10.3059977 172.143993,10.072 173.584,10.072 C175.168008,10.072 176.469995,10.269998 177.49,10.666 C178.510005,11.062002 179.325997,11.6439962 179.938,12.412 C180.550003,13.1800038 180.975999,14.1219944 181.216,15.238 C181.456001,16.3540056 181.576,17.6439927 181.576,19.108 L181.576,28 L176.608,28 L176.608,25.804 Z M175.276,20.332 C174.867998,20.332 174.358003,20.3499998 173.746,20.386 C173.133997,20.4220002 172.546003,20.5239992 171.982,20.692 C171.417997,20.8600008 170.938002,21.1119983 170.542,21.448 C170.145998,21.7840017 169.948,22.251997 169.948,22.852 C169.948,23.5000032 170.223997,23.9799984 170.776,24.292 C171.328003,24.6040016 171.903997,24.76 172.504,24.76 C173.032003,24.76 173.541998,24.6880007 174.034,24.544 C174.526002,24.3999993 174.963998,24.1960013 175.348,23.932 C175.732002,23.6679987 176.037999,23.332002 176.266,22.924 C176.494001,22.515998 176.608,22.0360028 176.608,21.484 L176.608,20.332 L175.276,20.332 Z M203.32,28 L198.352,28 L198.352,25.696 L198.28,25.696 C198.063999,26.0080016 197.782002,26.3259984 197.434,26.65 C197.085998,26.9740016 196.678002,27.2679987 196.21,27.532 C195.741998,27.7960013 195.226003,28.0119992 194.662,28.18 C194.097997,28.3480008 193.516003,28.432 192.916,28.432 C191.619994,28.432 190.444005,28.2100022 189.388,27.766 C188.331995,27.3219978 187.426004,26.698004 186.67,25.894 C185.913996,25.089996 185.332002,24.1360055 184.924,23.032 C184.515998,21.9279945 184.312,20.7160066 184.312,19.396 C184.312,18.1719939 184.497998,17.0020056 184.87,15.886 C185.242002,14.7699944 185.769997,13.7800043 186.454,12.916 C187.138003,12.0519957 187.971995,11.3620026 188.956,10.846 C189.940005,10.3299974 191.055994,10.072 192.304,10.072 C193.432006,10.072 194.481995,10.2459983 195.454,10.594 C196.426005,10.9420017 197.223997,11.5359958 197.848,12.376 L197.92,12.376 L197.92,0.784 L203.32,0.784 L203.32,28 Z M198.352,19.252 C198.352,17.9319934 197.974004,16.8640041 197.218,16.048 C196.461996,15.2319959 195.400007,14.824 194.032,14.824 C192.663993,14.824 191.602004,15.2319959 190.846,16.048 C190.089996,16.8640041 189.712,17.9319934 189.712,19.252 C189.712,20.5720066 190.089996,21.6399959 190.846,22.456 C191.602004,23.2720041 192.663993,23.68 194.032,23.68 C195.400007,23.68 196.461996,23.2720041 197.218,22.456 C197.974004,21.6399959 198.352,20.5720066 198.352,19.252 Z" id="path-1"/>
    </defs>
    <g id="el_Utef4XH8G0" fill-rule="evenodd">
        <g id="el_yXJExLXXe0">
            <g id="el_wkvMrxxgY3">
                <path d="M11.98,2.512 L16.624,2.512 L27.712,28 L21.376,28 L19.18,22.6 L9.28,22.6 L7.156,28 L0.964,28 L11.98,2.512 Z M14.14,9.928 L11.044,17.848 L17.272,17.848 L14.14,9.928 Z" id="el_XvyQHV1p4e"/>
                <polygon id="el_681USpsptb" points="29.656 0.784 35.056 0.784 35.056 28 29.656 28"/>
                <path d="M39.448,10.504 L44.416,10.504 L44.416,12.808 L44.488,12.808 C44.7040011,12.4959984 44.9859983,12.1780016 45.334,11.854 C45.6820017,11.5299984 46.0899977,11.2360013 46.558,10.972 C47.0260023,10.7079987 47.5359972,10.4920008 48.088,10.324 C48.6400028,10.1559992 49.2279969,10.072 49.852,10.072 C51.1480065,10.072 52.3239947,10.2939978 53.38,10.738 C54.4360053,11.1820022 55.3419962,11.805996 56.098,12.61 C56.8540038,13.414004 57.435998,14.3679945 57.844,15.472 C58.252002,16.5760055 58.456,17.7879934 58.456,19.108 C58.456,20.3320061 58.2700019,21.5019944 57.898,22.618 C57.5259981,23.7340056 56.9980034,24.7239957 56.314,25.588 C55.6299966,26.4520043 54.7960049,27.1419974 53.812,27.658 C52.8279951,28.1740026 51.7120062,28.432 50.464,28.432 C49.3359944,28.432 48.2860049,28.2580017 47.314,27.91 C46.3419951,27.5619983 45.5440031,26.9680042 44.92,26.128 L44.848,26.128 L44.848,36.208 L39.448,36.208 L39.448,10.504 Z M44.416,19.252 C44.416,20.5720066 44.7939962,21.6399959 45.55,22.456 C46.3060038,23.2720041 47.3679932,23.68 48.736,23.68 C50.1040068,23.68 51.1659962,23.2720041 51.922,22.456 C52.6780038,21.6399959 53.056,20.5720066 53.056,19.252 C53.056,17.9319934 52.6780038,16.8640041 51.922,16.048 C51.1659962,15.2319959 50.1040068,14.824 48.736,14.824 C47.3679932,14.824 46.3060038,15.2319959 45.55,16.048 C44.7939962,16.8640041 44.416,17.9319934 44.416,19.252 Z" id="el_YIco8oJqfu"/>
                <path d="M67.024,0.784 L67.024,12.88 L67.096,12.88 C67.2160006,12.5439983 67.4199986,12.2080017 67.708,11.872 C67.9960014,11.5359983 68.343998,11.2360013 68.752,10.972 C69.160002,10.7079987 69.6399972,10.4920008 70.192,10.324 C70.7440028,10.1559992 71.3439968,10.072 71.992,10.072 C73.3600068,10.072 74.4639958,10.2819979 75.304,10.702 C76.1440042,11.1220021 76.7979977,11.7039963 77.266,12.448 C77.7340023,13.1920037 78.0519992,14.067995 78.22,15.076 C78.3880008,16.084005 78.472,17.1759941 78.472,18.352 L78.472,28 L73.072,28 L73.072,19.432 C73.072,18.9279975 73.0540002,18.4060027 73.018,17.866 C72.9819998,17.3259973 72.8740009,16.8280023 72.694,16.372 C72.5139991,15.9159977 72.2380019,15.5440014 71.866,15.256 C71.4939981,14.9679986 70.9600035,14.824 70.264,14.824 C69.5679965,14.824 69.0040022,14.9499987 68.572,15.202 C68.1399978,15.4540013 67.8100011,15.7899979 67.582,16.21 C67.3539989,16.6300021 67.2040004,17.1039974 67.132,17.632 C67.0599996,18.1600026 67.024,18.7119971 67.024,19.288 L67.024,28 L61.624,28 L61.624,0.784 L67.024,0.784 Z" id="el_RN4m2SGzLT"/>
                <path d="M93.268,25.804 L93.196,25.804 C92.595997,26.7400047 91.798005,27.411998 90.802,27.82 C89.805995,28.228002 88.7560055,28.432 87.652,28.432 C86.8359959,28.432 86.0500038,28.3180011 85.294,28.09 C84.5379962,27.8619989 83.8720029,27.5200023 83.296,27.064 C82.7199971,26.6079977 82.2640017,26.0440034 81.928,25.372 C81.5919983,24.6999966 81.424,23.9200044 81.424,23.032 C81.424,22.023995 81.6099981,21.1720035 81.982,20.476 C82.3540019,19.7799965 82.8579968,19.2040023 83.494,18.748 C84.1300032,18.2919977 84.8559959,17.9380013 85.672,17.686 C86.4880041,17.4339987 87.3339956,17.2480006 88.21,17.128 C89.0860044,17.0079994 89.9619956,16.9360001 90.838,16.912 C91.7140044,16.8879999 92.5239963,16.876 93.268,16.876 C93.268,15.9159952 92.9260034,15.1540028 92.242,14.59 C91.5579966,14.0259972 90.7480047,13.744 89.812,13.744 C88.9239956,13.744 88.1140037,13.9299981 87.382,14.302 C86.6499963,14.6740019 85.9960029,15.1839968 85.42,15.832 L82.54,12.88 C83.548005,11.9439953 84.7239933,11.2420023 86.068,10.774 C87.4120067,10.3059977 88.8039928,10.072 90.244,10.072 C91.8280079,10.072 93.1299949,10.269998 94.15,10.666 C95.1700051,11.062002 95.9859969,11.6439962 96.598,12.412 C97.2100031,13.1800038 97.6359988,14.1219944 97.876,15.238 C98.1160012,16.3540056 98.236,17.6439927 98.236,19.108 L98.236,28 L93.268,28 L93.268,25.804 Z M91.936,20.332 C91.527998,20.332 91.0180031,20.3499998 90.406,20.386 C89.7939969,20.4220002 89.2060028,20.5239992 88.642,20.692 C88.0779972,20.8600008 87.598002,21.1119983 87.202,21.448 C86.805998,21.7840017 86.608,22.251997 86.608,22.852 C86.608,23.5000032 86.8839972,23.9799984 87.436,24.292 C87.9880028,24.6040016 88.563997,24.76 89.164,24.76 C89.6920026,24.76 90.2019975,24.6880007 90.694,24.544 C91.1860025,24.3999993 91.6239981,24.1960013 92.008,23.932 C92.3920019,23.6679987 92.6979989,23.332002 92.926,22.924 C93.1540011,22.515998 93.268,22.0360028 93.268,21.484 L93.268,20.332 L91.936,20.332 Z" id="el_GOjPybAXPc"/>
                <path d="M114.904,8.74 C114.447998,8.16399712 113.830004,7.73800138 113.05,7.462 C112.269996,7.18599862 111.532003,7.048 110.836,7.048 C110.427998,7.048 110.008002,7.09599952 109.576,7.192 C109.143998,7.28800048 108.736002,7.43799898 108.352,7.642 C107.967998,7.84600102 107.656001,8.11599832 107.416,8.452 C107.175999,8.78800168 107.056,9.1959976 107.056,9.676 C107.056,10.4440038 107.343997,11.031998 107.92,11.44 C108.496003,11.848002 109.221996,12.1959986 110.098,12.484 C110.974004,12.7720014 111.915995,13.0599986 112.924,13.348 C113.932005,13.6360014 114.873996,14.0439974 115.75,14.572 C116.626004,15.1000026 117.351997,15.8079956 117.928,16.696 C118.504003,17.5840044 118.792,18.7719926 118.792,20.26 C118.792,21.6760071 118.528003,22.9119947 118,23.968 C117.471997,25.0240053 116.758005,25.8999965 115.858,26.596 C114.957996,27.2920035 113.914006,27.8079983 112.726,28.144 C111.537994,28.4800017 110.284007,28.648 108.964,28.648 C107.307992,28.648 105.772007,28.3960025 104.356,27.892 C102.939993,27.3879975 101.620006,26.5720056 100.396,25.444 L104.392,21.052 C104.968003,21.8200038 105.693996,22.4139979 106.57,22.834 C107.446004,23.2540021 108.351995,23.464 109.288,23.464 C109.744002,23.464 110.205998,23.4100005 110.674,23.302 C111.142002,23.1939995 111.561998,23.0320011 111.934,22.816 C112.306002,22.5999989 112.605999,22.3240017 112.834,21.988 C113.062001,21.6519983 113.176,21.2560023 113.176,20.8 C113.176,20.0319962 112.882003,19.4260022 112.294,18.982 C111.705997,18.5379978 110.968004,18.1600016 110.08,17.848 C109.191996,17.5359984 108.232005,17.2240016 107.2,16.912 C106.167995,16.5999984 105.208004,16.1800026 104.32,15.652 C103.431996,15.1239974 102.694003,14.4280043 102.106,13.564 C101.517997,12.6999957 101.224,11.5600071 101.224,10.144 C101.224,8.77599316 101.493997,7.57600516 102.034,6.544 C102.574003,5.51199484 103.293996,4.64800348 104.194,3.952 C105.094005,3.25599652 106.131994,2.73400174 107.308,2.386 C108.484006,2.03799826 109.695994,1.864 110.944,1.864 C112.384007,1.864 113.775993,2.06799796 115.12,2.476 C116.464007,2.88400204 117.675995,3.5679952 118.756,4.528 L114.904,8.74 Z" id="el_QPTtGJhNFy"/>
                <path d="M140.644,36.208 L135.244,36.208 L135.244,26.128 L135.172,26.128 C134.547997,26.9680042 133.750005,27.5619983 132.778,27.91 C131.805995,28.2580017 130.756006,28.432 129.628,28.432 C128.379994,28.432 127.264005,28.1740026 126.28,27.658 C125.295995,27.1419974 124.462003,26.4520043 123.778,25.588 C123.093997,24.7239957 122.566002,23.7340056 122.194,22.618 C121.821998,21.5019944 121.636,20.3320061 121.636,19.108 C121.636,17.7879934 121.839998,16.5760055 122.248,15.472 C122.656002,14.3679945 123.237996,13.414004 123.994,12.61 C124.750004,11.805996 125.655995,11.1820022 126.712,10.738 C127.768005,10.2939978 128.943994,10.072 130.24,10.072 C130.840003,10.072 131.421997,10.1559992 131.986,10.324 C132.550003,10.4920008 133.065998,10.7079987 133.534,10.972 C134.002002,11.2360013 134.409998,11.5299984 134.758,11.854 C135.106002,12.1780016 135.387999,12.4959984 135.604,12.808 L135.676,12.808 L135.676,10.504 L140.644,10.504 L140.644,36.208 Z M135.676,19.252 C135.676,17.9319934 135.298004,16.8640041 134.542,16.048 C133.785996,15.2319959 132.724007,14.824 131.356,14.824 C129.987993,14.824 128.926004,15.2319959 128.17,16.048 C127.413996,16.8640041 127.036,17.9319934 127.036,19.252 C127.036,20.5720066 127.413996,21.6399959 128.17,22.456 C128.926004,23.2720041 129.987993,23.68 131.356,23.68 C132.724007,23.68 133.785996,23.2720041 134.542,22.456 C135.298004,21.6399959 135.676,20.5720066 135.676,19.252 Z" id="el_vRoXEV9eGP"/>
                <path d="M161.812,28 L156.628,28 L156.628,25.624 L156.556,25.624 C156.363999,25.9600017 156.118002,26.2959983 155.818,26.632 C155.517999,26.9680017 155.152002,27.2679987 154.72,27.532 C154.287998,27.7960013 153.796003,28.0119992 153.244,28.18 C152.691997,28.3480008 152.092003,28.432 151.444,28.432 C150.075993,28.432 148.966004,28.2220021 148.114,27.802 C147.261996,27.3819979 146.602002,26.8000037 146.134,26.056 C145.665998,25.3119963 145.354001,24.436005 145.198,23.428 C145.041999,22.419995 144.964,21.3280059 144.964,20.152 L144.964,10.504 L150.364,10.504 L150.364,19.072 C150.364,19.5760025 150.382,20.0979973 150.418,20.638 C150.454,21.1780027 150.561999,21.6759977 150.742,22.132 C150.922001,22.5880023 151.197998,22.9599986 151.57,23.248 C151.942002,23.5360014 152.475997,23.68 153.172,23.68 C153.868003,23.68 154.431998,23.5540013 154.864,23.302 C155.296002,23.0499987 155.625999,22.7140021 155.854,22.294 C156.082001,21.8739979 156.232,21.4000026 156.304,20.872 C156.376,20.3439974 156.412,19.7920029 156.412,19.216 L156.412,10.504 L161.812,10.504 L161.812,28 Z" id="el_m7qVdarQ24"/>
                <path d="M176.608,25.804 L176.536,25.804 C175.935997,26.7400047 175.138005,27.411998 174.142,27.82 C173.145995,28.228002 172.096006,28.432 170.992,28.432 C170.175996,28.432 169.390004,28.3180011 168.634,28.09 C167.877996,27.8619989 167.212003,27.5200023 166.636,27.064 C166.059997,26.6079977 165.604002,26.0440034 165.268,25.372 C164.931998,24.6999966 164.764,23.9200044 164.764,23.032 C164.764,22.023995 164.949998,21.1720035 165.322,20.476 C165.694002,19.7799965 166.197997,19.2040023 166.834,18.748 C167.470003,18.2919977 168.195996,17.9380013 169.012,17.686 C169.828004,17.4339987 170.673996,17.2480006 171.55,17.128 C172.426004,17.0079994 173.301996,16.9360001 174.178,16.912 C175.054004,16.8879999 175.863996,16.876 176.608,16.876 C176.608,15.9159952 176.266003,15.1540028 175.582,14.59 C174.897997,14.0259972 174.088005,13.744 173.152,13.744 C172.263996,13.744 171.454004,13.9299981 170.722,14.302 C169.989996,14.6740019 169.336003,15.1839968 168.76,15.832 L165.88,12.88 C166.888005,11.9439953 168.063993,11.2420023 169.408,10.774 C170.752007,10.3059977 172.143993,10.072 173.584,10.072 C175.168008,10.072 176.469995,10.269998 177.49,10.666 C178.510005,11.062002 179.325997,11.6439962 179.938,12.412 C180.550003,13.1800038 180.975999,14.1219944 181.216,15.238 C181.456001,16.3540056 181.576,17.6439927 181.576,19.108 L181.576,28 L176.608,28 L176.608,25.804 Z M175.276,20.332 C174.867998,20.332 174.358003,20.3499998 173.746,20.386 C173.133997,20.4220002 172.546003,20.5239992 171.982,20.692 C171.417997,20.8600008 170.938002,21.1119983 170.542,21.448 C170.145998,21.7840017 169.948,22.251997 169.948,22.852 C169.948,23.5000032 170.223997,23.9799984 170.776,24.292 C171.328003,24.6040016 171.903997,24.76 172.504,24.76 C173.032003,24.76 173.541998,24.6880007 174.034,24.544 C174.526002,24.3999993 174.963998,24.1960013 175.348,23.932 C175.732002,23.6679987 176.037999,23.332002 176.266,22.924 C176.494001,22.515998 176.608,22.0360028 176.608,21.484 L176.608,20.332 L175.276,20.332 Z" id="el_QztedABZc-"/>
                <path d="M203.32,28 L198.352,28 L198.352,25.696 L198.28,25.696 C198.063999,26.0080016 197.782002,26.3259984 197.434,26.65 C197.085998,26.9740016 196.678002,27.2679987 196.21,27.532 C195.741998,27.7960013 195.226003,28.0119992 194.662,28.18 C194.097997,28.3480008 193.516003,28.432 192.916,28.432 C191.619994,28.432 190.444005,28.2100022 189.388,27.766 C188.331995,27.3219978 187.426004,26.698004 186.67,25.894 C185.913996,25.089996 185.332002,24.1360055 184.924,23.032 C184.515998,21.9279945 184.312,20.7160066 184.312,19.396 C184.312,18.1719939 184.497998,17.0020056 184.87,15.886 C185.242002,14.7699944 185.769997,13.7800043 186.454,12.916 C187.138003,12.0519957 187.971995,11.3620026 188.956,10.846 C189.940005,10.3299974 191.055994,10.072 192.304,10.072 C193.432006,10.072 194.481995,10.2459983 195.454,10.594 C196.426005,10.9420017 197.223997,11.5359958 197.848,12.376 L197.92,12.376 L197.92,0.784 L203.32,0.784 L203.32,28 Z M198.352,19.252 C198.352,17.9319934 197.974004,16.8640041 197.218,16.048 C196.461996,15.2319959 195.400007,14.824 194.032,14.824 C192.663993,14.824 191.602004,15.2319959 190.846,16.048 C190.089996,16.8640041 189.712,17.9319934 189.712,19.252 C189.712,20.5720066 190.089996,21.6399959 190.846,22.456 C191.602004,23.2720041 192.663993,23.68 194.032,23.68 C195.400007,23.68 196.461996,23.2720041 197.218,22.456 C197.974004,21.6399959 198.352,20.5720066 198.352,19.252 Z" id="el_FCFzaDHpmj"/>
                <g id="el_X9yz4kQ0BA">
                    <use xlink:href="#path-1" id="el_pFMFdnuZUJ"/>
                    <use xlink:href="#path-1" id="el_LfzvPi8PxTY"/>
                </g>
            </g>
        </g>
    </g>
</svg>