<?xml version="1.0" encoding="UTF-8"?>
<svg width="1920px" height="332px" viewBox="0 0 1920 332" version="1.1" xmlns="http://www.w3.org/2000/svg" xmlns:xlink="http://www.w3.org/1999/xlink">
    <!-- Generator: Sketch 55 (78076) - https://sketchapp.com -->
    <title>Group 6</title>
    <desc>Created with Sketch.</desc>
    <g id="Page-1-Copy" stroke="none" stroke-width="1" fill="none" fill-rule="evenodd">
        <g id="Homepage" transform="translate(0.000000, -1246.000000)">
            <g id="Group-6" transform="translate(-2.000000, 1246.000000)">
                <path d="M3,0 L3,323.366634 L1922,331.366634 L1922,110.194265 C1748.65236,77.8313242 1595.14878,68.2221138 1461.48927,81.3666343 C1261,101.083415 1023,94.3878018 745.146993,58.2134895 C559.911656,34.0972813 312.529325,14.6927848 3,0 Z" id="Path-6" fill="#FAFAFA"></path>
                <path d="M0,330.542304 L1922,330.542304 L1922,304.680309 C1577,245.061718 1301.33333,219.338877 1095,227.511787 C888.666667,235.684697 660.41694,231.152676 410.25082,213.915724 C207.896794,193.839661 71.1465211,172.201086 0,149 C2.90752944,238.09495 2.90752944,298.609051 0,330.542304 Z" id="Path-4" fill="#FDF5F5"></path>
            </g>
        </g>
    </g>
</svg>