<?xml version="1.0" encoding="UTF-8"?>
<svg width="663px" height="572px" viewBox="0 0 663 572" version="1.1" xmlns="http://www.w3.org/2000/svg" xmlns:xlink="http://www.w3.org/1999/xlink">
    <!-- Generator: Sketch 52.5 (67469) - http://www.bohemiancoding.com/sketch -->
    <title>Illustration</title>
    <desc>Created with Sketch.</desc>
    <g id="Page-1-Copy" stroke="none" stroke-width="1" fill="none" fill-rule="evenodd">
        <g id="Landing-Page" transform="translate(-293.000000, -2403.000000)">
            <g id="Illustration" transform="translate(293.000000, 2403.000000)">
                <g id="Group-299">
                    <g id="Group-12" transform="translate(260.312143, 249.342796)" fill="#4DA7DC">
                        <path d="M12.477002,0.483574404 C13.7903149,0.483574404 14.855068,1.56967734 14.855068,2.90908676 L14.855068,29.5903104 L10.0995233,29.5903104 L10.0995236,2.90908676 C10.0989359,1.56967734 11.163689,0.483574404 12.477002,0.483574404" id="Fill-8"></path>
                        <path d="M2.96444409,9.99150055 C4.27775705,9.99150055 5.34251011,11.0781912 5.34251011,12.4170129 L5.34251011,39.0982365 L0.586378077,39.0982365 L0.586378077,12.4170129 C0.586378077,11.0781912 1.65113113,9.99150055 2.96444409,9.99150055" id="Fill-10"></path>
                    </g>
                    <path d="M251.38232,357.028374 L246.627951,357.028374 L245.677195,357.028374 L245.677195,276.606801 C245.677195,275.263865 246.76369,274.177762 248.106971,274.177762 L260.905749,274.177762 L265.660118,274.177762 L270.414488,274.177762 L275.168269,274.177762 L279.922638,274.177762 L279.922638,278.93005 L279.922638,283.68175 L279.922638,288.434038 L279.922638,293.200432 L279.922638,297.95272 L279.922638,302.705008 L279.922638,307.456708 L279.922638,312.208996 L279.922638,317.911037 L279.922638,322.663325 L279.922638,327.430894 L279.922638,332.182594 L279.922638,336.934882 L279.922638,341.686582 L279.922638,346.438283 L279.922638,351.189983 L279.922638,355.942271 L279.922638,356.893199 L279.922638,357.028374 L275.168269,357.028374 L270.414488,357.028374 L265.660118,357.028374 L260.905749,357.028374 L256.13669,357.028374 L251.38232,357.028374 Z" id="Fill-13" fill="#CAEAF3"></path>
                    <polygon id="Fill-15" fill="#ADB9D1" points="282.775084 357.028374 282.775084 356.893199 282.775084 355.942271 279.922815 355.942271 275.168445 355.942271 270.414076 355.942271 265.660295 355.942271 260.905925 355.942271 256.136866 355.942271 251.382497 355.942271 246.628128 355.942271 246.628128 357.028374 251.382497 357.028374 256.136866 357.028374 260.905925 357.028374 265.660295 357.028374 270.414076 357.028374 275.168445 357.028374 279.922815 357.028374"></polygon>
                    <g id="Group-21" transform="translate(250.910350, 355.719761)" fill="#8E95AB">
                        <polygon id="Fill-17" points="0.471852486 1.30884808 5.22622168 1.30884808 5.22622168 0.222745137 0.471852486 0.222745137"></polygon>
                        <polygon id="Fill-19" points="19.5040196 1.30884808 24.2583888 1.30884808 24.2583888 0.222745137 19.5040196 0.222745137"></polygon>
                        <polygon id="Fill-20" points="9.99528117 1.30884808 14.7496504 1.30884808 14.7496504 0.222745137 9.99528117 0.222745137"></polygon>
                    </g>
                    <polygon id="Fill-22" fill="#43A5C5" points="246.629597 351.19492 282.777728 351.19492 282.777728 346.440869 246.629597 346.440869"></polygon>
                    <g id="Group-28" transform="translate(250.910350, 346.316272)" fill="#5D8FE1">
                        <polygon id="Fill-24" points="0.47596577 4.87864746 5.2320978 4.87864746 5.2320978 0.124596225 0.47596577 0.124596225"></polygon>
                        <polygon id="Fill-26" points="19.5010815 4.87864746 24.2572135 4.87864746 24.2572135 0.124596225 19.5010815 0.124596225"></polygon>
                        <polygon id="Fill-27" points="9.98822983 4.87864746 14.7443619 4.87864746 14.7443619 0.124596225 9.98822983 0.124596225"></polygon>
                    </g>
                    <polygon id="Fill-29" fill="#43A5C5" points="246.629597 341.686817 282.777728 341.686817 282.777728 336.932766 246.629597 336.932766"></polygon>
                    <g id="Group-35" transform="translate(250.910350, 336.912784)" fill="#5D8FE1">
                        <polygon id="Fill-31" points="0.47596577 4.77403364 5.2320978 4.77403364 5.2320978 0.0199824134 0.47596577 0.0199824134"></polygon>
                        <polygon id="Fill-33" points="19.5010815 4.77403364 24.2572135 4.77403364 24.2572135 0.0199824134 19.5010815 0.0199824134"></polygon>
                        <polygon id="Fill-34" points="9.98822983 4.77403364 14.7443619 4.77403364 14.7443619 0.0199824134 9.98822983 0.0199824134"></polygon>
                    </g>
                    <polygon id="Fill-36" fill="#43A5C5" points="246.629597 332.178127 282.777728 332.178127 282.777728 327.424076 246.629597 327.424076"></polygon>
                    <g id="Group-42" transform="translate(250.910350, 326.921577)" fill="#5D8FE1">
                        <polygon id="Fill-38" points="0.47596577 5.25655016 5.2320978 5.25655016 5.2320978 0.502498925 0.47596577 0.502498925"></polygon>
                        <polygon id="Fill-40" points="19.5010815 5.25655016 24.2572135 5.25655016 24.2572135 0.502498925 19.5010815 0.502498925"></polygon>
                        <polygon id="Fill-41" points="9.98822983 5.25655016 14.7443619 5.25655016 14.7443619 0.502498925 9.98822983 0.502498925"></polygon>
                    </g>
                    <polygon id="Fill-43" fill="#43A5C5" points="246.629597 322.670612 282.777728 322.670612 282.777728 317.916561 246.629597 317.916561"></polygon>
                    <g id="Group-49" transform="translate(250.910350, 317.518088)" fill="#5D8FE1">
                        <polygon id="Fill-45" points="0.47596577 5.15252406 5.2320978 5.15252406 5.2320978 0.398472832 0.47596577 0.398472832"></polygon>
                        <polygon id="Fill-47" points="19.5010815 5.15252406 24.2572135 5.15252406 24.2572135 0.398472832 19.5010815 0.398472832"></polygon>
                        <polygon id="Fill-48" points="9.98822983 5.15252406 14.7443619 5.15252406 14.7443619 0.398472832 9.98822983 0.398472832"></polygon>
                    </g>
                    <polygon id="Fill-50" fill="#43A5C5" points="246.629597 312.211582 282.777728 312.211582 282.777728 307.457531 246.629597 307.457531"></polygon>
                    <g id="Group-56" transform="translate(250.910350, 306.939164)" fill="#5D8FE1">
                        <polygon id="Fill-52" points="0.47596577 5.27241854 5.2320978 5.27241854 5.2320978 0.518367312 0.47596577 0.518367312"></polygon>
                        <polygon id="Fill-54" points="19.5010815 5.27241854 24.2572135 5.27241854 24.2572135 0.518367312 19.5010815 0.518367312"></polygon>
                        <polygon id="Fill-55" points="9.98822983 5.27241854 14.7443619 5.27241854 14.7443619 0.518367312 9.98822983 0.518367312"></polygon>
                    </g>
                    <polygon id="Fill-57" fill="#43A5C5" points="246.629597 302.70348 282.777728 302.70348 282.777728 297.948841 246.629597 297.948841"></polygon>
                    <g id="Group-63" transform="translate(250.910350, 297.535675)" fill="#5D8FE1">
                        <polygon id="Fill-59" points="0.47596577 5.16780473 5.2320978 5.16780473 5.2320978 0.413165783 0.47596577 0.413165783"></polygon>
                        <polygon id="Fill-61" points="19.5010815 5.16780473 24.2572135 5.16780473 24.2572135 0.413165783 19.5010815 0.413165783"></polygon>
                        <polygon id="Fill-62" points="9.98822983 5.16780473 14.7443619 5.16780473 14.7443619 0.413165783 9.98822983 0.413165783"></polygon>
                    </g>
                    <polygon id="Fill-64" fill="#43A5C5" points="246.629597 293.195377 282.777728 293.195377 282.777728 288.440738 246.629597 288.440738"></polygon>
                    <g id="Group-70" transform="translate(250.910350, 288.132186)" fill="#5D8FE1">
                        <polygon id="Fill-66" points="0.47596577 5.06319092 5.2320978 5.06319092 5.2320978 0.308551971 0.47596577 0.308551971"></polygon>
                        <polygon id="Fill-68" points="19.5010815 5.06319092 24.2572135 5.06319092 24.2572135 0.308551971 19.5010815 0.308551971"></polygon>
                        <polygon id="Fill-69" points="9.98822983 5.06319092 14.7443619 5.06319092 14.7443619 0.308551971 9.98822983 0.308551971"></polygon>
                    </g>
                    <polygon id="Fill-71" fill="#43A5C5" points="246.629597 283.687275 282.777728 283.687275 282.777728 278.933224 246.629597 278.933224"></polygon>
                    <g id="Group-77" transform="translate(250.910350, 278.728698)" fill="#5D8FE1">
                        <polygon id="Fill-73" points="0.47596577 4.95857711 5.2320978 4.95857711 5.2320978 0.204525878 0.47596577 0.204525878"></polygon>
                        <polygon id="Fill-75" points="19.5010815 4.95857711 24.2572135 4.95857711 24.2572135 0.204525878 19.5010815 0.204525878"></polygon>
                        <polygon id="Fill-76" points="9.98822983 4.95857711 14.7443619 4.95857711 14.7443619 0.204525878 9.98822983 0.204525878"></polygon>
                    </g>
                    <path d="M350.740116,238.045856 L282.354412,238.045856 C281.009368,238.045856 279.922286,239.131959 279.922286,240.476658 L279.922286,357.02761 L353.166366,357.02761 L353.166366,240.476658 C353.166366,239.131959 352.079284,238.045856 350.740116,238.045856" id="Fill-78" fill="#A4D9EC"></path>
                    <path d="M346.03634,350.457275 C347.349653,350.457275 348.414406,349.392918 348.414406,348.080543 L348.414406,253.003633 C348.414406,251.691258 347.349653,250.626901 346.03634,250.626901 C344.723027,250.626901 343.658274,251.691258 343.658274,253.003633 L343.658274,348.080543 C343.658274,349.392918 344.723027,350.457275 346.03634,350.457275" id="Fill-80" fill="#43A5C5"></path>
                    <polygon id="Fill-82" fill="#9FA5BE" points="279.922521 357.028021 353.166014 357.028021 353.166014 356.893434 279.922521 356.893434"></polygon>
                    <path d="M335.57238,350.457275 C336.885693,350.457275 337.950446,349.392918 337.950446,348.080543 L337.950446,253.003633 C337.950446,251.691258 336.885693,250.626901 335.57238,250.626901 C334.259067,250.626901 333.194314,251.691258 333.194314,253.003633 L333.194314,348.080543 C333.194314,349.392918 334.259067,350.457275 335.57238,350.457275" id="Fill-84" fill="#43A5C5"></path>
                    <path d="M326.060116,350.457275 C327.372841,350.457275 328.438182,349.392918 328.438182,348.080543 L328.438182,253.003633 C328.438182,251.691258 327.372841,250.626901 326.060116,250.626901 C324.746803,250.626901 323.68205,251.691258 323.68205,253.003633 L323.68205,348.080543 C323.68205,349.392918 324.746803,350.457275 326.060116,350.457275" id="Fill-86" fill="#43A5C5"></path>
                    <path d="M316.547323,350.457275 C317.860636,350.457275 318.925389,349.392918 318.925389,348.080543 L318.925389,253.003633 C318.925389,251.691258 317.860636,250.626901 316.547323,250.626901 C315.23401,250.626901 314.169257,251.691258 314.169257,253.003633 L314.169257,348.080543 C314.169257,349.392918 315.23401,350.457275 316.547323,350.457275" id="Fill-88" fill="#43A5C5"></path>
                    <path d="M307.034765,350.457275 C308.348078,350.457275 309.412831,349.392918 309.412831,348.080543 L309.412831,253.003633 C309.412831,251.691258 308.348078,250.626901 307.034765,250.626901 C305.721452,250.626901 304.656699,251.691258 304.656699,253.003633 L304.656699,348.080543 C304.656699,349.392918 305.721452,350.457275 307.034765,350.457275" id="Fill-90" fill="#43A5C5"></path>
                    <path d="M297.522207,350.457275 C298.83552,350.457275 299.900273,349.392918 299.900273,348.080543 L299.900273,253.003633 C299.900273,251.691258 298.83552,250.626901 297.522207,250.626901 C296.208894,250.626901 295.144141,251.691258 295.144141,253.003633 L295.144141,348.080543 C295.144729,349.392918 296.208894,350.457275 297.522207,350.457275" id="Fill-92" fill="#43A5C5"></path>
                    <path d="M287.058247,350.457275 C288.37156,350.457275 289.436313,349.392918 289.436313,348.080543 L289.436313,253.003633 C289.436313,251.691258 288.37156,250.626901 287.058247,250.626901 C285.744934,250.626901 284.680181,251.691258 284.680181,253.003633 L284.680181,348.080543 C284.680181,349.392918 285.744934,350.457275 287.058247,350.457275" id="Fill-94" fill="#43A5C5"></path>
                    <g id="Group-146" transform="translate(284.404238, 254.044540)" fill="#5D8FE1">
                        <polygon id="Fill-96" points="59.2542127 92.3963286 64.0103447 92.3963286 64.0103447 87.6422774 59.2542127 87.6422774"></polygon>
                        <polygon id="Fill-98" points="48.7900171 92.3963286 53.5461491 92.3963286 53.5461491 87.6422774 48.7900171 87.6422774"></polygon>
                        <polygon id="Fill-99" points="39.2777531 92.3963286 44.0338851 92.3963286 44.0338851 87.6422774 39.2777531 87.6422774"></polygon>
                        <polygon id="Fill-100" points="29.765489 92.3963286 34.521621 92.3963286 34.521621 87.6422774 29.765489 87.6422774"></polygon>
                        <polygon id="Fill-101" points="20.2520497 92.3963286 25.0087694 92.3963286 25.0087694 87.6422774 20.2520497 87.6422774"></polygon>
                        <polygon id="Fill-102" points="10.7397857 92.3963286 15.4959177 92.3963286 15.4959177 87.6422774 10.7397857 87.6422774"></polygon>
                        <polygon id="Fill-103" points="0.276177669 92.3963286 5.0323097 92.3963286 5.0323097 87.6422774 0.276177669 87.6422774"></polygon>
                        <polygon id="Fill-104" points="59.2542127 78.1335872 64.0103447 78.1335872 64.0103447 73.379536 59.2542127 73.379536"></polygon>
                        <polygon id="Fill-105" points="48.7900171 78.1335872 53.5461491 78.1335872 53.5461491 73.379536 48.7900171 73.379536"></polygon>
                        <polygon id="Fill-106" points="39.2777531 78.1335872 44.0338851 78.1335872 44.0338851 73.379536 39.2777531 73.379536"></polygon>
                        <polygon id="Fill-107" points="29.765489 78.1335872 34.521621 78.1335872 34.521621 73.379536 29.765489 73.379536"></polygon>
                        <polygon id="Fill-108" points="20.2520497 78.1335872 25.0087694 78.1335872 25.0087694 73.379536 20.2520497 73.379536"></polygon>
                        <polygon id="Fill-109" points="10.7397857 78.1335872 15.4959177 78.1335872 15.4959177 73.379536 10.7397857 73.379536"></polygon>
                        <polygon id="Fill-110" points="0.276177669 78.1335872 5.0323097 78.1335872 5.0323097 73.379536 0.276177669 73.379536"></polygon>
                        <polygon id="Fill-111" points="59.2542127 63.8720212 64.0103447 63.8720212 64.0103447 59.11797 59.2542127 59.11797"></polygon>
                        <polygon id="Fill-112" points="48.7900171 63.8720212 53.5461491 63.8720212 53.5461491 59.11797 48.7900171 59.11797"></polygon>
                        <polygon id="Fill-113" points="39.2777531 63.8720212 44.0338851 63.8720212 44.0338851 59.11797 39.2777531 59.11797"></polygon>
                        <polygon id="Fill-114" points="29.765489 63.8720212 34.521621 63.8720212 34.521621 59.11797 29.765489 59.11797"></polygon>
                        <polygon id="Fill-115" points="20.2520497 63.8720212 25.0087694 63.8720212 25.0087694 59.11797 20.2520497 59.11797"></polygon>
                        <polygon id="Fill-116" points="10.7397857 63.8720212 15.4959177 63.8720212 15.4959177 59.11797 10.7397857 59.11797"></polygon>
                        <polygon id="Fill-117" points="0.276177669 63.8720212 5.0323097 63.8720212 5.0323097 59.11797 0.276177669 59.11797"></polygon>
                        <polygon id="Fill-118" points="59.2542127 48.6589397 64.0103447 48.6589397 64.0103447 43.9043008 59.2542127 43.9043008"></polygon>
                        <polygon id="Fill-119" points="48.7900171 48.6589397 53.5461491 48.6589397 53.5461491 43.9043008 48.7900171 43.9043008"></polygon>
                        <polygon id="Fill-120" points="39.2777531 48.6589397 44.0338851 48.6589397 44.0338851 43.9043008 39.2777531 43.9043008"></polygon>
                        <polygon id="Fill-121" points="29.765489 48.6589397 34.521621 48.6589397 34.521621 43.9043008 29.765489 43.9043008"></polygon>
                        <polygon id="Fill-122" points="20.2520497 48.6589397 25.0087694 48.6589397 25.0087694 43.9043008 20.2520497 43.9043008"></polygon>
                        <polygon id="Fill-123" points="10.7397857 48.6589397 15.4959177 48.6589397 15.4959177 43.9043008 10.7397857 43.9043008"></polygon>
                        <polygon id="Fill-124" points="0.276177669 48.6589397 5.0323097 48.6589397 5.0323097 43.9043008 0.276177669 43.9043008"></polygon>
                        <polygon id="Fill-125" points="59.2542127 34.396786 64.0103447 34.396786 64.0103447 29.6427348 59.2542127 29.6427348"></polygon>
                        <polygon id="Fill-126" points="48.7900171 34.396786 53.5461491 34.396786 53.5461491 29.6427348 48.7900171 29.6427348"></polygon>
                        <polygon id="Fill-127" points="39.2777531 34.396786 44.0338851 34.396786 44.0338851 29.6427348 39.2777531 29.6427348"></polygon>
                        <polygon id="Fill-128" points="29.765489 34.396786 34.521621 34.396786 34.521621 29.6427348 29.765489 29.6427348"></polygon>
                        <polygon id="Fill-129" points="20.2520497 34.396786 25.0087694 34.396786 25.0087694 29.6427348 20.2520497 29.6427348"></polygon>
                        <polygon id="Fill-130" points="10.7397857 34.396786 15.4959177 34.396786 15.4959177 29.6427348 10.7397857 29.6427348"></polygon>
                        <polygon id="Fill-131" points="0.276177669 34.396786 5.0323097 34.396786 5.0323097 29.6427348 0.276177669 29.6427348"></polygon>
                        <polygon id="Fill-132" points="59.2542127 20.1340446 64.0103447 20.1340446 64.0103447 15.3799934 59.2542127 15.3799934"></polygon>
                        <polygon id="Fill-133" points="48.7900171 20.1340446 53.5461491 20.1340446 53.5461491 15.3799934 48.7900171 15.3799934"></polygon>
                        <polygon id="Fill-134" points="39.2777531 20.1340446 44.0338851 20.1340446 44.0338851 15.3799934 39.2777531 15.3799934"></polygon>
                        <polygon id="Fill-135" points="29.765489 20.1340446 34.521621 20.1340446 34.521621 15.3799934 29.765489 15.3799934"></polygon>
                        <polygon id="Fill-136" points="20.2520497 20.1340446 25.0087694 20.1340446 25.0087694 15.3799934 20.2520497 15.3799934"></polygon>
                        <polygon id="Fill-137" points="10.7397857 20.1340446 15.4959177 20.1340446 15.4959177 15.3799934 10.7397857 15.3799934"></polygon>
                        <polygon id="Fill-138" points="0.276177669 20.1340446 5.0323097 20.1340446 5.0323097 15.3799934 0.276177669 15.3799934"></polygon>
                        <polygon id="Fill-139" points="59.2542127 4.92155087 64.0103447 4.92155087 64.0103447 0.167499642 59.2542127 0.167499642"></polygon>
                        <polygon id="Fill-140" points="48.7900171 4.92155087 53.5461491 4.92155087 53.5461491 0.167499642 48.7900171 0.167499642"></polygon>
                        <polygon id="Fill-141" points="39.2777531 4.92155087 44.0338851 4.92155087 44.0338851 0.167499642 39.2777531 0.167499642"></polygon>
                        <polygon id="Fill-142" points="29.765489 4.92155087 34.521621 4.92155087 34.521621 0.167499642 29.765489 0.167499642"></polygon>
                        <polygon id="Fill-143" points="20.2520497 4.92155087 25.0087694 4.92155087 25.0087694 0.167499642 20.2520497 0.167499642"></polygon>
                        <polygon id="Fill-144" points="10.7397857 4.92155087 15.4959177 4.92155087 15.4959177 0.167499642 10.7397857 0.167499642"></polygon>
                        <polygon id="Fill-145" points="0.276177669 4.92155087 5.0323097 4.92155087 5.0323097 0.167499642 0.276177669 0.167499642"></polygon>
                    </g>
                    <path d="M279.92399,244.703585 L353.171009,244.703585 L353.171009,239.52285 C353.171009,238.183441 352.084514,237.097338 350.744171,237.097338 L282.350828,237.097338 C281.010485,237.097338 279.92399,238.183441 279.92399,239.52285 L279.92399,244.703585 Z" id="Fill-147" fill="#4DA7DC"></path>
                    <g id="Group-152" transform="translate(387.823961, 309.123393)" fill="#E5F7FB">
                        <polygon id="Fill-149" points="0.0605240424 48.7838545 73.1870823 48.7838545 73.1870823 0.332379259 0.0605240424 0.332379259"></polygon>
                    </g>
                    <path d="M512.354614,291.8066 C510.085256,291.8066 508.572155,290.976154 508.572155,289.730192 L508.572155,285.516841 C508.572155,284.57179 509.747967,283.694327 511.446753,283.542108 C514.212056,283.294679 516.137073,284.171555 516.137073,285.576788 L516.137073,289.730192 C516.137073,290.976154 514.623972,291.8066 512.354614,291.8066" id="Fill-153" fill="#65C6E1"></path>
                    <polygon id="Fill-155" fill="#97D7F3" points="491.269774 255.466465 491.269774 241.622767 445.880855 241.622767 445.880855 255.466465 430.751607 255.466465 430.751607 310.839496 461.010691 310.839496 461.010691 298.380461 506.399609 298.380461 506.399609 255.466465"></polygon>
                    <g id="Group-167" transform="translate(394.875306, 289.416965)" fill="#97D7F3">
                        <polygon id="Fill-157" points="0.574096985 20.0382193 23.2682624 20.0382193 23.2682624 11.7320002 0.574096985 11.7320002"></polygon>
                        <polygon id="Fill-159" points="35.8760668 68.4902822 66.13515 68.4902822 66.13515 28.3444383 35.8760668 28.3444383"></polygon>
                        <path d="M80.0042049,65.7615662 C77.7348471,65.7615662 76.221746,64.9311206 76.221746,63.6851583 L76.221746,15.8672431 C76.221746,14.9227802 77.3975578,14.0459049 79.0963443,13.8930982 C81.861059,13.6456689 83.7866637,14.5225442 83.7866637,15.9283658 L83.7866637,63.6851583 C83.7860761,64.9311206 82.2729751,65.7615662 80.0042049,65.7615662" id="Fill-160"></path>
                        <path d="M95.1337465,65.7615662 C92.8643887,65.7615662 91.3512876,64.9311206 91.3512876,63.6851583 L91.3512876,15.8672431 C91.3512876,14.9227802 92.5270993,14.0459049 94.2258858,13.8930982 C96.9906006,13.6456689 98.9162053,14.5225442 98.9162053,15.9283658 L98.9162053,63.6851583 C98.9162053,64.9311206 97.4031042,65.7615662 95.1337465,65.7615662" id="Fill-161"></path>
                        <path d="M110.263347,65.7615662 C107.993989,65.7615662 106.480888,64.9311206 106.480888,63.6851583 L106.480888,15.8672431 C106.480888,14.9227802 107.6567,14.0459049 109.355486,13.8930982 C112.120789,13.6456689 114.045806,14.5225442 114.045806,15.9283658 L114.045806,63.6851583 C114.045806,64.9311206 112.532705,65.7615662 110.263347,65.7615662" id="Fill-162"></path>
                        <path d="M125.392888,65.7615662 C123.123531,65.7615662 121.61043,64.9311206 121.61043,63.6851583 L121.61043,15.8672431 C121.61043,14.9227802 122.786241,14.0459049 124.485028,13.8930982 C127.25033,13.6456689 129.175347,14.5225442 129.175347,15.9283658 L129.175347,63.6851583 C129.17476,64.9311206 127.661659,65.7615662 125.392888,65.7615662" id="Fill-163"></path>
                        <polygon id="Fill-165" points="111.175347 8.96384822 126.305183 8.96384822 126.305183 0.657629152 111.175347 0.657629152"></polygon>
                    </g>
                    <g id="Group-186" transform="translate(442.471883, 260.003728)" fill="#90C7EC">
                        <path d="M18.5387492,68.8325173 L3.72034825,68.8325173 C1.99923252,68.8325173 0.40092771,68.1866152 0.124162429,67.2539066 C-0.327123635,65.7358309 1.27000595,64.6797016 3.8302317,64.6797016 L19.0687753,64.6797016 C20.7904786,64.6797016 22.3881958,65.325016 22.6649611,66.2571368 C23.1168348,67.7752125 21.5191176,68.8325173 18.9588919,68.8325173 L18.5387492,68.8325173 Z" id="Fill-170"></path>
                        <path d="M18.5387492,75.7543077 L3.72034825,75.7543077 C1.99923252,75.7543077 0.40092771,75.1084056 0.124162429,74.1756971 C-0.327123635,72.6576214 1.27000595,71.6014921 3.8302317,71.6014921 L19.0687753,71.6014921 C20.7904786,71.6014921 22.3881958,72.2462188 22.6649611,73.1789273 C23.1168348,74.697003 21.5191176,75.7543077 18.9588919,75.7543077 L18.5387492,75.7543077 Z" id="Fill-172"></path>
                        <path d="M18.5387492,84.0598216 L3.72034825,84.0598216 C1.99923252,84.0598216 0.40092771,83.4139194 0.124162429,82.4817986 C-0.327123635,80.9637229 1.27000595,79.9070059 3.8302317,79.9070059 L19.0687753,79.9070059 C20.7904786,79.9070059 22.3881958,80.5523203 22.6649611,81.4850288 C23.1168348,83.0031045 21.5191176,84.0598216 18.9588919,84.0598216 L18.5387492,84.0598216 Z" id="Fill-174"></path>
                        <path d="M18.5387492,92.3659231 L3.72034825,92.3659231 C1.99923252,92.3659231 0.40092771,91.720021 0.124162429,90.7879001 C-0.327123635,89.2698244 1.27000595,88.2131074 3.8302317,88.2131074 L19.0687753,88.2131074 C20.7904786,88.2131074 22.3881958,88.8584218 22.6649611,89.7911303 C23.1168348,91.309206 21.5191176,92.3659231 18.9588919,92.3659231 L18.5387492,92.3659231 Z" id="Fill-176"></path>
                        <path d="M4.66992934,52.5910468 C2.40057156,52.5910468 0.887470497,51.7606012 0.887470497,50.5146389 L0.887470497,2.69672373 C0.887470497,1.75167312 2.06328223,0.874210084 3.7620687,0.722578829 C6.52678346,0.474561816 8.45238818,1.35143713 8.45238818,2.75725869 L8.45238818,50.5146389 C8.45238818,51.7600135 6.93928712,52.5910468 4.66992934,52.5910468" id="Fill-178"></path>
                        <path d="M19.7994709,34.121596 C17.5301131,34.121596 16.0170121,33.2917381 16.0170121,32.0457758 L16.0170121,2.91553115 C16.0170121,1.97048054 17.1928238,1.09301751 18.8916103,0.940798538 C21.656325,0.693369243 23.5819297,1.57024456 23.5819297,2.97547839 L23.5819297,32.0457758 C23.5819297,33.2917381 22.0688287,34.121596 19.7994709,34.121596" id="Fill-180"></path>
                        <path d="M32.4076279,34.121596 C30.1382701,34.121596 28.625169,33.2917381 28.625169,32.0457758 L28.625169,2.91553115 C28.625169,1.97048054 29.8009808,1.09301751 31.4997672,0.940798538 C34.264482,0.693369243 36.1900867,1.57024456 36.1900867,2.97547839 L36.1900867,32.0457758 C36.1894991,33.2917381 34.676398,34.121596 32.4076279,34.121596" id="Fill-182"></path>
                        <path d="M47.5371694,34.121596 C45.2678117,34.121596 43.7547106,33.2917381 43.7547106,32.0457758 L43.7547106,2.91553115 C43.7547106,1.97048054 44.9305223,1.09301751 46.6293088,0.940798538 C49.3940236,0.693369243 51.3196283,1.57024456 51.3196283,2.97547839 L51.3196283,32.0457758 C51.3196283,33.2917381 49.8065272,34.121596 47.5371694,34.121596" id="Fill-184"></path>
                    </g>
                    <g id="Group-191" transform="translate(397.813366, 315.754934)" fill="#65C6E1">
                        <path d="M3.03272461,24.563029 C1.33511337,24.7158357 0.154600733,25.5968251 0.154600733,26.5418757 L0.154600733,30.7511123 C0.154600733,32.0017763 1.67005224,32.829871 3.93705958,32.829871 C6.21053064,32.829871 7.72010603,32.0017763 7.72010603,30.7511123 L7.72010603,26.6006475 C7.72010603,25.1971768 5.7992022,24.3167752 3.03272461,24.563029 M3.03272461,12.3978533 C1.33511337,12.55066 0.154600733,13.4316493 0.154600733,14.3766999 L0.154600733,18.5859365 C0.154600733,19.8307234 1.67005224,20.6646953 3.93705958,20.6646953 C6.21053064,20.6646953 7.72010603,19.8307234 7.72010603,18.5859365 L7.72010603,14.4354717 C7.72010603,13.0261239 5.7992022,12.1515994 3.03272461,12.3978533 M3.03272461,0.232677572 C1.33511337,0.384896545 0.154600733,1.26000871 0.154600733,2.20505932 L0.154600733,6.42076082 C0.154600733,7.66554763 1.67005224,8.49305463 3.93705958,8.49305463 C6.21053064,8.49305463 7.72010603,7.66554763 7.72010603,6.42076082 L7.72010603,2.2697083 C7.72010603,0.860948158 5.7992022,-0.0135762867 3.03272461,0.232677572" id="Fill-187"></path>
                        <path d="M18.1643228,24.563029 C16.4608355,24.7158357 15.2861989,25.5968251 15.2861989,26.5418757 L15.2861989,30.7511123 C15.2861989,32.0017763 16.8016504,32.829871 19.0686578,32.829871 C21.3362527,32.829871 22.8517042,32.0017763 22.8517042,30.7511123 L22.8517042,26.6006475 C22.8517042,25.1971768 20.9249243,24.3167752 18.1643228,24.563029 M18.1643228,12.3978533 C16.4608355,12.55066 15.2861989,13.4316493 15.2861989,14.3766999 L15.2861989,18.5859365 C15.2861989,19.8307234 16.8016504,20.6646953 19.0686578,20.6646953 C21.3362527,20.6646953 22.8517042,19.8307234 22.8517042,18.5859365 L22.8517042,14.4354717 C22.8517042,13.0261239 20.9249243,12.1515994 18.1643228,12.3978533 M18.1643228,0.232677572 C16.4608355,0.384896545 15.2861989,1.26000871 15.2861989,2.20505932 L15.2861989,6.42076082 C15.2861989,7.66554763 16.8016504,8.49305463 19.0686578,8.49305463 C21.3362527,8.49305463 22.8517042,7.66554763 22.8517042,6.42076082 L22.8517042,2.2697083 C22.8517042,0.860948158 20.9249243,-0.0135762867 18.1643228,0.232677572" id="Fill-189"></path>
                    </g>
                    <g id="Group-196" transform="translate(458.337408, 244.053333)" fill="#65C6E1">
                        <path d="M3.93394523,10.8403417 C1.66458745,10.8403417 0.15148639,10.0098961 0.15148639,8.76393388 L0.15148639,2.47417541 C0.15148639,1.5291248 1.32729813,0.652249481 3.0260846,0.500030509 C5.79079935,0.252013496 7.71640407,1.12888881 7.71640407,2.53471037 L7.71640407,8.76393388 C7.71640407,10.0098961 6.20330302,10.8403417 3.93394523,10.8403417" id="Fill-192"></path>
                        <path d="M16.5421022,10.8403417 C14.2727444,10.8403417 12.7596434,10.0098961 12.7596434,8.76393388 L12.7596434,2.47417541 C12.7596434,1.5291248 13.9354551,0.652249481 15.6342416,0.500030509 C18.3989563,0.252013496 20.324561,1.12888881 20.324561,2.53471037 L20.324561,8.76393388 C20.3239734,10.0098961 18.8108724,10.8403417 16.5421022,10.8403417" id="Fill-194"></path>
                    </g>
                    <g id="Group-200" transform="translate(152.191524, 311.053190)" fill="#E5F7FB">
                        <polygon id="Fill-197" points="0.24503423 45.6809724 33.6695835 45.6809724 33.6695835 8.7176217 0.24503423 8.7176217"></polygon>
                        <polygon id="Fill-199" points="33.6695835 46.736514 74.0097392 46.736514 74.0097392 0.269174863 33.6695835 0.269174863"></polygon>
                    </g>
                    <path d="M217.557078,306.306662 C216.519943,306.306662 215.828324,305.673101 215.828324,304.722761 L215.828324,301.508531 C215.828324,300.787401 216.365989,300.118578 217.142224,300.00221 C218.406178,299.813553 219.285833,300.482376 219.285833,301.554373 L219.285833,304.722761 C219.285833,305.673101 218.594801,306.306662 217.557078,306.306662" id="Fill-201" fill="#65C6E1"></path>
                    <polygon id="Fill-203" fill="#97D7F3" points="199.692262 278.583766 199.692262 268.023061 178.94603 268.023061 178.94603 278.583766 172.030424 278.583766 172.030424 320.826588 185.861049 320.826588 185.861049 311.3226 206.607868 311.3226 206.607868 278.583766"></polygon>
                    <g id="Group-215" transform="translate(155.717196, 284.605878)" fill="#97D7F3">
                        <polygon id="Fill-205" points="0.177458843 35.1649335 10.5505746 35.1649335 10.5505746 28.8287453 0.177458843 28.8287453"></polygon>
                        <polygon id="Fill-207" points="16.3132861 72.1282843 30.1439112 72.1282843 30.1439112 41.5017094 16.3132861 41.5017094"></polygon>
                        <path d="M36.4833051,70.0463519 C35.4461698,70.0463519 34.7545504,69.4127918 34.7545504,68.4624517 L34.7545504,31.982793 C34.7545504,31.2628384 35.2922155,30.5934275 36.068451,30.4770593 C37.3324046,30.2884019 38.2120598,30.957225 38.2120598,32.0292227 L38.2120598,68.4624517 C38.2120598,69.4127918 37.5204404,70.0463519 36.4833051,70.0463519" id="Fill-208"></path>
                        <path d="M43.3989115,70.0463519 C42.3611886,70.0463519 41.6701568,69.4127918 41.6701568,68.4624517 L41.6701568,31.982793 C41.6701568,31.2628384 42.2072342,30.5934275 42.9834698,30.4770593 C44.2474233,30.2884019 45.1276662,30.957225 45.1276662,32.0292227 L45.1276662,68.4624517 C45.1276662,69.4127918 44.4360468,70.0463519 43.3989115,70.0463519" id="Fill-209"></path>
                        <path d="M50.3142828,70.0463519 C49.2765599,70.0463519 48.5855281,69.4127918 48.5855281,68.4624517 L48.5855281,31.982793 C48.5855281,31.2628384 49.1231932,30.5934275 49.8994287,30.4770593 C51.1627946,30.2884019 52.0430375,30.957225 52.0430375,32.0292227 L52.0430375,68.4624517 C52.0430375,69.4127918 51.3514181,70.0463519 50.3142828,70.0463519" id="Fill-210"></path>
                        <path d="M57.2298892,70.0463519 C56.1921663,70.0463519 55.5011345,69.4127918 55.5011345,68.4624517 L55.5011345,31.982793 C55.5011345,31.2628384 56.0382119,30.5934275 56.8144474,30.4770593 C58.078401,30.2884019 58.9586438,30.957225 58.9586438,32.0292227 L58.9586438,68.4624517 C58.9580562,69.4127918 58.2670244,70.0463519 57.2298892,70.0463519" id="Fill-211"></path>
                        <path d="M64.1449667,70.0463519 C63.1078314,70.0463519 62.416212,69.4127918 62.416212,68.4624517 L62.416212,31.982793 C62.416212,31.2628384 62.953877,30.5934275 63.7301126,30.4770593 C64.9940661,30.2884019 65.8737214,30.957225 65.8737214,32.0292227 L65.8737214,68.4624517 C65.8737214,69.4127918 65.1826896,70.0463519 64.1449667,70.0463519" id="Fill-212"></path>
                        <polygon id="Fill-213" points="58.9586438 26.7164867 65.8742502 26.7164867 65.8742502 20.3802985 58.9586438 20.3802985"></polygon>
                        <polygon id="Fill-214" points="70.4840668 73.1838259 91.2302983 73.1838259 91.2302983 0.314429152 70.4840668 0.314429152"></polygon>
                    </g>
                    <g id="Group-228" transform="translate(176.871231, 278.140980)" fill="#BCEFF2">
                        <polygon id="Fill-216" points="55.0933317 6.7793276 65.4664474 6.7793276 65.4664474 0.442551685 55.0933317 0.442551685"></polygon>
                        <path d="M8.99005322,56.4151723 L2.21664898,56.4151723 C1.43042404,56.4151723 0.700022249,55.9226645 0.573098044,55.210938 C0.36684621,54.0525457 1.09666039,53.2461966 2.26718362,53.2461966 L9.232737,53.2461966 C10.0189619,53.2461966 10.7493637,53.739292 10.8762879,54.4504309 C11.0825398,55.6088231 10.352138,56.4151723 9.18220236,56.4151723 L8.99005322,56.4151723 Z" id="Fill-218"></path>
                        <path d="M8.99005322,61.6954662 L2.21664898,61.6954662 C1.43042404,61.6954662 0.700022249,61.2029585 0.573098044,60.491232 C0.36684621,59.3334274 1.09666039,58.5270783 2.26718362,58.5270783 L9.232737,58.5270783 C10.0189619,58.5270783 10.7493637,59.019586 10.8762879,59.7307248 C11.0825398,60.8891171 10.352138,61.6954662 9.18220236,61.6954662 L8.99005322,61.6954662 Z" id="Fill-219"></path>
                        <path d="M8.99005322,68.0318307 L2.21664898,68.0318307 C1.43042404,68.0318307 0.700022249,67.539323 0.573098044,66.8281842 C0.36684621,65.6697919 1.09666039,64.8634428 2.26718362,64.8634428 L9.232737,64.8634428 C10.0189619,64.8634428 10.7493637,65.3559505 10.8762879,66.067677 C11.0825398,67.2254816 10.352138,68.0318307 9.18220236,68.0318307 L8.99005322,68.0318307 Z" id="Fill-220"></path>
                        <path d="M8.99005322,74.3687242 L2.21664898,74.3687242 C1.43042404,74.3687242 0.700022249,73.8756288 0.573098044,73.1644899 C0.36684621,72.0060977 1.09666039,71.1997485 2.26718362,71.1997485 L9.232737,71.1997485 C10.0189619,71.1997485 10.7493637,71.6922562 10.8762879,72.4039828 C11.0825398,73.562375 10.352138,74.3687242 9.18220236,74.3687242 L8.99005322,74.3687242 Z" id="Fill-221"></path>
                        <path d="M2.65112934,44.0249005 C1.61340644,44.0249005 0.922374654,43.3913405 0.922374654,42.4410004 L0.922374654,5.96134163 C0.922374654,5.24079931 1.45945208,4.57138846 2.23568761,4.45560801 C3.49964116,4.2663628 4.37988403,4.93518593 4.37988403,6.00718364 L4.37988403,42.4404127 C4.37988403,43.3913405 3.68826463,44.0249005 2.65112934,44.0249005" id="Fill-222"></path>
                        <path d="M9.56650065,29.9351833 C8.52936536,29.9351833 7.83774597,29.3016233 7.83774597,28.3512832 L7.83774597,6.12848864 C7.83774597,5.40794632 8.375411,4.73853547 9.15164654,4.6221673 C10.4150125,4.43292209 11.2952553,5.10233294 11.2952553,6.17433065 L11.2952553,28.3512832 C11.2952553,29.3016233 10.6036359,29.9351833 9.56650065,29.9351833" id="Fill-223"></path>
                        <path d="M15.3292709,29.9351833 C14.2921356,29.9351833 13.6005162,29.3016233 13.6005162,28.3512832 L13.6005162,6.12848864 C13.6005162,5.40794632 14.1381813,4.73853547 14.9144168,4.6221673 C16.1783703,4.43292209 17.0580256,5.10233294 17.0580256,6.17433065 L17.0580256,28.3512832 C17.0580256,29.3016233 16.3664062,29.9351833 15.3292709,29.9351833" id="Fill-224"></path>
                        <path d="M22.2448773,29.9351833 C21.2071544,29.9351833 20.5161226,29.3016233 20.5161226,28.3512832 L20.5161226,6.12848864 C20.5161226,5.40794632 21.0532,4.73853547 21.8294355,4.6221673 C23.0933891,4.43292209 23.9736319,5.10233294 23.9736319,6.17433065 L23.9736319,28.3512832 C23.9736319,29.3016233 23.2820126,29.9351833 22.2448773,29.9351833" id="Fill-225"></path>
                        <path d="M56.4052932,67.0325925 C55.6302328,67.1501361 55.0955059,67.819547 55.0955059,68.5412647 L55.0955059,71.7531438 C55.0955059,72.7040716 55.7824244,73.3382194 56.8224977,73.3382194 C57.8561073,73.3382194 58.5494896,72.5459755 58.5494896,71.7531438 L58.5494896,68.5829927 C58.5494896,67.5139336 57.6680715,66.8451105 56.4052932,67.0325925 M56.4052932,57.7501738 C55.6302328,57.8677174 55.0955059,58.5371282 55.0955059,59.258846 L55.0955059,62.4707251 C55.0955059,63.4216529 55.7824244,64.0563884 56.8224977,64.0563884 C57.8561073,64.0563884 58.5494896,63.2635567 58.5494896,62.4707251 L58.5494896,59.3064512 C58.5494896,58.2315149 57.6680715,57.5626917 56.4052932,57.7501738 M56.4052932,48.4677551 C55.6302328,48.5847109 55.0955059,49.2547095 55.0955059,49.9764273 L55.0955059,53.1877186 C55.0955059,54.1398219 55.7824244,54.7739696 56.8224977,54.7739696 C57.8561073,54.7739696 58.5494896,53.9805503 58.5494896,53.1877186 L58.5494896,50.0240324 C58.5494896,48.9490961 57.6680715,48.2796853 56.4052932,48.4677551 M56.4052932,39.1847486 C55.6302328,39.3022922 55.0955059,39.9717031 55.0955059,40.6945963 L55.0955059,43.9052999 C55.0955059,44.8568154 55.7824244,45.4909632 56.8224977,45.4909632 C57.8561073,45.4909632 58.5494896,44.6981315 58.5494896,43.9052999 L58.5494896,40.741026 C58.5494896,39.6666774 57.6680715,38.9972666 56.4052932,39.1847486 M56.4052932,29.9082071 C55.6302328,30.0198735 55.0955059,30.6892843 55.0955059,31.4115898 L55.0955059,34.6228812 C55.0955059,35.5743967 55.7824244,36.2085444 56.8224977,36.2085444 C57.8561073,36.2085444 58.5494896,35.4157128 58.5494896,34.6228812 L58.5494896,31.4586072 C58.5494896,30.3842587 57.6680715,29.7148478 56.4052932,29.9082071 M56.4052932,20.6257883 C55.6302328,20.7374547 55.0955059,21.4068656 55.0955059,22.1291711 L55.0955059,25.3463396 C55.0955059,26.2972674 55.7824244,26.9261257 56.8224977,26.9261257 C57.8561073,26.9261257 58.5494896,26.1391713 58.5494896,25.3463396 L58.5494896,22.1761885 C58.5494896,21.1018399 57.6680715,20.4324291 56.4052932,20.6257883 M56.4052932,11.3433696 C55.6302328,11.4609132 55.0955059,12.130324 55.0955059,12.8467523 L55.0955059,16.0633332 C55.0955059,17.0154364 55.7824244,17.6495842 56.8224977,17.6495842 C57.8561073,17.6495842 58.5494896,16.8567525 58.5494896,16.0633332 L58.5494896,12.8937698 C58.5494896,11.8188335 57.6680715,11.1558875 56.4052932,11.3433696" id="Fill-226"></path>
                        <path d="M62.1678284,67.0325925 C61.3927681,67.1501361 60.8580411,67.819547 60.8580411,68.5412647 L60.8580411,71.7531438 C60.8580411,72.7040716 61.5449596,73.3382194 62.5850329,73.3382194 C63.6245187,73.3382194 64.3120248,72.5459755 64.3120248,71.7531438 L64.3120248,68.5829927 C64.3120248,67.5139336 63.4306067,66.8451105 62.1678284,67.0325925 M62.1678284,57.7501738 C61.3927681,57.8677174 60.8580411,58.5371282 60.8580411,59.258846 L60.8580411,62.4707251 C60.8580411,63.4216529 61.5449596,64.0563884 62.5850329,64.0563884 C63.6245187,64.0563884 64.3120248,63.2635567 64.3120248,62.4707251 L64.3120248,59.3064512 C64.3120248,58.2315149 63.4306067,57.5626917 62.1678284,57.7501738 M62.1678284,48.4677551 C61.3927681,48.5847109 60.8580411,49.2547095 60.8580411,49.9764273 L60.8580411,53.1877186 C60.8580411,54.1398219 61.5449596,54.7739696 62.5850329,54.7739696 C63.6245187,54.7739696 64.3120248,53.9805503 64.3120248,53.1877186 L64.3120248,50.0240324 C64.3120248,48.9490961 63.4306067,48.2796853 62.1678284,48.4677551 M62.1678284,39.1847486 C61.3927681,39.3022922 60.8580411,39.9717031 60.8580411,40.6945963 L60.8580411,43.9052999 C60.8580411,44.8568154 61.5449596,45.4909632 62.5850329,45.4909632 C63.6245187,45.4909632 64.3120248,44.6981315 64.3120248,43.9052999 L64.3120248,40.741026 C64.3120248,39.6666774 63.4306067,38.9972666 62.1678284,39.1847486 M62.1678284,29.9082071 C61.3927681,30.0198735 60.8580411,30.6892843 60.8580411,31.4115898 L60.8580411,34.6228812 C60.8580411,35.5743967 61.5449596,36.2085444 62.5850329,36.2085444 C63.6245187,36.2085444 64.3120248,35.4157128 64.3120248,34.6228812 L64.3120248,31.4586072 C64.3120248,30.3842587 63.4306067,29.7148478 62.1678284,29.9082071 M62.1678284,20.6257883 C61.3927681,20.7374547 60.8580411,21.4068656 60.8580411,22.1291711 L60.8580411,25.3463396 C60.8580411,26.2972674 61.5449596,26.9261257 62.5850329,26.9261257 C63.6245187,26.9261257 64.3120248,26.1391713 64.3120248,25.3463396 L64.3120248,22.1761885 C64.3120248,21.1018399 63.4306067,20.4324291 62.1678284,20.6257883 M62.1678284,11.3433696 C61.3927681,11.4609132 60.8580411,12.130324 60.8580411,12.8467523 L60.8580411,16.0633332 C60.8580411,17.0154364 61.5449596,17.6495842 62.5850329,17.6495842 C63.6245187,17.6495842 64.3120248,16.8567525 64.3120248,16.0633332 L64.3120248,12.8937698 C64.3120248,11.8188335 63.4306067,11.1558875 62.1678284,11.3433696" id="Fill-227"></path>
                    </g>
                    <g id="Group-233" transform="translate(156.892421, 324.570705)" fill="#65C6E1">
                        <path d="M1.46644466,18.7478529 C0.69079674,18.8648088 0.156657376,19.5348073 0.156657376,20.2512356 L0.156657376,23.4678164 C0.156657376,24.419332 0.843575876,25.0534797 1.88306161,25.0534797 C2.92313496,25.0534797 3.61064108,24.419332 3.61064108,23.4678164 L3.61064108,20.2976653 C3.61064108,19.2291939 2.7350991,18.5597831 1.46644466,18.7478529 M1.46644466,9.46484641 C0.69079674,9.58239002 0.156657376,10.2518009 0.156657376,10.9735186 L0.156657376,14.1853977 C0.156657376,15.1363255 0.843575876,15.771061 1.88306161,15.771061 C2.92313496,15.771061 3.61064108,15.1363255 3.61064108,14.1853977 L3.61064108,11.0152466 C3.61064108,9.94618749 2.7350991,9.27736436 1.46644466,9.46484641 M1.46644466,0.18242768 C0.69079674,0.299971288 0.156657376,0.969382136 0.156657376,1.69168761 L0.156657376,4.90297898 C0.156657376,5.85449449 0.843575876,6.48864226 1.88306161,6.48864226 C2.92313496,6.48864226 3.61064108,5.85449449 3.61064108,4.90297898 L3.61064108,1.73870505 C3.61064108,0.663768755 2.7350991,-0.00505437515 1.46644466,0.18242768" id="Fill-229"></path>
                        <path d="M8.38610554,18.7478529 C7.6045815,18.8648088 7.07044214,19.5348073 7.07044214,20.2512356 L7.07044214,23.4678164 C7.07044214,24.419332 7.76323676,25.0534797 8.79743399,25.0534797 C9.83691972,25.0534797 10.530302,24.419332 10.530302,23.4678164 L10.530302,20.2976653 C10.530302,19.2291939 9.64888386,18.5597831 8.38610554,18.7478529 M8.38610554,9.46484641 C7.6045815,9.58239002 7.07044214,10.2518009 7.07044214,10.9735186 L7.07044214,14.1853977 C7.07044214,15.1363255 7.76323676,15.771061 8.79743399,15.771061 C9.83691972,15.771061 10.530302,15.1363255 10.530302,14.1853977 L10.530302,11.0152466 C10.530302,9.94618749 9.64888386,9.27736436 8.38610554,9.46484641 M8.38610554,0.18242768 C7.6045815,0.299971288 7.07044214,0.969382136 7.07044214,1.69168761 L7.07044214,4.90297898 C7.07044214,5.85449449 7.76323676,6.48864226 8.79743399,6.48864226 C9.83691972,6.48864226 10.530302,5.85449449 10.530302,4.90297898 L10.530302,1.73870505 C10.530302,0.663768755 9.64888386,-0.00505437515 8.38610554,0.18242768" id="Fill-231"></path>
                    </g>
                    <g id="Group-238" transform="translate(184.510187, 269.912927)" fill="#65C6E1">
                        <path d="M1.92754385,8.23381221 C0.890408557,8.23381221 0.198789161,7.60025216 0.198789161,6.64991209 L0.198789161,1.851782 C0.198789161,1.13065197 0.736454197,0.461241118 1.51268973,0.345460664 C2.77605566,0.156215455 3.65629853,0.825626303 3.65629853,1.89762401 L3.65629853,6.64991209 C3.65629853,7.60025216 2.96467914,8.23381221 1.92754385,8.23381221" id="Fill-234"></path>
                        <path d="M7.6903141,8.23381221 C6.65317881,8.23381221 5.96155941,7.60025216 5.96155941,6.64991209 L5.96155941,1.851782 C5.96155941,1.13065197 6.49922445,0.461241118 7.27545998,0.345460664 C8.53941353,0.156215455 9.41906879,0.825626303 9.41906879,1.89762401 L9.41906879,6.64991209 C9.41906879,7.60025216 8.72744939,8.23381221 7.6903141,8.23381221" id="Fill-236"></path>
                    </g>
                    <g id="Group-242" transform="translate(34.669112, 282.842724)" fill="#F3FCFF">
                        <polygon id="Fill-239" points="65.0598199 73.2455362 118.703513 73.2455362 118.703513 13.9224527 65.0598199 13.9224527"></polygon>
                        <polygon id="Fill-241" points="0.317310513 74.9405151 65.0598199 74.9405151 65.0598199 0.363209749 0.317310513 0.363209749"></polygon>
                    </g>
                    <path d="M48.8595904,275.157076 C50.5242954,275.157076 51.6342945,274.140324 51.6342945,272.614608 L51.6342945,267.456207 C51.6342945,266.29899 50.77168,265.225229 49.5253548,265.038923 C47.4975056,264.73566 46.0848862,265.809421 46.0848862,267.530259 L46.0848862,272.614608 C46.0848862,274.140324 47.1948854,275.157076 48.8595904,275.157076" id="Fill-243" fill="#65C6E1"></path>
                    <polygon id="Fill-245" fill="#97D7F3" points="77.5312395 230.66353 77.5312395 213.714329 110.827689 213.714329 110.827689 230.66353 121.925918 230.66353 121.925918 298.46092 99.7288728 298.46092 99.7288728 283.20611 66.4324229 283.20611 66.4324229 230.66353"></polygon>
                    <g id="Group-257" transform="translate(1.175224, 240.527025)" fill="#97D7F3">
                        <polygon id="Fill-247" points="129.999767 56.2381516 146.647992 56.2381516 146.647992 46.0688663 129.999767 46.0688663"></polygon>
                        <polygon id="Fill-249" points="98.5537074 115.561235 120.750753 115.561235 120.750753 66.4080246 98.5537074 66.4080246"></polygon>
                        <path d="M88.3796747,112.220293 C90.0443796,112.220293 91.1543788,111.204129 91.1543788,109.678413 L91.1543788,51.1322923 C91.1543788,49.9750755 90.2917643,48.9013147 89.0454391,48.7144203 C87.0175899,48.4117455 85.6049705,49.4855064 85.6049705,51.2063448 L85.6049705,109.678413 C85.6055581,111.204129 86.7149697,112.220293 88.3796747,112.220293" id="Fill-250"></path>
                        <path d="M77.2810343,112.220293 C78.9457393,112.220293 80.0557385,111.204129 80.0557385,109.678413 L80.0557385,51.1322923 C80.0557385,49.9750755 79.193124,48.9013147 77.9467988,48.7144203 C75.9189496,48.4117455 74.5063302,49.4855064 74.5063302,51.2063448 L74.5063302,109.678413 C74.5063302,111.204129 75.6163293,112.220293 77.2810343,112.220293" id="Fill-251"></path>
                        <path d="M66.1821002,112.220293 C67.8468051,112.220293 68.9568043,111.204129 68.9568043,109.678413 L68.9568043,51.1322923 C68.9568043,49.9750755 68.0941898,48.9013147 66.8484522,48.7144203 C64.8200154,48.4117455 63.407396,49.4855064 63.407396,51.2063448 L63.407396,109.678413 C63.407396,111.204129 64.5173952,112.220293 66.1821002,112.220293" id="Fill-252"></path>
                        <path d="M55.0834598,112.220293 C56.7481648,112.220293 57.858164,111.204129 57.858164,109.678413 L57.858164,51.1322923 C57.858164,49.9750755 56.9955495,48.9013147 55.7498119,48.7144203 C53.7213751,48.4117455 52.3087557,49.4855064 52.3087557,51.2063448 L52.3087557,109.678413 C52.3093433,111.204129 53.4187548,112.220293 55.0834598,112.220293" id="Fill-253"></path>
                        <path d="M43.9848195,112.220293 C45.6495244,112.220293 46.7595236,111.204129 46.7595236,109.678413 L46.7595236,51.1322923 C46.7595236,49.9750755 45.8969091,48.9013147 44.6505839,48.7144203 C42.6227347,48.4117455 41.2101153,49.4855064 41.2101153,51.2063448 L41.2101153,109.678413 C41.2101153,111.204129 42.3201145,112.220293 43.9848195,112.220293" id="Fill-254"></path>
                        <polygon id="Fill-255" points="41.2104091 42.6789087 52.3092258 42.6789087 52.3092258 32.5096234 41.2104091 32.5096234"></polygon>
                        <polygon id="Fill-256" points="0.514748166 117.256214 33.811198 117.256214 33.811198 0.306201099 0.514748166 0.306201099"></polygon>
                    </g>
                    <g id="Group-270" transform="translate(11.752241, 227.597228)" fill="#97CCE9">
                        <polygon id="Fill-258" points="0.355505297 10.2186536 17.0037302 10.2186536 17.0037302 0.0493683154 0.355505297 0.0493683154"></polygon>
                        <path d="M90.9949597,89.8801314 L101.865783,89.8801314 C103.127974,89.8801314 104.30026,89.0896506 104.503573,87.9483022 C104.834987,86.0899377 103.663288,84.7957826 101.784692,84.7957826 L90.6059605,84.7957826 C89.3437698,84.7957826 88.1714837,85.5856756 87.9681699,86.7276118 C87.6367567,88.5859762 88.8084552,89.8801314 90.6870509,89.8801314 L90.9949597,89.8801314 Z" id="Fill-260"></path>
                        <path d="M90.9949597,98.3549667 L101.865783,98.3549667 C103.127974,98.3549667 104.30026,97.5638982 104.503573,96.4225498 C104.834987,94.5641854 103.663288,93.2700302 101.784692,93.2700302 L90.6059605,93.2700302 C89.3437698,93.2700302 88.1714837,94.060511 87.9681699,95.2024472 C87.6367567,97.0608116 88.8084552,98.3549667 90.6870509,98.3549667 L90.9949597,98.3549667 Z" id="Fill-261"></path>
                        <path d="M90.9949597,108.524663 L101.865783,108.524663 C103.127974,108.524663 104.30026,107.733595 104.503573,106.592246 C104.834987,104.733882 103.663288,103.439727 101.784692,103.439727 L90.6059605,103.439727 C89.3437698,103.439727 88.1714837,104.22962 87.9681699,105.372144 C87.6367567,107.230508 88.8084552,108.524663 90.6870509,108.524663 L90.9949597,108.524663 Z" id="Fill-262"></path>
                        <path d="M90.9949597,118.693772 L101.865783,118.693772 C103.127974,118.693772 104.30026,117.903292 104.503573,116.761943 C104.834987,114.903579 103.663288,113.609424 101.784692,113.609424 L90.6059605,113.609424 C89.3437698,113.609424 88.1714837,114.399317 87.9681699,115.541253 C87.6367567,117.399617 88.8084552,118.693772 90.6870509,118.693772 L90.9949597,118.693772 Z" id="Fill-263"></path>
                        <path d="M101.168816,69.9952792 C102.833521,69.9952792 103.94352,68.978527 103.94352,67.4528109 L103.94352,8.90669059 C103.94352,7.74947377 103.080906,6.67571291 101.834581,6.48940629 C99.8067314,6.18555606 98.394112,7.25931692 98.394112,8.98074306 L98.394112,67.4522232 C98.394112,68.9779392 99.5041112,69.9952792 101.168816,69.9952792" id="Fill-264"></path>
                        <path d="M90.0701758,47.3821811 C91.7348808,47.3821811 92.84488,46.3654289 92.84488,44.8397128 L92.84488,9.17404353 C92.84488,8.01741442 91.9822654,6.94306584 90.7359403,6.75675923 C88.708091,6.45349672 87.2954716,7.52725758 87.2954716,9.248096 L87.2954716,44.8403005 C87.2954716,46.3654289 88.4054708,47.3821811 90.0701758,47.3821811" id="Fill-265"></path>
                        <path d="M80.8213382,47.3821811 C82.4860432,47.3821811 83.5960424,46.3654289 83.5960424,44.8397128 L83.5960424,9.17404353 C83.5960424,8.01741442 82.7334279,6.94306584 81.4871027,6.75675923 C79.4586659,6.45349672 78.0466341,7.52725758 78.0466341,9.248096 L78.0466341,44.8403005 C78.0466341,46.3654289 79.1566333,47.3821811 80.8213382,47.3821811" id="Fill-266"></path>
                        <path d="M69.7224041,47.3821811 C71.387109,47.3821811 72.4971082,46.3654289 72.4971082,44.8397128 L72.4971082,9.17404353 C72.4971082,8.01741442 71.6344937,6.94306584 70.3887562,6.75675923 C68.3603193,6.45349672 66.9476999,7.52725758 66.9476999,9.248096 L66.9476999,44.8403005 C66.9476999,46.3654289 68.0576991,47.3821811 69.7224041,47.3821811" id="Fill-267"></path>
                        <path d="M14.8925576,106.919899 C12.8658836,106.620751 11.4562023,107.689222 11.4562023,109.41535 L11.4562023,114.499699 C11.4562023,115.767994 12.5667891,117.042167 14.228556,117.042167 C15.8909105,117.042167 17.0014973,116.020125 17.0014973,114.499699 L17.0014973,109.338947 C17.0014973,108.182318 16.1435837,107.107381 14.8925576,106.919899 M14.8925576,92.0241855 C12.8658836,91.7191599 11.4562023,92.7935085 11.4562023,94.5143469 L11.4562023,99.5986956 C11.4562023,100.872868 12.5667891,102.140576 14.228556,102.140576 C15.8909105,102.140576 17.0014973,101.124999 17.0014973,99.5986956 L17.0014973,94.443233 C17.0014973,93.2871916 16.1435837,92.212843 14.8925576,92.0241855 M14.8925576,77.1290595 C12.8658836,76.8234461 11.4562023,77.8977947 11.4562023,79.6186331 L11.4562023,84.7029819 C11.4562023,85.9771546 12.5667891,87.2448624 14.228556,87.2448624 C15.8909105,87.2448624 17.0014973,86.2298734 17.0014973,84.7029819 L17.0014973,79.548107 C17.0014973,78.385013 16.1435837,77.3171293 14.8925576,77.1290595 M14.8925576,62.2333458 C12.8658836,61.9283201 11.4562023,63.0026687 11.4562023,64.7229194 L11.4562023,69.8078559 C11.4562023,71.0755637 12.5667891,72.3497364 14.228556,72.3497364 C15.8909105,72.3497364 17.0014973,71.3335719 17.0014973,69.8078559 L17.0014973,64.6465161 C17.0014973,63.4898869 16.1435837,62.4155384 14.8925576,62.2333458 M14.8925576,47.3323426 C12.8658836,47.0326064 11.4562023,48.106955 11.4562023,49.8272057 L11.4562023,54.9121421 C11.4562023,56.1804377 12.5667891,57.4540227 14.228556,57.4540227 C15.8909105,57.4540227 17.0014973,56.4384459 17.0014973,54.9121421 L17.0014973,49.75139 C17.0014973,48.5941732 16.1435837,47.5198246 14.8925576,47.3323426 M14.8925576,32.4366288 C12.8658836,32.1368926 11.4562023,33.2059518 11.4562023,34.9320796 L11.4562023,40.0164284 C11.4562023,41.2847239 12.5667891,42.5588966 14.228556,42.5588966 C15.8909105,42.5588966 17.0014973,41.536855 17.0014973,40.0164284 L17.0014973,34.8556763 C17.0014973,33.6990472 16.1435837,32.6246986 14.8925576,32.4366288 M14.8925576,17.5409151 C12.8658836,17.2358894 11.4562023,18.310238 11.4562023,20.0304887 L11.4562023,25.1154252 C11.4562023,26.3890102 12.5667891,27.6573057 14.228556,27.6573057 C15.8909105,27.6573057 17.0014973,26.641729 17.0014973,25.1154252 L17.0014973,19.9599626 C17.0014973,18.8033334 16.1435837,17.7289849 14.8925576,17.5409151" id="Fill-268"></path>
                        <path d="M5.64659935,106.919899 C3.61992535,106.620751 2.20436789,107.689222 2.20436789,109.41535 L2.20436789,114.499699 C2.20436789,115.767994 3.31495469,117.042167 4.98318533,117.042167 C6.64553985,117.042167 7.75553904,116.020125 7.75553904,114.499699 L7.75553904,109.338947 C7.75553904,108.182318 6.89233692,107.107381 5.64659935,106.919899 M5.64659935,92.0241855 C3.61992535,91.7191599 2.20436789,92.7935085 2.20436789,94.5143469 L2.20436789,99.5986956 C2.20436789,100.872868 3.31495469,102.140576 4.98318533,102.140576 C6.64553985,102.140576 7.75553904,101.124999 7.75553904,99.5986956 L7.75553904,94.443233 C7.75553904,93.2871916 6.89233692,92.212843 5.64659935,92.0241855 M5.64659935,77.1290595 C3.61992535,76.8234461 2.20436789,77.8977947 2.20436789,79.6186331 L2.20436789,84.7029819 C2.20436789,85.9771546 3.31495469,87.2448624 4.98318533,87.2448624 C6.64553985,87.2448624 7.75553904,86.2298734 7.75553904,84.7029819 L7.75553904,79.548107 C7.75553904,78.385013 6.89233692,77.3171293 5.64659935,77.1290595 M5.64659935,62.2333458 C3.61992535,61.9283201 2.20436789,63.0026687 2.20436789,64.7229194 L2.20436789,69.8078559 C2.20436789,71.0755637 3.31495469,72.3497364 4.98318533,72.3497364 C6.64553985,72.3497364 7.75553904,71.3335719 7.75553904,69.8078559 L7.75553904,64.6465161 C7.75553904,63.4898869 6.89233692,62.4155384 5.64659935,62.2333458 M5.64659935,47.3323426 C3.61992535,47.0326064 2.20436789,48.106955 2.20436789,49.8272057 L2.20436789,54.9121421 C2.20436789,56.1804377 3.31495469,57.4540227 4.98318533,57.4540227 C6.64553985,57.4540227 7.75553904,56.4384459 7.75553904,54.9121421 L7.75553904,49.75139 C7.75553904,48.5941732 6.89233692,47.5198246 5.64659935,47.3323426 M5.64659935,32.4366288 C3.61992535,32.1368926 2.20436789,33.2059518 2.20436789,34.9320796 L2.20436789,40.0164284 C2.20436789,41.2847239 3.31495469,42.5588966 4.98318533,42.5588966 C6.64553985,42.5588966 7.75553904,41.536855 7.75553904,40.0164284 L7.75553904,34.8556763 C7.75553904,33.6990472 6.89233692,32.6246986 5.64659935,32.4366288 M5.64659935,17.5409151 C3.61992535,17.2358894 2.20436789,18.310238 2.20436789,20.0304887 L2.20436789,25.1154252 C2.20436789,26.3890102 3.31495469,27.6573057 4.98318533,27.6573057 C6.64553985,27.6573057 7.75553904,26.641729 7.75553904,25.1154252 L7.75553904,19.9599626 C7.75553904,18.8033334 6.89233692,17.7289849 5.64659935,17.5409151" id="Fill-269"></path>
                    </g>
                    <g id="Group-275" transform="translate(129.274654, 304.588292)" fill="#65C6E1">
                        <path d="M14.5927579,29.9701525 C12.5607954,29.6645392 11.1505265,30.7394755 11.1505265,32.4591384 L11.1505265,37.5440749 C11.1505265,39.0703787 12.2611133,40.0865432 13.9234678,40.0865432 C15.5916985,40.0865432 16.7016976,39.0703787 16.7016976,37.5440749 L16.7016976,32.3827351 C16.7016976,31.2266937 15.8384955,30.1523451 14.5927579,29.9701525 M14.5927579,15.0691493 C12.5607954,14.7694131 11.1505265,15.8437617 11.1505265,17.5640124 L11.1505265,22.6483612 C11.1505265,24.1752527 12.2611133,25.1908294 13.9234678,25.1908294 C15.5916985,25.1908294 16.7016976,24.1752527 16.7016976,22.6483612 L16.7016976,17.4876091 C16.7016976,16.33098 15.8384955,15.2566314 14.5927579,15.0691493 M14.5927579,0.173435594 C12.5607954,-0.126300607 11.1505265,0.942170791 11.1505265,2.66829868 L11.1505265,7.75264745 C11.1505265,9.27366173 12.2611133,10.2951157 13.9234678,10.2951157 C15.5916985,10.2951157 16.7016976,9.27366173 16.7016976,7.75264745 L16.7016976,2.59189533 C16.7016976,1.43526623 15.8384955,0.360917649 14.5927579,0.173435594" id="Fill-271"></path>
                        <path d="M3.4909445,29.9701525 C1.4642705,29.6645392 0.0487130399,30.7394755 0.0487130399,32.4591384 L0.0487130399,37.5440749 C0.0487130399,39.0703787 1.15871222,40.0865432 2.82694287,40.0865432 C4.48929739,40.0865432 5.59929658,39.0703787 5.59929658,37.5440749 L5.59929658,32.3827351 C5.59929658,31.2266937 4.73609446,30.1523451 3.4909445,29.9701525 M3.4909445,15.0691493 C1.4642705,14.7694131 0.0487130399,15.8437617 0.0487130399,17.5640124 L0.0487130399,22.6483612 C0.0487130399,24.1752527 1.15871222,25.1908294 2.82694287,25.1908294 C4.48929739,25.1908294 5.59929658,24.1752527 5.59929658,22.6483612 L5.59929658,17.4876091 C5.59929658,16.33098 4.73609446,15.2566314 3.4909445,15.0691493 M3.4909445,0.173435594 C1.4642705,-0.126300607 0.0487130399,0.942170791 0.0487130399,2.66829868 L0.0487130399,7.75264745 C0.0487130399,9.27366173 1.15871222,10.2951157 2.82694287,10.2951157 C4.48929739,10.2951157 5.59929658,9.27366173 5.59929658,7.75264745 L5.59929658,2.59189533 C5.59929658,1.43526623 4.73609446,0.360917649 3.4909445,0.173435594" id="Fill-273"></path>
                    </g>
                    <g id="Group-280" transform="translate(86.378973, 217.018303)" fill="#65C6E1">
                        <path d="M12.4247632,12.9441372 C14.0894682,12.9441372 15.1994674,11.927385 15.1994674,10.401669 L15.1994674,2.70079948 C15.1994674,1.54417038 14.3368529,0.469821802 13.0911153,0.283515183 C11.0626785,-0.0197473262 9.65005909,1.05401353 9.65005909,2.77485196 L9.65005909,10.401669 C9.65005909,11.927385 10.7600583,12.9441372 12.4247632,12.9441372" id="Fill-276"></path>
                        <path d="M3.17592567,12.9441372 C4.84063064,12.9441372 5.95062983,11.927385 5.95062983,10.401669 L5.95062983,2.70079948 C5.95062983,1.54417038 5.08801532,0.469821802 3.84169014,0.283515183 C1.81384091,-0.0197473262 0.401221516,1.05401353 0.401221516,2.77485196 L0.401221516,10.401669 C0.401809128,11.927385 1.5112207,12.9441372 3.17592567,12.9441372" id="Fill-278"></path>
                    </g>
                    <path d="M662.693841,572 L0.000235044825,572 L0.000235044825,548.027569 C0.469737082,547.616754 0.939826732,547.211228 1.42754474,546.817457 C18.0099571,533.237644 43.4976303,528.740426 63.3871234,525.235276 C87.2529873,521.025451 92.0526026,523.984612 128.289463,517.690739 C156.860925,512.729223 170.289035,508.049225 173.566735,498.080351 C176.239195,489.966316 171.528309,480.354187 170.547585,478.469963 C167.06422,471.724136 162.78758,469.72178 155.457119,463.38089 C146.340318,455.507232 131.925607,443.318547 134.328352,434.723171 C136.348563,427.466029 147.32163,424.777219 162.99912,421.142182 C181.32674,416.885928 196.68692,416.528008 212.805706,416.615578 C236.789092,416.750753 248.789894,416.827157 259.59843,418.124838 C259.59843,418.124838 311.366465,424.354062 322.985318,418.124838 C325.187688,416.950577 326.004469,415.106906 326.004469,415.106906 C326.080859,414.942933 327.044542,412.664937 326.004469,410.580302 C325.053125,408.69549 322.985318,407.990816 321.475743,407.568247 C316.059722,406.041355 313.357882,405.272032 307.894853,406.058987 C303.683437,406.658459 302.490585,405.847996 277.708046,401.532382 C260.003882,398.455678 241.95244,395.314913 221.863158,392.478586 C205.427649,390.171205 189.673182,384.411568 173.566735,380.413322 C173.126026,380.307533 170.306664,379.596982 167.528434,377.39539 C166.018271,376.185866 162.353334,373.291355 162.99912,369.850854 C163.410449,367.696279 165.448875,365.705678 167.528434,365.324249 C168.297618,365.189074 168.902859,365.294863 169.038009,365.324249 C173.037885,366.0348 184.146103,364.073585 185.63805,363.814989 C193.338706,362.506141 198.061932,363.363034 212.805706,362.306317 C227.026506,361.284863 240.436988,359.211982 248.572477,357.78559 C250.176658,357.503485 251.574,357.245477 252.731595,357.028021 C254.382198,356.716531 255.550958,356.487909 256.13857,356.364488 C256.32073,356.329225 256.444128,356.299839 256.514642,356.288084 C256.450004,356.311593 256.32073,356.364488 256.13857,356.429137 C255.780127,356.564312 255.227771,356.775303 254.546729,357.028021 C253.953241,357.250767 253.265735,357.509362 252.531807,357.78559 C249.177718,359.047421 244.889325,360.656005 244.502088,360.797645 C227.208665,367.255491 176.721037,369.487056 176.585886,372.868786 C176.527125,374.348072 186.061131,375.581105 203.753542,378.904062 C227.690507,383.384237 227.267427,384.306367 239.972775,386.442722 C251.809044,388.4392 253.42439,387.863824 306.385277,390.969914 C313.504785,391.392483 325.628397,392.150052 341.094934,395.497106 C365.73057,400.821831 370.077724,406.464512 371.281741,410.580302 C372.732555,415.500089 370.301017,420.191255 369.772166,421.142182 C362.887703,433.678208 339.661748,433.407858 322.985318,433.213911 C300.693079,432.955315 295.682511,428.699061 274.688895,430.196567 C265.166642,430.871267 263.351508,431.945615 255.069704,431.705239 C243.550157,431.370827 236.096298,428.957069 232.430774,433.213911 C231.068101,434.781355 230.257197,437.241543 230.921198,439.243898 C232.395517,443.770502 240.865945,444.674413 246.011664,445.279762 C246.011664,445.279762 252.243877,446.00148 304.875702,454.332971 C308.541226,454.920101 312.858412,455.718223 321.475743,457.350903 C327.331885,458.448761 359.557118,464.56044 390.900933,472.434099 C406.555506,476.356529 420.847406,480.442933 466.365599,495.062419 C546.569357,520.831504 513.745348,511.866453 585.596788,535.791867 C621.04096,547.580903 650.810562,557.022593 662.236091,571.41287 C662.394158,571.606817 662.546938,571.806053 662.693841,572" id="Fill-281" fill="#EDEFFF"></path>
                    <path d="M123.039032,16.8535283 C123.504421,14.6096208 120.297822,10.6131381 116.947845,9.89553439 C114.06267,9.27725502 112.819871,11.4665047 109.986993,10.7653571 C106.870298,9.99427103 107.071262,7.02335633 103.025553,3.80736321 C101.819773,2.84879509 98.0279121,-0.165610743 93.4539399,0.328660129 C88.7835992,0.832922208 85.4206954,4.76534362 84.7525804,5.54700861 C82.4785218,8.20643275 82.4855731,10.0289464 80.4019007,10.7653571 C78.7695144,11.3424962 78.027948,10.4844279 74.3107141,9.89553439 C71.9444003,9.52057028 69.0374835,9.06097478 66.4796081,9.89553439 C63.4005209,10.9005322 60.1004916,14.0177887 60.3884215,15.9837056 C61.534265,23.8062327 121.242702,25.510615 123.039032,16.8535283" id="Fill-283" fill="#EDEFFF"></path>
                    <path d="M92.8489932,162.415654 C93.3596281,159.86437 89.8439452,155.321309 86.1719574,154.504969 C83.008254,153.802058 81.6461693,156.291044 78.5406395,155.494098 C75.124263,154.616635 75.3440299,151.23902 70.9093217,147.582826 C69.5871945,146.493196 65.4298392,143.066213 60.4163331,143.627483 C55.2958816,144.200508 51.6092035,148.672455 50.8770389,149.560497 C48.3843885,152.583719 48.3914399,154.6566 46.1073918,155.494098 C44.318113,156.149404 43.5048579,155.17438 39.4297683,154.504969 C36.835461,154.078873 33.6494284,153.555216 30.8447561,154.504969 C27.4695124,155.646905 23.8515849,159.191432 24.1677202,161.426524 C25.4234472,170.320461 90.8799052,172.259343 92.8489932,162.415654" id="Fill-285" fill="#FFFFFF"></path>
                    <path d="M67.2058379,69.4901437 C67.5689822,67.6735072 65.0657548,64.4387072 62.4514687,63.857454 C60.1985641,63.3567182 59.2290042,65.1292759 57.01782,64.5615402 C54.585106,63.9373837 54.7419985,61.5318537 51.5835836,58.9288505 C50.6428167,58.1530627 47.6824271,55.7128574 44.1126839,56.1125057 C40.4671386,56.5209697 37.8416879,59.7046383 37.320476,60.3370229 C35.5453,62.4898341 35.5505885,63.9655941 33.9240783,64.5615402 C32.6501354,65.0287761 32.0713375,64.3340933 29.1702967,63.857454 C27.3228444,63.5541915 25.0540742,63.1815783 23.0567808,63.857454 C20.6540351,64.6708558 18.0779438,67.194517 18.3024117,68.7860575 C19.1967572,75.1187194 65.8037955,76.4986813 67.2058379,69.4901437" id="Fill-287" fill="#FFFFFF"></path>
                    <path d="M210.379456,152.248484 C210.091526,150.281392 213.392731,147.163548 216.47123,146.159725 C219.026167,145.319876 221.933672,145.784173 224.301161,146.159725 C228.01957,146.746856 228.759374,147.604336 230.392348,147.02896 C232.477783,146.289023 232.471907,144.46886 234.745378,141.809436 C235.414668,141.028359 238.774634,137.094174 243.444974,136.589325 C248.020709,136.096817 251.809044,139.114161 253.018938,140.070966 C257.060533,143.282845 256.861333,146.25376 259.980378,147.02896 C262.811493,147.727757 264.050766,145.537332 266.940643,146.159725 C270.289444,146.876154 273.49663,150.874399 273.032417,153.117719 C271.234911,161.771867 211.524712,160.06866 210.379456,152.248484" id="Fill-289" fill="#DDFAFB"></path>
                    <path d="M318.303519,129.456073 C317.827553,126.18601 323.308211,121.007039 328.424549,119.339683 C332.677098,117.947966 337.506094,118.717289 341.441332,119.339683 C347.621248,120.314119 348.848769,121.741099 351.562949,120.784294 C355.028098,119.557138 355.016345,116.527452 358.793516,112.111926 C359.903515,110.814832 365.489943,104.274118 373.255824,103.440147 C380.856586,102.617929 387.159313,107.626462 389.162482,109.217415 C395.882414,114.566237 395.547475,119.498367 400.728451,120.784294 C405.439337,121.9468 407.501267,118.312352 412.294419,119.339683 C417.863218,120.531575 423.191097,127.172201 422.421325,130.900684 C419.431555,145.285083 320.206795,142.455221 318.303519,129.456073" id="Fill-291" fill="#DDFAFB"></path>
                    <path d="M422.421325,130.90039 C419.431555,145.284789 320.206795,142.454927 318.303519,129.455779 C317.827553,126.185716 323.308211,121.007333 328.424549,119.339977 C332.677098,117.94826 337.506094,118.717583 341.441332,119.339977 C347.621248,120.314413 348.848769,121.741392 351.562949,120.784 C355.028098,119.556844 355.016345,116.527158 358.793516,112.11222 C359.903515,110.814539 365.489943,104.273825 373.255824,103.439853 C380.856586,102.618223 387.159313,107.626168 389.162482,109.217709 C395.882414,114.566531 395.547475,119.498073 400.728451,120.784 C405.439337,121.946506 407.501267,118.312058 412.294419,119.339977 C417.863218,120.531281 423.191097,127.171907 422.421325,130.90039" id="Fill-293" fill="#FFFFFF"></path>
                    <path d="M273.032182,153.117425 C271.234676,161.771573 211.525064,160.068954 210.379221,152.24819 C210.091879,150.281098 213.393083,147.163842 216.470995,146.160019 C219.025932,145.32017 221.934024,145.78388 224.300926,146.160019 C228.019335,146.747149 228.759726,147.604042 230.3927,147.028666 C232.477548,146.288729 232.472259,144.469154 234.745143,141.809142 C235.414433,141.028065 238.774986,137.094468 243.444739,136.589619 C248.020474,136.096523 251.809397,139.113868 253.01929,140.07126 C257.060886,143.283139 256.861098,146.253466 259.980143,147.028666 C262.811258,147.727463 264.051119,145.537626 266.940995,146.160019 C270.289209,146.87586 273.496395,150.874693 273.032182,153.117425" id="Fill-295" fill="#FFFFFF"></path>
                    <path d="M213.880449,78.7806142 C212.476643,85.7850378 165.871368,84.4056636 164.978785,78.0759403 C164.749616,76.4791103 167.328646,73.9601508 169.730804,73.1443982 C171.728097,72.4691101 173.995692,72.8387848 175.845495,73.1443982 C178.747711,73.6198621 179.322983,74.3186588 180.598101,73.8484844 C182.225199,73.2560646 182.219323,71.7761906 183.993324,69.6274934 C184.515711,68.9933457 187.141749,65.8108525 190.783769,65.4000376 C194.354687,65.000977 197.315665,67.4429455 198.255256,68.2181456 C201.416022,70.8193856 201.257366,73.2266787 203.688905,73.8484844 C205.903615,74.4185709 206.872587,72.6454256 209.122554,73.1443982 C211.742128,73.7250636 214.244768,76.9604514 213.880449,78.7806142" id="Fill-297" fill="#FFFFFF"></path>
                </g>
                <path d="M323.428261,488.779612 C323.43059,488.779018 349.912694,493.775782 372.707461,488.779612 C375.617505,488.141424 373.254768,479.404662 369.187227,478.002312 C359.168592,474.548727 355.764806,478.092039 348.06757,474.409681 C342.264948,471.634691 322.503661,466.144727 319.908609,470.817644 C316.589831,476.792488 323.43059,488.778424 323.428261,488.779612" id="Fill-300" fill="#63ABEE"></path>
                <path d="M135,446.5353 C135.000591,446.537066 139.560232,473.383566 152.164807,493.329034 C153.773675,495.875051 161.106902,490.659984 160.998817,486.320865 C160.733035,475.632891 156.240725,473.605496 156.996137,465.044403 C157.566092,458.590176 155.807205,437.957724 150.541173,437.082954 C143.808023,435.963884 135.000591,446.537066 135,446.5353" id="Fill-302" fill="#63ABEE"></path>
                <path d="M280.997047,320.942687 C280.871721,331.079828 276.821437,333.37384 266.83511,360.128869 C257.481273,385.191526 260.789551,383.839161 256.213949,392.190237 C249.373678,404.675603 242.189051,407.316103 196.026005,434.938531 C175.195975,447.402683 158.637014,457.648249 153.540192,452.750861 C150.258267,449.59652 150.001757,438.500643 150,438.501233 C150.007028,438.496519 175.218814,421.562195 203.106974,402.877163 C214.283907,395.388772 219.273557,392.052349 224.349296,385.065423 C227.860205,380.233443 244.828529,311.984077 245.592203,303.130357 C246.506972,292.534767 247.603875,279.829605 252.673172,278.193803 C260.405957,275.698851 281.285182,297.696147 280.997047,320.942687" id="Fill-304" fill="#3F7AD5"></path>
                <path d="M305.146544,288.749187 C305.146544,288.749187 336.999415,473.330886 337,473.335583 C336.126517,474.195796 333.691067,476.35954 329.921389,476.885649 C324.059332,477.704173 319.878087,473.878721 319.303766,473.335583 C304.900658,429.587451 296.839085,395.335129 289.032767,372.533325 C279.789767,345.536148 271.199539,326.10767 262.675465,317.146778 C262.434262,316.894292 262.010986,316.456846 261.461838,315.845009 C261.461838,315.845009 255.164211,308.800659 252.057256,299.39821 C247.576263,285.83562 251.768632,270.974784 252.057256,271.000032 C252.205374,271.013537 250.299166,274.86365 252.057256,278.099577 C256.795845,286.822076 280.106493,276.270524 305.146544,288.749187" id="Fill-306" fill="#6B91D4"></path>
                <path d="M277.264284,150.570771 C275.193885,151.29042 274.161031,153.291206 273.718799,154.124916 C261.532771,177.089569 246.825314,198.65373 234.715533,221.658951 C228.499057,233.467882 225.637449,237.943341 227.623976,242.985581 C231.067407,251.727189 244.469868,250.45487 248.898059,260.758067 C252.213043,268.470178 246.057565,272.33711 248.898059,278.529964 C256.16205,294.365162 305.631682,289.19181 305.630509,289.192986 C305.629922,289.190046 302.985325,267.92221 302.084437,260.758067 C295.045667,204.782497 292.316612,197.588956 298.538952,189.669299 C302.999988,183.991488 305.133144,186.758958 323.359106,175.451546 C335.309941,168.037524 344.425562,162.382643 351.725331,154.124916 C361.323067,143.267872 363.372352,132.898825 373,90.1462012 C368.526648,85.4555538 366.282054,83.1084662 365.908444,83.0367366 C359.19519,81.748543 354.518317,114.603653 330.450662,139.90775 C316.363152,154.719331 301.343082,160.938643 294.993468,157.679648 C292.640368,156.472591 290.257943,155.324917 287.901325,154.124916 C281.831478,151.03525 279.578673,149.766459 277.264284,150.570771" id="Fill-308" fill="#96E0F3"></path>
                <path d="M205.004456,333.669822 C214.355244,338.825477 216.051978,354.024334 208.711961,367.372834 C201.370773,380.721334 187.652183,387.419931 178.286748,382.256062 C168.921312,377.092781 167.226922,361.913284 174.574555,348.550704 C181.911057,335.209244 195.639607,328.505954 205.004456,333.669822 M299.837615,163.67401 C326.475056,178.360704 343.100242,210.278479 320.13691,252.037055 C298.961125,290.544306 259.809095,288.25688 245.497586,298.49955 C234.80687,306.093405 228.478683,321.557436 214.742516,313.983528 C205.794234,309.050221 207.118929,296.282524 212.330411,286.805459 C231.723336,251.540732 272.522886,263.635518 288.491289,234.597119 C297.280795,218.613885 295.01692,205.015464 282.523424,198.126786 C255.885983,183.439505 244.796276,228.255804 224.621776,217.131957 C217.33859,213.116788 214.507575,203.449642 221.017973,191.610057 C236.985205,162.562271 274.442844,149.671373 299.837615,163.67401" id="Fill-310" fill="#FF769E"></path>
                <path d="M267.079621,117.325814 C267.786179,126.627601 273.01494,127.512204 274.145783,140.315546 C274.781627,147.389444 274.145783,158 274.145783,158 L288.277524,158 C288.277524,158 287.147265,153.47343 286.970771,149.547127 C286.900057,149.087274 286.900057,148.698212 286.900057,148.273462 C286.900057,146.152053 287.253628,144.418536 288.277524,143.852788 C288.59603,143.676101 288.631095,143.817099 291.810897,143.852788 C293.047519,143.887891 294.849271,143.887891 295.34427,143.852788 C298.700566,143.569621 300.961668,135.151851 302.410432,129.70499 C304.989456,120.013556 306.296208,115.168131 305.943221,108.483294 C305.6253,102.470685 305.413157,98.2969034 302.410432,94.3360817 C298.453358,89.1010106 291.033625,86.0593102 284.744735,87.261598 C273.262732,89.4192804 266.160921,105.370802 267.079621,117.325814" id="Fill-312" fill="#FDCB86"></path>
                <path d="M309.032711,97.2459335 C307.520429,99.7073397 304.679816,100.285143 301.904056,100.806403 C295.413921,102.02562 293.51782,99.4605512 287.646747,100.806403 C285.444063,101.311171 282.566896,101.970844 280.518093,104.367461 C277.009481,108.471571 278.295363,114.902209 276.95406,115.049457 C276.106239,115.142518 275.810268,112.550944 273.389438,111.488988 C272.46615,111.08376 270.817085,110.718584 269.825406,111.488988 C268.090261,112.837195 269.318364,116.923636 269.825406,118.609926 C270.898448,122.179819 272.2822,123.50859 273.389438,125.732043 C276.314362,131.601958 275.208893,139.489766 273.389438,139.974508 C271.054098,140.597664 265.014404,129.692439 262.696751,118.609926 C261.202157,111.463661 258.498917,98.5399534 266.261373,90.1244062 C272.085869,83.8098008 280.865357,83.2196287 284.082715,83.0028789 C285.12333,82.9327886 290.716709,84.1431714 301.904056,86.563348 C305.005855,87.2348013 307.611815,87.8391092 309.032711,90.1244062 C310.317413,92.1905974 310.327436,95.1385127 309.032711,97.2459335" id="Fill-314" fill="#1818B1"></path>
                <path d="M244.649445,231.927307 C254.858631,236.667411 254.695712,234.345776 265.983574,239.066395 C279.219992,244.601241 277.629622,247.03388 287.317115,249.774733 C289.927933,250.513381 292.476406,251.023527 294.42908,253.343982 C298.059169,257.660736 297.648637,265.86558 294.42908,267.622749 C293.0775,268.360217 291.481249,267.824091 290.873097,267.622749 C282.681281,264.901381 274.111281,263.3922 265.983574,260.483661 C255.756155,256.823483 253.892293,257.419834 244.649445,253.343982 C237.786269,250.317943 235.581278,248.563727 233.982674,246.205484 C229.799719,240.035318 230.217309,230.39805 233.982674,228.357467 C236.165904,227.174213 238.501465,229.073088 244.649445,231.927307" id="Fill-316" fill="#96E0F3"></path>
                <path d="M387.560814,57.9180375 C390.47567,60.3658201 388.159922,66.9514504 387.560814,68.6539468 C385.821293,73.6010131 382.596345,76.9971265 380.280597,79.3898562 C376.309022,83.4933698 374.922343,83.2565831 373.00038,86.5473264 C370.779767,90.3513048 371.384896,92.8044151 369.360573,93.7053886 C366.926809,94.7880958 362.722215,92.7268675 362.080356,90.1263575 C361.57277,88.0692729 363.551332,86.7107092 365.720766,82.9688873 C368.173195,78.7375088 367.236901,77.7252456 369.360573,72.2329779 C371.128996,67.6582587 373.940288,60.3894988 380.280597,57.9180375 C380.90379,57.6747392 385.252893,55.9799383 387.560814,57.9180375" id="Fill-318" fill="#FDCB86"></path>
                <path d="M277.197231,139.278469 C276.287055,137.840478 278.755661,142.380561 279.945616,143.580118 C281.839782,145.48943 284.394703,147.584189 286.661511,149 C286.590077,148.515741 286.590077,148.106031 286.590077,147.658738 C286.590077,145.424123 286.949624,143.599218 287.993141,143.002827 C287.995522,143.001595 287.998499,143.000363 287.999689,142.996666 C288.066955,142.757617 277.197231,139.278469 277.197231,139.278469" id="Fill-320" fill="#F4AE60"></path>
                <path d="M327.283286,263.871654 C326.402938,262.919427 322.828156,259.239802 312.96102,256.733785 C305.553994,254.852353 296.157287,254.02823 295.058038,256.733785 C294.944139,257.014789 295.027784,257.066149 295.058038,260.303015 C295.078801,262.551051 295.048547,263.563494 295.058038,263.871654 C295.164819,267.227179 302.810915,273.091673 312.96102,274.578163 C319.373205,275.517403 329.571361,275.116558 330.864001,271.009523 C331.63045,268.571396 328.98288,265.7094 327.283286,263.871654" id="Fill-322" fill="#FDCB86"></path>
                <path d="M292.738524,270.865455 C277.00081,265.951761 261.154177,261.294965 245.50196,256.117964 C236.699966,253.206447 229.898932,250.034536 226.210304,241.154934 C224.906197,238.015645 230.041816,236.64785 231.330698,239.750439 C235.835636,250.594936 253.335974,253.028773 263.446759,256.185538 C273.681104,259.38075 283.915449,262.576545 294.150379,265.771757 C297.399815,266.786536 296.011968,271.887224 292.738524,270.865455" id="Fill-324" fill="#63ABEE"></path>
                <path d="M292.410878,267.041832 C294.449296,263.742962 295.091775,260.081468 294.176947,256.321238 C293.365899,252.987105 298.609515,251.564236 299.422363,254.904834 C300.668929,260.027986 299.898073,265.21755 297.107997,269.731825 C295.297537,272.662195 290.59142,269.986307 292.410878,267.041832" id="Fill-326" fill="#63ABEE"></path>
                <path d="M294,252 C281.333333,246.667042 268.666667,241.333521 256,236 L294,252 Z" id="Fill-328" fill="#96E0F3"></path>
                <g id="Shape" transform="translate(99.000000, 32.000000)" stroke-linecap="round" stroke-linejoin="round">
                    <g id="Group-9" transform="translate(230.000000, 0.000000)" stroke="#FF969C" stroke-width="2.328">
                        <path d="M9.21671,0.103699174 L9.21671,17.9442281" id="Stroke-7"></path>
                        <path d="M18.21207,9.02283306 L0.22287,9.02283306" id="Stroke-8"></path>
                    </g>
                    <path d="M502,204.998954 C502,207.209673 500.211297,209 498,209 C495.790795,209 494,207.209673 494,204.998954 C494,202.790327 495.790795,201 498,201 C500.211297,201 502,202.790327 502,204.998954 Z" id="Stroke-10" stroke="#BDEDE8" stroke-width="2.328"></path>
                    <polygon id="Stroke-12" stroke="#F09FFD" stroke-width="1.477" points="16 107.553168 7.44903581 115 0 106.449036 8.55096419 99"></polygon>
                    <polygon id="Stroke-13" stroke="#9FC3FD" stroke-width="1.477" points="437.068767 76 439 83.068323 431.931233 85 430 77.931677"></polygon>
                </g>
            </g>
        </g>
    </g>
</svg>