<?xml version="1.0" encoding="UTF-8"?>
<svg width="75px" height="75px" viewBox="0 0 75 75" version="1.1" xmlns="http://www.w3.org/2000/svg" xmlns:xlink="http://www.w3.org/1999/xlink">
    <!-- Generator: Sketch 55 (78076) - https://sketchapp.com -->
    <title>deep exp</title>
    <desc>Created with Sketch.</desc>
    <g id="Page-1-Copy" stroke="none" stroke-width="1" fill="none" fill-rule="evenodd">
        <g id="Artboard" transform="translate(-2939.000000, -1607.000000)" fill="#000000" fill-rule="nonzero">
            <g id="deep-exp" transform="translate(2939.000000, 1607.000000)">
                <path d="M67.7425781,26.8795898 C66.3761719,22.9945312 64.2963867,19.4509277 61.560498,16.3470703 C58.8414551,13.2621094 55.6070801,10.7613281 51.9476074,8.91416016 C51.2173828,8.5453125 50.3254395,8.83842773 49.9564453,9.56953125 C49.5874512,10.3003418 49.8808594,11.1916992 50.6118164,11.5606934 C57.3552246,14.9648437 62.4458496,20.7541992 64.9458984,27.8630859 C65.160498,28.4729004 65.7328125,28.8541992 66.3443848,28.8541992 C66.5075684,28.8541992 66.6735352,28.8269531 66.8359863,28.7698242 C67.6083984,28.4980957 68.0141602,27.6518555 67.7425781,26.8795898 Z" id="Path"></path>
                <path d="M66.8362793,46.2297363 C66.0637207,45.9578613 65.2177734,46.3640625 64.9461914,47.1363281 C62.0520996,55.3655273 55.411377,62.0061035 47.1821777,64.9003418 C46.4099121,65.1719238 46.0041504,66.0181641 46.2755859,66.7904297 C46.4898926,67.4000977 47.0625,67.781543 47.6739258,67.781543 C47.8371094,67.781543 48.0030762,67.7542969 48.1655273,67.697168 C52.6463379,66.1212891 56.7990234,63.5043457 60.1743164,60.1287598 C63.5497559,56.7534668 66.1668457,52.6009277 67.7427246,48.1199707 C68.0143066,47.3475586 67.6085449,46.5013184 66.8362793,46.2297363 Z" id="Path"></path>
                <path d="M27.9089355,64.9003418 C19.6797363,62.00625 13.0388672,55.3655273 10.1447754,47.1363281 C9.87319336,46.3640625 9.02724609,45.9588867 8.2546875,46.2297363 C7.48242188,46.5013184 7.07666016,47.3475586 7.3480957,48.1198242 C8.92382813,52.6006348 11.5410645,56.7533203 14.9165039,60.1286133 C18.2917969,63.5040527 22.4444824,66.1211426 26.925293,67.6970215 C27.0880371,67.7542969 27.2538574,67.7813965 27.417041,67.7813965 C28.0284668,67.7813965 28.6009277,67.3999512 28.8153809,66.7902832 C29.0871094,66.0181641 28.6812012,65.1719238 27.9089355,64.9003418 Z" id="Path"></path>
                <path d="M28.8155273,8.20898437 C28.5439453,7.43671875 27.6981445,7.03095703 26.9254395,7.30239258 C22.4446289,8.87827148 18.2919434,11.4952148 14.9166504,14.8708008 C11.5412109,18.2460937 8.92412109,22.3986328 7.34824219,26.8795898 C7.07651367,27.6518555 7.48256836,28.4980957 8.25483398,28.7696777 C8.41757813,28.8269531 8.58339844,28.8540527 8.74658203,28.8540527 C9.35800781,28.8540527 9.93046875,28.4726074 10.1449219,27.8629395 C13.0390137,19.6337402 19.6798828,12.9931641 27.909082,10.0989258 C28.6812012,9.82749023 29.0871094,8.98125 28.8155273,8.20898437 Z" id="Path"></path>
                <path d="M39.6416016,68.0217773 L44.0894531,63.5739258 C44.6685059,62.9950195 44.6685059,62.0563477 44.0897461,61.4775879 C43.5108398,60.8989746 42.5724609,60.8989746 41.9934082,61.4775879 L37.5455566,65.9254395 L33.0977051,61.4775879 C32.5189453,60.8989746 31.5802734,60.8989746 31.0013672,61.4775879 C30.4226074,62.0563477 30.4226074,62.9950195 31.0013672,63.5739258 L35.4492188,68.0217773 L31.0013672,72.4696289 C30.4226074,73.0483887 30.4226074,73.9870605 31.0013672,74.5659668 C31.2908203,74.8552734 31.6702148,75.0001465 32.0494629,75.0001465 C32.4287109,75.0001465 32.808252,74.8552734 33.0975586,74.5659668 L37.5454102,70.1181152 L41.9932617,74.5659668 C42.2827148,74.8552734 42.6621094,75.0001465 43.0413574,75.0001465 C43.4206055,75.0001465 43.8,74.8552734 44.0894531,74.5659668 C44.6682129,73.987207 44.6682129,73.0485352 44.0894531,72.4696289 L39.6416016,68.0217773 Z" id="Path"></path>
                <path d="M42.5383301,37.0198242 C44.0330566,35.6518066 44.9723145,33.6864258 44.9723145,31.5052734 C44.9723145,27.3826172 41.6182617,24.0287109 37.495752,24.0287109 C33.3732422,24.0287109 30.0191895,27.3827637 30.0191895,31.5052734 C30.0191895,33.6864258 30.9583008,35.6519531 32.4531738,37.0198242 C27.674707,39.004248 24.305127,43.7195801 24.305127,49.2079102 C24.305127,50.0264648 24.9687012,50.6901855 25.7874023,50.6901855 L49.2041016,50.6901855 C50.0225098,50.6901855 50.6862305,50.0266113 50.6862305,49.2079102 C50.686377,43.7197266 47.3169434,39.0043945 42.5383301,37.0198242 Z M37.4956055,26.9934082 C39.9836426,26.9934082 42.0076172,29.0173828 42.0076172,31.5054199 C42.0076172,33.9933105 39.9836426,36.0172852 37.4956055,36.0172852 C35.0077148,36.0172852 32.9835938,33.9933105 32.9835938,31.5054199 C32.9835938,29.0175293 35.0077148,26.9934082 37.4956055,26.9934082 Z M27.3766113,47.7256348 C28.096582,42.7866211 32.3601563,38.9818359 37.4956055,38.9818359 C42.6310547,38.9818359 46.8946289,42.7866211 47.6147461,47.7256348 L27.3766113,47.7256348 Z" id="Shape"></path>
                <path d="M7.02333984,30.5211914 C3.1753418,30.5211914 0.0448242187,33.6515625 0.0448242187,37.4995605 C0.0448242187,41.3475586 3.1753418,44.4780762 7.02333984,44.4780762 C10.8713379,44.4780762 14.0018555,41.3475586 14.0018555,37.4995605 C14.0018555,33.6515625 10.8711914,30.5211914 7.02333984,30.5211914 Z M7.02333984,41.5135254 C4.80996094,41.5135254 3.009375,39.7129395 3.009375,37.4995605 C3.009375,35.2863281 4.80996094,33.4857422 7.02333984,33.4857422 C9.23657227,33.4857422 11.0373047,35.2861816 11.0373047,37.4995605 C11.0373047,39.7129395 9.23657227,41.5135254 7.02333984,41.5135254 Z" id="Shape"></path>
                <path d="M44.3666016,11.8103027 L38.8719727,0.819580078 C38.620752,0.317285156 38.1074707,0 37.5461426,0 C36.984668,0 36.4715332,0.317138672 36.220459,0.819287109 L30.7242187,11.8101563 C30.4945312,12.2696777 30.5189941,12.815332 30.7889648,13.2522949 C31.059082,13.6892578 31.5361816,13.9552734 32.0499023,13.9552734 L43.040918,13.9552734 C43.5544922,13.9554199 44.0315918,13.6895508 44.301709,13.2525879 C44.5716797,12.8154785 44.5962891,12.2696777 44.3666016,11.8103027 Z M34.4484375,10.9908691 L37.5458496,4.79663086 L40.6425293,10.9908691 L34.4484375,10.9908691 Z" id="Shape"></path>
                <path d="M73.4730469,30.6115723 L62.563623,30.6115723 C61.7450684,30.6115723 61.0813477,31.275293 61.0813477,32.0938477 L61.0813477,43.003418 C61.0813477,43.8219727 61.7450684,44.4856934 62.563623,44.4856934 L73.4730469,44.4856934 C74.2916016,44.4856934 74.9553223,43.8219727 74.9553223,43.003418 L74.9553223,32.0938477 C74.9553223,31.275293 74.291748,30.6115723 73.4730469,30.6115723 Z M71.9907715,41.5211426 L64.0458984,41.5211426 L64.0458984,33.5762695 L71.9907715,33.5762695 L71.9907715,41.5211426 L71.9907715,41.5211426 Z" id="Shape"></path>
                <path d="M37.5455566,15.2740723 C35.6380371,15.2740723 35.6349609,18.238623 37.5455566,18.238623 C39.4530762,18.238623 39.4561523,15.2740723 37.5455566,15.2740723 Z" id="Path"></path>
                <path d="M37.5455566,19.4244141 C35.6380371,19.4244141 35.6348145,22.3889648 37.5455566,22.3889648 C39.4530762,22.3889648 39.4561523,19.4244141 37.5455566,19.4244141 Z" id="Path"></path>
                <path d="M18.2349609,35.9679199 C16.3274414,35.9679199 16.3243652,38.9324707 18.2349609,38.9324707 C20.1424805,38.9324707 20.1455566,35.9679199 18.2349609,35.9679199 Z" id="Path"></path>
                <path d="M22.3853027,35.9679199 C20.4777832,35.9679199 20.474707,38.9324707 22.3853027,38.9324707 C24.2928223,38.9324707 24.2958984,35.9679199 22.3853027,35.9679199 Z" id="Path"></path>
                <path d="M37.4465332,56.760791 C35.5390137,56.760791 35.5359375,59.7253418 37.4465332,59.7253418 C39.3540527,59.7253418 39.3571289,56.760791 37.4465332,56.760791 Z" id="Path"></path>
                <path d="M37.4465332,52.6104492 C35.5390137,52.6104492 35.5359375,55.575 37.4465332,55.575 C39.3540527,55.575 39.3572754,52.6104492 37.4465332,52.6104492 Z" id="Path"></path>
                <path d="M56.7571289,36.0667969 C54.8496094,36.0667969 54.8465332,39.0313477 56.7571289,39.0313477 C58.6646484,39.0313477 58.6678711,36.0667969 56.7571289,36.0667969 Z" id="Path"></path>
                <path d="M22.8632813,21.3146484 C20.9557617,21.3146484 20.9526855,24.2791992 22.8632813,24.2791992 C24.7708008,24.2790527 24.7740234,21.3146484 22.8632813,21.3146484 Z" id="Path"></path>
                <path d="M22.7934082,50.6501953 C20.8858887,50.6501953 20.882666,53.6147461 22.7934082,53.6147461 C24.7009277,53.6147461 24.7040039,50.6501953 22.7934082,50.6501953 Z" id="Path"></path>
                <path d="M52.1289551,50.7200684 C50.2214355,50.7200684 50.2182129,53.6846191 52.1289551,53.6846191 C54.0364746,53.6846191 54.0395508,50.7200684 52.1289551,50.7200684 Z" id="Path"></path>
                <path d="M52.1988281,21.3845215 C50.2913086,21.3845215 50.2882324,24.3490723 52.1988281,24.3490723 C54.1063477,24.3490723 54.1094238,21.3845215 52.1988281,21.3845215 Z" id="Path"></path>
                <path d="M52.6067871,36.0667969 C50.6992676,36.0667969 50.6961914,39.0313477 52.6067871,39.0313477 C54.5143066,39.0313477 54.5176758,36.0667969 52.6067871,36.0667969 Z" id="Path"></path>
                <path d="M47.6739258,7.21845703 C45.7664062,7.21845703 45.7633301,10.1830078 47.6739258,10.1830078 C49.5814453,10.1830078 49.584668,7.21845703 47.6739258,7.21845703 Z" id="Path"></path>
            </g>
        </g>
    </g>
</svg>