<?xml version="1.0" encoding="UTF-8"?>
<svg width="50px" height="50px" viewBox="0 0 50 50" version="1.1" xmlns="http://www.w3.org/2000/svg" xmlns:xlink="http://www.w3.org/1999/xlink">
    <!-- Generator: sketchtool 54.1 (76490) - https://sketchapp.com -->
    <title>10D2C988-EA6B-4298-AE28-7E54EFBA7610</title>
    <desc>Created with sketchtool.</desc>
    <g id="Page-1" stroke="none" stroke-width="1" fill="none" fill-rule="evenodd">
        <g id="Web-App-Development" transform="translate(-364.000000, -4925.000000)" fill="#000000" fill-rule="nonzero">
            <g id="drawing" transform="translate(364.000000, 4925.000000)">
                <path d="M46.875,0 L21.875,0 C21.8193359,0 21.7643555,0.0056640625 21.7100586,0.0143554688 C21.6981445,0.0162109375 21.6861328,0.0173828125 21.6743164,0.0197265625 C21.6584961,0.0228515625 21.6430664,0.02734375 21.6275391,0.0311523438 C21.6099609,0.0354492188 21.5922852,0.0391601563 21.5749023,0.0444335938 C21.5635742,0.0478515625 21.5526367,0.05234375 21.5414063,0.0561523438 C21.5203125,0.06328125 21.4991211,0.0702148437 21.478418,0.0787109375 C21.4699219,0.0822265625 21.4619141,0.0865234375 21.4535156,0.090234375 C21.4307617,0.100292969 21.4081055,0.110351562 21.3860352,0.122167969 C21.378125,0.126367187 21.3707031,0.131445312 21.3628906,0.135839844 C21.3412109,0.148144531 21.3194336,0.160449219 21.2985352,0.174414063 C21.2871094,0.18203125 21.2764648,0.190722656 21.2654297,0.198730469 C21.2489258,0.210742188 21.2321289,0.222167969 21.2161133,0.235253906 C21.1892578,0.257226563 21.1633789,0.280566406 21.1386719,0.305273438 L11.7636719,9.68027344 C11.5682617,9.87558594 11.4584961,10.1405273 11.4584961,10.4166992 L11.4584961,28.125 L3.125,28.125 C1.39912109,28.125 0,29.5241211 0,31.25 L0,35.4166992 C0,37.1425781 1.39912109,38.5416992 3.125,38.5416992 L6.93994141,38.5416992 L0.9375,44.5448242 C0.337597656,45.1439453 0.00048828125,45.9570313 0.000390625,46.8047852 C0.0001953125,48.5692383 1.43037109,49.9998047 3.19482422,50 C4.04306641,50.0011719 4.85673828,49.6636719 5.45527344,49.0625 L11.4583984,43.0600586 L11.4583984,46.875 C11.4583984,48.6008789 12.8575195,50 14.5833984,50 L46.875,50 C48.6008789,50 50,48.6008789 50,46.875 L50,3.125 C50,1.39912109 48.6008789,0 46.875,0 Z M3.125,36.4583008 C2.54970703,36.4583008 2.08330078,35.9918945 2.08330078,35.4166016 L2.08330078,31.25 C2.08330078,30.674707 2.54970703,30.2083008 3.125,30.2083008 L5.20830078,30.2083008 L5.20830078,33.3333008 L7.29160156,33.3333008 L7.29160156,30.2083008 L9.375,30.2083008 L9.375,33.3333008 L11.4583008,33.3333008 L11.4583008,30.2083008 L15.2722656,30.2083008 L9.02304688,36.4583008 L3.125,36.4583008 Z M27.0833008,33.3333008 L27.0833008,30.2083008 L29.1666016,30.2083008 L29.1666016,33.3333008 L31.25,33.3333008 L31.25,30.2083008 L33.3333008,30.2083008 L33.3333008,33.3333008 L35.4166016,33.3333008 L35.4166016,30.2083008 L36.4583008,30.2083008 C37.0335938,30.2083008 37.5,30.674707 37.5,31.25 L37.5,35.4166992 C37.5,35.9919922 37.0335938,36.4583984 36.4583008,36.4583984 L18.0608398,36.4583984 L22.9708008,31.5490234 C23.0411133,31.4787109 23.0984375,31.4003906 23.1444336,31.3175781 L23.1447266,31.3177734 L23.1516602,31.3052734 C23.1537109,31.3013672 23.1560547,31.2976562 23.1581055,31.2936523 L23.7610352,30.2083984 L25,30.2083984 L25,33.3333984 L27.0833008,33.3333984 L27.0833008,33.3333008 Z M21.9945312,29.0998047 L20.9001953,28.0054687 L23.3614258,26.6385742 L21.9945312,29.0998047 Z M20.7614258,30.8125 L7.00390625,44.5701172 L5.43037109,42.996582 L19.1875,29.2385742 L20.7614258,30.8125 Z M3.98232422,47.5916992 C3.54082031,48.0083984 2.85087891,48.0083984 2.409375,47.5916992 C2.40917969,47.5915039 2.40898437,47.5913086 2.40869141,47.5910156 C1.97441406,47.1563477 1.97470703,46.4519531 2.409375,46.0176758 L3.95722656,44.4697266 L5.53076172,46.0431641 L3.98232422,47.5916992 Z M47.9166992,46.875 C47.9166992,47.450293 47.450293,47.9166992 46.875,47.9166992 L14.5833008,47.9166992 C14.0080078,47.9166992 13.5416016,47.450293 13.5416016,46.875 L13.5416016,40.9769531 L15.9772461,38.5416016 L36.4583008,38.5416016 C38.1841797,38.5416016 39.5833008,37.1424805 39.5833008,35.4166016 L39.5833008,31.25 C39.5833008,29.5241211 38.1841797,28.125 36.4583008,28.125 L24.9185547,28.125 L26.9521484,24.4645508 C27.1265625,24.1503906 27.1266602,23.768457 26.9525391,23.4541992 C26.6737305,22.9509766 26.0397461,22.769043 25.5365234,23.0478516 L18.706543,26.8416992 C18.7025391,26.8438477 18.6985352,26.8461914 18.6945313,26.8483398 L18.6823242,26.8551758 L18.6825195,26.8554687 C18.599707,26.9014648 18.5213867,26.9587891 18.4510742,27.0291016 L17.3553711,28.125 L13.5416992,28.125 L13.5416992,10.8479492 L20.8333984,3.55625 L20.8333984,9.375 L17.7083984,9.375 L17.7083984,11.4583008 L21.875,11.4583008 C22.450293,11.4583008 22.9166992,10.9918945 22.9166992,10.4166016 L22.9166992,2.08330078 L46.875,2.08330078 C47.450293,2.08330078 47.9166992,2.54970703 47.9166992,3.125 L47.9166992,46.875 Z" id="Shape"></path>
                <path d="M43.75,43.75 L40.625,43.75 L40.625,45.8333008 L44.7916992,45.8333008 C45.3669922,45.8333008 45.8333984,45.3668945 45.8333984,44.7916016 L45.8333984,40.625 L43.75,40.625 L43.75,43.75 Z" id="Path"></path>
                <rect id="Rectangle" x="36.4583008" y="43.75" width="2.08330078" height="2.08330078"></rect>
                <path d="M44.7916992,4.16669922 L40.625,4.16669922 L40.625,6.25 L43.75,6.25 L43.75,9.375 L45.8333008,9.375 L45.8333008,5.20830078 C45.8333008,4.63300781 45.3669922,4.16669922 44.7916992,4.16669922 Z" id="Path"></path>
                <rect id="Rectangle" x="36.4583008" y="4.16669922" width="2.08330078" height="2.08330078"></rect>
                <path d="M44.7916992,20.8333008 C44.7916992,17.7366211 42.5390625,15.1674805 39.5833984,14.6713867 L39.5833984,10.4166992 C39.5833984,9.84140625 39.1169922,9.375 38.5416992,9.375 L28.125,9.375 C27.549707,9.375 27.0833008,9.84140625 27.0833008,10.4166992 L27.0833008,20.8333984 C27.0833008,21.4086914 27.549707,21.8750977 28.125,21.8750977 L32.3796875,21.8750977 C32.8757812,24.8307617 35.4449219,27.0833984 38.5416016,27.0833984 C41.9919922,27.0798828 44.7881836,24.2836914 44.7916992,20.8333008 Z M29.1666992,11.4583008 L37.5,11.4583008 L37.5,14.6713867 C34.8832031,15.1106445 32.8189453,17.1749023 32.3796875,19.7916992 L29.1666016,19.7916992 L29.1666016,11.4583008 L29.1666992,11.4583008 Z M37.5,16.7979492 L37.5,19.7916992 L34.50625,19.7916992 C34.8831055,18.3275391 36.0358398,17.1748047 37.5,16.7979492 Z M38.5416992,25 C36.6001953,25 34.9688477,23.6720703 34.5063477,21.875 L38.5416992,21.875 C39.1169922,21.875 39.5833984,21.4085938 39.5833984,20.8333008 L39.5833984,16.7979492 C41.3804687,17.2605469 42.7083984,18.8917969 42.7083984,20.8333008 C42.7083008,23.1344727 40.8428711,25 38.5416992,25 Z" id="Shape"></path>
            </g>
        </g>
    </g>
</svg>