<?xml version="1.0" encoding="UTF-8"?>
<svg width="50px" height="50px" viewBox="0 0 50 50" version="1.1" xmlns="http://www.w3.org/2000/svg" xmlns:xlink="http://www.w3.org/1999/xlink">
    <!-- Generator: sketchtool 54.1 (76490) - https://sketchapp.com -->
    <title>B617115D-AD5F-4B7D-80FD-9196B9370FA1</title>
    <desc>Created with sketchtool.</desc>
    <g id="Page-1" stroke="none" stroke-width="1" fill="none" fill-rule="evenodd">
        <g id="Web-App-Development" transform="translate(-780.000000, -4656.000000)" fill="#000000" fill-rule="nonzero">
            <g id="feedback" transform="translate(780.000000, 4656.000000)">
                <path d="M46.6511435,4.98960499 L30.0191268,4.98960499 L30.0191268,3.32640333 C30.0191268,1.4968815 28.5222453,0 26.6927235,0 L3.40790021,0 C1.57837838,0 0.0814968815,1.4968815 0.0814968815,3.32640333 L0.0814968815,21.6216216 C0.0814968815,30.7692308 8.81330561,30.7692308 11.7239085,30.7692308 C12.222869,30.7692308 12.5555094,30.4365904 12.5555094,29.9376299 C12.5555094,29.4386694 12.222869,29.1060291 11.7239085,29.1060291 C9.89438669,29.1060291 8.3975052,27.6091476 8.3975052,25.7796258 C8.3975052,25.6964657 8.3975052,25.5301455 8.3975052,25.4469854 C8.64698545,23.7006237 10.1438669,22.4532225 11.8902287,22.4532225 L23.3663202,22.4532225 L23.3663202,24.1164241 L15.8819127,24.1164241 C15.3829522,24.1164241 15.0503119,24.4490644 15.0503119,24.9480249 C15.0503119,26.8607069 15.7987526,28.6902287 17.0461538,30.02079 C16.7966736,30.8523909 16.7135135,31.6008316 16.7135135,32.4324324 C16.7135135,35.7588358 18.7093555,38.7525988 21.7031185,40.0831601 C21.7031185,40.5821206 21.4536383,41.5800416 19.208316,41.5800416 C16.8798337,41.5800416 15.0503119,43.4095634 15.0503119,45.7380457 L15.0503119,49.8960499 L16.7135135,49.8960499 L16.7135135,45.7380457 C16.7135135,44.4074844 17.7114345,43.3264033 19.0419958,43.2432432 L23.1168399,45.2390852 C23.4494802,45.4054054 23.8652807,45.5717256 24.197921,45.6548857 L24.197921,49.8960499 L25.8611227,49.8960499 L25.8611227,45.6548857 C26.2769231,45.5717256 26.6095634,45.4885655 26.9422037,45.3222453 L31.0170478,43.3264033 C32.3476091,43.4095634 33.3455301,44.4906445 33.3455301,45.8212058 L33.3455301,49.97921 L35.0087318,49.97921 L35.0087318,45.8212058 C35.0087318,43.4927235 33.17921,41.6632017 30.8507277,41.6632017 C28.6054054,41.6632017 28.3559252,40.6652807 28.3559252,40.1663202 C31.5160083,38.8357588 33.4286902,35.6756757 33.3455301,32.2661123 C33.3455301,32.0997921 33.3455301,31.7671518 33.3455301,31.6839917 C33.3455301,30.5197505 33.0960499,29.3555094 32.5139293,28.3575884 L38.0856549,28.3575884 C39.8320166,28.3575884 41.3288981,29.6049896 41.5783784,31.3513514 C41.7446985,33.1808732 40.4141372,34.8440748 38.5846154,35.010395 C38.5014553,35.010395 38.3351351,35.010395 38.2519751,35.010395 C37.7530146,35.010395 37.4203742,35.3430353 37.4203742,35.8419958 C37.4203742,36.3409563 37.7530146,36.6735967 38.2519751,36.6735967 C41.162578,36.6735967 49.8943867,36.6735967 49.8943867,27.5259875 L49.8943867,8.31600832 C49.9775468,6.48648649 48.4806653,4.98960499 46.6511435,4.98960499 Z M11.8902287,20.7900208 C9.31226611,20.7900208 7.06694387,22.7027027 6.73430353,25.2806653 C6.65114345,26.5280665 6.98378378,27.7754678 7.73222453,28.7733888 C3.65738046,27.9417879 1.74469854,25.6964657 1.74469854,21.6216216 L1.74469854,3.32640333 C1.74469854,2.41164241 2.49313929,1.66320166 3.40790021,1.66320166 L26.6927235,1.66320166 C27.6074844,1.66320166 28.3559252,2.41164241 28.3559252,3.32640333 L28.3559252,19.1268191 C28.3559252,20.04158 27.6074844,20.7900208 26.6927235,20.7900208 L11.8902287,20.7900208 Z M16.7966736,25.7796258 L25.8611227,25.7796258 C28.7717256,25.7796258 31.183368,27.9417879 31.5991684,30.7692308 L22.5347193,30.7692308 C19.6241164,30.7692308 17.212474,28.6070686 16.7966736,25.7796258 Z M27.2748441,38.6694387 C26.9422037,38.7525988 26.6927235,39.0852391 26.6927235,39.4178794 L26.6927235,39.9168399 C26.6095634,41.0810811 27.2748441,42.2453222 28.3559252,42.7442827 L26.193763,43.8253638 C25.4453222,44.1580042 24.5305613,44.1580042 23.7821206,43.8253638 L21.7031185,42.7442827 C22.7841996,42.2453222 23.4494802,41.0810811 23.3663202,39.9168399 L23.3663202,39.5010395 C23.3663202,39.1683992 23.1168399,38.8357588 22.7841996,38.7525988 C20.1230769,37.7546778 18.3767152,35.2598753 18.3767152,32.4324324 C18.3767152,32.016632 18.3767152,31.6008316 18.4598753,31.2681913 C19.6241164,32.016632 21.0378378,32.4324324 22.5347193,32.4324324 L31.6823285,32.4324324 C31.6823285,35.2598753 29.9359667,37.7546778 27.2748441,38.6694387 Z M48.3143451,27.4428274 C48.3143451,31.5176715 46.4016632,33.7629938 42.3268191,34.5945946 C43.0752599,33.5966736 43.4079002,32.3492723 43.3247401,31.1018711 C42.9920998,28.5239085 40.8299376,26.6112266 38.168815,26.6112266 L31.4328482,26.6112266 C30.0191268,25.031185 28.0232848,24.1164241 25.8611227,24.1164241 L25.0295218,24.1164241 L25.0295218,22.4532225 L26.6927235,22.4532225 C28.5222453,22.4532225 30.0191268,20.956341 30.0191268,19.1268191 L30.0191268,6.65280665 L46.6511435,6.65280665 C47.5659044,6.65280665 48.3143451,7.4012474 48.3143451,8.31600832 L48.3143451,27.4428274 Z" id="Shape"></path>
                <path d="M19.208316,9.14760915 L18.3767152,9.14760915 C17.8777547,9.14760915 17.5451143,8.81496881 17.5451143,8.31600832 L17.5451143,5.82120582 C17.5451143,4.40748441 16.4640333,3.32640333 15.0503119,3.32640333 C13.6365904,3.32640333 12.5555094,4.40748441 12.5555094,5.82120582 L12.5555094,8.31600832 C12.5555094,8.81496881 12.222869,9.14760915 11.7239085,9.14760915 C11.7239085,8.64864865 11.3912682,8.31600832 10.8923077,8.31600832 L7.56590437,8.31600832 C7.06694387,8.31600832 6.73430353,8.64864865 6.73430353,9.14760915 L6.73430353,18.2952183 C6.73430353,18.7941788 7.06694387,19.1268191 7.56590437,19.1268191 L10.8923077,19.1268191 C11.3912682,19.1268191 11.7239085,18.7941788 11.7239085,18.2952183 L19.208316,18.2952183 C20.6220374,18.2952183 21.7031185,17.2141372 21.7031185,15.8004158 L21.7031185,11.6424116 C21.7031185,10.2286902 20.6220374,9.14760915 19.208316,9.14760915 Z M10.0607069,17.4636175 L8.3975052,17.4636175 L8.3975052,9.97920998 L10.0607069,9.97920998 L10.0607069,17.4636175 Z M20.0399168,15.8004158 C20.0399168,16.2993763 19.7072765,16.6320166 19.208316,16.6320166 L11.7239085,16.6320166 L11.7239085,10.8108108 C13.1376299,10.8108108 14.218711,9.72972973 14.218711,8.31600832 L14.218711,5.82120582 C14.218711,5.32224532 14.5513514,4.98960499 15.0503119,4.98960499 C15.5492723,4.98960499 15.8819127,5.32224532 15.8819127,5.82120582 L15.8819127,8.31600832 C15.8819127,9.72972973 16.9629938,10.8108108 18.3767152,10.8108108 L19.208316,10.8108108 C19.7072765,10.8108108 20.0399168,11.1434511 20.0399168,11.6424116 L20.0399168,15.8004158 Z" id="Shape"></path>
                <path d="M45.8195426,8.31600832 L42.4931393,8.31600832 C41.9941788,8.31600832 41.6615385,8.64864865 41.6615385,9.14760915 L34.177131,9.14760915 C32.7634096,9.14760915 31.6823285,10.2286902 31.6823285,11.6424116 L31.6823285,15.8004158 C31.6823285,17.2141372 32.7634096,18.2952183 34.177131,18.2952183 L35.0087318,18.2952183 C35.5076923,18.2952183 35.8403326,18.6278586 35.8403326,19.1268191 L35.8403326,21.6216216 C35.8403326,23.035343 36.9214137,24.1164241 38.3351351,24.1164241 C39.7488565,24.1164241 40.8299376,23.035343 40.8299376,21.6216216 L40.8299376,19.1268191 C40.8299376,18.6278586 41.162578,18.2952183 41.6615385,18.2952183 C41.6615385,18.7941788 41.9941788,19.1268191 42.4931393,19.1268191 L45.8195426,19.1268191 C46.3185031,19.1268191 46.6511435,18.7941788 46.6511435,18.2952183 L46.6511435,9.14760915 C46.6511435,8.64864865 46.3185031,8.31600832 45.8195426,8.31600832 Z M41.6615385,16.6320166 C40.247817,16.6320166 39.166736,17.7130977 39.166736,19.1268191 L39.166736,21.6216216 C39.166736,22.1205821 38.8340956,22.4532225 38.3351351,22.4532225 C37.8361746,22.4532225 37.5035343,22.1205821 37.5035343,21.6216216 L37.5035343,19.1268191 C37.5035343,17.7130977 36.4224532,16.6320166 35.0087318,16.6320166 L34.177131,16.6320166 C33.6781705,16.6320166 33.3455301,16.2993763 33.3455301,15.8004158 L33.3455301,11.6424116 C33.3455301,11.1434511 33.6781705,10.8108108 34.177131,10.8108108 L41.6615385,10.8108108 L41.6615385,16.6320166 Z M44.9879418,17.4636175 L43.3247401,17.4636175 L43.3247401,9.97920998 L44.9879418,9.97920998 L44.9879418,17.4636175 Z" id="Shape"></path>
                <rect id="Rectangle" x="30.8507277" y="21.6216216" width="3.32640333" height="1.66320166"></rect>
                <polygon id="Path" points="22.5347193 4.15800416 22.5347193 3.32640333 20.8715177 3.32640333 20.8715177 4.15800416 20.0399168 4.15800416 20.0399168 5.82120582 20.8715177 5.82120582 20.8715177 6.65280665 22.5347193 6.65280665 22.5347193 5.82120582 23.3663202 5.82120582 23.3663202 4.15800416"></polygon>
            </g>
        </g>
    </g>
</svg>