<?xml version="1.0" encoding="UTF-8"?>
<svg width="72px" height="56px" viewBox="0 0 72 56" version="1.1" xmlns="http://www.w3.org/2000/svg" xmlns:xlink="http://www.w3.org/1999/xlink">
    <!-- Generator: Sketch 51.3 (57544) - http://www.bohemiancoding.com/sketch -->
    <title>Icon</title>
    <desc>Created with Sketch.</desc>
    <defs></defs>
    <g id="Page-1" stroke="none" stroke-width="1" fill="none" fill-rule="evenodd">
        <g id="Homepage" transform="translate(-451.000000, -2503.000000)" fill="#FFFFFF" fill-rule="nonzero">
            <g id="Block-1-(Hover)" transform="translate(408.000000, 2426.000000)">
                <g id="Icon" transform="translate(44.000000, 78.000000)">
                    <g id="Icon/LayoutLight">
                        <path d="M63,0 L7,0 C3.15,0 0,3.19736842 0,7.10526316 L0,46.8947368 C0,50.8026316 3.15,54 7,54 L63,54 C66.85,54 70,50.8026316 70,46.8947368 L70,7.10526316 C70,3.19736842 66.85,0 63,0 Z M44.8,51.1578947 L7,51.1578947 C4.69,51.1578947 2.8,49.2394737 2.8,46.8947368 L2.8,7.10526316 C2.8,4.76052632 4.69,2.84210526 7,2.84210526 L44.8,2.84210526 L44.8,51.1578947 Z M67.2,46.8947368 C67.2,49.2394737 65.31,51.1578947 63,51.1578947 L47.6,51.1578947 L47.6,2.84210526 L63,2.84210526 C65.31,2.84210526 67.2,4.76052632 67.2,7.10526316 L67.2,46.8947368 Z" id="Shape" stroke="#FFFFFF" stroke-width="1"></path>
                        <path d="M8.33333333,11 L9.66666667,11 C10.4,11 11,10.325 11,9.5 C11,8.675 10.4,8 9.66666667,8 L8.33333333,8 C7.6,8 7,8.675 7,9.5 C7,10.325 7.6,11 8.33333333,11 Z" id="Shape"></path>
                        <path d="M14.3333333,11 L15.6666667,11 C16.4,11 17,10.325 17,9.5 C17,8.675 16.4,8 15.6666667,8 L14.3333333,8 C13.6,8 13,8.675 13,9.5 C13,10.325 13.6,11 14.3333333,11 Z" id="Shape"></path>
                        <path d="M21.3333333,11 L22.6666667,11 C23.4,11 24,10.325 24,9.5 C24,8.675 23.4,8 22.6666667,8 L21.3333333,8 C20.6,8 20,8.675 20,9.5 C20,10.325 20.6,11 21.3333333,11 Z" id="Shape"></path>
                        <path d="M60.5454545,12 L55.4545455,12 C54.6545455,12 54,12.675 54,13.5 C54,14.325 54.6545455,15 55.4545455,15 L60.5454545,15 C61.3454545,15 62,14.325 62,13.5 C62,12.675 61.3454545,12 60.5454545,12 Z" id="Shape"></path>
                        <path d="M60.5454545,19 L55.4545455,19 C54.6545455,19 54,19.675 54,20.5 C54,21.325 54.6545455,22 55.4545455,22 L60.5454545,22 C61.3454545,22 62,21.325 62,20.5 C62,19.675 61.3454545,19 60.5454545,19 Z" id="Shape"></path>
                        <path d="M60.5454545,26 L55.4545455,26 C54.6545455,26 54,26.675 54,27.5 C54,28.325 54.6545455,29 55.4545455,29 L60.5454545,29 C61.3454545,29 62,28.325 62,27.5 C62,26.675 61.3454545,26 60.5454545,26 Z" id="Shape"></path>
                    </g>
                </g>
            </g>
        </g>
    </g>
</svg>