<?xml version="1.0" encoding="UTF-8"?>
<svg width="53px" height="72px" viewBox="0 0 53 72" version="1.1" xmlns="http://www.w3.org/2000/svg" xmlns:xlink="http://www.w3.org/1999/xlink">
    <!-- Generator: Sketch 55 (78076) - https://sketchapp.com -->
    <title>glove</title>
    <desc>Created with Sketch.</desc>
    <g id="Page-1-Copy" stroke="none" stroke-width="1" fill="none" fill-rule="evenodd">
        <g id="Artboard" transform="translate(-2229.000000, -1607.000000)" fill="#000000" fill-rule="nonzero">
            <g id="glove" transform="translate(2229.000000, 1607.000000)">
                <path d="M52.8608924,24.2036377 L52.8608924,10.2456017 C52.8608924,7.91391896 50.9503363,6.01694755 48.602352,6.01694755 L43.7737963,6.01694755 C43.2434485,6.01694755 42.7359232,6.11421424 42.2675217,6.29081566 C42.0197363,4.19170351 40.2189448,2.55718907 38.0394111,2.55718907 L33.2108555,2.55718907 C32.6098671,2.55718907 32.0387651,2.68216864 31.5198286,2.90550159 C30.9595944,1.21990851 29.3593136,0 27.4764702,0 L22.6479147,0 C20.7650714,0 19.1647904,1.21990851 18.6040128,2.90550159 C18.0856197,2.68216864 17.5139744,2.55718907 16.9135294,2.55718907 L12.0849738,2.55718907 C9.73698945,2.55718907 7.82697671,4.45416048 7.82697671,6.78584318 L7.82697671,18.8925525 C6.0495509,19.8847809 4.37808601,21.3839915 3.05330343,23.1880434 C1.29815654,25.5778687 0.257023013,28.3594776 0.0423844199,31.2323757 C-0.337444601,36.317411 1.66657443,43.9389866 12.9044045,52.0561332 C11.9377153,52.8771941 11.3225988,54.1003629 11.3225988,55.464813 L11.3225988,66.7510047 C11.3225988,69.2169045 13.3287914,71.2230971 15.7946912,71.2230971 L44.8926345,71.2230971 C47.3590777,71.2230971 49.3652703,69.2169045 49.3652703,66.7510047 L49.3652703,55.464813 C49.3652703,54.1481811 48.7925381,52.9625062 47.8839915,52.1436188 C49.8760561,50.1368828 51.2421362,46.4173844 52.0267901,40.8960076 C52.8657829,34.9942585 52.8625226,28.2393885 52.8608924,24.2036377 Z M43.7737963,8.79909978 L48.602352,8.79909978 C49.4163488,8.79909978 50.0787402,9.44790645 50.0787402,10.2456017 L50.0787402,16.9026615 C48.3072917,15.1067605 45.8386749,13.9890092 43.1103182,13.9890092 L42.2979515,13.9890092 L42.2979515,10.2456017 C42.2979515,9.44790645 42.9597995,8.79909978 43.7737963,8.79909978 L43.7737963,8.79909978 Z M33.2108555,5.3393413 L38.0394111,5.3393413 C38.853408,5.3393413 39.5157993,5.98814797 39.5157993,6.78584318 L39.5157993,13.9890092 L31.7344672,13.9890092 L31.7344672,6.78584318 C31.7344672,5.98814797 32.3968586,5.3393413 33.2108555,5.3393413 Z M21.1720698,4.2286541 C21.1720698,3.43095876 21.8339177,2.78215223 22.6479147,2.78215223 L27.4764702,2.78215223 C28.2904671,2.78215223 28.952315,3.43095876 28.952315,4.2286541 L28.952315,13.9890092 L21.1715263,13.9890092 L21.1715263,4.2286541 L21.1720698,4.2286541 Z M12.0849738,5.3393413 L16.9135294,5.3393413 C17.7275262,5.3393413 18.3893741,5.98814797 18.3893741,6.78584318 L18.3893741,13.9890092 L17.5770075,13.9890092 C14.8486508,13.9890092 12.3800341,15.1067605 10.6091289,16.9026615 L10.6091289,6.78584318 C10.6091289,5.98814797 11.2709769,5.3393413 12.0849738,5.3393413 Z M39.892368,68.4409449 L20.7949577,68.4409449 L20.7949577,66.0761155 C20.7949577,64.772525 21.8730417,63.7118294 23.1983678,63.7118294 L37.488958,63.7118294 C38.814284,63.7118294 39.8929114,64.772525 39.8929114,66.0761155 L39.8929114,68.4409449 L39.892368,68.4409449 Z M46.5831181,66.7504613 C46.5831181,67.682917 45.8245469,68.4409449 44.8926345,68.4409449 L42.6750636,68.4409449 L42.6750636,66.0761155 C42.6750636,63.2385375 40.3482714,60.9296772 37.488958,60.9296772 L23.1983678,60.9296772 C20.3390544,60.9296772 18.0128055,63.2379941 18.0128055,66.0761155 L18.0128055,68.4409449 L15.7946912,68.4409449 C14.8627789,68.4409449 14.104751,67.682917 14.104751,66.7504613 L14.104751,55.464813 C14.104751,54.5329006 14.8627789,53.7743294 15.7946912,53.7743294 L15.8234908,53.7743294 L15.8256644,53.7743294 L15.8278379,53.7743294 L44.8513369,53.7743294 C44.8540539,53.7743294 44.8567709,53.7748728 44.8594878,53.7748728 C44.861118,53.7748728 44.8627481,53.7743294 44.8649216,53.7743294 L44.8926345,53.7743294 C45.8245469,53.7743294 46.5831181,54.5329006 46.5831181,55.464813 L46.5831181,66.7504613 Z M49.2723507,40.5042241 C48.1774216,48.2045912 46.1902477,50.4792179 44.6584338,50.9921772 L42.6745202,50.9921772 L42.6745202,49.6011011 C42.6745202,48.832749 42.0517963,48.210025 41.2834441,48.210025 C40.5156352,48.210025 39.892368,48.832749 39.892368,49.6011011 L39.892368,50.9921772 L20.7949577,50.9921772 L20.7949577,32.9848057 C20.7949577,31.6812152 21.8730417,30.6205196 23.1983678,30.6205196 L37.488958,30.6205196 C38.814284,30.6205196 39.8929114,31.6812152 39.8929114,32.9848057 L39.8929114,38.4724922 C39.8929114,39.2408444 40.5156352,39.8635683 41.2839875,39.8635683 C42.0517963,39.8635683 42.6750636,39.2408444 42.6750636,38.4724922 L42.6750636,32.9848057 C42.6750636,30.1472277 40.3482714,27.8383674 37.488958,27.8383674 L23.1983678,27.8383674 C20.3390544,27.8383674 18.0128055,30.1472277 18.0128055,32.9848057 L18.0128055,50.9921772 L16.2484212,50.9921772 C4.53838583,43.1586798 2.47296386,36.0457165 2.81692913,31.4394069 C3.11905348,27.3944185 5.36922774,24.1270197 7.82697671,22.2246145 L7.82697671,36.7407112 C7.82697671,37.5090633 8.44970069,38.1317873 9.21805282,38.1317873 C9.9858616,38.1317873 10.6091289,37.5090633 10.6091289,36.7407112 L10.6091289,23.6531844 C10.6091289,19.8586983 13.7347031,16.7711614 17.5770075,16.7711614 L43.1103182,16.7711614 C46.9526227,16.7711614 50.0787402,19.8586983 50.0787402,23.6531844 C50.0787402,23.6531844 50.0836306,34.7980951 49.2723507,40.5042241 L49.2723507,40.5042241 Z" id="Shape"></path>
                <path d="M24.5318446,19.5533136 L16.1859314,19.5533136 C15.4175791,19.5533136 14.7948553,20.1760375 14.7948553,20.9443898 C14.7948553,21.712742 15.4175791,22.3354659 16.1859314,22.3354659 L24.5318446,22.3354659 C25.2996535,22.3354659 25.9229207,21.712742 25.9229207,20.9443898 C25.9229207,20.1760375 25.2996535,19.5533136 24.5318446,19.5533136 Z" id="Path"></path>
                <path d="M30.0956057,19.5533136 C29.3272536,19.5533136 28.7045296,20.1760375 28.7045296,20.9443898 C28.7045296,21.712742 29.3272536,22.3354659 30.0956057,22.3354659 L30.0966925,22.3354659 C30.8645013,22.3354659 31.4872252,21.712742 31.4872252,20.9443898 C31.4872252,20.1760375 30.8634146,19.5533136 30.0956057,19.5533136 Z" id="Path"></path>
                <path d="M41.2834441,42.6457205 C40.5156352,42.6457205 39.892368,43.2689879 39.892368,44.03734 C39.892368,44.8056923 40.5156352,45.4284161 41.2834441,45.4284161 C42.0517963,45.4284161 42.6745202,44.8056923 42.6745202,44.03734 L42.6745202,44.0362533 C42.6745202,43.267901 42.0517963,42.6457205 41.2834441,42.6457205 L41.2834441,42.6457205 Z" id="Path"></path>
            </g>
        </g>
    </g>
</svg>