<svg width="65px" height="80px" viewBox="0 0 92 86" version="1.1" xmlns="http://www.w3.org/2000/svg" xmlns:xlink="http://www.w3.org/1999/xlink">
    <!-- Generator: sketchtool 52.5 (67469) - http://www.bohemiancoding.com/sketch -->
    <title>C07BD7F6-F484-448C-ADAA-C5410A2E90F7</title>
    <desc>Created with sketchtool.</desc>
    <g id="Page-1" stroke="none" stroke-width="1" fill="none" fill-rule="evenodd">
        <g id="Homepage" transform="translate(-844.000000, -2479.000000)" fill="#000000">
            <g id="Block-2" transform="translate(802.000000, 2426.000000)">
                <g id="Icon/Diamond" transform="translate(42.000000, 53.000000)">
                    <g id="Icon">
                        <path d="M82.3254755,43.4036277 L72.2596564,27.917033 C71.4795522,26.7167269 70.1567905,26 68.7214494,26 L24.3100859,26 C22.8769133,26 21.5554166,26.7149266 20.774951,27.912172 L10.6778698,43.4007472 C9.6460434,44.9832716 9.80542534,47.0727799 11.0654824,48.4817488 L43.3506266,84.5935517 C44.1497047,85.4872549 45.2968211,86 46.4981489,86 C46.4983296,86 46.4981489,86 46.4983296,86 C47.6994768,86 48.8469545,85.4874349 49.6460327,84.5937317 L81.934791,48.4797684 C83.193041,47.0724198 83.3536879,44.9850719 82.3254755,43.4036277 Z M66.6823725,29.6005581 L58.2170589,42.6424317 L49.7466855,29.6005581 L66.6823725,29.6005581 Z M54.8958788,44.1569022 L38.100419,44.1569022 L46.4981489,31.2268315 L54.8958788,44.1569022 Z M43.2496124,29.6009182 L34.80255,42.6069644 L26.3583788,29.6009182 L43.2496124,29.6009182 Z M23.0169598,31.0835221 L31.5046809,44.1569022 L14.4943627,44.1569022 L23.0169598,31.0835221 Z M15.2576612,47.7576403 L33.4447314,47.7576403 L43.0611369,78.8563155 L15.2576612,47.7576403 Z M46.4981489,77.741527 L37.2263482,47.7576403 L55.7699497,47.7576403 L46.4981489,77.741527 Z M49.9349802,78.8573958 L59.5517471,47.7578204 L77.7404437,47.7578204 L49.9349802,78.8573958 Z M61.5382389,44.1569022 L70.0181896,31.092524 L78.5093441,44.1569022 L61.5382389,44.1569022 Z" id="Shape" fill-rule="nonzero"></path>
                        <path d="M5.26444847,44 L1.73555153,44 C0.777179977,44 0,44.8954 0,46 C0,47.1046 0.777179977,48 1.73555153,48 L5.26444847,48 C6.22282002,48 7,47.1046 7,46 C7,44.8954 6.22282002,44 5.26444847,44 Z" id="Path"></path>
                        <path d="M90.2644485,44 L86.7355515,44 C85.77718,44 85,44.8954 85,46 C85,47.1046 85.77718,48 86.7355515,48 L90.2644485,48 C91.22282,48 92,47.1046 92,46 C92,44.8954 91.22282,44 90.2644485,44 Z" id="Path"></path>
                        <path d="M78.4496641,13.5503436 C77.715695,12.8165521 76.5262367,12.8165521 75.7920797,13.5503436 L69.5503359,19.7921754 C68.8165547,20.5259669 68.8165547,21.7158179 69.5503359,22.4496094 C69.9175083,22.8165991 70.3983652,23 70.8792221,23 C71.3602668,23 71.8409358,22.8164112 72.2079203,22.4496094 L78.4496641,16.2077776 C79.1834453,15.4739861 79.1834453,14.2843231 78.4496641,13.5503436 Z" id="Path"></path>
                        <path d="M22.4496538,19.7923633 L16.2079806,13.5503436 C15.4743735,12.8165521 14.2848928,12.8165521 13.5503462,13.5503436 C12.8165513,14.2841352 12.8165513,15.4739861 13.5503462,16.2077776 L19.7922073,22.4496094 C20.1591987,22.8165991 20.6400646,23 21.1209305,23 C21.6017964,23 22.0826623,22.8164112 22.4496538,22.4496094 C23.1834487,21.7160058 23.1834487,20.5259669 22.4496538,19.7923633 Z" id="Path"></path>
                        <path d="M46,0 C44.8956,0 44,0.788500376 44,1.76122487 L44,13.2387751 C44,14.2114996 44.8954,15 46,15 C47.1044,15 48,14.2114996 48,13.2387751 L48,1.76122487 C48,0.788676498 47.1044,0 46,0 Z" id="Path"></path>
                        <path d="M47.4138,18.586 C47.042,18.214 46.526,18 46,18 C45.474,18 44.958,18.214 44.586,18.586 C44.214,18.958 44,19.474 44,20 C44,20.528 44.2138,21.042 44.586,21.414 C44.958,21.788 45.474,22 46,22 C46.526,22 47.042,21.788 47.4138,21.414 C47.7878,21.042 48,20.526 48,20 C48,19.474 47.7878,18.9582 47.4138,18.586 Z" id="Path"></path>
                    </g>
                </g>
            </g>
        </g>
    </g>
</svg>