<?xml version="1.0" encoding="UTF-8"?>
<svg width="50px" height="50px" viewBox="0 0 50 50" version="1.1" xmlns="http://www.w3.org/2000/svg" xmlns:xlink="http://www.w3.org/1999/xlink">
    <!-- Generator: sketchtool 54.1 (76490) - https://sketchapp.com -->
    <title>3F99A281-252C-4FEE-88D4-1B7F23A9BE30</title>
    <desc>Created with sketchtool.</desc>
    <g id="Page-1" stroke="none" stroke-width="1" fill="none" fill-rule="evenodd">
        <g id="Web-App-Development" transform="translate(-1174.000000, -4656.000000)" fill="#000000" fill-rule="nonzero">
            <g id="home" transform="translate(1174.000000, 4656.000000)">
                <path d="M36.627832,13.8334308 C36.4462891,13.6521442 36.1943359,13.5478558 35.9375,13.5478558 C35.6806641,13.5478558 35.4287109,13.6521442 35.2470703,13.8334308 C35.0654297,14.0147173 34.9609375,14.2652047 34.9609375,14.5225146 C34.9609375,14.7788499 35.065332,15.0303119 35.2470703,15.2115984 C35.4288086,15.392885 35.6806641,15.4971735 35.9375,15.4971735 C36.1943359,15.4971735 36.4462891,15.392885 36.627832,15.2115984 C36.8094727,15.0303119 36.9140625,14.7788499 36.9140625,14.5225146 C36.9140625,14.2661793 36.8095703,14.0147173 36.627832,13.8334308 Z" id="Path"></path>
                <path d="M14.6484375,27.4854776 L6.8359375,27.4854776 C6.29667969,27.4854776 5.859375,27.9218324 5.859375,28.4601365 L5.859375,36.2574074 C5.859375,36.7957115 6.29667969,37.2320663 6.8359375,37.2320663 L14.6484375,37.2320663 C15.1876953,37.2320663 15.625,36.7957115 15.625,36.2574074 L15.625,28.4601365 C15.625,27.9218324 15.187793,27.4854776 14.6484375,27.4854776 Z M13.671875,35.2827485 L7.8125,35.2827485 L7.8125,29.4347953 L13.671875,29.4347953 L13.671875,35.2827485 Z" id="Shape"></path>
                <path d="M49.397168,20.4446394 C49.0322266,20.2936647 48.6121094,20.3772904 48.3329102,20.655848 L38.3819336,30.5874269 C38.3818359,30.5876218 38.3816406,30.5877193 38.3814453,30.5879142 C38.38125,30.5881092 38.3811523,30.5882066 38.3810547,30.5884016 L26.7810547,42.1657895 C26.7808594,42.1659844 26.7807617,42.1660819 26.7805664,42.1662768 C26.7803711,42.1664717 26.7802734,42.1665692 26.7800781,42.1667641 L20.6961914,48.2387914 C20.4169922,48.5175439 20.3333984,48.9368421 20.4844727,49.3009747 C20.6356445,49.6652047 20.9916992,49.9026316 21.3867188,49.9026316 L49.0234375,49.9026316 C49.5626953,49.9026316 50,49.4662768 50,48.9279727 L50,21.3451267 C50,20.9509747 49.7621094,20.5955166 49.397168,20.4446394 Z M48.046875,47.9533138 L23.7444336,47.9533138 L27.4710938,44.2339181 L28.4033203,45.1643275 C28.594043,45.3546784 28.8439453,45.4498051 29.0938477,45.4498051 C29.34375,45.4498051 29.5936523,45.3546784 29.784375,45.1643275 C30.1657227,44.7837232 30.1657227,44.1665692 29.784375,43.7858674 L28.8521484,42.8554581 L31.3380859,40.3743665 L32.2702148,41.3046784 C32.4609375,41.4950292 32.7108398,41.5901559 32.9607422,41.5901559 C33.2106445,41.5901559 33.4605469,41.4949318 33.6512695,41.3046784 C34.0326172,40.9240741 34.0326172,40.3069201 33.6512695,39.9263158 L32.719043,38.9959064 L35.2049805,36.5148148 L36.137207,37.4452242 C36.3279297,37.635575 36.577832,37.7307018 36.8277344,37.7307018 C37.0776367,37.7307018 37.3275391,37.635575 37.5182617,37.4452242 C37.8996094,37.0646199 37.8996094,36.4474659 37.5182617,36.0667641 L36.5860352,35.1363548 L39.071875,32.6553606 L40.0041016,33.58577 C40.1948242,33.7761209 40.4447266,33.8712476 40.6946289,33.8712476 C40.9445313,33.8712476 41.1944336,33.7761209 41.3851563,33.58577 C41.7665039,33.2051657 41.7665039,32.5880117 41.3851563,32.2073099 L40.4529297,31.2769006 L42.9388672,28.795809 L43.8709961,29.7261209 C44.0617188,29.9164717 44.3116211,30.0115984 44.5615234,30.0115984 C44.8114258,30.0115984 45.0613281,29.9163743 45.2520508,29.7261209 C45.6333984,29.3455166 45.6333984,28.7283626 45.2520508,28.3477583 L44.3198242,27.4173489 L48.046875,23.6981481 L48.046875,47.9533138 Z" id="Shape"></path>
                <path d="M44.5143555,32.2098441 C44.1494141,32.0588694 43.7292969,32.1423977 43.4500977,32.4210526 L32.484375,43.3654971 C32.2051758,43.6442495 32.1214844,44.0634503 32.2726563,44.4276803 C32.4238281,44.7919103 32.7798828,45.0293372 33.1749023,45.0293372 L44.140625,45.0293372 C44.6798828,45.0293372 45.1171875,44.5929825 45.1171875,44.0546784 L45.1171875,33.1103314 C45.1171875,32.7161793 44.8792969,32.3607212 44.5143555,32.2098441 Z M43.1640625,43.0800195 L35.5326172,43.0800195 L43.1640625,35.4633528 L43.1640625,43.0800195 Z" id="Shape"></path>
                <path d="M45.2207031,14.5478558 C44.9518555,14.2796296 44.5516602,14.1913255 44.1943359,14.3218324 L37.5262695,16.7589669 C37.3929688,16.8076998 37.2719727,16.8847953 37.1714844,16.9849903 L35.296582,18.8562378 L23.0538086,6.63723197 C22.8706055,6.45448343 22.6222656,6.35175439 22.3632813,6.35175439 C22.1042969,6.35175439 21.8558594,6.45448343 21.6727539,6.63723197 L6.93613281,21.3451267 L3.33427734,21.3451267 L22.3632813,2.35311891 L32.8055664,12.7750487 C33.1870117,13.155653 33.8051758,13.155653 34.1867188,12.7750487 C34.5680664,12.3944444 34.5680664,11.7772904 34.1867188,11.3965887 L23.0539063,0.285477583 C22.6724609,-0.0951267057 22.0542969,-0.0951267057 21.6727539,0.285477583 L0.286035156,21.6305068 C0.0068359375,21.9092593 -0.0767578125,22.32846 0.0743164062,22.6926901 C0.225488281,23.0570175 0.581542969,23.2944444 0.9765625,23.2944444 L1.953125,23.2944444 L1.953125,48.9279727 C1.953125,49.4662768 2.39042969,49.9026316 2.9296875,49.9026316 L18.4556641,49.9026316 C18.9949219,49.9026316 19.4322266,49.4662768 19.4322266,48.9279727 C19.4322266,48.3896686 18.9949219,47.9533138 18.4556641,47.9533138 L3.90625,47.9533138 L3.90625,23.2944444 L7.340625,23.2944444 C7.59960938,23.2944444 7.84794922,23.1917154 8.03115234,23.0089669 L22.3632813,8.70477583 L33.9154297,20.2345029 L19.4335938,34.6882066 L19.4335938,25.9260234 L26.2695312,25.9260234 C26.8087891,25.9260234 27.2460938,25.4896686 27.2460938,24.9513645 C27.2460938,24.4130604 26.8087891,23.9767057 26.2695312,23.9767057 L18.4570313,23.9767057 C17.9177734,23.9767057 17.4804688,24.4130604 17.4804688,24.9513645 L17.4804688,36.2574074 C17.4804688,36.3711501 17.5009766,36.4797271 17.5368164,36.5811891 L16.6619141,37.454386 C15.1160156,38.997271 15.1160156,41.5077973 16.6619141,43.0506823 C17.4349609,43.8222222 18.4500977,44.2079922 19.4655273,44.2078947 C20.4807617,44.2078947 21.4962891,43.8221248 22.2691406,43.0507797 L30.5046875,34.8312865 C30.8860352,34.4506823 30.8860352,33.8335283 30.5046875,33.452924 C30.1233398,33.0723197 29.5051758,33.0723197 29.1235352,33.452924 L22.884082,39.6802144 L20.0390625,36.8407407 L37.881543,19.0330409 L40.7265625,21.8725146 L33.9086914,28.677193 C33.5273438,29.0577973 33.5273438,29.6749513 33.9086914,30.0555556 C34.2901367,30.4361598 34.9083008,30.4361598 35.2898438,30.0555556 L42.7787109,22.5812865 C42.8790039,22.4810916 42.9563477,22.3602339 43.0050781,22.2272904 L45.4470703,15.5722222 C45.577832,15.2158869 45.4895508,14.8161793 45.2207031,14.5478558 Z M21.503125,41.0584795 L20.8880859,41.6723197 C20.5081055,42.0515595 20.0030273,42.2604288 19.465625,42.2604288 C18.9282227,42.2604288 18.4230469,42.0515595 18.0431641,41.6723197 C17.6630859,41.2930799 17.4539063,40.7888889 17.4539063,40.2526316 C17.4539063,39.7163743 17.6629883,39.2120858 18.0430664,38.832846 L18.6581055,38.2190058 L21.503125,41.0584795 Z M41.7076172,20.0946394 L39.6628906,18.0538986 L42.8892578,16.8746589 L41.7076172,20.0946394 Z" id="Shape"></path>
                <path d="M32.8797852,31.0819688 C32.6982422,30.9006823 32.4462891,30.7963938 32.1894531,30.7963938 C31.9326172,30.7963938 31.6806641,30.9006823 31.4990234,31.0819688 C31.3173828,31.26423 31.2128906,31.5147173 31.2128906,31.7710526 C31.2128906,32.0283626 31.3172852,32.2788499 31.4990234,32.4611111 C31.6806641,32.6423977 31.9316406,32.7457115 32.1894531,32.7457115 C32.4462891,32.7457115 32.6982422,32.6423977 32.8797852,32.4611111 C33.0614258,32.2788499 33.1660156,32.0273879 33.1660156,31.7710526 C33.1660156,31.5147173 33.0615234,31.26423 32.8797852,31.0819688 Z" id="Path"></path>
                <path d="M22.3632812,14.7174464 C20.3170898,14.7174464 18.6523438,16.3789474 18.6523438,18.4211501 C18.6523438,20.4633528 20.3170898,22.1248538 22.3632812,22.1248538 C24.4094727,22.1248538 26.0742188,20.4633528 26.0742188,18.4211501 C26.0742188,16.3789474 24.4094727,14.7174464 22.3632812,14.7174464 Z M22.3632812,20.1755361 C21.394043,20.1755361 20.6054688,19.3885965 20.6054688,18.4211501 C20.6054688,17.4538012 21.394043,16.6667641 22.3632812,16.6667641 C23.3325195,16.6667641 24.1210938,17.4538012 24.1210938,18.4211501 C24.1210938,19.388499 23.3325195,20.1755361 22.3632812,20.1755361 Z" id="Shape"></path>
            </g>
        </g>
    </g>
</svg>