<?xml version="1.0" encoding="UTF-8"?>
<svg width="56px" height="56px" viewBox="0 0 56 56" version="1.1" xmlns="http://www.w3.org/2000/svg" xmlns:xlink="http://www.w3.org/1999/xlink">
    <!-- Generator: Sketch 54.1 (76490) - https://sketchapp.com -->
    <title>graphic</title>
    <desc>Created with Sketch.</desc>
    <g id="Page-1-Copy" stroke="none" stroke-width="1" fill="none" fill-rule="evenodd">
        <g id="Web-App-Development" transform="translate(-805.000000, -2896.000000)" fill="#FF5E5E" fill-rule="nonzero">
            <g id="graphic" transform="translate(805.000000, 2896.000000)">
                <path d="M55.2279663,49.2614746 L50.7991333,45.9387818 C50.074524,45.3953247 49.0461426,45.5418701 48.5022583,46.2669068 C47.9588013,46.9915161 48.1053466,48.0198974 48.8303833,48.5637818 L49.6310425,49.1644897 L44.7882081,49.1644897 L44.7882081,32.1049805 C44.7882081,31.1987915 44.0533448,30.4639282 43.1475831,30.4639282 C42.241394,30.4639282 41.5069581,31.1987915 41.5069581,32.1049805 L41.5069581,49.1644897 L31.4171143,49.1644897 L31.4171143,43.4278565 C31.4171143,42.5216675 30.6826782,41.7868042 29.7764893,41.7868042 C28.8703003,41.7868042 28.1358643,42.5216675 28.1358643,43.4278565 L28.1358643,49.1644897 L17.9071655,49.1644897 L17.9071655,37.8381958 C17.9071655,36.9320068 17.1723022,36.1975708 16.2665405,36.1975708 C15.3603516,36.1975708 14.6259155,36.9320068 14.6259155,37.8381958 L14.6259155,49.1644897 L10.7721557,49.1644897 C8.60089114,49.1644897 6.83422852,47.3973999 6.83422852,45.2257081 L6.83422852,6.37066653 L7.43408203,7.17089844 C7.75665286,7.60070806 8.24926758,7.82714844 8.74829102,7.82714844 C9.09051511,7.82714844 9.43615728,7.72033697 9.73095703,7.49902344 C10.4559936,6.95556641 10.6029663,5.92718503 10.0595092,5.20214844 L6.73767084,0.772033719 C6.37493894,0.288391141 5.79815677,0 5.19360352,0 C4.58947759,0 4.01226809,0.288391141 3.64953619,0.772033719 L0.328125,5.20214844 C-0.215332031,5.92718503 -0.068359375,6.95556641 0.65625,7.49902344 C1.38128659,8.04290769 2.40966797,7.89593503 2.953125,7.17089844 L3.55340573,6.37066653 L3.55340573,45.2257081 C3.55340573,49.2067871 6.79150391,52.4457397 10.7721557,52.4457397 L49.6314698,52.4457397 L48.8303833,53.046875 C48.1053466,53.590332 47.9588013,54.6187134 48.5022583,55.34375 C48.8248292,55.7735596 49.3174439,56 49.8160401,56 C50.1586914,56 50.5043335,55.8927612 50.7991333,55.6714478 L55.2283935,52.3491822 C55.7116089,51.9864503 56,51.4092408 56,50.8051147 C56,50.2009888 55.7116089,49.6242065 55.2279663,49.2614746 Z" id="Path"></path>
                <path d="M16.2665405,32.6518555 C17.6922607,32.6518555 18.9821167,32.0571289 19.9002685,31.1026612 L24.7584839,33.357666 C24.7409668,33.5289917 24.7315674,33.7024536 24.7315674,33.878479 C24.7315674,36.6602784 26.99469,38.9234009 29.7764893,38.9234009 C32.5578613,38.9234009 34.8214112,36.6602784 34.8214112,33.878479 C34.8214112,33.2008667 34.6868286,32.5540161 34.4437255,31.963562 L40.6456299,26.5178833 C41.3834839,26.9408569 42.2375488,27.1826782 43.1475831,27.1826782 C45.9289551,27.1826782 48.1920776,24.9195557 48.1920776,22.1377564 C48.1920776,19.355957 45.9289551,17.0928345 43.1475831,17.0928345 C40.3657837,17.0928345 38.1026612,19.355957 38.1026612,22.1377564 C38.1026612,22.8153686 38.2368164,23.4617919 38.4799194,24.0526733 L32.2780151,29.4983521 C31.5401612,29.0753784 30.6860962,28.8331299 29.7764893,28.8331299 C28.3503418,28.8331299 27.060913,29.4278565 26.142334,30.3827514 L21.2845458,28.1273193 C21.302063,27.9559936 21.3110352,27.7825318 21.3110352,27.6069336 C21.3110352,24.824707 19.0479126,22.5615845 16.2661133,22.5615845 C13.4843139,22.5615845 11.2216186,24.824707 11.2216186,27.6069336 C11.2216186,30.3887329 13.4847412,32.6518555 16.2665405,32.6518555 L16.2665405,32.6518555 Z M43.1475831,20.3740845 C44.1199951,20.3740845 44.9108276,21.1653443 44.9108276,22.1377564 C44.9108276,23.1101685 44.1199951,23.9014282 43.1475831,23.9014282 C42.1751708,23.9014282 41.3839112,23.1101685 41.3839112,22.1377564 C41.3839112,21.1653443 42.1751708,20.3740845 43.1475831,20.3740845 Z M29.7764893,32.1148072 C30.7489013,32.1148072 31.5401612,32.9056396 31.5401612,33.878479 C31.5401612,34.8508911 30.7489013,35.6421509 29.7764893,35.6421509 C28.8040771,35.6421509 28.0128174,34.8508911 28.0128174,33.878479 C28.0132447,32.9056396 28.8040771,32.1148072 29.7764893,32.1148072 Z M16.2665405,25.8432617 C17.2389526,25.8432617 18.0297852,26.6340943 18.0297852,27.6065064 C18.0297852,28.5789185 17.2389526,29.3701782 16.2665405,29.3701782 C15.2937012,29.3701782 14.5028686,28.5789185 14.5028686,27.6065064 C14.5028686,26.6340943 15.2937012,25.8432617 16.2665405,25.8432617 Z" id="Shape"></path>
            </g>
        </g>
    </g>
</svg>