<?xml version="1.0" encoding="UTF-8"?>
<svg width="73px" height="73px" viewBox="0 0 73 73" version="1.1" xmlns="http://www.w3.org/2000/svg" xmlns:xlink="http://www.w3.org/1999/xlink">
    <!-- Generator: Sketch 51.3 (57544) - http://www.bohemiancoding.com/sketch -->
    <title>Icon/Lock</title>
    <desc>Created with Sketch.</desc>
    <defs></defs>
    <g id="Page-1" stroke="none" stroke-width="1" fill="none" fill-rule="evenodd">
        <g id="Homepage" transform="translate(-1238.000000, -2491.000000)" fill="#FF4CA5">
            <g id="Block-3" transform="translate(1191.000000, 2426.000000)">
                <g id="Icon/Lock" transform="translate(47.000000, 65.000000)">
                    <g id="flaticon1539423286-svg">
                        <circle id="Oval" cx="49" cy="49" r="3"></circle>
                        <path d="M34,67.296875 L11.4285714,67.296875 C8.27771429,67.296875 5.71428571,64.7384531 5.71428571,61.59375 L5.71428571,38.2109375 C5.71428571,35.0662344 8.27771429,32.5078125 11.4285714,32.5078125 L52.5714286,32.5078125 C55.7222857,32.5078125 58.2857143,35.0662344 58.2857143,38.2109375 L58.2857143,43.9140625 C58.2857143,45.4889805 59.5648571,46.765625 61.1428571,46.765625 C62.7208571,46.765625 64,45.4889805 64,43.9140625 L64,38.2109375 C64,31.9215312 58.8731429,26.8046875 52.5714286,26.8046875 L49.1375714,26.8046875 L49.1375714,16.748082 C49.1375714,7.5131543 41.4472857,0 31.9947143,0 C22.5421429,0 14.8518571,7.5131543 14.8518571,16.748082 L14.8518571,26.8046875 L11.4285714,26.8046875 C5.12685714,26.8046875 0,31.9215312 0,38.2109375 L0,61.59375 C0,67.8831562 5.12685714,73 11.4285714,73 L34,73 C35.578,73 36.8571429,71.7233555 36.8571429,70.1484375 C36.8571429,68.5735195 35.578,67.296875 34,67.296875 Z M20.5661429,16.748082 C20.5661429,10.6578574 25.693,5.703125 31.9947143,5.703125 C38.2964286,5.703125 43.4232857,10.6578574 43.4232857,16.748082 L43.4232857,26.8046875 L20.5661429,26.8046875 L20.5661429,16.748082 Z" id="Shape" fill-rule="nonzero"></path>
                        <path d="M71.7913015,47.5117908 C70.4924996,46.631764 68.685716,46.9148888 67.7563684,48.1439979 L53.501504,66.9870537 C53.1122393,67.4142724 52.6243572,67.5065035 52.3629194,67.5229244 C52.09483,67.5397559 51.5786062,67.5075982 51.1241267,67.104053 L41.9119164,58.5964886 C40.7687046,57.5406207 38.9377728,57.5621048 37.8223243,58.6436989 C36.7067312,59.7254299 36.7289997,61.4581152 37.8722115,62.5138463 L47.1006171,71.0364633 C47.1092931,71.0444001 47.1178245,71.0523369 47.1266452,71.0601368 C48.5100384,72.3066248 50.3567317,73 52.2567826,73 C52.4200366,73 52.5837244,72.9949369 52.7474122,72.9845369 C54.8172241,72.8539903 56.7498102,71.9014375 58.0493351,70.3712774 C58.0828824,70.3315934 58.1152729,70.2912252 58.1466513,70.2498991 L72.4593559,51.3302122 C73.3889927,50.10124 73.0899588,48.391544 71.7913015,47.5117908 Z" id="Path"></path>
                        <circle id="Oval" cx="37" cy="49" r="3"></circle>
                        <circle id="Oval" cx="16" cy="49" r="3"></circle>
                        <circle id="Oval" cx="27" cy="49" r="3"></circle>
                    </g>
                </g>
            </g>
        </g>
    </g>
</svg>