<?xml version="1.0" encoding="UTF-8"?>
<svg width="50px" height="50px" viewBox="0 0 50 50" version="1.1" xmlns="http://www.w3.org/2000/svg" xmlns:xlink="http://www.w3.org/1999/xlink">
    <!-- Generator: Sketch 51.3 (57544) - http://www.bohemiancoding.com/sketch -->
    <title>Icon/Love</title>
    <desc>Created with Sketch.</desc>
    <defs></defs>
    <g id="Page-1" stroke="none" stroke-width="1" fill="none" fill-rule="evenodd">
        <g id="ABOUT-V2" transform="translate(-237.000000, -2137.000000)" fill="#64D1FF">
            <g id="Details" transform="translate(237.000000, 2137.000000)">
                <g id="Icon/Love">
                    <path d="M31.7242055,43.8593142 C30.8051671,43.8561355 29.9810911,43.2896007 29.6448875,42.4298272 C29.308684,41.5700537 29.5284197,40.5911085 30.1993272,39.9597417 C38.6310075,32.0704332 44.1474792,24.1811248 45.358412,18.0500051 C46.1035629,12.9044429 43.6391575,7.82489188 39.1467752,5.24678454 C35.2897299,3.35335051 30.916917,4.95375308 26.8356249,9.75496079 L22.3506886,14.7815773 C21.5270988,15.7152512 20.1064569,15.8010323 19.1775961,14.9731748 C18.2487354,14.1453173 18.1633965,12.717314 18.9869864,11.7836401 L23.4719227,6.77956446 C31.1860132,-2.23678805 38.384336,-0.117945207 41.1201472,1.21196679 C47.4694965,4.6687829 50.9436865,11.7888747 49.7760743,18.9516403 C47.892401,28.4638922 38.5637335,38.2691756 33.2715086,43.2732512 C32.8488382,43.6595902 32.2954115,43.8692084 31.7242055,43.8593142 L31.7242055,43.8593142 Z M26.7439128,49.0889029 C27.4877369,48.0826808 27.2867407,46.6551985 26.2949752,45.9005319 C18.6630368,40.0931421 6.60906333,27.9545585 4.70107871,18.2983495 C4.0435897,13.8115868 5.74633555,9.30263908 9.19045429,6.41028077 C11.6001231,4.35666175 14.9890875,3.97063132 17.7876085,5.43099542 C18.9044576,5.93747468 20.2153779,5.44335355 20.7353874,4.31989822 C21.2553969,3.19644288 20.7929853,1.85740242 19.6955931,1.30888731 C15.3588832,-0.877692576 10.1626268,-0.289935783 6.40704143,2.81197646 C1.61046484,6.75787591 -0.750433909,12.9978391 0.21170313,19.1865385 C2.45639092,30.9379627 16.4632427,44.2380242 23.5115624,49.5443844 C24.5033278,50.299051 25.9103012,50.0951249 26.6541253,49.0889029 L26.7439128,49.0889029 Z" id="Like"></path>
                </g>
            </g>
        </g>
    </g>
</svg>