<?xml version="1.0" encoding="UTF-8"?>
<svg width="56px" height="54px" viewBox="0 0 56 54" version="1.1" xmlns="http://www.w3.org/2000/svg" xmlns:xlink="http://www.w3.org/1999/xlink">
    <!-- Generator: Sketch 54.1 (76490) - https://sketchapp.com -->
    <title>meeting</title>
    <desc>Created with Sketch.</desc>
    <g id="Page-1-Copy" stroke="none" stroke-width="1" fill="none" fill-rule="evenodd">
        <g id="Web-App-Development" transform="translate(-1315.000000, -2897.000000)" fill="#14CA3C" fill-rule="nonzero">
            <g id="meeting" transform="translate(1315.000000, 2897.000000)">
                <path d="M28.00875,0 C24.8676094,0 22.32125,2.54635937 22.32125,5.6875 C22.3248594,8.82710937 24.8691406,11.3713906 28.00875,11.375 C31.1498906,11.375 33.69625,8.82864062 33.69625,5.6875 C33.69625,2.54635938 31.1498906,0 28.00875,0 Z M28.00875,8.53125 C26.4382344,8.53125 25.165,7.25801562 25.165,5.6875 C25.165,4.11698438 26.4382344,2.84375 28.00875,2.84375 C29.5792656,2.84375 30.8525,4.11698437 30.8525,5.6875 C30.8525,7.25801563 29.5792656,8.53125 28.00875,8.53125 Z" id="Shape"></path>
                <path d="M32.755625,12.3921875 L31.4059375,12.3921875 C31.0289219,12.3922969 30.6673281,12.54225 30.4007813,12.8089063 L28.00875,15.203125 L25.6167188,12.8110937 C25.3501719,12.5444375 24.9885781,12.3944844 24.6115625,12.394375 L23.2520313,12.394375 C20.3926406,12.3974375 18.0752031,14.714 18.0709375,17.5732813 L18.0709375,21.2625 C18.0709375,22.0478125 18.7075,22.684375 19.4928125,22.684375 C20.278125,22.684375 20.9146875,22.0478125 20.9146875,21.2625 L20.9146875,17.5732813 C20.9158906,16.282875 21.961625,15.2371406 23.2520313,15.2359375 L24.0176563,15.2359375 L26.5890625,17.8073438 C27.3702187,18.5887187 28.6367812,18.5889375 29.4181562,17.8077812 C29.4182656,17.8076719 29.4184844,17.8074531 29.4185937,17.8073438 L31.99,15.2359375 L32.755625,15.2359375 C34.0457031,15.2377969 35.0911094,16.2832031 35.0929687,17.5732813 L35.0929687,21.2625 C35.0929687,22.0478125 35.7295313,22.684375 36.5148437,22.684375 C37.3001563,22.684375 37.9367187,22.0478125 37.9367187,21.2625 L37.9367187,17.5732813 C37.9336562,14.713125 35.6157813,12.39525 32.755625,12.3921875 Z" id="Path"></path>
                <path d="M28.00875,30.625 C24.8247344,30.625 22.2435937,33.2061406 22.2435937,36.3901562 C22.2472031,39.5726406 24.8262656,42.1517031 28.00875,42.1553125 C31.1927656,42.1553125 33.7739062,39.5741719 33.7739062,36.3901562 C33.7739063,33.2061406 31.1927656,30.625 28.00875,30.625 Z M28.00875,39.3126562 C26.39525,39.3126562 25.0873437,38.00475 25.0873437,36.39125 C25.0873437,36.3909219 25.0873437,36.3904844 25.0873437,36.3901562 C25.0885469,34.7772031 26.3957969,33.4699531 28.00875,33.46875 L28.00875,33.4698437 C29.62225,33.4698437 30.9301562,34.77775 30.9301562,36.39125 C30.9301562,38.00475 29.62225,39.3126562 28.00875,39.3126562 Z" id="Shape"></path>
                <path d="M45.5196875,49.109375 L40.1778125,26.359375 C39.8879687,25.108125 38.7714688,24.2236094 37.4871875,24.2276562 L18.5303125,24.2276562 C17.2460312,24.2236094 16.1295312,25.108125 15.8396875,26.359375 L10.5,49.1170312 C10.3537656,49.8885625 10.8607187,50.6325312 11.63225,50.7787656 C12.3572969,50.9161406 13.0669219,50.476125 13.2660937,49.765625 L18.59375,27.0703125 L37.42375,27.0703125 L42.7514062,49.765625 C42.9033281,50.4063437 43.4753594,50.8589375 44.1339062,50.859375 C44.9192187,50.8606875 45.5567656,50.2251094 45.5580781,49.4397969 C45.5582969,49.3285625 45.5453906,49.2176562 45.5196875,49.109375 Z" id="Path"></path>
                <path d="M32.3520312,43.33875 L23.6020312,43.33875 C23.5604687,43.33875 23.52,43.33875 23.4795313,43.33875 C20.0088438,43.4529375 17.2508437,46.2930781 17.2385937,49.765625 L17.2385937,52.390625 C17.2385937,53.1759375 17.8751562,53.8125 18.6604687,53.8125 C19.4457812,53.8125 20.0823437,53.1759375 20.0823437,52.390625 L20.0823437,49.765625 C20.0886875,47.8052969 21.6648906,46.2115937 23.625,46.1835937 L23.7004687,46.1835937 L32.3564062,46.1835937 C34.332375,46.1878594 35.93275,47.7895469 35.9351562,49.765625 L35.9351562,52.390625 C35.9351562,53.1759375 36.5717187,53.8125 37.3570312,53.8125 C38.1423437,53.8125 38.7789062,53.1759375 38.7789062,52.390625 L38.7789062,49.765625 C38.7752969,46.2176094 35.9000469,43.3423594 32.3520312,43.33875 Z" id="Path"></path>
                <path d="M49,16.4335938 C45.9797188,16.4335938 43.53125,18.8820625 43.53125,21.9023437 C43.5355156,24.920875 45.9814687,27.3668281 49,27.3710937 C52.0202812,27.3710937 54.46875,24.922625 54.46875,21.9023437 C54.46875,18.8820625 52.0202812,16.4335938 49,16.4335938 Z M49,24.5273437 C47.5502344,24.5273437 46.375,23.3521094 46.375,21.9023437 C46.3731406,20.4525781 47.5469531,19.2759219 48.9967187,19.2740625 C48.9978125,19.2740625 48.9989063,19.2740625 49,19.2740625 L49,19.2773437 C50.4497656,19.2773437 51.625,20.4525781 51.625,21.9023437 C51.625,23.3521094 50.4497656,24.5273437 49,24.5273437 Z" id="Shape"></path>
                <path d="M53.7971875,30.926875 C52.392375,29.5940312 50.4948281,28.9084687 48.5625,29.0357812 C46.7552969,29.1494219 45.0669844,29.9755312 43.868125,31.3326562 C43.3434531,31.9170469 43.3920156,32.8161094 43.9764062,33.3407812 C44.5607969,33.8654531 45.4598594,33.8168906 45.9845312,33.2325 C46.6851875,32.4347187 47.6736094,31.9473437 48.733125,31.8773437 C51.0239844,31.7323125 52.9986406,33.4719219 53.1435625,35.7627812 C53.14925,35.8529062 53.1519844,35.94325 53.151875,36.0335937 L53.151875,39.256875 L46.9,39.256875 C46.1146875,39.256875 45.478125,39.8934375 45.478125,40.67875 C45.478125,41.4640625 46.1146875,42.100625 46.9,42.100625 L53.4953125,42.100625 C54.8786875,42.0987656 55.9993438,40.977125 56,39.59375 L56,36.0259375 C55.9966094,34.0960156 55.2001406,32.2522812 53.7971875,30.926875 Z" id="Path"></path>
                <path d="M7,16.4314062 C3.98146875,16.4356719 1.53551563,18.881625 1.53125,21.9001562 C1.53125,24.9204375 3.97971875,27.3689062 7,27.3689062 C10.0202813,27.3689062 12.46875,24.9204375 12.46875,21.9001562 C12.46875,18.879875 10.0202813,16.4314062 7,16.4314062 Z M7,24.5251562 C5.55023437,24.5251562 4.375,23.3499219 4.375,21.9001562 C4.37445312,20.4503906 5.54914062,19.2747187 6.99890625,19.2740625 C6.99923438,19.2740625 6.99967187,19.2740625 7,19.2740625 L7,19.2751562 C8.44976562,19.2751562 9.625,20.4503906 9.625,21.9001562 C9.625,23.3499219 8.44976562,24.5251562 7,24.5251562 Z" id="Shape"></path>
                <path d="M12.1275,31.325 C10.9289688,29.9680937 9.24109375,29.1420937 7.43421875,29.028125 C5.50342188,28.9017969 3.60751563,29.58725 2.20390625,30.9192187 C0.79865625,32.2462656 0.00153125,34.0931719 0,36.0259375 L0,39.59375 C0.0048125,40.9741719 1.12426563,42.0912187 2.5046875,42.0929687 L9.1,42.0929687 C9.8853125,42.0929687 10.521875,41.4564062 10.521875,40.6710937 C10.521875,39.8857812 9.8853125,39.2492187 9.1,39.2492187 L2.84375,39.2492187 L2.84375,36.0259375 C2.83915625,33.7304844 4.69623438,31.8659687 6.9916875,31.861375 C7.08203125,31.8611562 7.172375,31.864 7.2625,31.8696875 C8.32201563,31.9396875 9.3104375,32.4270625 10.0110938,33.2248437 C10.5357656,33.8092344 11.4348281,33.8577969 12.0192188,33.333125 C12.6036094,32.8084531 12.6521719,31.9093906 12.1275,31.325 Z" id="Path"></path>
            </g>
        </g>
    </g>
</svg>