<?xml version="1.0" encoding="UTF-8"?>
<svg width="111px" height="57px" viewBox="0 0 111 106" version="1.1" xmlns="http://www.w3.org/2000/svg" xmlns:xlink="http://www.w3.org/1999/xlink">
    <!-- Generator: Sketch 55 (78076) - https://sketchapp.com -->
    <title>Group 5</title>
    <desc>Created with Sketch.</desc>
    <defs>
        <linearGradient x1="65.1789125%" y1="11.8172226%" x2="50%" y2="88.1827774%" id="linearGradient-1">
            <stop stop-color="#F5F5F5" offset="0%"></stop>
            <stop stop-color="#FFFFFF" offset="100%"></stop>
        </linearGradient>
    </defs>
    <g id="Page-1-Copy" stroke="none" stroke-width="1" fill="none" fill-rule="evenodd">
        <g id="Homepage" transform="translate(-157.000000, -1540.000000)">
            <g id="What-We-Do" transform="translate(-2.000000, 1252.000000)">
                <g id="Block-1" transform="translate(159.000000, 288.000000)">
                    <g id="Group-5">
                        <g id="iconBg1/light" fill="url(#linearGradient-1)">
                            <path d="M19.4845389,96.5236074 C-1.54639197,60.5559646 -5.55228357,39.4083227 7.46686411,33.0806819 C26.9955856,23.5892206 80.0736492,-36.3568508 106.111945,33.0806819 C123.470808,79.3723703 94.5950062,100.520012 19.4845389,96.5236074 Z" id="Path-6"></path>
                        </g>
                        <g id="smartphone" transform="translate(61.000000, 70.000000) scale(1, -1) translate(-61.000000, -70.000000) translate(25.000000, 34.000000)" fill-rule="nonzero">
                            <path d="M2.33333333,9.28 L39.6666667,9.28 L39.6666667,11.6 L42,11.6 L42,5.8 C42,2.60188 39.3831667,0 36.1666667,0 L5.83333333,0 C2.61683333,0 0,2.60188 0,5.8 L0,58 L2.33333333,58 L2.33333333,9.28 Z M2.33333333,5.8 C2.33333333,3.88136 3.90366667,2.32 5.83333333,2.32 L36.1666667,2.32 C38.0963333,2.32 39.6666667,3.88136 39.6666667,5.8 L39.6666667,6.96 L2.33333333,6.96 L2.33333333,5.8 Z" id="Shape" fill="#000000"></path>
                            <path d="M0,66 C0,69.3084 2.61683333,72 5.83333333,72 L36.1666667,72 C39.3831667,72 42,69.3084 42,66 L42,60 L0,60 L0,66 Z M2.33333333,62.4 L39.6666667,62.4 L39.6666667,66 C39.6666667,67.9848 38.0963333,69.6 36.1666667,69.6 L5.83333333,69.6 C3.90366667,69.6 2.33333333,67.9848 2.33333333,66 L2.33333333,62.4 Z" id="Shape" fill="#000000"></path>
                            <rect id="Rectangle" fill="#000000" x="14" y="65" width="12" height="2"></rect>
                            <path d="M53,36 C49.1395,36 46,39.1395 46,43 C46,46.8605 49.1395,50 53,50 C56.8605,50 60,46.8605 60,43 C60,39.1395 56.8605,36 53,36 Z M53,47.6666667 C50.4263333,47.6666667 48.3333333,45.5736667 48.3333333,43 C48.3333333,40.4263333 50.4263333,38.3333333 53,38.3333333 C55.5736667,38.3333333 57.6666667,40.4263333 57.6666667,43 C57.6666667,45.5736667 55.5736667,47.6666667 53,47.6666667 Z" id="Shape" fill="#6A6A6A"></path>
                            <path d="M19,20 C15.6916,20 13,22.6916 13,26 C13,29.3084 15.6916,32 19,32 C22.3084,32 25,29.3084 25,26 C25,22.6916 22.3084,20 19,20 Z M19,29.6 C17.0152,29.6 15.4,27.9848 15.4,26 C15.4,24.0152 17.0152,22.4 19,22.4 C20.9848,22.4 22.6,24.0152 22.6,26 C22.6,27.9848 20.9848,29.6 19,29.6 Z" id="Shape" fill="#6A6A6A"></path>
                            <path d="M24.1908494,37.8628118 C24.4013133,37.7834467 24.6106333,37.6961451 24.8188096,37.6020408 L28.3646685,39.9455782 L32.9262444,35.4240363 L30.5619572,31.9092971 C30.6568947,31.7018141 30.7449693,31.4943311 30.8250371,31.2868481 L35,30.4591837 L35,24.0646259 L30.8250371,23.2369615 C30.6637577,22.8231293 30.4738827,22.4092971 30.2576996,22 L28.2331286,23.0555556 C28.4973523,23.5555556 28.7123914,24.0623583 28.8679517,24.5589569 L29.0704088,25.2018141 L32.7123491,25.9240363 L32.7123491,28.5997732 L29.069265,29.3219955 L28.8668079,29.9648526 C28.7112476,30.4614512 28.4973523,30.9671202 28.2319847,31.468254 L27.9162889,32.0646259 L29.9808939,35.1349206 L28.072993,37.0272109 L24.9755137,34.9795918 L24.3750053,35.292517 C23.8728659,35.5544218 23.3615759,35.7664399 22.8571489,35.9229025 L22.2097437,36.1235828 L21.4811269,39.7335601 L18.780555,39.7335601 L18.0519381,36.1235828 L17.4045329,35.9229025 C16.9001059,35.7664399 16.3888159,35.5544218 15.8866766,35.292517 L15.2861682,34.9795918 L12.1886888,37.0272109 L9.6173692,34.4773243 L8,36.0804989 L11.8981572,39.9444444 L15.4440161,37.600907 C15.6521923,37.6950113 15.8615124,37.7823129 16.0719763,37.861678 L16.9069689,42 L23.3570006,42 L24.1908494,37.8628118 Z" id="Path" fill="#6A6A6A"></path>
                            <path d="M5,23.5412958 L5,29.9354912 L9.17496293,30.7631087 C9.33624232,31.1769174 9.52611735,31.5907261 9.74230036,32 L11.7668714,30.9445043 C11.5026477,30.4445326 11.2876086,29.9377586 11.1320483,29.4411881 L10.9295912,28.7983674 L7.28765092,28.0761862 L7.28765092,25.4006009 L10.930735,24.6784196 L11.1331921,24.0355989 C11.2887524,23.5390284 11.5026477,23.0333881 11.7680153,22.5322828 L12.0837111,21.9359447 L10.0191061,18.8658239 L11.9281508,16.973641 L15.026774,19.0211439 L15.6272824,18.7071028 C16.1282779,18.4463466 16.6384241,18.2343405 17.1428511,18.0778867 L17.7902563,17.8772178 L18.5188731,14.2674452 L21.219445,14.2674452 L21.9480619,17.8772178 L22.5954671,18.0778867 C23.0998941,18.2343405 23.6111841,18.4463466 24.1110358,18.7071028 L24.7115442,19.0211439 L27.8101673,16.973641 L30.3826308,19.523383 L32,17.9202993 L28.1029867,14.0565728 L24.5559839,16.3988436 C24.3466638,16.3047446 24.1384876,16.2185817 23.9280237,16.1380874 L23.094175,12 L16.6441432,12 L15.8091506,16.1380874 C15.5986867,16.2185817 15.3905105,16.3047446 15.1811904,16.3988436 L11.6341877,14.0565728 L7.07375556,18.5767247 L9.43804279,22.0912647 C9.34310527,22.2987359 9.25503071,22.5062071 9.17496293,22.7136784 L5,23.5412958 Z" id="Path" fill="#6A6A6A"></path>
                            <rect id="Rectangle" fill="#000000" x="18" y="45" width="2" height="2"></rect>
                            <rect id="Rectangle" fill="#000000" x="18" y="49" width="2" height="2"></rect>
                            <rect id="Rectangle" fill="#000000" x="18" y="53" width="2" height="2"></rect>
                            <rect id="Rectangle" fill="#000000" x="52" y="18" width="2" height="2"></rect>
                            <rect id="Rectangle" fill="#000000" x="52" y="15" width="2" height="2"></rect>
                            <rect id="Rectangle" fill="#000000" x="52" y="10" width="2" height="2"></rect>
                            <path d="M72,46.8786515 L72,38.1133174 L66.2989982,36.9832318 C66.1660673,36.6516636 66.0192653,36.3235372 65.8609042,36 L63.7814025,37.0038832 C63.9987156,37.4490336 64.1905985,37.9033625 64.3478038,38.3576913 L64.5651169,38.9783779 L69.6881582,39.9948813 L69.6881582,44.9959403 L64.5651169,46.013591 L64.3478038,46.6342776 C64.1894426,47.0886065 63.9987156,47.5440826 63.7814025,47.9880858 L63.4912664,48.5789427 L66.3914719,52.8962139 L62.8277678,56.4333245 L58.4768816,53.5559086 L57.8815823,53.8438796 C57.4342409,54.0595711 56.9753404,54.2500221 56.5175957,54.4060542 L55.8922425,54.6217457 L54.8692525,59.7054099 L49.8294375,59.7054099 L48.8041356,54.6205984 L48.1787824,54.4049069 C47.7210378,54.2477275 47.2621372,54.0584238 46.8147958,53.8427323 L46.2194965,53.5547613 L41.8686103,56.4321772 L37.6344721,52.2307828 L36,53.853058 L41.5750064,59.3853146 L46.4125353,56.1843615 C46.5385307,56.2382844 46.665682,56.2910599 46.7928333,56.3415409 L47.9337272,62 L56.7661187,62 L57.9047007,56.3415409 C58.031852,56.2910599 58.1590033,56.2382844 58.2849987,56.1843615 L63.1225276,59.3853146 L69.3679681,53.1887742 L66.141793,48.3861972 C66.1961212,48.261142 66.2492936,48.1349395 66.3001541,48.0087371 L72,46.8786515 Z" id="Path" fill="#6A6A6A"></path>
                            <path d="M35.6321164,31.8112258 L38.8583951,36.6126555 C38.8040651,36.7377107 38.7508911,36.8639132 38.7000289,36.9901156 L33,38.1213485 L33,46.8878298 L38.7011849,48.0179155 C38.83412,48.3494837 38.9809267,48.6776101 39.1392929,49 L41.2188614,47.9961168 C41.0015413,47.5521137 40.8096522,47.0966375 40.652442,46.6423087 L40.4351219,46.0216221 L35.311916,45.0051187 L35.311916,40.0029124 L40.4351219,38.9852617 L40.652442,38.3645751 C40.8108082,37.9102462 41.0015413,37.4559174 41.2188614,37.0107669 L41.5090068,36.4187627 L38.6087082,32.1026388 L42.1725267,28.5655282 L46.5223967,31.4429441 L47.118871,31.1561204 C47.5650708,30.9404289 48.0251421,30.7499779 48.4852134,30.5916512 L49.1082747,30.3759598 L50.1301416,25.2945901 L55.1712744,25.2945901 L56.1954532,30.3771071 L56.8185146,30.5927985 C57.2774299,30.7511252 57.7386572,30.9415762 58.184857,31.1572677 L58.7813313,31.4440914 L63.1312012,28.5666755 L67.3654754,32.7692172 L69,31.146942 L63.4248146,25.6146854 L58.5859744,28.8156385 C58.4611309,28.7617156 58.3339755,28.7100874 58.2068202,28.6596064 L57.0658896,23 L48.2355264,23 L47.0957519,28.6584591 C46.9685965,28.7089401 46.8414411,28.7605684 46.7165976,28.8144912 L41.8777574,25.6135381 L35.6321164,31.8112258 Z" id="Path" fill="#6A6A6A"></path>
                        </g>
                    </g>
                </g>
            </g>
        </g>
    </g>
</svg>