<?xml version="1.0" encoding="UTF-8"?>
<svg width="56px" height="56px" viewBox="0 0 56 56" version="1.1" xmlns="http://www.w3.org/2000/svg" xmlns:xlink="http://www.w3.org/1999/xlink">
    <!-- Generator: Sketch 54.1 (76490) - https://sketchapp.com -->
    <title>newspaper</title>
    <desc>Created with Sketch.</desc>
    <g id="Page-1-Copy" stroke="none" stroke-width="1" fill="none" fill-rule="evenodd">
        <g id="Mobile-App-Development" transform="translate(-805.000000, -2466.000000)" fill="#44E7D0" fill-rule="nonzero">
            <g id="newspaper" transform="translate(805.000000, 2466.000000)">
                <path d="M50.75,0 L12.25,0 C9.35025,0 7,2.3485 7,5.25 L7,8.75 L5.25,8.75 C2.35025,8.75 0,11.0985 0,14 L0,49 C0,52.86575 3.13425,56 7,56 L49,56 C52.86575,56 56,52.86575 56,49 L56,5.25 C56,2.3485 53.648,0 50.75,0 Z M52.5,49 C52.5,50.9285 50.9285,52.5 49,52.5 L7,52.5 C5.06975,52.5 3.5,50.9285 3.5,49 L3.5,14 C3.5,13.034 4.284,12.25 5.25,12.25 L7,12.25 L7,47.25 C7,48.21775 7.78225,49 8.75,49 C9.71775,49 10.5,48.21775 10.5,47.25 L10.5,5.25 C10.5,4.284 11.284,3.5 12.25,3.5 L50.75,3.5 C51.71425,3.5 52.5,4.284 52.5,5.25 L52.5,49 Z" id="Shape"></path>
                <path d="M34.1215,22.75875 L48.1215,22.75875 C48.60625,22.75875 48.9965,22.36675 48.9965,21.88375 C48.9965,21.40075 48.60625,21.00875 48.1215,21.00875 L34.1215,21.00875 C33.64025,21.00875 33.2465,21.40075 33.2465,21.88375 C33.2465,22.36675 33.64025,22.75875 34.1215,22.75875 Z" id="Path"></path>
                <path d="M34.1215,17.50875 L48.1215,17.50875 C48.60625,17.50875 48.9965,17.11675 48.9965,16.63375 C48.9965,16.15075 48.60625,15.75875 48.1215,15.75875 L34.1215,15.75875 C33.64025,15.75875 33.2465,16.15075 33.2465,16.63375 C33.2465,17.11675 33.64025,17.50875 34.1215,17.50875 Z" id="Path"></path>
                <path d="M34.1215,12.25875 L48.1215,12.25875 C48.60625,12.25875 48.9965,11.86675 48.9965,11.38375 C48.9965,10.90075 48.60625,10.50875 48.1215,10.50875 L34.1215,10.50875 C33.64025,10.50875 33.2465,10.90075 33.2465,11.38375 C33.2465,11.86675 33.64025,12.25875 34.1215,12.25875 Z" id="Path"></path>
                <path d="M28.875,47.257 L14.875,47.257 C14.392,47.257 14,47.65075 14,48.132 C14,48.61675 14.392,49.007 14.875,49.007 L28.875,49.007 C29.35625,49.007 29.75,48.61675 29.75,48.132 C29.75,47.65075 29.358,47.257 28.875,47.257 Z" id="Path"></path>
                <path d="M28.875,42.007 L14.875,42.007 C14.392,42.007 14,42.40075 14,42.882 C14,43.36675 14.392,43.757 14.875,43.757 L28.875,43.757 C29.35625,43.757 29.75,43.36675 29.75,42.882 C29.75,42.40075 29.358,42.007 28.875,42.007 Z" id="Path"></path>
                <path d="M28.875,36.757 L14.875,36.757 C14.392,36.757 14,37.15075 14,37.632 C14,38.11675 14.392,38.507 14.875,38.507 L28.875,38.507 C29.35625,38.507 29.75,38.11675 29.75,37.632 C29.75,37.15075 29.358,36.757 28.875,36.757 Z" id="Path"></path>
                <path d="M48.125,47.257 L34.125,47.257 C33.64025,47.257 33.25,47.65075 33.25,48.132 C33.25,48.61675 33.64025,49.007 34.125,49.007 L48.125,49.007 C48.60625,49.007 49,48.61675 49,48.132 C49,47.65075 48.60625,47.257 48.125,47.257 Z" id="Path"></path>
                <path d="M48.125,42.007 L34.125,42.007 C33.64025,42.007 33.25,42.40075 33.25,42.882 C33.25,43.36675 33.64025,43.757 34.125,43.757 L48.125,43.757 C48.60625,43.757 49,43.36675 49,42.882 C49,42.40075 48.60625,42.007 48.125,42.007 Z" id="Path"></path>
                <path d="M48.125,36.757 L34.125,36.757 C33.64025,36.757 33.25,37.15075 33.25,37.632 C33.25,38.11675 33.64025,38.507 34.125,38.507 L48.125,38.507 C48.60625,38.507 49,38.11675 49,37.632 C49,37.15075 48.60625,36.757 48.125,36.757 Z" id="Path"></path>
                <path d="M48.125,26.257 L14.875,26.257 C14.392,26.257 14,26.649 14,27.132 C14,27.615 14.392,28.007 14.875,28.007 L48.125,28.007 C48.60625,28.007 49,27.615 49,27.132 C49,26.649 48.60625,26.257 48.125,26.257 Z" id="Path"></path>
                <path d="M48.125,31.507 L14.875,31.507 C14.392,31.507 14,31.90075 14,32.382 C14,32.86675 14.392,33.257 14.875,33.257 L48.125,33.257 C48.60625,33.257 49,32.86675 49,32.382 C49,31.90075 48.60625,31.507 48.125,31.507 Z" id="Path"></path>
                <path d="M15.75,22.75 L28,22.75 C28.96775,22.75 29.75,21.96775 29.75,21 L29.75,8.757 C29.75,7.78925 28.96775,7.007 28,7.007 L15.75,7.007 C14.78225,7.007 14,7.78925 14,8.757 L14,21 C14,21.966 14.78225,22.75 15.75,22.75 Z M17.5,10.5 L26.25,10.5 L26.25,19.25 L17.5,19.25 L17.5,10.5 Z" id="Shape"></path>
            </g>
        </g>
    </g>
</svg>