<svg xmlns="http://www.w3.org/2000/svg" width="52.463" height="47.561" viewBox="0 0 52.463 47.561">
  <g id="pie-chart" transform="translate(0 -23.876)">
    <path id="Path_2028" data-name="Path 2028" d="M297.967,137.52a17.129,17.129,0,0,0-17.146-17.145H280v17.967h17.967Zm-1.825-3.183h-14.6V121.882A15.751,15.751,0,0,1,296.141,134.338Zm-14.6,2.464v-.924h14.846a8.166,8.166,0,0,1,.073.924Z" transform="translate(-251.253 -86.592)" fill="#000"/>
    <rect id="Rectangle_157" data-name="Rectangle 157" width="1.643" height="1.54" transform="translate(15.605 53.496)" fill="#000"/>
    <rect id="Rectangle_158" data-name="Rectangle 158" width="1.643" height="1.54" transform="translate(32.032 37.89)" fill="#000"/>
    <rect id="Rectangle_159" data-name="Rectangle 159" width="1.643" height="1.54" transform="translate(36.139 58.424)" fill="#000"/>
    <path id="Path_2029" data-name="Path 2029" d="M70.454,177.015H65.775A17.494,17.494,0,0,0,67.41,169.6l-.026-.026v-.77H50.958V152.375h-.719A17.21,17.21,0,0,0,33.06,168.8H29.2l-1.417-1.443-1.089,1.1,1.868,1.881h4.5a17.178,17.178,0,0,0,28.75,11.9l.045.039.544-.522a18.224,18.224,0,0,0,2.541-3.206h6.151l1.868-1.894-1.089-1.076ZM50.239,185.2A15.7,15.7,0,0,1,34.6,170.342h3.318V168.8H34.6a15.622,15.622,0,0,1,14.817-14.919v16.008l11.277,11.264A15.54,15.54,0,0,1,50.239,185.2Zm11.573-5.1-9.765-9.765h13.83a15.931,15.931,0,0,1-1.868,6.673H61.738v1.54h1.318C62.674,179.069,62.258,179.617,61.812,180.107Z" transform="translate(-23.956 -115.306)" fill="#000"/>
    <path id="Path_2030" data-name="Path 2030" d="M6.468,221.254l-1.375-1.4a2.4,2.4,0,1,0-4.224-1.566,2.382,2.382,0,0,0,.555,1.566L0,221.254v1.962H6.468Zm-3.183-3.839a.873.873,0,1,1-.873.873A.874.874,0,0,1,3.285,217.415Zm-1.426,4.261.968-.994a2.41,2.41,0,0,0,.458.031,2.422,2.422,0,0,0,.458-.025l.968.987Z" transform="translate(0 -172.287)" fill="#000"/>
    <path id="Path_2031" data-name="Path 2031" d="M94.468,29.255l-1.375-1.4a2.4,2.4,0,1,0-4.224-1.566,2.382,2.382,0,0,0,.555,1.566L88,29.255v1.962h6.468Zm-3.183-3.839a.873.873,0,1,1-.873.873A.874.874,0,0,1,91.285,25.416Zm-1.426,4.261.968-.994a3.739,3.739,0,0,0,.916.006l.968.987Z" transform="translate(-78.965 0)" fill="#000"/>
    <path id="Path_2032" data-name="Path 2032" d="M453.093,299.853a2.4,2.4,0,1,0-4.224-1.566,2.382,2.382,0,0,0,.555,1.566l-1.425,1.4v1.962h6.468v-1.962Zm-1.808-2.438a.873.873,0,1,1-.873.873A.874.874,0,0,1,451.285,297.415Zm-1.426,4.261.968-.994a3.737,3.737,0,0,0,.916.006l.968.987Z" transform="translate(-402.005 -244.074)" fill="#000"/>
    <path id="Path_2033" data-name="Path 2033" d="M115.786,106.321l-1.089,1.1,1.868,1.881h13.46v-1.54H117.2Z" transform="translate(-102.921 -73.981)" fill="#000"/>
  </g>
</svg>
