<?xml version="1.0" encoding="UTF-8"?>
<svg width="60px" height="60px" viewBox="0 0 60 60" version="1.1" xmlns="http://www.w3.org/2000/svg" xmlns:xlink="http://www.w3.org/1999/xlink">
    <!-- Generator: Sketch 55 (78076) - https://sketchapp.com -->
    <title>protect</title>
    <desc>Created with Sketch.</desc>
    <g id="Page-1-Copy" stroke="none" stroke-width="1" fill="none" fill-rule="evenodd">
        <g id="Artboard" transform="translate(-2349.000000, -1617.000000)" fill="#000000" fill-rule="nonzero">
            <g id="protect" transform="translate(2349.000000, 1617.000000)">
                <path d="M16.2385547,56.8183594 C16.0207031,56.5992187 15.7183594,56.475 15.4101562,56.475 C15.1019531,56.475 14.7996094,56.5992187 14.5816406,56.8183594 C14.3635547,57.0363281 14.2382812,57.3375 14.2382812,57.646875 C14.2382812,57.9550781 14.3636719,58.2574219 14.5816406,58.4753906 C14.7996094,58.6933594 15.1019531,58.81875 15.4101562,58.81875 C15.7183594,58.81875 16.0207031,58.6933594 16.2385547,58.4753906 C16.4566406,58.25625 16.5820312,57.9550781 16.5820312,57.646875 C16.5820312,57.3375 16.4565234,57.0363281 16.2385547,56.8183594 Z" id="Path"></path>
                <path d="M5.82070312,43.0205859 C5.38089844,42.545625 4.63933594,42.5176172 4.16460938,42.9570703 L4.15453125,42.9664453 C3.6796875,43.40625 3.65121094,44.1476953 4.09101563,44.6225391 C4.32199219,44.8719141 4.63605469,44.998125 4.95105469,44.998125 C5.23605469,44.998125 5.52164062,44.8948828 5.74710937,44.6860547 L5.7571875,44.6766797 C6.23203125,44.236875 6.26050781,43.4954297 5.82070312,43.0205859 Z" id="Path"></path>
                <path d="M55.9436719,41.1221484 C54.5651953,38.9581641 51.7960547,38.1931641 49.5021094,39.3425391 L37.6333594,45.2901563 C37.0546875,45.5801953 36.8206641,46.2842578 37.1107031,46.8628125 C37.4007422,47.4413672 38.1043359,47.6753906 38.6834766,47.3854688 L50.5522266,41.4378516 C51.7679297,40.8283594 53.2359375,41.2340625 53.9668359,42.3812109 C54.3644531,43.0055859 54.481875,43.7441016 54.2971875,44.4609375 C54.1126172,45.1777734 53.653125,45.7678125 53.0034375,46.1224219 L37.0480078,54.8309766 C35.0780859,55.9061719 32.8508203,56.4744141 30.6065625,56.4744141 L20.2105078,56.4744141 C19.5633984,56.4744141 19.0386328,56.9990625 19.0386328,57.6462891 C19.0386328,58.2935156 19.5633984,58.8181641 20.2105078,58.8181641 L30.6065625,58.8181641 C33.241875,58.8181641 35.8576172,58.1507813 38.1708984,56.8883203 L54.1263281,48.1797656 C55.3341797,47.5204688 56.2236328,46.3780078 56.566875,45.0454688 C56.91,43.7128125 56.6827734,42.2828906 55.9436719,41.1221484 Z" id="Path"></path>
                <path d="M33.088125,45.4347656 L28.190625,41.5548047 C25.6530469,39.5445703 22.4726953,38.4375 19.2353906,38.4375 L10.8398438,38.4375 C10.8398438,37.7902734 10.3150781,37.265625 9.66796875,37.265625 L1.171875,37.265625 C0.524765625,37.265625 0,37.7902734 0,38.4375 C0,39.0847266 0.524765625,39.609375 1.171875,39.609375 L8.49609375,39.609375 L8.49609375,57.65625 L1.171875,57.65625 C0.524765625,57.65625 0,58.1808984 0,58.828125 C0,59.4753516 0.524765625,60 1.171875,60 L9.66796875,60 C10.3150781,60 10.8398438,59.4753516 10.8398438,58.828125 L10.8398438,40.78125 L19.2353906,40.78125 C21.9466406,40.78125 24.6100781,41.7084375 26.7351562,43.3920703 L31.6326563,47.2720312 C32.2093359,47.7288281 32.4916406,48.4364062 32.3880469,49.1647266 C32.2843359,49.8930469 31.8158203,50.4936328 31.1347266,50.7714844 C30.5068359,51.0276562 29.7943359,50.9566406 29.2292578,50.5812891 L22.9725,46.4260547 C22.4335547,46.0679297 21.7059375,46.2148828 21.3480469,46.7539453 C20.9899219,47.293125 21.1367578,48.0203906 21.6759375,48.3783984 L27.9326953,52.5336328 C28.6637109,53.0191406 29.5093359,53.2672266 30.3612891,53.2672266 C30.9219141,53.2672266 31.4853516,53.1596484 32.0200781,52.9415625 C33.4811719,52.3455469 34.4861719,51.0570703 34.7084766,49.4947266 C34.9306641,47.9323828 34.3250391,46.4146875 33.088125,45.4347656 Z" id="Path"></path>
                <path d="M58.828125,20.390625 L51.5039062,20.390625 L51.5039062,2.34375 L58.828125,2.34375 C59.4752344,2.34375 60,1.81910156 60,1.171875 C60,0.524648438 59.4752344,0 58.828125,0 L50.3320312,0 C49.6849219,0 49.1601562,0.524648438 49.1601562,1.171875 L49.1601562,19.21875 L40.7646094,19.21875 C38.0533594,19.21875 35.3899219,18.2915625 33.2648438,16.6079297 L28.3673437,12.7279688 C27.7906641,12.2711719 27.5083594,11.5635937 27.6119531,10.8352734 C27.7156641,10.1069531 28.1841797,9.50636719 28.8652734,9.22851562 C29.4931641,8.97234375 30.2056641,9.04347656 30.7707422,9.41871094 L37.0275,13.5739453 C37.5664453,13.9320703 38.2941797,13.7851172 38.6519531,13.2460547 C39.0100781,12.706875 38.8632422,11.9796094 38.3240625,11.6216016 L32.0673047,7.46636719 C30.8551172,6.66140625 29.3273438,6.50882813 27.9799219,7.0584375 C26.5188281,7.65445313 25.5138281,8.94292969 25.2915234,10.5052734 C25.0693359,12.0676172 25.6749609,13.5853125 26.911875,14.5652344 L31.809375,18.4451953 C34.3469531,20.4554297 37.5273047,21.5625 40.7646094,21.5625 L49.1601562,21.5625 C49.1601562,22.2097266 49.6849219,22.734375 50.3320312,22.734375 L58.828125,22.734375 C59.4752344,22.734375 60,22.2097266 60,21.5625 C60,20.9152734 59.4752344,20.390625 58.828125,20.390625 Z" id="Path"></path>
                <path d="M45.8283984,1.52460937 C45.6105469,1.30664062 45.3082031,1.18125 45,1.18125 C44.6917969,1.18125 44.3894531,1.30664062 44.1714844,1.52460937 C43.9535156,1.74257812 43.828125,2.04492188 43.828125,2.353125 C43.828125,2.6625 43.9533984,2.96367187 44.1714844,3.1828125 C44.3894531,3.40078125 44.6917969,3.525 45,3.525 C45.3082031,3.525 45.6105469,3.40078125 45.8283984,3.1828125 C46.0463672,2.96367187 46.171875,2.66132812 46.171875,2.353125 C46.171875,2.04492188 46.0464844,1.74257812 45.8283984,1.52460937 Z" id="Path"></path>
                <path d="M39.9609375,1.18183594 L29.3934375,1.18183594 C26.758125,1.18183594 24.1422656,1.84921875 21.8291016,3.11167969 L5.87367188,11.8201172 C4.66582031,12.4794141 3.77636719,13.621875 3.433125,14.9544141 C3.09,16.2870703 3.31722656,17.7169922 4.05632813,18.8777344 C5.00273438,20.3635547 6.60480469,21.1898437 8.2584375,21.1898437 C9.01324219,21.1898437 9.7790625,21.0176953 10.4978906,20.6574609 L22.3666406,14.7098437 C22.9453125,14.4198047 23.1793359,13.7157422 22.8892969,13.1371875 C22.5992578,12.5585156 21.8953125,12.3244922 21.3165234,12.6145312 L9.44777344,18.5621484 C8.23183594,19.1714062 6.76394531,18.7659375 6.03316406,17.6187891 C5.63542969,16.9944141 5.518125,16.2558984 5.7028125,15.5390625 C5.88738281,14.8222266 6.346875,14.2321875 6.9965625,13.8775781 L22.9519922,5.16902344 C24.9219141,4.09382812 27.1491797,3.52558594 29.3934375,3.52558594 L39.9609375,3.52558594 C40.6080469,3.52558594 41.1328125,3.0009375 41.1328125,2.35371094 C41.1328125,1.70648438 40.6080469,1.18183594 39.9609375,1.18183594 Z" id="Path"></path>
                <path d="M56.4227344,14.8707422 C55.9855078,14.3933203 55.2444141,14.3607422 54.7669922,14.7978516 L54.7567969,14.8072266 C54.2796094,15.2443359 54.2469141,15.9855469 54.6840234,16.4628516 C54.9152344,16.7152734 55.2314062,16.8433594 55.5486328,16.8433594 C55.8312891,16.8433594 56.1147656,16.7416406 56.3397656,16.5357422 L56.3499609,16.5263672 C56.8271484,16.0892578 56.8598438,15.3480469 56.4227344,14.8707422 Z" id="Path"></path>
                <path d="M33.2449219,23.1984375 C32.0797266,23.1984375 30.9434766,23.5723828 30.0001172,24.2480859 C29.0566406,23.5723828 27.9205078,23.1984375 26.7553125,23.1984375 C23.6460937,23.1984375 21.1166016,25.7794922 21.1166016,28.9519922 C21.1163672,30.8036719 22.5105469,32.9068359 25.3784766,35.3814844 C27.3493359,37.0819922 29.2914844,38.3165625 29.3731641,38.3682422 C29.5645312,38.4894141 29.7822656,38.55 30,38.55 C30.2177344,38.55 30.4354687,38.4894141 30.6268359,38.3682422 C30.7085156,38.3165625 32.6506641,37.081875 34.6215234,35.3814844 C37.4895703,32.9068359 38.8836328,30.8037891 38.8836328,28.9519922 C38.8836328,25.7794922 36.3541406,23.1984375 33.2449219,23.1984375 Z M29.9997656,35.9782031 C27.0964453,34.0245703 23.4602344,30.8146875 23.4602344,28.9519922 C23.4601172,27.0718359 24.9383203,25.5421875 26.7551953,25.5421875 C27.6639844,25.5421875 28.5105469,25.9171875 29.1387891,26.5982813 C29.3607422,26.83875 29.6729297,26.9755078 30.0001172,26.9755078 C30.3273047,26.9755078 30.6394922,26.83875 30.8614453,26.5982813 C31.4896875,25.9171875 32.33625,25.5421875 33.2450391,25.5421875 C35.0619141,25.5421875 36.54,27.0718359 36.54,28.9519922 C36.54,30.8110547 32.9030859,34.0225781 29.9997656,35.9782031 Z" id="Shape"></path>
            </g>
        </g>
    </g>
</svg>