<?xml version="1.0" encoding="UTF-8"?>
<svg width="50px" height="38px" viewBox="0 0 50 38" version="1.1" xmlns="http://www.w3.org/2000/svg" xmlns:xlink="http://www.w3.org/1999/xlink">
    <!-- Generator: Sketch 54.1 (76490) - https://sketchapp.com -->
    <title>responsive-design-symbol</title>
    <desc>Created with Sketch.</desc>
    <g id="Page-1-Copy" stroke="none" stroke-width="1" fill="none" fill-rule="evenodd">
        <g id="Web-App-Development" transform="translate(-1174.000000, -4930.000000)" fill="#000000" fill-rule="nonzero">
            <g id="responsive-design-symbol" transform="translate(1174.000000, 4930.000000)">
                <path d="M38.3400504,35.4958623 L32.8968514,35.4958623 C32.7003778,35.4958623 32.5399244,35.337259 32.5399244,35.1427738 L32.5399244,33.8320852 C32.5399244,33.6378492 32.3793451,33.4789967 32.1829975,33.4789967 L24.5664987,33.4789967 C24.3700252,33.4789967 24.2094458,33.6378492 24.2094458,33.8320852 L24.2094458,35.1427738 C24.2094458,35.337259 24.0488665,35.4958623 23.8523929,35.4958623 L19.7603275,35.4958623 C19.5638539,35.4958623 19.4032746,35.6547148 19.4032746,35.8489508 L19.4032746,37.3652131 C19.4032746,37.5594492 19.5638539,37.7183016 19.7603275,37.7183016 L38.3397985,37.7183016 C38.5361461,37.7183016 38.6967254,37.5594492 38.6967254,37.3652131 L38.6967254,35.8489508 C38.6969773,35.6550885 38.536398,35.4958623 38.3400504,35.4958623 Z" id="Path"></path>
                <g id="Group">
                    <path d="M47.4851385,0.0458491803 L8.64382872,0.0458491803 C7.29244332,0.0458491803 6.19307305,1.13352131 6.19307305,2.47062295 C6.19307305,2.47062295 6.19307305,7.09403934 6.19307305,8.79494426 C6.19307305,9.63106885 6.13035264,9.74930492 6.69735516,9.74930492 C6.99848866,9.74930492 7.33198992,9.74930492 7.66964736,9.74930492 C8.14546599,9.74930492 8.04785894,9.63106885 8.04785894,8.77937049 C8.04785894,7.08232787 8.04785894,2.47062295 8.04785894,2.47062295 C8.04785894,2.15104918 8.3209068,1.8809377 8.64382872,1.8809377 L47.4851385,1.8809377 C47.8079345,1.8809377 48.0809824,2.15104918 48.0809824,2.47062295 L48.0809824,26.1426295 L20.3895466,26.1426295 C20.3895466,26.1426295 19.413602,26.1408852 19.413602,27.3892787 C19.413602,28.1294689 19.413602,29.6098492 19.413602,30.3502885 C19.413602,31.5969377 20.4211587,31.5969377 20.4211587,31.5969377 L47.4851385,31.5969377 C48.836398,31.5969377 49.9361461,30.5093902 49.9361461,29.1725377 L49.9361461,2.47062295 C49.9361461,1.1336459 48.8366499,0.0458491803 47.4851385,0.0458491803 Z M28.0646096,29.5034492 C27.4544081,29.5034492 26.9599496,29.0143082 26.9599496,28.4110426 C26.9599496,27.807777 27.4544081,27.3183869 28.0646096,27.3183869 C28.6741814,27.3183869 29.1687657,27.807777 29.1687657,28.4110426 C29.1687657,29.0143082 28.6741814,29.5034492 28.0646096,29.5034492 Z" id="Shape"></path>
                    <path d="M15.6328715,11.9149311 L1.58173804,11.9149311 C0.709319899,11.9149311 0,12.6167475 0,13.4797836 L0,36.3261311 C0,37.1890426 0.709319899,37.8911082 1.58173804,37.8911082 L15.6328715,37.8911082 C16.5047859,37.8911082 17.2146096,37.1890426 17.2146096,36.3261311 L17.2146096,13.4797836 C17.2146096,12.6167475 16.5047859,11.9149311 15.6328715,11.9149311 Z M6.87405542,13.5109311 L10.3404282,13.5109311 C10.5057935,13.5109311 10.6401763,13.6434951 10.6401763,13.8075803 C10.6401763,13.9712918 10.5059194,14.1039803 10.3404282,14.1039803 L6.87405542,14.1039803 C6.70843829,14.1039803 6.57443325,13.9712918 6.57443325,13.8075803 C6.57443325,13.6434951 6.70843829,13.5109311 6.87405542,13.5109311 Z M8.58627204,36.7919738 C8.13413098,36.7919738 7.76763224,36.4294164 7.76763224,35.9821377 C7.76763224,35.534859 8.13413098,35.1723016 8.58627204,35.1723016 C9.0384131,35.1723016 9.40491184,35.534859 9.40491184,35.9821377 C9.40491184,36.4294164 9.0384131,36.7919738 8.58627204,36.7919738 Z M15.8555416,34.4118033 C15.8555416,34.6206164 15.6865239,34.7914295 15.4802267,34.7914295 L1.73476071,34.7914295 C1.52833753,34.7914295 1.35944584,34.6206164 1.35944584,34.4118033 L1.35944584,15.427377 C1.35944584,15.2185639 1.52846348,15.0478754 1.73476071,15.0478754 L15.4802267,15.0478754 C15.6866499,15.0478754 15.8555416,15.2186885 15.8555416,15.427377 L15.8555416,34.4118033 Z" id="Shape"></path>
                </g>
            </g>
        </g>
    </g>
</svg>