<?xml version="1.0" encoding="UTF-8"?>
<svg width="55px" height="72px" viewBox="0 0 55 72" version="1.1" xmlns="http://www.w3.org/2000/svg" xmlns:xlink="http://www.w3.org/1999/xlink">
    <!-- Generator: Sketch 55 (78076) - https://sketchapp.com -->
    <title>result</title>
    <desc>Created with Sketch.</desc>
    <g id="Page-1-Copy" stroke="none" stroke-width="1" fill="none" fill-rule="evenodd">
        <g id="Artboard" transform="translate(-2859.000000, -1608.000000)" fill="#000000" fill-rule="nonzero">
            <g id="result" transform="translate(2859.000000, 1608.000000)">
                <path d="M53.8049457,4.7826087 C53.8047962,4.7826087 53.8044973,4.7826087 53.8043478,4.7826087 L38.2608696,4.7826087 L38.2608696,1.19565218 C38.261019,0.53550272 37.7259647,0.000149459366 37.0658152,2.84454299e-09 C37.0656658,2.84454299e-09 37.0653669,2.84454299e-09 37.0652174,2.84454299e-09 L17.9347826,2.84454299e-09 C17.2746332,-0.000149453677 16.7392799,0.534904894 16.7391304,1.19505435 C16.7391304,1.19520381 16.7391304,1.19550272 16.7391304,1.19565218 L16.7391304,4.7826087 L1.19565218,4.7826087 C0.53550272,4.78245924 0.000149459366,5.31751359 2.84454654e-09,5.97766305 C2.84454654e-09,5.9778125 2.84454654e-09,5.97811142 2.84454654e-09,5.97826087 L2.84454654e-09,70.5434783 C-0.000149453677,71.2036277 0.534904894,71.738981 1.19505435,71.7391304 C1.19520381,71.7391304 1.19550272,71.7391304 1.19565218,71.7391304 L53.8043478,71.7391304 C54.4644973,71.7392799 54.9998505,71.2042255 55,70.5440761 C55,70.5439266 55,70.5436277 55,70.5434783 L55,5.97826087 C55.0001495,5.31811142 54.4650951,4.78275816 53.8049457,4.7826087 Z M19.1304348,2.39130435 L35.8695652,2.39130435 L35.8695652,9.56521739 L19.1304348,9.56521739 L19.1304348,2.39130435 Z M52.6086957,69.3478261 L2.39130435,69.3478261 L2.39130435,7.17391304 L16.7391304,7.17391304 L16.7391304,10.7608696 C16.738981,11.421019 17.2740353,11.9563723 17.9341848,11.9565217 C17.9343342,11.9565217 17.9346332,11.9565217 17.9347826,11.9565217 L37.0652174,11.9565217 C37.7253668,11.9566712 38.2607201,11.4216168 38.2608696,10.7614674 C38.2608696,10.7613179 38.2608696,10.761019 38.2608696,10.7608696 L38.2608696,7.17391304 L52.6086957,7.17391304 L52.6086957,69.3478261 Z" id="Shape"></path>
                <rect id="Rectangle" x="4.7826087" y="55" width="26.3043478" height="2.39130435"></rect>
                <rect id="Rectangle" x="33.4782609" y="55" width="16.7391304" height="2.39130435"></rect>
                <rect id="Rectangle" x="4.7826087" y="59.7826087" width="45.4347826" height="2.39130435"></rect>
                <rect id="Rectangle" x="4.7826087" y="64.5652174" width="19.1304348" height="2.39130435"></rect>
                <rect id="Rectangle" x="26.3043478" y="64.5652174" width="23.9130435" height="2.39130435"></rect>
                <path d="M13.1527717,34.673913 C13.1526223,34.673913 13.1523234,34.673913 13.1521739,34.673913 L5.97826087,34.673913 C5.31811142,34.6737636 4.78275816,35.2088179 4.7826087,35.8689674 C4.7826087,35.8691169 4.7826087,35.8694158 4.7826087,35.8695652 L4.7826087,51.4130435 C4.78245924,52.0731929 5.31751359,52.6085462 5.97766305,52.6086957 C5.9778125,52.6086957 5.97811142,52.6086957 5.97826087,52.6086957 L13.1521739,52.6086957 C13.8123234,52.6088451 14.3476766,52.0737908 14.3478261,51.4136413 C14.3478261,51.4134919 14.3478261,51.4131929 14.3478261,51.4130435 L14.3478261,35.8695652 C14.3479755,35.2094158 13.8129212,34.6740625 13.1527717,34.673913 Z M11.9565217,50.2173913 L7.17391304,50.2173913 L7.17391304,37.0652174 L11.9565217,37.0652174 L11.9565217,50.2173913 Z" id="Shape"></path>
                <path d="M25.1092935,29.8913044 C25.109144,29.8913044 25.1088451,29.8913044 25.1086957,29.8913044 L17.9347826,29.8913044 C17.2746332,29.8911549 16.7392799,30.4262092 16.7391304,31.0863587 C16.7391304,31.0865082 16.7391304,31.0868071 16.7391304,31.0869565 L16.7391304,51.4130435 C16.738981,52.0731929 17.2740353,52.6085462 17.9341848,52.6086957 C17.9343342,52.6086957 17.9346332,52.6086957 17.9347826,52.6086957 L25.1086957,52.6086957 C25.7688451,52.6088451 26.3041984,52.0737908 26.3043478,51.4136413 C26.3043478,51.4134919 26.3043478,51.4131929 26.3043478,51.4130435 L26.3043478,31.0869565 C26.3044973,30.4268071 25.7694429,29.8914538 25.1092935,29.8913044 Z M23.9130435,50.2173913 L19.1304348,50.2173913 L19.1304348,32.2826087 L23.9130435,32.2826087 L23.9130435,50.2173913 Z" id="Shape"></path>
                <path d="M37.0658152,25.1086957 C37.0656658,25.1086957 37.0653669,25.1086957 37.0652174,25.1086957 L29.8913044,25.1086957 C29.2311549,25.1085462 28.6958016,25.6436005 28.6956522,26.30375 C28.6956522,26.3038995 28.6956522,26.3041984 28.6956522,26.3043478 L28.6956522,51.4130435 C28.6955027,52.0731929 29.2305571,52.6085462 29.8907065,52.6086957 C29.890856,52.6086957 29.8911549,52.6086957 29.8913044,52.6086957 L37.0652174,52.6086957 C37.7253669,52.6088451 38.2607201,52.0737908 38.2608696,51.4136413 C38.2608696,51.4134919 38.2608696,51.4131929 38.2608696,51.4130435 L38.2608696,26.3043478 C38.261019,25.6441984 37.7259647,25.1088451 37.0658152,25.1086957 Z M35.8695652,50.2173913 L31.0869565,50.2173913 L31.0869565,27.5 L35.8695652,27.5 L35.8695652,50.2173913 Z" id="Shape"></path>
                <path d="M49.022337,20.326087 C49.0221875,20.326087 49.0218886,20.326087 49.0217391,20.326087 L41.8478261,20.326087 C41.1876766,20.3259375 40.6523234,20.8609919 40.6521739,21.5211413 C40.6521739,21.5212908 40.6521739,21.5215897 40.6521739,21.5217391 L40.6521739,51.4130435 C40.6520245,52.0731929 41.1870788,52.6085462 41.8472283,52.6086957 C41.8473777,52.6086957 41.8476766,52.6086957 41.8478261,52.6086957 L49.0217391,52.6086957 C49.6818886,52.6088451 50.2172419,52.0737908 50.2173913,51.4136413 C50.2173913,51.4134919 50.2173913,51.4131929 50.2173913,51.4130435 L50.2173913,21.5217391 C50.2175408,20.8615897 49.6824864,20.3262364 49.022337,20.326087 Z M47.826087,50.2173913 L43.0434783,50.2173913 L43.0434783,22.7173913 L47.826087,22.7173913 L47.826087,50.2173913 Z" id="Shape"></path>
                <path d="M48.7870924,11.979837 L36.8305707,14.3711413 C36.6775272,14.4017799 36.5319565,14.4621603 36.4020788,14.5486957 L25.9423641,21.5217391 L15.5434783,21.5217391 C15.3194429,21.5217391 15.0998913,21.5848098 14.9100815,21.7039266 L5.34486413,27.6821875 L6.61180707,29.7092663 L15.8861821,23.9130435 L26.3043478,23.9130435 C26.5403397,23.912894 26.7711005,23.8430978 26.9676359,23.7121739 L37.5318207,16.6690353 L49.2565353,14.3243614 L48.7870924,11.979837 Z" id="Path"></path>
            </g>
        </g>
    </g>
</svg>