<?xml version="1.0" encoding="UTF-8"?>
<svg width="62px" height="73px" viewBox="0 0 62 73" version="1.1" xmlns="http://www.w3.org/2000/svg" xmlns:xlink="http://www.w3.org/1999/xlink">
    <!-- Generator: Sketch 55 (78076) - https://sketchapp.com -->
    <title>rock solid</title>
    <desc>Created with Sketch.</desc>
    <g id="Page-1-Copy" stroke="none" stroke-width="1" fill="none" fill-rule="evenodd">
        <g id="Artboard" transform="translate(-2759.000000, -1611.000000)" fill="#000000" fill-rule="nonzero">
            <g id="rock-solid" transform="translate(2759.000000, 1611.000000)">
                <path d="M61.9272326,19.8965919 L61.9250107,19.8399333 C61.8933486,19.1405891 61.8722405,18.4006953 61.8594646,17.5774799 C61.8000287,13.5630554 58.6088196,10.2424205 54.5938396,10.0180082 C46.2228175,9.55085285 39.7470793,6.82124427 34.2139836,1.42812862 L34.1667682,1.38313496 C32.3620269,-0.271627688 29.6396395,-0.271627688 27.8343427,1.38313496 L27.7871273,1.42812862 C22.2540317,6.82124427 15.7782934,9.55085285 7.40727139,10.0185636 C3.3928469,10.2424205 0.201082211,13.5630554 0.141646394,17.5780354 C0.129425853,18.3956959 0.107762257,19.1355898 0.0761001651,19.8399333 L0.0727673807,19.9715811 C-0.0899870275,28.5075795 -0.292180404,39.1310566 3.26175459,48.7735629 C5.21591894,54.0761361 8.17549462,58.6854752 12.0577158,62.4743765 C16.4793041,66.7893134 22.2706959,70.2149333 29.2708035,72.6556946 C29.4985486,72.7351277 29.7351814,72.7995627 29.9762578,72.8478892 C30.3162091,72.9156573 30.6583823,72.9495413 31.0005554,72.9495413 C31.3427286,72.9495413 31.6854572,72.9156573 32.024853,72.8478892 C32.2659297,72.7995627 32.5042288,72.7345721 32.7330849,72.6545835 C39.7248603,70.2093786 45.5101418,66.7820921 49.9278419,62.4677107 C53.8083966,58.6776986 56.7679723,54.0672485 58.7238031,48.7635644 C62.2910694,39.0921732 62.0894316,28.4486991 61.9272326,19.8965919 Z M54.7154889,47.285443 C50.9671373,57.4484304 43.3154566,64.4279853 31.3232871,68.6218284 C31.2805153,68.6362708 31.2349663,68.6490467 31.1877508,68.6584899 C31.0638798,68.6829308 30.9377867,68.6829308 30.8122492,68.6579343 C30.7655891,68.6484912 30.7200401,68.6362708 30.677824,68.6218284 C18.6728784,64.4357619 11.0161984,57.4600954 7.27062425,47.2965524 C3.9949828,38.4083823 4.18051183,28.6564471 4.34437711,20.0532361 L4.34548814,20.0054652 C4.37881669,19.2661267 4.40103573,18.4917932 4.41325613,17.6408043 C4.43991897,15.8582819 5.85971542,14.3834935 7.64557053,14.2840633 C12.3826692,14.0196567 16.5442947,13.1042324 20.3681909,11.4855755 C24.1870879,9.86914066 27.5788238,7.59057838 30.7361489,4.5199075 C30.8966816,4.38437138 31.1049849,4.38381594 31.264962,4.5199075 C34.4228425,7.59057838 37.8145786,9.86914066 41.6329201,11.4855755 C45.4568162,13.1042324 49.6184419,14.0196567 54.3560959,14.2840633 C56.141951,14.3834935 57.5617473,15.8582819 57.5878548,17.6413597 C57.6006307,18.4967926 57.6228498,19.271126 57.6561783,20.0054652 C57.8194882,28.6186747 58.0005734,38.3783866 54.7154889,47.285443 Z" id="Shape"></path>
                <path d="M30.9994446,18.4023616 C20.9942123,18.4023616 12.8548238,26.5423058 12.8548238,36.5469824 C12.8548238,46.5522148 20.9942123,54.6921588 30.9994446,54.6921588 C41.0041212,54.6921588 49.1440654,46.5522148 49.1440654,36.5469824 C49.1440654,26.5423058 41.0041212,18.4023616 30.9994446,18.4023616 Z M30.9994446,50.4194381 C23.3499857,50.4194381 17.1269889,44.1964413 17.1269889,36.5469824 C17.1269889,28.8975237 23.3499857,22.6745269 30.9994446,22.6745269 C38.6483479,22.6745269 44.8713446,28.8975237 44.8713446,36.5469824 C44.8713446,44.1964413 38.6483479,50.4194381 30.9994446,50.4194381 Z" id="Shape"></path>
                <path d="M36.2142525,30.9139012 L27.7865719,39.3415818 L25.499122,37.0541321 C24.6647972,36.2198072 23.3122133,36.2198072 22.4778884,37.0541321 C21.6441191,37.8884568 21.6441191,39.2410407 22.4778884,40.07481 L26.2762328,43.8731544 C26.6933952,44.2903169 27.2399836,44.4986202 27.7865719,44.4986202 C28.3331602,44.4986202 28.8797485,44.2903169 29.2969109,43.8731544 L39.2354859,33.9345793 C40.0692553,33.1002544 40.0692553,31.7476705 39.2354859,30.9139012 C38.4011611,30.079021 37.0485772,30.079021 36.2142525,30.9139012 Z" id="Path"></path>
            </g>
        </g>
    </g>
</svg>