<?xml version="1.0" encoding="UTF-8"?>
<svg width="50px" height="50px" viewBox="0 0 50 50" version="1.1" xmlns="http://www.w3.org/2000/svg" xmlns:xlink="http://www.w3.org/1999/xlink">
    <!-- Generator: Sketch 54.1 (76490) - https://sketchapp.com -->
    <title>scalable</title>
    <desc>Created with Sketch.</desc>
    <g id="Page-1-Copy" stroke="none" stroke-width="1" fill="none" fill-rule="evenodd">
        <g id="Web-App-Development" transform="translate(-1521.000000, -4656.000000)" fill="#000000" fill-rule="nonzero">
            <g id="scalable" transform="translate(1521.000000, 4656.000000)">
                <path d="M48.8876086,46.6133373 L9.85976847,46.6133373 C9.5164494,46.6133373 9.19186523,46.4544707 8.98156475,46.1834629 C8.77126427,45.9129224 8.69819772,45.560145 8.78391031,45.2283941 C8.85369832,44.9583208 8.88882638,44.6784353 8.88882638,44.3962134 C8.88882638,42.5627056 7.39330408,41.0712283 5.5553994,41.0712283 C5.27250072,41.0712283 4.99194388,41.1062725 4.72169137,41.1758934 C4.3886765,41.2609337 4.03552158,41.188042 3.76386391,40.9782446 C3.49220624,40.7684472 3.33342698,40.4451069 3.33342698,40.1021419 L3.33342698,3.23901017 L1.72736811,4.30668732 C1.21683909,4.64638158 0.526922182,4.50900861 0.186881775,3.99970096 C-0.153627098,3.48992596 -0.0154563549,2.80212691 0.495072662,2.46243278 L3.82803129,0.245308732 C4.16900851,0.0186901914 4.60740779,-0.00233626794 4.96852518,0.190639952 C5.33011091,0.383616148 5.5553994,0.75882177 5.5553994,1.16766974 L5.5553994,38.8541043 C8.61857386,38.8541043 11.1107988,41.3403671 11.1107988,44.3962134 L46.811301,44.3962134 L45.7410634,42.7939967 C45.4005546,42.284689 45.5387253,41.5964227 46.048786,41.2571957 C46.5597835,40.9175014 47.2492319,41.0548744 47.5897408,41.5646494 L49.8117132,44.8896344 C50.0393435,45.2297959 50.0604204,45.6671464 49.8669814,46.0273998 C49.6740108,46.3881206 49.2974371,46.6133373 48.8876086,46.6133373 L48.8876086,46.6133373 Z" id="Path"></path>
                <path d="M5.5553994,49.9383224 C2.49222494,49.9383224 0,47.4520597 0,44.3962134 C0,41.8660287 1.71378525,39.6587171 4.16760336,39.0288577 C4.6186488,38.9129785 5.08561894,38.8541043 5.5553994,38.8541043 C8.61904221,38.8541043 11.1107988,41.3403671 11.1107988,44.3962134 C11.1107988,44.8648699 11.0522519,45.330723 10.9356265,45.7811566 C10.3042566,48.2286371 8.09212002,49.9383224 5.5553994,49.9383224 Z M5.5553994,41.0712283 C5.27250072,41.0712283 4.99194388,41.1062725 4.72169137,41.1758934 C3.25005624,41.5534353 2.22244077,42.8776353 2.22244077,44.3962134 C2.22244077,46.2297212 3.71749472,47.7216657 5.5553994,47.7216657 C7.07761918,47.7216657 8.40499472,46.6965086 8.78391031,45.2283941 C8.85322998,44.9583208 8.88882638,44.6784353 8.88882638,44.3962134 C8.88882638,42.5627056 7.39377242,41.0712283 5.5553994,41.0712283 L5.5553994,41.0712283 Z" id="Shape"></path>
                <path d="M19.9996253,46.6133373 C19.3860537,46.6133373 18.8886391,46.1166455 18.8886391,45.5045417 L18.8886391,28.8782147 L4.44441319,28.8782147 C3.83084161,28.8782147 3.33342698,28.3819902 3.33342698,27.7698864 C3.33342698,27.1577825 3.83084161,26.661558 4.44441319,26.661558 L19.9996253,26.661558 C20.6131969,26.661558 21.1106115,27.1577825 21.1106115,27.7698864 L21.1106115,45.5045417 C21.1106115,46.1166455 20.6131969,46.6133373 19.9996253,46.6133373 Z" id="Path"></path>
                <path d="M29.9994379,46.6133373 C29.3858663,46.6133373 28.8879833,46.1166455 28.8879833,45.5045417 L28.8879833,18.9027923 L4.44441319,18.9027923 C3.83084161,18.9027923 3.33342698,18.4065677 3.33342698,17.7939967 C3.33342698,17.1818929 3.83084161,16.6856684 4.44441319,16.6856684 L29.9994379,16.6856684 C30.6130096,16.6856684 31.1104242,17.1818929 31.1104242,17.7939967 L31.1104242,45.5045417 C31.1104242,46.1166455 30.6130096,46.6133373 29.9994379,46.6133373 Z" id="Path"></path>
                <path d="M39.9992506,46.6133373 C39.3856789,46.6133373 38.887796,46.1166455 38.887796,45.5045417 L38.887796,8.92690263 L4.44441319,8.92690263 C3.83084161,8.92690263 3.33342698,8.43067811 3.33342698,7.81810706 C3.33342698,7.20600335 3.83084161,6.70977871 4.44441319,6.70977871 L39.9987823,6.70977871 C40.6123538,6.70977871 41.1102368,7.20600335 41.1102368,7.81810706 L41.1102368,45.5045417 C41.1102368,46.1166455 40.6128223,46.6133373 39.9992506,46.6133373 Z" id="Path"></path>
                <path d="M7.77643513,4.49312201 C7.5647295,4.49312201 7.35068201,4.43284617 7.16145827,4.30668732 L3.82803129,2.09003062 C3.31750228,1.75033636 3.17979988,1.0620701 3.51984041,0.55276244 C3.86081763,0.0434546651 4.55026607,-0.0939181818 5.06079508,0.245308732 L8.39422206,2.46243278 C8.9047512,2.80165969 9.04245348,3.48992596 8.70241307,3.99970096 C8.48789712,4.31977045 8.1356789,4.49312201 7.77643513,4.49312201 Z" id="Path"></path>
                <path d="M46.6646995,49.9383224 C46.4525254,49.9383224 46.2384779,49.8780465 46.0492543,49.7518877 C45.5387253,49.4126608 45.4005546,48.7243945 45.7410634,48.2150867 L47.9630359,44.8896344 C48.3035446,44.3803267 48.9934615,44.2429538 49.5039905,44.5821807 C50.0145197,44.921875 50.1526904,45.6101413 49.8121815,46.119449 L47.5902091,49.4449013 C47.3756932,49.7649708 47.0234749,49.9383224 46.6646995,49.9383224 Z" id="Path"></path>
                <polygon id="Path" points="23.3330523 22.2277774 25.5550247 22.2277774 25.5550247 24.4449013 23.3330523 24.4449013"></polygon>
                <polygon id="Path" points="13.3332397 32.203667 15.5552121 32.203667 15.5552121 34.4203237 13.3332397 34.4203237"></polygon>
                <polygon id="Path" points="33.3323966 12.2518877 35.5548374 12.2518877 35.5548374 14.4690117 33.3323966 14.4690117"></polygon>
            </g>
        </g>
    </g>
</svg>