<?xml version="1.0" encoding="UTF-8"?>
<svg width="58px" height="54px" viewBox="0 0 58 54" version="1.1" xmlns="http://www.w3.org/2000/svg" xmlns:xlink="http://www.w3.org/1999/xlink">
    <!-- Generator: Sketch 54.1 (76490) - https://sketchapp.com -->
    <title>Icon/Send</title>
    <desc>Created with Sketch.</desc>
    <g id="Page-1-Copy" stroke="none" stroke-width="1" fill="none" fill-rule="evenodd" opacity="0.697428385">
        <g id="Mobile-App-Development" transform="translate(-308.000000, -2476.000000)" fill="#FFBA5F">
            <g id="Icon/Send" transform="translate(308.000000, 2476.000000)">
                <g id="Icon">
                    <path d="M30.1522723,53.9986115 L29.2258967,53.9986115 C26.6951044,53.6680805 24.6850629,51.7674436 24.2764047,49.3185153 L21.9472319,33.555334 C21.7265238,32.0496612 22.1792693,30.524175 23.1912219,29.3638193 L30.416951,21.0836491 C31.3597992,19.9972037 33.0306591,19.8590487 34.1489209,20.7750713 C35.2671828,21.6910938 35.4093836,23.3144148 34.4665354,24.4008601 L27.2408063,32.6810304 L29.5170433,48.4956412 C29.5656369,48.7153696 29.7622467,48.8745495 29.993465,48.8813634 C30.3177663,48.9407698 30.6398184,48.7681412 30.7610333,48.4699264 L52.5970278,6.0147678 C52.7156071,5.79505048 52.6804438,5.52678562 52.5089686,5.3429551 C52.3374934,5.15912457 52.0661553,5.09880351 51.8294595,5.19189374 L5.77536211,22.1379564 C5.46465372,22.2312595 5.25796946,22.5166121 5.27247254,22.8322564 C5.26731888,23.0805385 5.4455072,23.2969367 5.6959585,23.3465527 L15.3302639,25.5065971 C16.2522298,25.713305 16.9906546,26.3821796 17.2673808,27.2612622 C17.544107,28.1403448 17.3170934,29.0960819 16.6718537,29.7684567 C16.026614,30.4408314 15.0611755,30.7276939 14.1392097,30.5209859 L4.34609702,28.3095119 C1.85623464,27.6653215 0.0934764296,25.514123 0.00536600807,23.0122601 C-0.104464361,20.490616 1.48081162,18.1907644 3.92261107,17.3292861 L49.9767084,0.383223445 C52.256415,-0.469582759 54.8412847,0.130134705 56.4783869,1.89168248 C58.115489,3.65323025 58.4664865,6.21255224 57.3612447,8.3291011 L35.6046539,50.8099745 C34.5731262,52.8063066 32.4509038,54.047415 30.1522723,53.9986115 Z" id="Subscribe"></path>
                </g>
            </g>
        </g>
    </g>
</svg>