<svg className="serviceSvg" width="80px" height="50px" viewBox="0 0 74 75"
     version="1.1" xmlns="http://www.w3.org/2000/svg"
     xmlns:xlink="http://www.w3.org/1999/xlink">
    <title>C6AAE119-2A42-4D31-9DE7-5E70D5696EC8</title>
    <desc>Created with sketchtool.</desc>
    <g id="Page-1" stroke="none" stroke-width="1" fill="none"
       fill-rule="evenodd">
        <g id="Homepage" transform="translate(-437.000000, -1571.000000)">
            <g id="What-We-Do" transform="translate(-2.000000, 1252.000000)">
                <g id="Block-1" transform="translate(429.000000, 288.000000)">
                    <g id="Icon" transform="translate(10.000000, 31.000000)">
                        <g id="Icon/home/service/1">
                            <g id="Icon">
                                <polygon id="Fill-48" fill="#FFFFFF"
                                         points="13.8655462 75 66.8067227 75 66.8067227 0 13.8655462 0"></polygon>
                                <path
                                        d="M18.2773109,71.2184874 L63.0252101,71.2184874 L63.0252101,4.41176471 L18.2773109,4.41176471 L18.2773109,71.2184874 Z M28.0659139,15.5462185 L44.8463761,15.5462185 L28.0659139,15.5462185 Z M47.6431197,15.5462185 L53.2366071,15.5462185 L47.6431197,15.5462185 Z M28.0659139,26.6806723 L44.8463761,26.6806723 L28.0659139,26.6806723 Z M47.6431197,26.6806723 L53.2366071,26.6806723 L47.6431197,26.6806723 Z M28.0659139,37.8151261 L44.8463761,37.8151261 L28.0659139,37.8151261 Z M47.6431197,37.8151261 L53.2366071,37.8151261 L47.6431197,37.8151261 Z M28.0659139,48.9495798 L44.8463761,48.9495798 L28.0659139,48.9495798 Z M47.6431197,48.9495798 L53.2366071,48.9495798 L47.6431197,48.9495798 Z M33.6594013,54.5168067 L28.0659139,54.5168067 L33.6594013,54.5168067 Z"
                                        id="Stroke-49" stroke="#110F10"
                                        stroke-width="2"></path>
                                <polygon id="Fill-50" fill="#F2F7FA"
                                         points="2.5210084 64.9159664 34.0336134 64.9159664 34.0336134 33.4033613 2.5210084 33.4033613"></polygon>
                                <path
                                        d="M6.93277311,44.1176471 C3.11004202,44.1176471 0,41.007605 0,37.1848739 C0,33.3635294 3.11004202,30.2521008 6.93277311,30.2521008 C10.7541176,30.2521008 13.8655462,33.3635294 13.8655462,37.1848739 C13.8655462,41.007605 10.7541176,44.1176471 6.93277311,44.1176471"
                                        id="Fill-51" fill="#F6FAFD"></path>
                                <path
                                        d="M28.9915966,44.1176471 C25.1688655,44.1176471 22.0588235,41.007605 22.0588235,37.1848739 C22.0588235,33.3635294 25.1688655,30.2521008 28.9915966,30.2521008 C32.8129412,30.2521008 35.9243697,33.3635294 35.9243697,37.1848739 C35.9243697,41.007605 32.8129412,44.1176471 28.9915966,44.1176471"
                                        id="Fill-52" fill="#F6FAFD"></path>
                                <path
                                        d="M6.93277311,66.8067227 C3.11004202,66.8067227 0,63.6966807 0,59.8739496 C0,56.052605 3.11004202,52.9411765 6.93277311,52.9411765 C10.7541176,52.9411765 13.8655462,56.052605 13.8655462,59.8739496 C13.8655462,63.6966807 10.7541176,66.8067227 6.93277311,66.8067227"
                                        id="Fill-53" fill="#F6FAFD"></path>
                                <path
                                        d="M28.9915966,66.8067227 C25.1688655,66.8067227 22.0588235,63.6966807 22.0588235,59.8739496 C22.0588235,56.052605 25.1688655,52.9411765 28.9915966,52.9411765 C32.8129412,52.9411765 35.9243697,56.052605 35.9243697,59.8739496 C35.9243697,63.6966807 32.8129412,66.8067227 28.9915966,66.8067227"
                                        id="Fill-54" fill="#F6FAFD"></path>
                                <path
                                        d="M9.95798319,37.4369748 C9.95798319,38.9691176 8.71563025,40.210084 7.18487395,40.210084 C5.65273109,40.210084 4.41176471,38.9691176 4.41176471,37.4369748 C4.41176471,35.9062185 5.65273109,34.6638655 7.18487395,34.6638655 C8.71563025,34.6638655 9.95798319,35.9062185 9.95798319,37.4369748 Z M32.1428571,37.4369748 C32.1428571,38.9691176 30.9005042,40.210084 29.3697479,40.210084 C27.837605,40.210084 26.5966387,38.9691176 26.5966387,37.4369748 C26.5966387,35.9062185 27.837605,34.6638655 29.3697479,34.6638655 C30.9005042,34.6638655 32.1428571,35.9062185 32.1428571,37.4369748 Z M9.95798319,59.6218487 C9.95798319,61.1539916 8.71563025,62.394958 7.18487395,62.394958 C5.65273109,62.394958 4.41176471,61.1539916 4.41176471,59.6218487 C4.41176471,58.0910924 5.65273109,56.8487395 7.18487395,56.8487395 C8.71563025,56.8487395 9.95798319,58.0910924 9.95798319,59.6218487 Z M32.1428571,59.6218487 C32.1428571,61.1539916 30.9005042,62.394958 29.3697479,62.394958 C27.837605,62.394958 26.5966387,61.1539916 26.5966387,59.6218487 C26.5966387,58.0910924 27.837605,56.8487395 29.3697479,56.8487395 C30.9005042,56.8487395 32.1428571,58.0910924 32.1428571,59.6218487 Z"
                                        id="Stroke-55" stroke="#6A6A6A"
                                        stroke-width="2"></path>
                                <path
                                        d="M21.3385354,60.5042017 L22.6890756,60.5042017 L22.6890756,59.2436975 L21.3385354,59.2436975 L21.3385354,60.5042017 Z M17.2869148,60.5042017 L18.637455,60.5042017 L18.637455,59.2436975 L17.2869148,59.2436975 L17.2869148,60.5042017 Z M13.2352941,60.5042017 L14.5858343,60.5042017 L14.5858343,59.2436975 L13.2352941,59.2436975 L13.2352941,60.5042017 Z"
                                        id="Fill-56" fill="#6A6A6A"></path>
                                <path
                                        d="M21.3385354,37.8151261 L22.6890756,37.8151261 L22.6890756,36.5546218 L21.3385354,36.5546218 L21.3385354,37.8151261 Z M17.2869148,37.8151261 L18.637455,37.8151261 L18.637455,36.5546218 L17.2869148,36.5546218 L17.2869148,37.8151261 Z M13.2352941,37.8151261 L14.5858343,37.8151261 L14.5858343,36.5546218 L13.2352941,36.5546218 L13.2352941,37.8151261 Z"
                                        id="Fill-57" fill="#6A6A6A"></path>
                                <path
                                        d="M6.93277311,42.8571429 L6.93277311,54.2016807 M28.9915966,42.8571429 L28.9915966,54.2016807"
                                        id="Stroke-58" stroke="#6A6A6A"
                                        stroke-width="2"></path>
                                <path
                                        d="M24.2016807,55.4621849 L23.1932773,54.4537815 L24.2016807,53.4453782 L25.210084,54.4537815 L24.2016807,55.4621849 Z M21.1764706,52.4369748 L20.1680672,51.4285714 L21.1764706,50.4201681 L22.1848739,51.4285714 L21.1764706,52.4369748 Z"
                                        id="Fill-59" fill="#6A6A6A"></path>
                                <path
                                        d="M11.3445378,55.4621849 L25.210084,41.5966387"
                                        id="Stroke-60" stroke="#6A6A6A"
                                        stroke-width="2"></path>
                                <path
                                        d="M14.7478992,46.6386555 L13.7394958,45.6302521 L14.7478992,44.6218487 L15.7563025,45.6302521 L14.7478992,46.6386555 Z M11.7226891,43.6134454 L10.7142857,42.605042 L11.7226891,41.5966387 L12.7310924,42.605042 L11.7226891,43.6134454 Z"
                                        id="Fill-61" fill="#6A6A6A"></path>
                                <polyline id="Stroke-62" stroke="#110F10"
                                          stroke-width="2"
                                          points="70.2689076 60.3697479 73 60.3697479 73 16 70.2689076 16"></polyline>
                            </g>
                        </g>
                    </g>
                </g>
            </g>
        </g>
    </g>
</svg>
