<?xml version="1.0" encoding="UTF-8"?>
<svg width="42px" height="50px" viewBox="0 0 42 50" version="1.1" xmlns="http://www.w3.org/2000/svg" xmlns:xlink="http://www.w3.org/1999/xlink">
    <!-- Generator: Sketch 54.1 (76490) - https://sketchapp.com -->
    <title>shield</title>
    <desc>Created with Sketch.</desc>
    <g id="Page-1-Copy" stroke="none" stroke-width="1" fill="none" fill-rule="evenodd">
        <g id="Web-App-Development" transform="translate(-783.000000, -4925.000000)" fill="#000000" fill-rule="nonzero">
            <g id="shield" transform="translate(783.000000, 4925.000000)">
                <path d="M41.950706,13.6372289 L41.9492008,13.5983948 C41.9277523,13.1190606 41.9134532,12.6119335 41.9047986,12.0476974 C41.8645356,9.29618967 39.7027487,7.02020897 36.9829236,6.86639561 C31.3122312,6.54620487 26.9254408,4.67531676 23.1772147,0.978846881 L23.1452301,0.948007992 C21.9226634,-0.186175049 20.0784655,-0.186175049 18.8555225,0.948007992 L18.8235378,0.978846881 C15.0753118,4.67531676 10.6885213,6.54620487 5.01782901,6.86677632 C2.29838016,7.02020897 0.136216982,9.29618967 0.0959540092,12.0480781 C0.087675578,12.6085069 0.0730002385,13.1156341 0.0515517248,13.5983948 L0.0492940321,13.6886269 C-0.0609589541,19.5392452 -0.197928661,26.8206324 2.20957569,33.429657 C3.53336444,37.0640686 5.53823829,40.2233339 8.16813004,42.8202669 C11.1633995,45.7777474 15.0866005,48.1256853 19.8286088,49.7985959 C19.9828877,49.8530398 20.1431874,49.8972039 20.3064973,49.9303271 C20.5367868,49.9767757 20.7685815,50 21.0003763,50 C21.232171,50 21.464342,49.9767757 21.6942553,49.9303271 C21.8575652,49.8972039 22.0189937,49.852659 22.1740252,49.7978344 C26.9103892,48.1218781 30.8294509,45.7727979 33.8220865,42.8156981 C36.4508493,40.2180038 38.4557232,37.057977 39.7806408,33.422804 C42.197176,26.7939815 42.0605827,19.4988883 41.950706,13.6372289 Z M37.0653312,32.4096918 C34.5261252,39.3754569 29.3427287,44.1592806 21.2190009,47.0337628 C21.1900265,47.0436617 21.1591708,47.0524183 21.127186,47.0588907 C21.0432734,47.0756427 20.9578555,47.0756427 20.872814,47.0585099 C20.8412055,47.0520376 20.8103498,47.0436617 20.7817517,47.0337628 C12.6493693,44.1646107 7.46258601,39.3834521 4.92526159,32.4173062 C2.70627867,26.3253076 2.83195962,19.6412798 2.94296514,13.7445937 L2.94371777,13.7118513 C2.96629518,13.2051048 2.98134678,12.6743725 2.98962512,12.0911002 C3.00768705,10.86935 3.96948464,9.85852222 5.17925745,9.79037222 C8.38825975,9.60914659 11.2074255,8.98170994 13.7978068,7.87227398 C16.3848015,6.76436101 18.682429,5.20262242 20.8212622,3.09796842 C20.9300101,3.00507125 21.0711188,3.00469055 21.1794904,3.09796842 C23.3186998,5.20262242 25.6163274,6.76436101 28.2029459,7.87227398 C30.7933271,8.98170994 33.6124929,9.60914659 36.8218714,9.79037222 C38.0316443,9.85852222 38.9934418,10.86935 39.0111274,12.0914809 C39.0197821,12.6777991 39.0348337,13.2085313 39.0574111,13.7118513 C39.1680404,19.6153904 39.290711,26.3047484 37.0653312,32.4096918 Z" id="Shape"></path>
                <path d="M20.9996237,12.6130756 C14.2218858,12.6130756 8.70810641,18.1922363 8.70810641,25.0494943 C8.70810641,31.9071333 14.2218858,37.4862939 20.9996237,37.4862939 C27.7769853,37.4862939 33.2911411,31.9071333 33.2911411,25.0494943 C33.2911411,18.1922363 27.7769853,12.6130756 20.9996237,12.6130756 Z M20.9996237,34.5577485 C15.8177322,34.5577485 11.6021538,30.2924738 11.6021538,25.0494943 C11.6021538,19.806515 15.8177322,15.5412403 20.9996237,15.5412403 C26.1811389,15.5412403 30.3967173,19.806515 30.3967173,25.0494943 C30.3967173,30.2924738 26.1811389,34.5577485 20.9996237,34.5577485 Z" id="Shape"></path>
                <path d="M24.5322355,21.1885508 L18.8231616,26.9649275 L17.2735987,25.3970974 C16.708411,24.8252467 15.7921445,24.8252467 15.2269567,25.3970974 C14.6621452,25.968948 14.6621452,26.8960161 15.2269567,27.467486 L17.8000287,30.0708912 C18.0826226,30.3568166 18.4528921,30.4995888 18.8231616,30.4995888 C19.1934311,30.4995888 19.5637006,30.3568166 19.8462945,30.0708912 L26.5788775,23.2589395 C27.1436891,22.6870888 27.1436891,21.7600207 26.5788775,21.1885508 C26.0136898,20.6163195 25.0974233,20.6163195 24.5322355,21.1885508 Z" id="Path"></path>
            </g>
        </g>
    </g>
</svg>