<?xml version="1.0" encoding="UTF-8"?>
<svg width="50px" height="50px" viewBox="0 0 50 50" version="1.1" xmlns="http://www.w3.org/2000/svg" xmlns:xlink="http://www.w3.org/1999/xlink">
    <!-- Generator: sketchtool 54.1 (76490) - https://sketchapp.com -->
    <title>D1C485EF-A9CD-4B07-A7DA-B94A853FA23A</title>
    <desc>Created with sketchtool.</desc>
    <g id="Page-1" stroke="none" stroke-width="1" fill="none" fill-rule="evenodd">
        <g id="Web-App-Development" transform="translate(-364.000000, -4656.000000)" fill="#000000" fill-rule="nonzero">
            <g id="speedometer" transform="translate(364.000000, 4656.000000)">
                <path d="M25,50 C38.7657166,50 50,38.7645722 50,25 C50,11.2342834 38.7645722,0 25,0 C11.2342834,0 0,11.2354278 0,25 C0,38.7657166 11.2354278,50 25,50 Z M10.6582642,41.7610168 C14.2559052,37.7258301 19.5175171,35.3515625 25,35.3515625 C30.4824829,35.3515625 35.7440948,37.7258301 39.3417358,41.7610168 C35.4816437,45.0687408 30.4702759,47.0703125 25,47.0703125 C19.5297241,47.0703125 14.5183563,45.0687408 10.6582642,41.7610168 Z M8.85581973,23.5351562 C9.15946963,20.1637268 10.4988098,17.0864105 12.5537872,14.6255493 L14.5442963,16.6160584 L16.6160584,14.5442963 L14.6255493,12.5537872 C17.0864105,10.4988098 20.1637268,9.15946963 23.5351562,8.85581973 L23.5351562,11.71875 L26.4648437,11.71875 L26.4648437,8.85581973 C29.8362732,9.15946963 32.9135895,10.4988098 35.3744507,12.5537872 L33.3839416,14.5442963 L35.4557037,16.6160584 L37.4462128,14.6255493 C39.5008087,17.0864105 40.8405304,20.1637268 41.1441803,23.5351562 L38.28125,23.5351562 L38.28125,26.4636993 L41.1434174,26.4636993 C40.8245087,29.9930572 39.3627167,33.342743 36.9991303,35.9451294 C33.3488465,33.5952759 29.146576,32.421875 25,32.421875 C20.8621979,32.421875 16.658783,33.5903168 13.0008697,35.9451294 C10.6372833,33.342743 9.17549131,29.9938202 8.85658262,26.4648438 L11.71875,26.4648438 L11.71875,23.5351562 L8.85581973,23.5351562 Z M25,2.9296875 C37.1696473,2.9296875 47.0703125,12.8303527 47.0703125,25 C47.0703125,30.6461334 44.9382782,35.8028412 41.437912,39.7102355 C40.7928467,38.9957428 40.0978088,38.3235932 39.3611908,37.6976014 C42.414856,34.2277527 44.140625,29.6875 44.140625,25 C44.140625,14.4886017 35.5125428,5.859375 25,5.859375 C14.4886017,5.859375 5.859375,14.4874572 5.859375,25 C5.859375,29.6875 7.58514404,34.2277527 10.6388092,37.6976014 C9.90219121,38.3235932 9.20715332,38.9957428 8.56208799,39.7102355 C5.06172178,35.8028412 2.9296875,30.6461334 2.9296875,25 C2.9296875,12.8303527 12.8303527,2.9296875 25,2.9296875 Z" id="Shape"></path>
                <polygon id="Path" points="20.6054688 38.28125 29.3945312 38.28125 29.3945312 41.2109375 20.6054688 41.2109375"></polygon>
                <path d="M21.2459564,27.2850037 C22.0508575,28.6060333 23.4542847,29.3945312 25,29.3945312 C27.4230957,29.3945312 29.3945312,27.4230957 29.3945312,25 C29.3945312,23.4542847 28.6060333,22.0508575 27.2850037,21.2459564 L27.2094727,21.1997986 L16.1899566,16.1903381 L21.1997986,27.2094727 L21.2459564,27.2850037 Z M25.8224487,23.7873077 C26.2260437,24.061203 26.4648437,24.5090484 26.4648437,25 C26.4648437,25.8075714 25.8075714,26.4648438 25,26.4648438 C24.5090484,26.4648438 24.061203,26.2260437 23.7873077,25.8224487 L22.0912934,22.0909119 L25.8224487,23.7873077 Z" id="Shape"></path>
            </g>
        </g>
    </g>
</svg>