<?xml version="1.0" encoding="UTF-8"?>
<svg width="56px" height="54px" viewBox="0 0 56 54" version="1.1" xmlns="http://www.w3.org/2000/svg" xmlns:xlink="http://www.w3.org/1999/xlink">
    <!-- Generator: Sketch 54.1 (76490) - https://sketchapp.com -->
    <title>support</title>
    <desc>Created with Sketch.</desc>
    <g id="Page-1-Copy" stroke="none" stroke-width="1" fill="none" fill-rule="evenodd">
        <g id="Web-App-Development" transform="translate(-306.000000, -2907.000000)" fill="#AC74EE" fill-rule="nonzero">
            <g id="support" transform="translate(306.000000, 2907.000000)">
                <path d="M35.9811253,37.2838203 L35.9811253,36.3094468 C36.2564917,36.0870355 36.5212671,35.8434421 36.7754515,35.5892577 C38.8106478,33.348331 40.0921608,30.5259574 40.4399433,27.5189031 C42.2690118,27.240227 43.9176359,26.2600284 45.0364444,24.7864208 C46.5721418,22.6152624 46.7098251,19.4909125 45.4283121,15.5722364 C45.3529835,15.3462506 45.2037825,15.1521702 45.0046714,15.0215035 L44.4221655,14.6296359 C44.5080851,11.0938251 43.2861466,7.65068558 40.9906761,4.96003783 C38.1416927,1.75095981 33.7676028,0.130534279 27.9743168,0.109352246 C22.1916217,0.109352246 17.8069409,1.75095981 14.9579574,4.91767376 C12.662487,7.60832151 11.4405485,11.051461 11.5264681,14.5872719 L10.9439622,14.9791395 C10.7448511,15.1098061 10.5956501,15.3038865 10.5203215,15.5298723 C9.23880851,19.4697305 9.37649173,22.5728983 10.9121891,24.7440567 C12.0267612,26.2279905 13.6753853,27.2194421 15.5086903,27.5083121 C15.8579291,30.5201324 17.1434137,33.3464775 19.183773,35.5892577 C19.4359716,35.8429125 19.7010118,36.0833286 19.9780993,36.3094468 L19.9780993,37.2838203 C15.92174,38.0675556 -0.27192435,41.8697305 0.00344208038,52.6725674 C0.00344208038,53.2574563 0.477654846,53.731669 1.06254374,53.731669 L54.8966809,53.731669 C55.4815697,53.731669 55.9557825,53.2574563 55.9557825,52.6725674 C56.2311489,41.8697305 40.0374846,38.0675556 35.9811253,37.2838203 Z M14.8732293,25.1465154 C13.9732577,24.8442742 13.1888605,24.2709031 12.6279338,23.5049078 L12.6808889,23.5154988 C11.6217872,21.9692104 11.5264681,19.6285957 12.4690686,16.5360189 L13.2422128,16.0170591 C13.5674894,15.7999433 13.7466099,15.4213144 13.7082175,15.0320946 C13.5300236,11.8667045 14.5596028,8.75148936 16.588974,6.31568794 C18.9825437,3.60438771 22.8270827,2.24873759 27.9743168,2.22755556 C33.1215508,2.20637352 36.9660898,3.60438771 39.4020236,6.31568794 C41.4313948,8.75148936 42.460974,11.8667045 42.2827801,15.0320946 C42.2443877,15.4213144 42.4235083,15.7999433 42.7487849,16.0170591 L43.5219291,16.5360189 C44.4645296,19.6180047 44.4009835,21.9692104 43.3101087,23.5154988 C42.7453428,24.282156 41.9575035,24.8555272 41.0542222,25.1571064 C42.3317636,23.7034894 42.9559716,21.7888983 42.7805579,19.8615981 C42.5821087,18.7020142 41.9776265,17.6509882 41.0754043,16.8961135 C40.6199905,6.30509693 33.1956879,5.11890307 29.9972009,5.11890307 C29.3201702,5.11691726 28.6439338,5.16656265 27.9743168,5.2671773 C27.3048322,5.16643026 26.6284634,5.11691726 25.9514326,5.11890307 C22.7741277,5.11890307 15.3604161,6.28391489 14.8732293,16.8961135 C13.965182,17.6448983 13.3532861,18.6923499 13.1468936,19.8510071 C12.9702884,21.7784397 13.5946288,23.6935603 14.8732293,25.1465154 Z M38.967792,16.4618818 C34.523669,16.7187139 30.1073475,15.6099669 26.3115272,13.2845768 C25.8819291,12.9828652 25.2961135,13.041513 24.934695,13.42226 C22.8164917,15.6993286 18.9507707,16.2288794 17.0867518,16.3453806 C17.6586667,8.85753191 22.1916217,7.22651537 26.0043877,7.22651537 C26.611253,7.22214657 27.2173239,7.27179196 27.8154515,7.3747896 C27.955253,7.40338534 28.0992908,7.40338534 28.2390922,7.3747896 C28.8372199,7.27205674 29.4432908,7.22241135 30.050156,7.22651537 C33.8311489,7.22651537 38.3852861,8.89989598 38.9148369,16.4512908 L38.967792,16.4618818 Z M17.4574374,25.3477447 L17.4998014,25.3583357 C17.502052,25.0972671 17.407792,24.844539 17.235026,24.6487376 C15.7840567,22.985948 15.1168227,21.4714326 15.29687,20.2216927 C15.3831868,19.5255981 15.7269976,18.8870922 16.2606525,18.4318109 C17.6586667,18.4318109 22.6152624,18.1670355 25.7925674,15.4239622 C29.3708747,17.4811348 33.4211442,18.5758487 37.5485957,18.6012671 C38.2581939,18.6012671 38.978383,18.6012671 39.7303452,18.484766 C40.2494374,18.928 40.5884823,19.545721 40.6835366,20.2216927 C40.8635839,21.4502506 40.1963499,22.985948 38.7453806,24.6487376 C38.5726147,24.844539 38.4783546,25.0972671 38.4806052,25.3583357 C38.4806052,25.3583357 38.4806052,25.570156 38.4806052,25.9090686 L32.3166336,29.2134657 C31.0933712,28.0553381 29.1627612,28.1081608 28.0046336,29.3314232 C26.8465059,30.5546856 26.8993286,32.4852955 28.122591,33.6434232 C29.3458534,34.8015508 31.2764634,34.7487281 32.434591,33.5254657 C32.9712908,32.9585816 33.2702222,32.2075461 33.2698251,31.4269882 C33.274591,31.331669 33.274591,31.2363499 33.2698251,31.1410307 L38.1311017,28.5356407 C37.7138156,30.6240567 36.7321608,32.5581087 35.2927092,34.1276974 C33.4151868,35.9353191 30.87374,36.8859953 28.2708652,36.7542695 L27.7413144,36.7542695 C25.144,36.8832151 22.6081135,35.9371726 20.7300615,34.1382884 C17.3833002,30.8021182 17.4574374,25.4006998 17.4574374,25.3477447 Z M31.1516217,31.4269882 C31.1516217,31.9475366 30.7295697,32.3695887 30.2090213,32.3695887 C29.6884728,32.3695887 29.2664208,31.9475366 29.2664208,31.4269882 C29.2664208,30.9064397 29.6884728,30.4843877 30.2090213,30.4843877 C30.7295697,30.4843877 31.1516217,30.9064397 31.1516217,31.4269882 Z M26.9152151,51.5499196 L2.15341844,51.5499196 C2.99010875,43.5960662 15.92174,40.270487 19.9675083,39.4126147 L19.9675083,41.3084066 C19.9675083,43.7125674 22.8906288,45.5448132 26.9152151,45.8519527 L26.9152151,51.5499196 Z M22.0857116,41.3084066 L22.0857116,41.2766336 L22.0857116,37.6545059 C23.8462033,38.4709409 25.7692671,38.8765768 27.7095414,38.8406998 L28.2390922,38.8406998 C30.1793664,38.8765768 32.1024303,38.4709409 33.862922,37.6545059 L33.862922,41.3084066 C33.862922,42.3145532 31.5646714,43.7655225 27.9743168,43.7655225 C24.3839622,43.7655225 22.0857116,42.3145532 22.0857116,41.3084066 Z M29.0334184,51.5816927 L29.0334184,45.8413617 C33.0580047,45.5659953 35.9811253,43.7231584 35.9811253,41.2978156 L35.9811253,39.4443877 C40.0586667,40.291669 52.9267518,43.6172482 53.7952151,51.5816927 L29.0334184,51.5816927 Z" id="Shape"></path>
            </g>
        </g>
    </g>
</svg>