<?xml version="1.0" encoding="UTF-8"?>
<svg width="80px" height="50px" viewBox="0 0 125 107" version="1.1" xmlns="http://www.w3.org/2000/svg" xmlns:xlink="http://www.w3.org/1999/xlink">
    <!-- Generator: Sketch 54.1 (76490) - https://sketchapp.com -->
    <title>Icon </title>
    <desc>Created with Sketch.</desc>
    <defs>
        <linearGradient x1="65.1789125%" y1="11.8172226%" x2="50%" y2="88.1827774%" id="linearGradient-1">
            <stop stop-color="#F5F5F5" offset="0%"></stop>
            <stop stop-color="#FFFFFF" offset="100%"></stop>
        </linearGradient>
    </defs>
    <g id="Page-1-Copy" stroke="none" stroke-width="1" fill="none" fill-rule="evenodd">
        <g id="Homepage" transform="translate(-1254.000000, -1540.000000)">
            <g id="What-We-Do" transform="translate(-2.000000, 1252.000000)">
                <g id="Block-3" transform="translate(1229.000000, 288.000000)">
                    <g id="Icon-">
                        <g id="iconBg1/light" transform="translate(41.000000, 0.000000)" fill="url(#linearGradient-1)">
                            <path d="M19.4845389,96.5236074 C-1.54639197,60.5559646 -5.55228357,39.4083227 7.46686411,33.0806819 C26.9955856,23.5892206 80.0736492,-36.3568508 106.111945,33.0806819 C123.470808,79.3723703 94.5950062,100.520012 19.4845389,96.5236074 Z" id="Path-6"></path>
                        </g>
                        <g id="Icon/home/services/3" transform="translate(0.000000, 40.000000)">
                            <g id="Icon">
                                <path d="M85.8571429,13.266528 L99,13.266528 L85.8571429,0.066528 L85.8571429,13.266528 Z M85.8571429,13.266528 L85.8571429,0 L53,0 L53,66 L99,66 L99,13.266528 L85.8571429,13.266528 Z" id="Stroke-33" stroke="#110F10" stroke-width="2" stroke-linecap="round" stroke-linejoin="round"></path>
                                <path d="M63,33 L90,33" id="Stroke-34" stroke="#0F0D0E" stroke-width="2" stroke-linecap="round" stroke-linejoin="round" stroke-dasharray="3,6,16"></path>
                                <path d="M63,39.962963 L90,39.962963 M63,27 L79.875,27" id="Stroke-35" stroke="#6A6A6A" stroke-width="2" stroke-linecap="round" stroke-linejoin="round"></path>
                                <path d="M90,47 L63,47" id="Stroke-36" stroke="#110F10" stroke-width="2" stroke-linecap="round" stroke-linejoin="round" stroke-dasharray="3,6,16"></path>
                                <path d="M126,13.2 L113,13.2 L113,62.832 C113,64.581792 114.39672,66 116.12,66 L122.88,66 C124.60328,66 126,64.581792 126,62.832 L126,13.2 Z M126,13.2 L113,13.2 L119.5,0 L126,13.2 Z M119.5,52.8 L119.5,13.266528 L119.5,52.8 Z M119.5,0 L116.21776,6.666528 L122.78224,6.666528 L119.5,0 Z M126,52.8 L113,52.8 L113,62.832 C113,64.581792 114.39672,66 116.12,66 L122.88,66 C124.60328,66 126,64.581792 126,62.832 L126,52.8 Z" id="Stroke-37" stroke="#110F10" stroke-width="2" stroke-linecap="round" stroke-linejoin="round"></path>
                                <path d="M34,59.5 C34,61.43312 32.43312,63 30.5,63 C28.56688,63 27,61.43312 27,59.5 C27,57.56688 28.56688,56 30.5,56 C32.43312,56 34,57.56688 34,59.5 Z" id="Fill-40" fill="#FFFFFF"></path>
                                <path d="M34,6.5 C34,8.43312 32.43312,10 30.5,10 C28.56688,10 27,8.43312 27,6.5 C27,4.56688 28.56688,3 30.5,3 C32.43312,3 34,4.56688 34,6.5 Z" id="Fill-42" fill="#FFFFFF"></path>
                            </g>
                        </g>
                    </g>
                </g>
            </g>
        </g>
    </g>
</svg>