<?xml version="1.0" encoding="UTF-8"?>
<svg width="60px" height="60px" viewBox="0 0 60 60" version="1.1" xmlns="http://www.w3.org/2000/svg" xmlns:xlink="http://www.w3.org/1999/xlink">
    <!-- Generator: Sketch 55 (78076) - https://sketchapp.com -->
    <title>technology</title>
    <desc>Created with Sketch.</desc>
    <g id="Page-1-Copy" stroke="none" stroke-width="1" fill="none" fill-rule="evenodd">
        <g id="Artboard" transform="translate(-2669.000000, -1617.000000)" fill="#000000" fill-rule="nonzero">
            <g id="technology" transform="translate(2669.000000, 1617.000000)">
                <path d="M32.8710938,23.90625 C32.8710938,24.3914795 33.2647705,24.7851562 33.75,24.7851562 L35.2148438,24.7851562 L35.2148438,35.2148438 L24.7851562,35.2148438 L24.7851562,24.7851562 L30,24.7851562 C30.4852295,24.7851562 30.8789062,24.3914795 30.8789062,23.90625 C30.8789062,23.4210205 30.4852295,23.0273438 30,23.0273438 L24.375,23.0273438 C23.6320495,23.0273438 23.0273438,23.6320495 23.0273438,24.375 L23.0273438,35.625 C23.0273438,36.3679505 23.6320495,36.9726562 24.375,36.9726562 L35.625,36.9726562 C36.3679505,36.9726562 36.9726562,36.3679505 36.9726562,35.625 L36.9726562,24.375 C36.9726562,23.6320495 36.3679505,23.0273438 35.625,23.0273438 L33.75,23.0273438 C33.2647705,23.0273438 32.8710938,23.4210205 32.8710938,23.90625 Z" id="Path"></path>
                <path d="M4.86328125,3.515625 C4.12033078,3.515625 3.515625,4.12033078 3.515625,4.86328125 L3.515625,10.9570312 C3.515625,11.6999817 4.12033078,12.3046875 4.86328125,12.3046875 L10.9570312,12.3046875 C11.6999817,12.3046875 12.3046875,11.6999817 12.3046875,10.9570312 L12.3046875,4.86328125 C12.3046875,4.12033078 11.6999817,3.515625 10.9570312,3.515625 L4.86328125,3.515625 Z M10.546875,10.546875 L5.2734375,10.546875 L5.2734375,5.2734375 L10.546875,5.2734375 L10.546875,10.546875 Z" id="Shape"></path>
                <path d="M10.9570312,47.6953125 L4.86328125,47.6953125 C4.12033078,47.6953125 3.515625,48.3000183 3.515625,49.0429688 L3.515625,55.1367188 C3.515625,55.8796692 4.12033078,56.484375 4.86328125,56.484375 L10.9570312,56.484375 C11.6999817,56.484375 12.3046875,55.8796692 12.3046875,55.1367188 L12.3046875,49.0429688 C12.3046875,48.3000183 11.6999817,47.6953125 10.9570312,47.6953125 Z M10.546875,54.7265625 L5.2734375,54.7265625 L5.2734375,49.453125 L10.546875,49.453125 L10.546875,54.7265625 Z" id="Shape"></path>
                <path d="M46.4648438,15.8203125 L57.7148438,15.8203125 C58.9750671,15.8203125 60,14.7953796 60,13.5351562 L60,2.28515625 C60,1.02493289 58.9750671,0 57.7148438,0 L46.4648438,0 C45.2046204,0 44.1796875,1.02493289 44.1796875,2.28515625 L44.1796875,7.03125 L33.6328125,7.03125 C33.147583,7.03125 32.7539062,7.42492676 32.7539062,7.91015625 L32.7539062,19.5117188 L27.9492188,19.5117188 L27.9492188,16.0794068 C28.9723206,15.7164001 29.7070312,14.7395325 29.7070312,13.59375 C29.7070312,12.1398926 28.5241699,10.9570312 27.0703125,10.9570312 C25.6164551,10.9570312 24.4335938,12.1398926 24.4335938,13.59375 C24.4335938,14.7395325 25.1683044,15.7164001 26.1914062,16.0794068 L26.1914062,19.5117188 L22.2647095,19.5117188 C20.7467651,19.5117188 19.5117188,20.7467651 19.5117188,22.2647095 L19.5117188,27.3632812 L8.7890625,27.3632812 L8.7890625,15.8203125 L13.5351562,15.8203125 C14.7953796,15.8203125 15.8203125,14.7953796 15.8203125,13.5351562 L15.8203125,11.25 C15.8203125,10.7647705 15.4266357,10.3710938 14.9414062,10.3710938 C14.4561768,10.3710938 14.0625,10.7647705 14.0625,11.25 L14.0625,13.5351562 C14.0625,13.8258362 13.8258362,14.0625 13.5351562,14.0625 L2.28515625,14.0625 C1.99447629,14.0625 1.7578125,13.8258362 1.7578125,13.5351562 L1.7578125,2.28515625 C1.7578125,1.99447629 1.99447629,1.7578125 2.28515625,1.7578125 L13.5351562,1.7578125 C13.8258362,1.7578125 14.0625,1.99447629 14.0625,2.28515625 L14.0625,7.5 C14.0625,7.98522949 14.4561768,8.37890625 14.9414062,8.37890625 C15.4266357,8.37890625 15.8203125,7.98522949 15.8203125,7.5 L15.8203125,2.28515625 C15.8203125,1.02493289 14.7953796,0 13.5351562,0 L2.28515625,0 C1.02493289,0 0,1.02493289 0,2.28515625 L0,13.5351562 C0,14.7953796 1.02493289,15.8203125 2.28515625,15.8203125 L7.03125,15.8203125 L7.03125,28.2421875 C7.03125,28.727417 7.42492676,29.1210938 7.91015625,29.1210938 L19.5117188,29.1210938 L19.5117188,32.8710938 L18.3059693,32.8710938 C17.9429626,31.8479919 16.966095,31.1132812 15.8203125,31.1132812 C14.3664551,31.1132812 13.1835938,32.2961426 13.1835938,33.75 C13.1835938,35.2038574 14.3664551,36.3867188 15.8203125,36.3867188 C16.966095,36.3867188 17.9429626,35.6520081 18.3059693,34.6289062 L19.5117188,34.6289062 L19.5117188,37.7352905 C19.5117188,39.2532349 20.7467651,40.4882812 22.2647095,40.4882812 L26.1914062,40.4882812 L26.1914062,50.9280396 L15.8203125,50.9280396 L15.8203125,46.4648438 C15.8203125,45.2046204 14.7953796,44.1796875 13.5351562,44.1796875 L2.28515625,44.1796875 C1.02493289,44.1796875 0,45.2046204 0,46.4648438 L0,57.7148438 C0,58.9750671 1.02493289,60 2.28515625,60 L13.5351562,60 C14.7953796,60 15.8203125,58.9750671 15.8203125,57.7148438 L15.8203125,52.6858521 L27.0703125,52.6858521 C27.555542,52.6858521 27.9492188,52.2921752 27.9492188,51.8069459 L27.9492188,40.4882812 L32.7539062,40.4882812 L32.7539062,44.3893432 C31.7308044,44.7523499 30.9960938,45.7292175 30.9960938,46.875 C30.9960938,48.3288574 32.1789551,49.5117188 33.6328125,49.5117188 C35.0866699,49.5117188 36.2695312,48.3288574 36.2695312,46.875 C36.2695312,45.7292175 35.5348206,44.7523499 34.5117188,44.3893432 L34.5117188,40.4882812 L37.7352905,40.4882812 C39.2532349,40.4882812 40.4882812,39.2532349 40.4882812,37.7352905 L40.4882812,31.7518616 L51.2123108,31.7518616 L51.2123108,44.1796875 L46.4648438,44.1796875 C45.2046204,44.1796875 44.1796875,45.2046204 44.1796875,46.4648438 L44.1796875,48.75 C44.1796875,49.2352295 44.5733643,49.6289062 45.0585938,49.6289062 C45.5438232,49.6289062 45.9375,49.2352295 45.9375,48.75 L45.9375,46.4648438 C45.9375,46.1741638 46.1741638,45.9375 46.4648438,45.9375 L57.7148438,45.9375 C58.0055237,45.9375 58.2421875,46.1741638 58.2421875,46.4648438 L58.2421875,57.7148438 C58.2421875,58.0055237 58.0055237,58.2421875 57.7148438,58.2421875 L46.4648438,58.2421875 C46.1741638,58.2421875 45.9375,58.0055237 45.9375,57.7148438 L45.9375,52.4853516 C45.9375,52.0001221 45.5438232,51.6064453 45.0585938,51.6064453 C44.5733643,51.6064453 44.1796875,52.0001221 44.1796875,52.4853516 L44.1796875,57.7148438 C44.1796875,58.9750671 45.2046204,60 46.4648438,60 L57.7148438,60 C58.9750671,60 60,58.9750671 60,57.7148438 L60,46.4648438 C60,45.2046204 58.9750671,44.1796875 57.7148438,44.1796875 L52.9701233,44.1796875 L52.9701233,30.8729554 C52.9701233,30.3877259 52.5764466,29.9940491 52.0912171,29.9940491 L40.4882812,29.9940491 L40.4882812,27.0117188 L44.6763611,27.0117188 C45.0393677,28.0348206 46.0162354,28.7695312 47.1620179,28.7695312 C48.6158753,28.7695312 49.7987366,27.5866699 49.7987366,26.1328125 C49.7987366,24.6789551 48.6158753,23.4960938 47.1620179,23.4960938 C46.0162354,23.4960938 45.0393677,24.2308044 44.6763611,25.2539062 L40.4882812,25.2539062 L40.4882812,22.2647095 C40.4882812,20.7467651 39.2532349,19.5117188 37.7352905,19.5117188 L34.5117188,19.5117188 L34.5117188,8.7890625 L44.1796875,8.7890625 L44.1796875,13.5351562 C44.1796875,14.7953796 45.2046204,15.8203125 46.4648438,15.8203125 Z M27.0703125,12.7148438 C27.5550843,12.7148438 27.9492188,13.1089782 27.9492188,13.59375 C27.9492188,14.0785218 27.5550843,14.4726562 27.0703125,14.4726562 C26.5855407,14.4726562 26.1914062,14.0785218 26.1914062,13.59375 C26.1914062,13.1089782 26.5855407,12.7148438 27.0703125,12.7148438 Z M15.8203125,34.6289062 C15.3355407,34.6289062 14.9414062,34.2347718 14.9414062,33.75 C14.9414062,33.2652282 15.3355407,32.8710938 15.8203125,32.8710938 C16.3050843,32.8710938 16.6992188,33.2652282 16.6992188,33.75 C16.6992188,34.2347718 16.3050843,34.6289062 15.8203125,34.6289062 Z M14.0625,57.7148438 C14.0625,58.0055237 13.8258362,58.2421875 13.5351562,58.2421875 L2.28515625,58.2421875 C1.99447629,58.2421875 1.7578125,58.0055237 1.7578125,57.7148438 L1.7578125,46.4648438 C1.7578125,46.1741638 1.99447629,45.9375 2.28515625,45.9375 L13.5351562,45.9375 C13.8258362,45.9375 14.0625,46.1741638 14.0625,46.4648438 L14.0625,57.7148438 Z M33.6328125,47.7539062 C33.1480407,47.7539062 32.7539062,47.3597718 32.7539062,46.875 C32.7539062,46.3902282 33.1480407,45.9960938 33.6328125,45.9960938 C34.1175843,45.9960938 34.5117188,46.3902282 34.5117188,46.875 C34.5117188,47.3597718 34.1175843,47.7539062 33.6328125,47.7539062 Z M47.1620179,25.2539062 C47.6467896,25.2539062 48.0409241,25.6480407 48.0409241,26.1328125 C48.0409241,26.6175843 47.6467896,27.0117188 47.1620179,27.0117188 C46.6772461,27.0117188 46.2831116,26.6175843 46.2831116,26.1328125 C46.2831116,25.6480407 46.6772461,25.2539062 47.1620179,25.2539062 Z M38.7304688,22.2647095 L38.7304688,37.7352905 C38.7304688,38.2841491 38.2841491,38.7304688 37.7352905,38.7304688 L22.2647095,38.7304688 C21.7158509,38.7304688 21.2695312,38.2841491 21.2695312,37.7352905 L21.2695312,22.2647095 C21.2695312,21.7158509 21.7158509,21.2695312 22.2647095,21.2695312 L37.7352905,21.2695312 C38.2841491,21.2695312 38.7304688,21.7158509 38.7304688,22.2647095 Z M46.4648438,1.7578125 L57.7148438,1.7578125 C58.0055237,1.7578125 58.2421875,1.99447629 58.2421875,2.28515625 L58.2421875,13.5351562 C58.2421875,13.8258362 58.0055237,14.0625 57.7148438,14.0625 L46.4648438,14.0625 C46.1741638,14.0625 45.9375,13.8258362 45.9375,13.5351562 L45.9375,7.93304438 C45.9379577,7.92526242 45.9388733,7.9179382 45.9388733,7.91015625 C45.9388733,7.9023743 45.9379577,7.89505008 45.9375,7.88726812 L45.9375,2.28515625 C45.9375,1.99447629 46.1741638,1.7578125 46.4648438,1.7578125 Z" id="Shape"></path>
                <path d="M49.0429688,12.3046875 L55.1367188,12.3046875 C55.8796692,12.3046875 56.484375,11.6999817 56.484375,10.9570312 L56.484375,4.86328125 C56.484375,4.12033078 55.8796692,3.515625 55.1367188,3.515625 L49.0429688,3.515625 C48.3000183,3.515625 47.6953125,4.12033078 47.6953125,4.86328125 L47.6953125,10.9570312 C47.6953125,11.6999817 48.3000183,12.3046875 49.0429688,12.3046875 Z M49.453125,5.2734375 L54.7265625,5.2734375 L54.7265625,10.546875 L49.453125,10.546875 L49.453125,5.2734375 Z" id="Shape"></path>
                <path d="M55.1367188,56.484375 C55.8796692,56.484375 56.484375,55.8796692 56.484375,55.1367188 L56.484375,49.0429688 C56.484375,48.3000183 55.8796692,47.6953125 55.1367188,47.6953125 L49.0429688,47.6953125 C48.3000183,47.6953125 47.6953125,48.3000183 47.6953125,49.0429688 L47.6953125,55.1367188 C47.6953125,55.8796692 48.3000183,56.484375 49.0429688,56.484375 L55.1367188,56.484375 Z M49.453125,49.453125 L54.7265625,49.453125 L54.7265625,54.7265625 L49.453125,54.7265625 L49.453125,49.453125 Z" id="Shape"></path>
            </g>
        </g>
    </g>
</svg>