<?xml version="1.0" encoding="UTF-8"?>
<svg width="776px" height="770px" viewBox="0 0 776 770" version="1.1" xmlns="http://www.w3.org/2000/svg" xmlns:xlink="http://www.w3.org/1999/xlink">
    <!-- Generator: Sketch 55 (78076) - https://sketchapp.com -->
    <title>Bg</title>
    <desc>Created with Sketch.</desc>
    <g id="Page-1-Copy" stroke="none" stroke-width="1" fill="none" fill-rule="evenodd">
        <g id="Homepage" transform="translate(0.000000, -4166.000000)" fill="#FBFBFB">
            <g id="Bg" transform="translate(-265.000000, 4166.000000)">
                <path d="M141.571647,147.903729 C227.382212,54.9640456 309.324267,5.82926656 387.397813,0.499392218 C504.508132,-7.49541929 511.313536,83.1478796 613.762279,83.1478796 C716.211021,83.1478796 757.052592,21.9370544 890.47921,43.6481275 C1023.90583,65.3592006 1100.1567,234.976959 983.743155,319.107368 C867.329607,403.237776 952.178391,465.657111 997.130713,529.433388 C1042.08303,593.209666 939.530829,737.497839 763.006375,663.770653 C645.323406,614.619196 553.013027,635.124099 486.075237,725.28536 C363.207725,815.545577 232.313886,769.157481 93.3937187,586.121073 C-45.5264486,403.084665 -29.4671391,257.012217 141.571647,147.903729 Z" id="Path-12"></path>
            </g>
        </g>
    </g>
</svg>