<?xml version="1.0" encoding="UTF-8"?>
<svg width="50px" height="48px" viewBox="0 0 50 48" version="1.1" xmlns="http://www.w3.org/2000/svg" xmlns:xlink="http://www.w3.org/1999/xlink">
    <!-- Generator: Sketch 54.1 (76490) - https://sketchapp.com -->
    <title>tools</title>
    <desc>Created with Sketch.</desc>
    <g id="Page-1-Copy" stroke="none" stroke-width="1" fill="none" fill-rule="evenodd">
        <g id="Web-App-Development" transform="translate(-1521.000000, -4925.000000)" fill="#000000" fill-rule="nonzero">
            <g id="tools" transform="translate(1521.000000, 4925.000000)">
                <path d="M49.8406176,36.8349412 C49.4212589,35.472 48.6672209,34.2334118 47.6458432,33.2302353 C46.0191211,31.6098824 43.8054632,30.7016471 41.4985748,30.7078824 C40.3195962,30.7084706 39.1528504,30.9454118 38.0686461,31.4043529 L29.5175772,22.9337647 L40.8714964,11.7714118 L43.5603325,11.6961176 C43.8856295,11.6863529 44.1831354,11.5122353 44.3489311,11.2349412 L48.1969121,4.82552941 C48.4205463,4.45564706 48.3617577,3.98247059 48.0543943,3.67729412 L44.7289786,0.383176471 C44.4209026,0.0787058824 43.9432304,0.0204705882 43.5698337,0.242 L37.0995249,4.05376471 C36.8195962,4.218 36.6438242,4.51270588 36.6339667,4.83494118 L36.5579572,7.48905882 L25.2325416,18.6890588 L17.4605701,10.9902353 C18.2766033,6.30329412 15.1024941,1.84847059 10.3710214,1.04011765 C8.17874109,0.665529412 5.92482185,1.13776471 4.07339667,2.35964706 C3.63871734,2.65082353 3.52458432,3.23588235 3.81852732,3.66647059 C3.90118765,3.78752941 4.0111639,3.88788235 4.13990499,3.95964706 L8.45344418,6.34082353 C9.40356295,6.87729412 9.5935867,8.47729412 8.8239905,9.83258824 C8.0543943,11.1878824 6.58171021,11.8843529 5.62209026,11.3572941 L1.62209026,9.21141176 C1.16235154,8.96082353 0.58456057,9.12694118 0.331710214,9.58235294 C0.244536817,9.73917647 0.204394299,9.91741176 0.216033254,10.0961176 C0.516627078,14.8429412 4.64501188,18.4495294 9.43693587,18.1517647 C10.4269596,18.0902353 11.3990499,17.8612941 12.3110451,17.4749412 L19.3799287,24.4772941 L16.3205463,27.5078824 L15.6269596,26.8302353 C14.8591449,26.1023529 13.6489311,26.1023529 12.8811164,26.8302353 L11.9309976,27.7714118 C11.2071259,28.4695294 11.1612827,29.6065882 11.8264846,30.3596471 L0.586579572,41.4749412 C-0.171615202,42.1936471 -0.198099762,43.3852941 0.527434679,44.1363529 C0.546674584,44.1563529 0.566389549,44.1758824 0.586579572,44.1949412 L3.797981,47.3761176 C4.52351544,48.1271765 5.72648456,48.1534118 6.48467933,47.4347059 C6.50486936,47.4156471 6.52458432,47.3961176 6.54382423,47.3761176 L17.7932304,36.242 C18.5534442,36.9009412 19.7013064,36.8555294 20.406057,36.1384706 L21.3561758,35.1972941 C22.1143705,34.4785882 22.1408551,33.2869412 21.4153207,32.5358824 C21.3960808,32.5158824 21.3763658,32.4963529 21.3561758,32.4772941 L20.6625891,31.7902353 L23.7029691,28.7125882 L32.9191211,37.842 C32.1229216,42.5323529 35.3157957,46.9738824 40.0507126,47.7625882 C42.8552257,48.2297647 45.7130641,47.3085882 47.7029691,45.2961176 C48.0519002,44.9078824 48.0172209,44.3130588 47.6252969,43.9672941 C47.5241093,43.878 47.4047506,43.8111765 47.2754157,43.7714118 L41.926247,42.3502353 C41.402019,42.1832941 40.9870546,41.7827059 40.8051069,41.2678824 C40.5271971,40.5581176 40.4938242,39.7772941 40.710095,39.0467059 C41.1091449,37.5690588 42.3728029,36.5149412 43.4369359,36.7972941 L48.7290974,38.2090588 C48.814133,38.2212941 48.9005938,38.2212941 48.9856295,38.2090588 C49.5103325,38.2154118 49.9408551,37.7991765 49.9471496,37.2794118 C49.9489311,37.1248235 49.9124703,36.9721176 49.8406176,36.8349412 Z M38.1446556,8.53376471 C38.315677,8.36317647 38.4142518,8.13411765 38.42019,7.89376471 L38.4961995,5.38082353 L43.8833729,2.20905882 L46.163658,4.46788235 L43.028266,9.79494118 L40.443943,9.88905882 C40.2013064,9.89494118 39.9700713,9.99258824 39.7978622,10.162 L28.2064133,21.6349412 L26.572209,20.0161176 L38.1446556,8.53376471 Z M5.19453682,46.0396471 L1.93562945,42.8302353 L13.2325416,31.6678824 L14.8667458,33.2867059 L16.4249406,34.8867059 L5.19453682,46.0396471 Z M19.0947743,34.7455294 L17.8406176,33.4937647 L17.356057,33.0137647 L13.3655582,29.0325882 L14.315677,28.0914118 L20.0163895,33.8137647 L19.0947743,34.7455294 Z M19.2752969,30.4537647 L17.6410926,28.8349412 L20.7004751,25.8043529 L22.3346793,27.4231765 L19.2752969,30.4537647 Z M43.9023753,34.9808235 C43.6204276,34.9057647 43.3296912,34.8677647 43.0377672,34.8678824 C40.9663895,35.0335294 39.2566508,36.5389412 38.8477435,38.5572941 C38.5235154,39.6907059 38.5869359,40.8985882 39.028266,41.9925882 C39.4355107,43.0454118 40.3187648,43.8471765 41.4130641,44.1572941 L44.9475059,45.0984706 C41.7244656,47.0009412 37.5547506,45.9550588 35.6342043,42.7624706 C34.7321853,41.2630588 34.4536817,39.4751765 34.8572447,37.7761176 C34.9295724,37.4601176 34.8326603,37.1294118 34.6007126,36.9008235 L13.1850356,15.6678824 C12.8809976,15.3849412 12.426247,15.3315294 12.0638955,15.5361176 C11.0827791,16.0489412 9.99026128,16.3171765 8.88099762,16.3172941 C6.02244656,16.3197647 3.46912114,14.5469412 2.49619952,11.8843529 L4.66247031,13.0796471 C5.16745843,13.3597647 5.73693587,13.5056471 6.31567696,13.5031765 C8.07482185,13.4028235 9.64821853,12.3852941 10.4486936,10.8302353 C11.7408551,8.54317647 11.2372922,5.82317647 9.33705463,4.76905882 L6.57220903,3.21611765 C10.1054632,1.96588235 13.9927553,3.78976471 15.2548694,7.28964706 C15.6928741,8.50447059 15.7692399,9.81835294 15.4748219,11.0749412 C15.4024941,11.3909412 15.4994062,11.7216471 15.7313539,11.9502353 L37.1945368,33.202 C37.487886,33.4929412 37.9380048,33.5616471 38.3061758,33.3714118 C39.2874109,32.8589412 40.37981,32.5908235 41.4890736,32.5902353 C43.8950119,32.5883529 46.1219715,33.8489412 47.3418052,35.9031765 L43.9023753,34.9808235 Z" id="Shape"></path>
            </g>
        </g>
    </g>
</svg>