<?xml version="1.0" encoding="UTF-8"?>
<svg width="56px" height="56px" viewBox="0 0 56 56" version="1.1" xmlns="http://www.w3.org/2000/svg" xmlns:xlink="http://www.w3.org/1999/xlink">
    <!-- Generator: Sketch 54.1 (76490) - https://sketchapp.com -->
    <title>transparency</title>
    <desc>Created with Sketch.</desc>
    <g id="Page-1-Copy" stroke="none" stroke-width="1" fill="none" fill-rule="evenodd">
        <g id="Web-App-Development" transform="translate(-1315.000000, -2466.000000)" fill="#7DBBF6" fill-rule="nonzero">
            <g id="transparency" transform="translate(1315.000000, 2466.000000)">
                <path d="M34.671875,0 C22.911499,0 13.34375,9.56774897 13.34375,21.328125 C13.34375,25.12677 14.3430786,28.6959839 16.0909424,31.7883911 L1.68206784,46.1976928 C0.597290094,47.2820435 0,48.723999 0,50.2578125 C0,51.791626 0.597290094,53.2335815 1.68206784,54.3183594 C2.80145261,55.4377441 4.2716065,55.9974365 5.7421875,55.9974365 C7.2127685,55.9974365 8.68334961,55.4377441 9.80230716,54.3179322 L24.2116089,39.9090576 C27.3040161,41.6569214 30.87323,42.65625 34.671875,42.65625 C46.432251,42.65625 56,33.088501 56,21.328125 C56,9.56774897 46.432251,6.21724894e-15 34.671875,0 Z M7.48236081,51.9979858 C6.52276614,52.9575806 4.96160886,52.9575806 4.00201419,51.9979858 C3.04241941,51.0383911 3.04241941,49.4772339 4.00201419,48.5176392 L13.034851,39.4848022 L16.5151978,42.965149 L7.48236081,51.9979858 Z M18.835144,40.6452026 L15.3547974,37.164856 L17.9580078,34.5616456 C18.9808349,35.850647 20.149353,37.0191651 21.4383544,38.0419922 L18.835144,40.6452026 Z M34.671875,39.375 C24.7208862,39.375 16.625,31.2791138 16.625,21.328125 C16.625,11.3771362 24.7208862,3.28125 34.671875,3.28125 C44.6228638,3.28125 52.71875,11.3771362 52.71875,21.328125 C52.71875,31.2791138 44.6228638,39.375 34.671875,39.375 Z" id="Shape"></path>
                <path d="M34.671875,6.5625 C26.5302734,6.5625 19.90625,13.1865234 19.90625,21.328125 C19.90625,29.4697266 26.5302734,36.09375 34.671875,36.09375 C42.8134766,36.09375 49.4375,29.4697266 49.4375,21.328125 C49.4375,13.1865234 42.8134766,6.5625 34.671875,6.5625 Z M34.671875,32.8125 C28.3392333,32.8125 23.1875,27.6607667 23.1875,21.328125 C23.1875,14.9954833 28.3392333,9.84375 34.671875,9.84375 C41.0045167,9.84375 46.15625,14.9954833 46.15625,21.328125 C46.15625,27.6607667 41.0045167,32.8125 34.671875,32.8125 Z" id="Shape"></path>
            </g>
        </g>
    </g>
</svg>