<?xml version="1.0" encoding="UTF-8"?>
<svg width="30px" height="30px" viewBox="0 0 30 30" version="1.1" xmlns="http://www.w3.org/2000/svg" xmlns:xlink="http://www.w3.org/1999/xlink">
    <!-- Generator: sketchtool 54.1 (76490) - https://sketchapp.com -->
    <title>8F587921-895E-4918-A3E5-4C595278E0D5</title>
    <desc>Created with sketchtool.</desc>
    <g id="Page-1" stroke="none" stroke-width="1" fill="none" fill-rule="evenodd" opacity="0.629394531">
        <g id="ABOUT-V2" transform="translate(-764.000000, -5258.000000)" fill="#000000" fill-rule="nonzero">
            <path d="M791,5258 L767,5258 C765.35,5258 764,5259.35 764,5261 L764,5285 C764,5286.65 765.35,5288 767,5288 L791,5288 C792.65,5288 794,5286.65 794,5285 L794,5261 C794,5259.35 792.65,5258 791,5258 Z M787.55,5268.95 C787.4,5275.85 783.05,5280.65 776.45,5280.95 C773.75,5281.1 771.8,5280.2 770,5279.15 C771.95,5279.45006 774.5,5278.70006 775.85,5277.5 C773.9,5277.35 772.7,5276.3 772.1,5274.65 C772.7,5274.8 773.3,5274.65 773.75,5274.65 C771.95,5274.05 770.75,5273 770.6,5270.6 C771.05,5270.9 771.65,5271.05 772.25,5271.05 C770.9,5270.3 770,5267.45 771.05,5265.65 C773,5267.75 775.4,5269.55 779.3,5269.85 C778.25,5265.65 783.950059,5263.4 786.200059,5266.25 C787.250059,5266.1 788.000059,5265.65 788.750059,5265.35 C788.450059,5266.4 787.850059,5267 787.100059,5267.6 C787.850059,5267.45 788.600059,5267.3 789.200059,5267 C789.05,5267.75 788.3,5268.35 787.55,5268.95 Z" id="Shape"></path>
        </g>
    </g>
</svg>